<svg width="78" height="69" viewBox="0 0 78 69" fill="none" xmlns="http://www.w3.org/2000/svg">
<path d="M16.091 20.4434V24.4579H14.775C13.8018 24.4579 13.1825 24.5928 12.9171 24.8514C12.6516 25.1213 12.5189 25.7848 12.5189 26.8531V42.2701C12.5189 43.3496 12.6516 44.0243 12.9281 44.2942C13.2046 44.5641 13.8239 44.6878 14.775 44.6878H16.091V48.7023H0V44.6878H1.33815C2.28924 44.6878 2.89749 44.5641 3.17397 44.2942C3.45045 44.0243 3.58316 43.3496 3.58316 42.2701V26.8643C3.58316 25.796 3.45045 25.1213 3.17397 24.8627C2.90855 24.604 2.3003 24.4691 1.33815 24.4691H0V20.4546H16.091V20.4434Z" fill="#004B91"/>
<path d="M19.0549 38.3007H22.9477C23.5892 40.4935 24.6619 42.1915 26.1549 43.4172C27.6479 44.643 29.4063 45.2614 31.4301 45.2614C32.6466 45.2614 33.6309 44.9915 34.3718 44.4518C35.1017 43.912 35.4777 43.2036 35.4777 42.3152C35.4777 40.9546 33.8852 39.8188 30.6891 38.8967C29.6496 38.6156 28.8423 38.3682 28.2451 38.177C26.3208 37.5698 24.8499 37.0638 23.8104 36.6364C22.7708 36.2091 22.0188 35.8155 21.5654 35.4445C20.4816 34.6011 19.6742 33.6452 19.1434 32.6219C18.6236 31.5874 18.3693 30.4067 18.3693 29.091C18.3693 26.246 19.3756 23.9632 21.3995 22.209C23.4122 20.466 26.0775 19.5889 29.3842 19.5889C31.0651 19.5889 32.6355 19.7688 34.0953 20.1061C35.5551 20.4547 36.9707 20.9833 38.331 21.7029L39.0609 20.2748H42.9316V30.0918H38.3863C37.9329 28.0902 37.0924 26.6058 35.8648 25.6275C34.6372 24.6492 32.9784 24.1544 30.9214 24.1544C29.7159 24.1544 28.7206 24.4355 27.9354 25.0203C27.1502 25.5938 26.7631 26.3022 26.7631 27.1343C26.7631 28.3938 28.2561 29.3496 31.2531 29.9906C31.983 30.1593 32.5581 30.283 32.9673 30.3842C37.1477 31.385 40.0783 32.6332 41.7593 34.1175C43.4403 35.6131 44.2808 37.6373 44.2808 40.2011C44.2808 43.0574 43.2523 45.3401 41.1732 47.0269C39.1051 48.7137 36.3182 49.5683 32.8125 49.5683C31.2089 49.5683 29.6606 49.3771 28.1787 49.006C26.6968 48.6237 25.2259 48.0502 23.7661 47.2855L22.7597 48.8486H19.066V38.3007H19.0549Z" fill="#004B91"/>
<path d="M46.6143 34.6128C46.6143 29.9236 48.0077 26.2577 50.7946 23.5926C53.5815 20.9275 57.419 19.6006 62.3403 19.6006C67.2174 19.6006 71.0549 20.9275 73.8308 23.5926C76.6066 26.2577 78.0001 29.9348 78.0001 34.6128C78.0001 39.2908 76.6066 42.9567 73.8197 45.6105C71.0328 48.2531 67.1842 49.58 62.2519 49.58C57.3748 49.58 53.5594 48.2531 50.7835 45.588C47.9966 42.9229 46.6143 39.257 46.6143 34.6128ZM62.3293 23.9075C60.5045 23.9075 59.1774 24.7508 58.348 26.4264C57.5075 28.1131 57.0983 30.8007 57.0983 34.5228C57.0983 38.3124 57.5075 41.045 58.3369 42.7318C59.1664 44.4185 60.4824 45.2619 62.2961 45.2619C64.1319 45.2619 65.4701 44.4298 66.2884 42.7543C67.1179 41.0787 67.5271 38.3799 67.5271 34.6465C67.5271 30.8907 67.1068 28.1581 66.2884 26.4601C65.448 24.7508 64.1319 23.9075 62.3293 23.9075Z" fill="#004B91"/>
<path d="M27.9907 12.6617L27.3493 12.5267C23.8103 11.7733 20.1608 10.9974 17.6393 8.44477L16.7767 9.33313C19.5526 12.1444 23.567 12.999 27.106 13.7637L27.7474 13.8986C35.6989 15.6191 46.8797 16.1027 55.0081 8.66967L54.1787 7.73633C46.4262 14.8095 35.6547 14.3147 27.9907 12.6617Z" fill="#004B91"/>
<path d="M40.6865 4.37438C38.5963 5.74628 35.5882 5.64508 32.9119 5.3752C30.1361 5.09407 28.4662 3.05871 28.4551 3.04746L27.504 3.83462C27.5925 3.93582 29.5057 6.28605 32.8014 6.6234C35.6767 6.91578 38.9502 7.00574 41.3501 5.43142C43.396 4.09326 44.1701 3.76715 44.1701 3.7559L43.7167 2.59766C43.6835 2.6089 42.8762 2.9575 40.6865 4.37438Z" fill="#004B91"/>
<mask id="mask0_4458_21024" style="mask-type:luminance" maskUnits="userSpaceOnUse" x="7" y="0" width="57" height="17">
<path d="M63.9217 0H7.86304V16.699H63.9217V0Z" fill="white"/>
</mask>
<g mask="url(#mask0_4458_21024)">
<path d="M7.88513 17.1603L8.86939 17.9138C17.1416 6.64616 33.7856 -1.48405 48.3615 5.61161C54.2892 8.5016 59.3211 12.9322 62.1633 17.7563L63.225 17.1154C60.2611 12.0775 55.0412 7.46705 48.9034 4.4871C33.7303 -2.90093 16.4449 5.49916 7.88513 17.1603Z" fill="#004B91"/>
</g>
<mask id="mask1_4458_21024" style="mask-type:luminance" maskUnits="userSpaceOnUse" x="7" y="0" width="57" height="17">
<path d="M63.9217 0H7.86304V16.699H63.9217V0Z" fill="white"/>
</mask>
<g mask="url(#mask1_4458_21024)">
<path d="M15.8035 17.0364L16.7435 17.846C19.8843 14.0227 24.5734 8.70374 29.0744 5.09406L28.3113 4.10449C23.7439 7.78164 18.9885 13.168 15.8035 17.0364Z" fill="#004B91"/>
</g>
<mask id="mask2_4458_21024" style="mask-type:luminance" maskUnits="userSpaceOnUse" x="7" y="0" width="57" height="17">
<path d="M63.9217 0H7.86304V16.699H63.9217V0Z" fill="white"/>
</mask>
<g mask="url(#mask2_4458_21024)">
<path d="M41.9031 4.47596C46.371 7.66957 51.2702 12.8086 54.3778 17.5653L55.4063 16.8681C52.2212 11.9877 47.2004 6.72498 42.6109 3.44141L41.9031 4.47596Z" fill="#004B91"/>
</g>
<mask id="mask3_4458_21024" style="mask-type:luminance" maskUnits="userSpaceOnUse" x="7" y="0" width="57" height="17">
<path d="M63.9217 0H7.86304V16.699H63.9217V0Z" fill="white"/>
</mask>
<g mask="url(#mask3_4458_21024)">
<path d="M38.7401 5.97137L39.3594 6.6011C39.835 7.14086 43.5177 13.9666 45.7184 18.1498L46.8022 17.5538C45.4198 14.9337 40.8635 6.3537 40.2331 5.71273L39.6138 5.08301L38.7401 5.97137Z" fill="#004B91"/>
</g>
<mask id="mask4_4458_21024" style="mask-type:luminance" maskUnits="userSpaceOnUse" x="7" y="0" width="57" height="17">
<path d="M63.9217 0H7.86304V16.699H63.9217V0Z" fill="white"/>
</mask>
<g mask="url(#mask4_4458_21024)">
<path d="M35.3282 6.3133L35.175 17.4336L36.4025 17.4511L36.5556 6.33077L35.3282 6.3133Z" fill="#004B91"/>
</g>
<mask id="mask5_4458_21024" style="mask-type:luminance" maskUnits="userSpaceOnUse" x="7" y="0" width="57" height="17">
<path d="M63.9217 0H7.86304V16.699H63.9217V0Z" fill="white"/>
</mask>
<g mask="url(#mask5_4458_21024)">
<path d="M30.0255 7.39962L24.5734 16.6993L25.635 17.3403L31.0761 8.05184L32.3037 6.01647L31.2531 5.36426L30.0255 7.39962Z" fill="#004B91"/>
</g>
<path d="M28.5546 55.1234L27.9132 55.2584C24.3743 56.0118 20.3598 56.8664 17.584 59.689L18.4577 60.5773C20.9791 58.0247 24.6286 57.2488 28.1676 56.4954L28.809 56.3604C36.484 54.7074 47.2446 54.2126 54.9859 61.2858L55.8154 60.3524C47.6869 52.9194 36.5061 53.4029 28.5546 55.1234Z" fill="#004B91"/>
<path d="M33.6197 62.3763C30.3241 62.7137 28.4109 65.0639 28.3224 65.1651L29.2735 65.9523C29.2845 65.9298 30.9655 63.9057 33.7303 63.6246C36.3955 63.3547 39.4147 63.2535 41.5049 64.6254C43.6835 66.0535 44.5019 66.3909 44.5351 66.4021L44.9995 65.2439C44.9995 65.2439 44.2254 64.9177 42.1795 63.5683C39.7686 62.0053 36.5061 62.084 33.6197 62.3763Z" fill="#004B91"/>
<mask id="mask6_4458_21024" style="mask-type:luminance" maskUnits="userSpaceOnUse" x="8" y="52" width="57" height="17">
<path d="M64.7401 52.3008H8.6814V68.9998H64.7401V52.3008Z" fill="white"/>
</mask>
<g mask="url(#mask6_4458_21024)">
<path d="M8.70349 51.8398C17.2743 63.501 34.5487 71.9123 49.7107 64.5243C55.8485 61.5331 61.0795 56.9339 64.0323 51.8961L62.9706 51.2551C60.1284 56.0905 55.0965 60.5211 49.1688 63.3998C34.5929 70.4955 17.9489 62.354 9.6767 51.0977L8.70349 51.8398Z" fill="#004B91"/>
</g>
<mask id="mask7_4458_21024" style="mask-type:luminance" maskUnits="userSpaceOnUse" x="8" y="52" width="57" height="17">
<path d="M64.7401 52.3008H8.6814V68.9998H64.7401V52.3008Z" fill="white"/>
</mask>
<g mask="url(#mask7_4458_21024)">
<path d="M16.6329 51.9747C19.818 55.843 24.5734 61.2294 29.1519 64.9065L29.9149 63.917C25.4139 60.3073 20.7248 54.9884 17.584 51.165L16.6329 51.9747Z" fill="#004B91"/>
</g>
<mask id="mask8_4458_21024" style="mask-type:luminance" maskUnits="userSpaceOnUse" x="8" y="52" width="57" height="17">
<path d="M64.7401 52.3008H8.6814V68.9998H64.7401V52.3008Z" fill="white"/>
</mask>
<g mask="url(#mask8_4458_21024)">
<path d="M42.7214 64.5244L43.4292 65.5477C48.0188 62.2641 53.0396 57.0014 56.2136 52.121L55.1851 51.4238C52.0885 56.1918 47.1893 61.3308 42.7214 64.5244Z" fill="#004B91"/>
</g>
<mask id="mask9_4458_21024" style="mask-type:luminance" maskUnits="userSpaceOnUse" x="8" y="52" width="57" height="17">
<path d="M64.7401 52.3008H8.6814V68.9998H64.7401V52.3008Z" fill="white"/>
</mask>
<g mask="url(#mask9_4458_21024)">
<path d="M40.1667 62.4105L39.5585 63.029L40.4321 63.9174L41.0515 63.2877C41.6818 62.6467 46.2382 54.0667 47.6316 51.4466L46.5478 50.8506C44.336 55.0338 40.6533 61.8595 40.1667 62.4105Z" fill="#004B91"/>
</g>
<mask id="mask10_4458_21024" style="mask-type:luminance" maskUnits="userSpaceOnUse" x="8" y="52" width="57" height="17">
<path d="M64.7401 52.3008H8.6814V68.9998H64.7401V52.3008Z" fill="white"/>
</mask>
<g mask="url(#mask10_4458_21024)">
<path d="M37.2244 51.5625L35.9969 51.5801L36.1473 62.7004L37.3748 62.6828L37.2244 51.5625Z" fill="#004B91"/>
</g>
<mask id="mask11_4458_21024" style="mask-type:luminance" maskUnits="userSpaceOnUse" x="8" y="52" width="57" height="17">
<path d="M64.7401 52.3008H8.6814V68.9998H64.7401V52.3008Z" fill="white"/>
</mask>
<g mask="url(#mask11_4458_21024)">
<path d="M25.4028 52.3006L30.8439 61.6116L32.0825 63.6469L33.1221 62.9947L31.8945 60.9481L26.4645 51.6709L25.4028 52.3006Z" fill="#004B91"/>
</g>
</svg>
