<svg width="137" height="64" viewBox="0 0 137 64" fill="none" xmlns="http://www.w3.org/2000/svg">
<g clip-path="url(#clip0_4462_21117)">
<path d="M0 38.209H25.6902V64.0005H0V38.209ZM27.8274 38.209H53.5177V64.0005H27.8274V38.209ZM55.6549 38.209H81.3451V64.0005H55.6549V38.209ZM83.4823 38.209H109.173V64.0005H83.4823V38.209ZM111.31 38.209H137V64.0005H111.31V38.209Z" fill="#00B67A"/>
<path d="M12.8451 55.5939L16.7522 54.5978L18.3851 59.6485L12.8451 55.5939ZM21.8324 49.0635H14.9549L12.8396 42.5605L10.7243 49.0635H3.8468L9.41426 53.0906L7.29899 59.5935L12.8664 55.5664L16.2912 53.0961L21.8313 49.069L21.8324 49.0635ZM40.6725 55.5939L44.5797 54.5978L46.2126 59.6485L40.6725 55.5939ZM49.6653 49.0635H42.7878L40.6725 42.5605L38.5572 49.0635H31.6797L37.2472 53.0906L35.1319 59.5935L40.6994 55.5664L44.1241 53.0961L49.6642 49.069L49.6653 49.0635ZM68.4999 55.5939L72.4071 54.5978L74.04 59.6485L68.4999 55.5939ZM77.4927 49.0635H70.6152L68.4999 42.5605L66.3847 49.0635H59.5072L65.0746 53.0906L62.9593 59.5935L68.5268 55.5664L71.9516 53.0961L77.4916 49.069V49.0635H77.4927ZM96.3274 55.5939L100.235 54.5978L101.867 59.6485L96.3274 55.5939ZM105.32 49.0635H98.4421L96.3268 42.5605L94.2116 49.0635H87.334L92.9015 53.0906L90.7862 59.5935L96.3537 55.5664L99.7785 53.0961L105.319 49.069V49.0635H105.32ZM124.155 55.5939L128.062 54.5978L129.695 59.6485L124.155 55.5939ZM133.147 49.0635H126.27L124.154 42.5605L122.039 49.0635H115.161L120.729 53.0906L118.614 59.5935L124.181 55.5664L127.606 53.0961L133.146 49.069V49.0635H133.147Z" fill="white"/>
<path d="M36.009 11.9658H49.8676V14.5572H44.4098V29.1583H41.4175V14.5572H35.9816L36.0035 11.9658H36.009ZM49.2762 16.7138H51.8354V19.1181H51.8793C51.9725 18.7769 52.1314 18.4522 52.3616 18.133C52.5919 17.8139 52.8659 17.5112 53.2058 17.2636C53.5237 16.9884 53.891 16.7793 54.3015 16.6197C54.6907 16.4601 55.1018 16.3666 55.5124 16.3666C55.9235 16.3666 56.0605 16.3886 56.1756 16.3886C56.2907 16.4106 56.4278 16.4326 56.5429 16.4326V19.068C56.362 19.024 56.1537 19.002 55.9509 18.9745C55.7481 18.9524 55.5617 18.9304 55.3589 18.9304C54.9039 18.9304 54.4709 19.024 54.0549 19.2056C53.6388 19.3872 53.2984 19.6623 52.981 20.009C52.685 20.3777 52.4329 20.8125 52.252 21.3402C52.0711 21.8679 51.9779 22.4843 51.9779 23.1721V29.0862H49.2378L49.2816 16.7078L49.2762 16.7138ZM69.0914 29.1583H66.3951V27.4144H66.3513C66.0114 28.0583 65.5071 28.5365 64.8444 28.9272C64.1812 29.3179 63.4966 29.4995 62.8114 29.4995C61.1894 29.4995 60.0055 29.1088 59.2715 28.2839C58.5425 27.4805 58.1758 26.2428 58.1758 24.6145V16.7083H60.9159V24.3388C60.9159 25.4388 61.1187 26.2203 61.5572 26.655C61.9684 27.1118 62.5603 27.3429 63.3162 27.3429C64.0721 27.3429 64.3681 27.2493 64.7518 27.0677C65.141 26.8861 65.4589 26.655 65.6891 26.3578C65.9413 26.0607 66.1002 25.692 66.2153 25.2798C66.3305 24.8671 66.3743 24.4103 66.3743 23.9266V16.7083H69.1145V29.1528H69.0925L69.0914 29.1583ZM73.7495 25.1697C73.8427 25.9732 74.1387 26.5229 74.6649 26.8641C75.1911 27.1833 75.8319 27.3484 76.5609 27.3484C77.29 27.3484 77.1091 27.3264 77.427 27.2823C77.7449 27.2383 78.0683 27.1668 78.3424 27.0512C78.6384 26.9357 78.8686 26.7761 79.0495 26.5449C79.2304 26.3138 79.3236 26.0387 79.3016 25.6975C79.2797 25.3563 79.1646 25.0536 78.9125 24.828C78.6603 24.6024 78.3643 24.4373 77.9971 24.2777C77.6298 24.1401 77.1968 24.0246 76.7205 23.9365C76.2381 23.843 75.7612 23.7329 75.2575 23.6173C74.7532 23.5018 74.2544 23.3642 73.7726 23.2046C73.2902 23.045 72.8846 22.8359 72.4959 22.5388C72.1287 22.2636 71.8108 21.9169 71.6079 21.4822C71.3777 21.0474 71.2681 20.5412 71.2681 19.9034C71.2681 19.2656 71.4271 18.6657 71.7724 18.209C72.0903 17.7522 72.5233 17.3835 73.0271 17.1089C73.5314 16.8338 74.1009 16.6247 74.7148 16.5146C75.3287 16.399 75.9257 16.355 76.4738 16.355C77.0219 16.355 77.7285 16.4211 78.2985 16.5586C78.8686 16.6962 79.4162 16.8998 79.8712 17.2245C80.3535 17.5217 80.7372 17.9344 81.0382 18.4181C81.3561 18.9024 81.5424 19.4961 81.6301 20.184H78.7749C78.6378 19.5181 78.3419 19.084 77.8869 18.8528C77.4045 18.6217 76.8838 18.5117 76.2649 18.5117C75.6455 18.5117 75.8319 18.5337 75.5798 18.5557C75.3057 18.5997 75.0755 18.6492 74.8288 18.7373C74.5986 18.8308 74.3958 18.9684 74.2368 19.128C74.0779 19.2876 73.9847 19.5187 73.9847 19.7939C73.9847 20.069 74.0998 20.3882 74.3245 20.5973C74.5547 20.8009 74.8507 20.966 75.2399 21.1256C75.6072 21.2632 76.0402 21.3787 76.5165 21.4668C76.9934 21.5548 77.4977 21.6704 78.0015 21.7859C78.5057 21.9015 78.9826 22.0391 79.4644 22.1987C79.9468 22.3583 80.3798 22.5674 80.7411 22.8645C81.1083 23.1397 81.4262 23.4864 81.6565 23.8936C81.8867 24.3063 81.9963 24.8346 81.9963 25.4284C81.9963 26.0222 81.8373 26.7816 81.492 27.3099C81.1522 27.8161 80.7137 28.2509 80.188 28.5695C79.6618 28.8887 79.0484 29.1198 78.4071 29.2794C77.7438 29.417 77.1031 29.5105 76.4672 29.5105C75.8314 29.5105 74.9604 29.417 74.2971 29.2354C73.6339 29.0538 73.0424 28.7786 72.5601 28.4319C72.0777 28.0632 71.694 27.6285 71.4205 27.0787C71.1464 26.5504 70.9875 25.9071 70.9655 25.1532H73.7276V25.1752H73.7495V25.1697ZM82.7697 16.7138H84.8466V12.9564H87.5868V16.6918H90.0529V18.7329H87.5868V25.3789C87.5868 25.676 87.6087 25.9071 87.6306 26.1328C87.6526 26.3364 87.7238 26.5235 87.7896 26.6611C87.8828 26.7986 88.0198 26.9142 88.1788 26.9802C88.3597 27.0463 88.5899 27.0958 88.9078 27.0958C89.2257 27.0958 89.297 27.0958 89.4779 27.0738C89.6588 27.0518 89.8671 27.0298 90.0479 26.9802V29.1093C89.7519 29.1534 89.4559 29.1754 89.16 29.2029C88.864 29.2469 88.5899 29.2469 88.272 29.2469C87.5429 29.2469 86.9679 29.1809 86.5349 29.0433C86.1019 28.9057 85.7565 28.7021 85.5099 28.449C85.2577 28.1738 85.0988 27.8547 85.0056 27.4639C84.9124 27.0732 84.8686 26.5945 84.8466 26.0887V18.7549H82.7697V16.6698V16.7138ZM91.9708 16.7138H94.552V18.4082H94.5959C94.985 17.6763 95.5113 17.1706 96.1959 16.8514C96.8811 16.5322 97.6095 16.3671 98.4317 16.3671C99.254 16.3671 100.257 16.5267 100.991 16.8954C101.72 17.2366 102.317 17.6989 102.794 18.3146C103.276 18.909 103.638 19.6238 103.868 20.4217C104.098 21.2197 104.235 22.0941 104.235 22.9911C104.235 23.8881 104.12 24.6415 103.917 25.4229C103.687 26.2043 103.369 26.9136 102.936 27.508C102.503 28.1023 101.955 28.586 101.27 28.9492C100.585 29.3179 99.807 29.4995 98.8971 29.4995C97.9872 29.4995 98.0968 29.4555 97.7082 29.3839C97.319 29.3179 96.9298 29.2023 96.5686 29.0428C96.2014 28.8832 95.8615 28.6741 95.5655 28.4209C95.2476 28.1678 94.9955 27.8706 94.7872 27.5514H94.7433V33.7627H92.0032V16.7083H91.9812L91.9708 16.7138ZM101.539 22.9471C101.539 22.3968 101.473 21.847 101.308 21.3187C101.171 20.7904 100.941 20.3337 100.645 19.9215C100.349 19.5088 99.9819 19.1896 99.5713 18.9365C99.1383 18.6833 98.634 18.5678 98.0864 18.5678C96.9468 18.5678 96.0753 18.9585 95.4833 19.7614C94.9132 20.5648 94.6172 21.6429 94.6172 22.9685C94.6172 24.2942 94.683 24.1842 94.8475 24.7124C95.0119 25.2407 95.2147 25.6975 95.5326 26.0876C95.8286 26.4784 96.1959 26.7755 96.6284 27.0066C97.0614 27.2378 97.5438 27.3478 98.1133 27.3478C98.6828 27.3478 99.2529 27.2103 99.6859 26.9571C100.119 26.704 100.464 26.3628 100.76 25.9721C101.034 25.5594 101.242 25.1026 101.352 24.5749C101.467 24.0246 101.533 23.4968 101.533 22.9465L101.539 22.9471ZM106.356 11.9658H109.096V14.5572H106.356V11.9658ZM106.356 16.7138H109.096V29.1583H106.356V16.7138ZM111.54 11.9658H114.28V29.1583H111.54V11.9658ZM122.637 29.505C121.655 29.505 120.762 29.3454 119.99 28.9987C119.211 28.6575 118.576 28.2173 118.028 27.6455C117.502 27.0732 117.09 26.3639 116.817 25.5605C116.543 24.757 116.384 23.8661 116.384 22.9251C116.384 21.984 116.521 21.1151 116.817 20.3117C117.091 19.5082 117.502 18.8209 118.028 18.2266C118.554 17.6543 119.217 17.1975 119.99 16.8734C120.768 16.5542 121.655 16.3671 122.637 16.3671C123.618 16.3671 124.511 16.5267 125.284 16.8734C126.062 17.1926 126.697 17.6548 127.245 18.2266C127.771 18.7989 128.183 19.5082 128.456 20.3117C128.73 21.1151 128.889 21.984 128.889 22.9251C128.889 23.8661 128.752 24.757 128.456 25.5605C128.16 26.3639 127.771 27.0512 127.245 27.6455C126.719 28.2179 126.056 28.6746 125.284 28.9987C124.505 29.3179 123.64 29.505 122.637 29.505ZM122.637 27.3264C123.229 27.3264 123.776 27.1888 124.215 26.9357C124.67 26.6825 125.015 26.3413 125.31 25.9286C125.606 25.5159 125.815 25.0371 125.952 24.5314C126.089 24.0031 126.16 23.4748 126.16 22.9251C126.16 22.3748 126.094 21.8685 125.952 21.3462C125.815 20.818 125.612 20.3612 125.31 19.949C125.009 19.5363 124.647 19.2171 124.215 18.964C123.76 18.7109 123.233 18.5733 122.637 18.5733C122.039 18.5733 121.497 18.7109 121.058 18.964C120.603 19.2171 120.258 19.5583 119.963 19.949C119.667 20.3618 119.458 20.8185 119.321 21.3462C119.184 21.8745 119.113 22.4028 119.113 22.9251C119.113 23.4478 119.179 24.0031 119.321 24.5314C119.458 25.0597 119.661 25.5164 119.963 25.9286C120.259 26.3413 120.626 26.6825 121.058 26.9357C121.513 27.2108 122.04 27.3264 122.637 27.3264ZM129.717 16.7138H131.794V12.9564H134.534V16.6918H137V18.7329H134.534V25.3789C134.534 25.676 134.556 25.9071 134.578 26.1328C134.6 26.3364 134.671 26.5235 134.737 26.6611C134.83 26.7986 134.967 26.9142 135.126 26.9802C135.307 27.0463 135.537 27.0958 135.855 27.0958C136.173 27.0958 136.244 27.0958 136.425 27.0738C136.606 27.0518 136.814 27.0298 136.995 26.9802V29.1093C136.699 29.1534 136.403 29.1754 136.102 29.2029C135.806 29.2469 135.532 29.2469 135.208 29.2469C134.479 29.2469 133.904 29.1809 133.471 29.0433C133.038 28.9057 132.693 28.7021 132.446 28.449C132.194 28.1738 132.035 27.8547 131.942 27.4639C131.849 27.0732 131.805 26.5945 131.783 26.0887V18.7549H129.706V16.6698V16.7138H129.717Z" fill="black"/>
<path d="M32.8144 11.9657H20.2757L16.4179 0L12.5382 11.9657L0 11.9437L10.1379 19.3491L6.25812 31.3149L16.396 23.9095L26.5338 31.3149L22.676 19.3491L32.8144 11.9657Z" fill="#00B67A"/>
<path d="M23.542 22.0507L22.676 19.3438L16.4178 23.9046L23.542 22.0452V22.0507Z" fill="#005128"/>
</g>
<defs>
<clipPath id="clip0_4462_21117">
<rect width="137" height="64" fill="white"/>
</clipPath>
</defs>
</svg>
