<svg width="77" height="72" viewBox="0 0 77 72" fill="none" xmlns="http://www.w3.org/2000/svg">
<g clip-path="url(#clip0_4458_20964)">
<path d="M15.4884 19.7549H11.3278V48.042H15.1265V35.5212H16.1006C21.5738 35.5212 24.8405 32.5331 24.8405 27.5311C24.8405 22.7371 21.255 19.7549 15.4884 19.7549ZM15.9129 32.3628H15.1265V22.9153H15.5823C19.2069 22.9153 21.0418 24.4123 21.0418 27.3608C21.0418 30.6321 19.2676 32.3628 15.9129 32.3628Z" fill="#282828"/>
<path d="M44.1805 44.8836V34.8777H51.1188V31.7232H44.1805V22.9133H51.7682V19.7549H40.1431V48.042H52.1692V44.8836H44.1805Z" fill="#282828"/>
<path d="M64.3674 32.9529L64.0935 32.844L64.3576 32.7153C67.3505 31.2381 68.6317 29.4321 68.6317 26.6777C68.6317 22.4757 65.2516 19.7549 60.0229 19.7549H55.0055V48.042H59.3735C65.4491 48.042 69.3789 44.8539 69.3789 39.9232C69.3809 36.6361 67.6947 34.2915 64.3674 32.9529ZM59.0448 22.9133H59.5202C62.6969 22.9133 64.5943 24.448 64.5943 27.0202C64.5943 30.046 62.7164 31.8519 59.573 31.8519H59.0468V22.9133H59.0448ZM59.8214 44.8836H59.0448V35.0064H59.9212C63.2681 35.0064 65.3435 36.941 65.3435 40.0519C65.3415 43.1252 63.3326 44.8836 59.8214 44.8836Z" fill="#282828"/>
<path d="M40.3916 10.125C36.0099 14.0696 30.6032 20.0101 31.2918 26.3389C31.5559 28.6696 32.8821 30.6299 34.3257 32.3785C35.9512 34.4418 37.0545 36.9983 37.2657 39.6438C37.6296 44.1012 35.3683 48.3923 32.5046 51.4913C30.969 53.2458 29.1753 54.6814 27.3972 56.0755L28.4554 54.7408C31.4718 50.8458 35.0299 45.4181 33.3594 40.3666C32.8958 39.0537 32.1349 37.8299 31.3192 36.7131C30.6776 35.8834 29.9323 35.0042 29.2927 34.1448C22.4893 24.7567 32.573 14.62 40.3916 10.125Z" fill="#412774"/>
<path d="M4.90392 4.98793C4.80611 5.17407 4.64767 5.32655 4.4325 5.44536C4.21537 5.56219 3.93956 5.6216 3.60115 5.6216H2.85784V7.30477H2.18494V3.15625H3.5992C3.91413 3.15625 4.18016 3.2117 4.39729 3.32061C4.61441 3.42952 4.77873 3.57803 4.88631 3.76417C4.9939 3.95031 5.04867 4.16021 5.04867 4.39189C5.05063 4.60179 5.00172 4.80179 4.90392 4.98793ZM4.17234 4.8909C4.29753 4.77407 4.36012 4.60774 4.36012 4.39189C4.36012 3.93843 4.10583 3.71071 3.5992 3.71071H2.85588V5.06516H3.5992C3.8574 5.06714 4.04715 5.00774 4.17234 4.8909Z" fill="#282828"/>
<path d="M14.7588 6.45729H13.0433L12.7479 7.30482H12.0457L13.5127 3.15234H14.2913L15.7583 7.30482H15.0502L14.7588 6.45729ZM14.571 5.90284L13.904 3.97413L13.2311 5.90284H14.571Z" fill="#282828"/>
<path d="M25.2512 7.30477L23.6648 5.44932V7.30477H22.9919V3.15625H23.6648V5.04734L25.2571 3.15625H26.1002L24.3201 5.23348L26.1295 7.30477H25.2512Z" fill="#282828"/>
<path d="M33.9931 3.15625V7.30278H33.3202V3.15625H33.9931Z" fill="#282828"/>
<path d="M42.0797 7.19952C41.8586 7.10249 41.6865 6.96387 41.5613 6.78565C41.4361 6.60744 41.3735 6.39753 41.3735 6.15793H42.0934C42.109 6.33615 42.1794 6.48466 42.3027 6.59952C42.4259 6.71437 42.6 6.77179 42.825 6.77179C43.0558 6.77179 43.2377 6.71437 43.3668 6.6015C43.4959 6.48862 43.5624 6.34209 43.5624 6.16387C43.5624 6.02526 43.5213 5.91041 43.4411 5.82328C43.3609 5.73615 43.2592 5.66882 43.1399 5.6213C43.0206 5.57377 42.8543 5.52229 42.6411 5.46684C42.3731 5.39555 42.156 5.32229 41.9897 5.24902C41.8215 5.17575 41.6806 5.0609 41.5613 4.90645C41.444 4.75199 41.3853 4.54407 41.3853 4.28664C41.3853 4.04704 41.444 3.83912 41.5613 3.6609C41.6787 3.48268 41.845 3.34407 42.0562 3.24902C42.2694 3.15397 42.5139 3.10645 42.7937 3.10645C43.1908 3.10645 43.5155 3.20744 43.7698 3.40744C44.0221 3.60744 44.1629 3.88466 44.1903 4.23318H43.447C43.4353 4.08268 43.3648 3.95199 43.2338 3.84506C43.1027 3.73813 42.9325 3.68466 42.7213 3.68466C42.5296 3.68466 42.3711 3.73417 42.2499 3.83318C42.1286 3.93219 42.066 4.07476 42.066 4.26288C42.066 4.38961 42.1051 4.49456 42.1814 4.57575C42.2577 4.65694 42.3555 4.72229 42.4729 4.76981C42.5902 4.81734 42.7526 4.86882 42.956 4.92427C43.226 4.99952 43.447 5.07476 43.6191 5.15199C43.7893 5.22724 43.936 5.34407 44.0554 5.50051C44.1747 5.65694 44.2353 5.86684 44.2353 6.13021C44.2353 6.34011 44.1805 6.54011 44.0671 6.72625C43.9556 6.91239 43.7913 7.06288 43.5781 7.17773C43.3648 7.2906 43.1125 7.34803 42.8211 7.34803C42.5472 7.34605 42.3007 7.29655 42.0797 7.19952Z" fill="#282828"/>
<path d="M54.276 3.15625V3.71071H53.1845V7.30278H52.5116V3.71071H51.4161V3.15625H54.276Z" fill="#282828"/>
<path d="M64.0193 6.45729H62.3038L62.0084 7.30482H61.3062L62.7732 3.15234H63.5518L65.0188 7.30482H64.3107L64.0193 6.45729ZM63.8315 5.90284L63.1664 3.97413L62.4935 5.90284H63.8315Z" fill="#282828"/>
<path d="M75.6189 7.30485H74.946L72.9253 4.20782V7.30485H72.2524V3.15039H72.9253L74.946 6.24148V3.15039H75.6189V7.30485Z" fill="#282828"/>
<path d="M2.895 63.5229C2.67396 63.4259 2.50183 63.2872 2.37468 63.107C2.24949 62.9269 2.18494 62.7189 2.18494 62.4793H2.90478C2.92043 62.6595 2.99085 62.8061 3.11409 62.9209C3.23732 63.0377 3.41141 63.0952 3.63636 63.0952C3.86914 63.0952 4.0491 63.0397 4.18016 62.9249C4.30926 62.812 4.37577 62.6655 4.37577 62.4853C4.37577 62.3467 4.33469 62.2318 4.25449 62.1447C4.17429 62.0575 4.07257 61.9902 3.95325 61.9407C3.83393 61.8932 3.66766 61.8417 3.45445 61.7863C3.18646 61.715 2.96933 61.6417 2.80111 61.5684C2.63288 61.4952 2.49009 61.3803 2.37272 61.2239C2.25536 61.0694 2.19472 60.8615 2.19472 60.6021C2.19472 60.3625 2.2534 60.1546 2.37272 59.9744C2.49204 59.7942 2.65636 59.6575 2.86957 59.5625C3.08279 59.4674 3.3273 59.4199 3.60702 59.4199C4.00411 59.4199 4.33078 59.5209 4.58507 59.7229C4.83937 59.9249 4.98021 60.2001 5.00759 60.5506H4.26427C4.25254 60.4001 4.18212 60.2694 4.05106 60.1625C3.92195 60.0556 3.74982 60.0001 3.5366 60.0001C3.34295 60.0001 3.18646 60.0496 3.06323 60.1506C2.94195 60.2496 2.87935 60.3942 2.87935 60.5803C2.87935 60.707 2.91847 60.812 2.99476 60.8952C3.07105 60.9764 3.16886 61.0417 3.28622 61.0892C3.40359 61.1368 3.56594 61.1882 3.77134 61.2457C4.04323 61.3209 4.26427 61.3962 4.43641 61.4734C4.60855 61.5486 4.7533 61.6655 4.87262 61.8239C4.99194 61.9823 5.05258 62.1922 5.05258 62.4536C5.05258 62.6655 4.99586 62.8635 4.88436 63.0516C4.77286 63.2397 4.60855 63.3882 4.39338 63.5031C4.1782 63.616 3.92587 63.6734 3.63441 63.6734C3.36251 63.6694 3.11604 63.6199 2.895 63.5229Z" fill="#282828"/>
<path d="M12.564 63.3981C12.2432 63.2159 11.9889 62.9644 11.803 62.6397C11.6153 62.3149 11.5233 61.9486 11.5233 61.5427C11.5233 61.1367 11.6172 60.7724 11.803 60.4496C11.9908 60.1268 12.2432 59.8753 12.564 59.6932C12.8848 59.511 13.2369 59.4219 13.6183 59.4219C14.0037 59.4219 14.3577 59.513 14.6785 59.6932C14.9993 59.8753 15.2516 60.1268 15.4375 60.4496C15.6233 60.7724 15.7152 61.1367 15.7152 61.5427C15.7152 61.9486 15.6233 62.3149 15.4375 62.6397C15.2516 62.9644 14.9993 63.2179 14.6785 63.3981C14.3577 63.5803 14.0037 63.6694 13.6183 63.6694C13.2349 63.6694 12.8848 63.5783 12.564 63.3981ZM14.344 62.8892C14.5572 62.7645 14.7235 62.5843 14.8428 62.3506C14.9621 62.1169 15.0228 61.8476 15.0228 61.5407C15.0228 61.2338 14.9621 60.9645 14.8428 60.7347C14.7235 60.5031 14.5572 60.3268 14.344 60.2021C14.1308 60.0793 13.8902 60.0179 13.6183 60.0179C13.3464 60.0179 13.1038 60.0793 12.8926 60.2021C12.6794 60.3268 12.5131 60.5031 12.3938 60.7347C12.2745 60.9664 12.2138 61.2357 12.2138 61.5407C12.2138 61.8476 12.2745 62.1169 12.3938 62.3506C12.5131 62.5843 12.6794 62.7625 12.8926 62.8892C13.1058 63.014 13.3464 63.0773 13.6183 63.0773C13.8902 63.0773 14.1308 63.014 14.344 62.8892Z" fill="#282828"/>
<path d="M24.682 59.4736V60.0301H22.9411V61.2558H24.2986V61.8122H22.9411V63.6301H22.2682V59.4756H24.682V59.4736Z" fill="#282828"/>
<path d="M33.8523 59.4736V60.0301H32.7608V63.6281H32.0879V60.0301H30.9885V59.4736H33.8523Z" fill="#282828"/>
<path d="M45.7689 59.4736L44.5522 63.6281H43.7913L42.9286 60.4835L42.0132 63.6281L41.2581 63.634L40.0942 59.4736H40.8082L41.6591 62.8558L42.5804 59.4736H43.3355L44.1923 62.838L45.049 59.4736H45.7689Z" fill="#282828"/>
<path d="M54.6907 62.7787H52.9732L52.6778 63.6282H51.9756L53.4466 59.4678H54.2271L55.698 63.6282H54.9899L54.6907 62.7787ZM54.5009 62.2222L53.8339 60.2915L53.161 62.2222H54.5009Z" fill="#282828"/>
<path d="M64.3558 63.6281L63.411 61.9667H62.8985V63.6281H62.2256V59.4736H63.6438C63.9587 59.4736 64.2247 59.5291 64.4438 59.642C64.6629 59.7528 64.8252 59.9033 64.9348 60.0895C65.0424 60.2776 65.0971 60.4855 65.0971 60.7172C65.0971 60.9885 65.0189 61.234 64.8644 61.4558C64.7079 61.6776 64.4692 61.8281 64.1465 61.9073L65.1617 63.6281H64.3558ZM62.8985 61.4221H63.6418C63.8941 61.4221 64.0839 61.3588 64.211 61.2301C64.3382 61.1033 64.4027 60.9311 64.4027 60.7152C64.4027 60.4994 64.3401 60.333 64.213 60.2103C64.0878 60.0895 63.8961 60.0281 63.6398 60.0281H62.8965V61.4221H62.8985Z" fill="#282828"/>
<path d="M72.5225 60.0242V61.244H73.9407V61.8004H72.5225V63.0737H74.1167V63.6301H71.8496V59.4697H74.1167V60.0262H72.5225V60.0242Z" fill="#282828"/>
<path d="M2.84805 65.7887V66.9887H4.24275V67.5352H2.84805V68.7887H4.41685V69.3352H2.18689V65.2441H4.41685V65.7907H2.84805V65.7887Z" fill="#282828"/>
<path d="M9.73546 67.2936L10.9893 69.3332H10.246L9.33446 67.852L8.47965 69.3332H7.7422L8.99606 67.2936L7.73633 65.248H8.47965L9.39706 66.7411L10.2558 65.248H10.9932L9.73546 67.2936Z" fill="#282828"/>
<path d="M17.0494 67.052C16.9516 67.2362 16.797 67.3867 16.5838 67.5015C16.3706 67.6164 16.0987 67.6758 15.7642 67.6758H15.0326V69.3332H14.3715V65.248H15.7662C16.0752 65.248 16.3393 65.3015 16.5525 65.4104C16.7677 65.5174 16.9281 65.6639 17.0337 65.848C17.1413 66.0322 17.1941 66.2381 17.1941 66.4659C17.1941 66.6718 17.1452 66.8678 17.0494 67.052ZM16.3276 66.955C16.4508 66.8401 16.5134 66.6758 16.5134 66.4639C16.5134 66.0164 16.263 65.7946 15.7642 65.7946H15.0326V67.1292H15.7642C16.0165 67.1292 16.2043 67.0718 16.3276 66.955Z" fill="#282828"/>
<path d="M21.2862 69.1072C20.9713 68.929 20.7209 68.6795 20.537 68.3607C20.3532 68.0419 20.2612 67.6815 20.2612 67.2815C20.2612 66.8815 20.3532 66.523 20.537 66.2062C20.7209 65.8894 20.9713 65.6419 21.2862 65.4617C21.6012 65.2834 21.9474 65.1943 22.323 65.1943C22.7024 65.1943 23.0506 65.2834 23.3656 65.4617C23.6805 65.6399 23.9289 65.8874 24.1128 66.2062C24.2947 66.523 24.3847 66.8815 24.3847 67.2815C24.3847 67.6815 24.2928 68.0399 24.1128 68.3607C23.9309 68.6795 23.6825 68.929 23.3656 69.1072C23.0506 69.2854 22.7024 69.3745 22.323 69.3745C21.9474 69.3745 21.6012 69.2854 21.2862 69.1072ZM23.0369 68.6062C23.2462 68.4834 23.4086 68.3072 23.5279 68.0775C23.6453 67.8478 23.7059 67.5825 23.7059 67.2815C23.7059 66.9785 23.6472 66.7151 23.5279 66.4874C23.4106 66.2597 23.2462 66.0854 23.0369 65.9646C22.8276 65.8438 22.589 65.7825 22.323 65.7825C22.0569 65.7825 21.8183 65.8438 21.609 65.9646C21.3997 66.0854 21.2373 66.2617 21.118 66.4874C21.0006 66.7151 20.94 66.9785 20.94 67.2815C20.94 67.5825 20.9987 67.8478 21.118 68.0775C21.2354 68.3072 21.3997 68.4834 21.609 68.6062C21.8183 68.731 22.0569 68.7924 22.323 68.7924C22.589 68.7924 22.8276 68.731 23.0369 68.6062Z" fill="#282828"/>
<path d="M29.7855 69.3332L28.8564 67.6995H28.3517V69.3332H27.6906V65.248H29.0853C29.3943 65.248 29.6584 65.3035 29.8716 65.4124C30.0868 65.5233 30.2472 65.6698 30.3528 65.854C30.4584 66.0381 30.5132 66.2441 30.5132 66.4718C30.5132 66.7391 30.4369 66.9807 30.2843 67.1985C30.1318 67.4164 29.897 67.5649 29.5782 67.6421L30.5778 69.3352H29.7855V69.3332ZM28.3517 67.1649H29.0833C29.3317 67.1649 29.5176 67.1015 29.6447 66.9768C29.7699 66.852 29.8344 66.6837 29.8344 66.4718C29.8344 66.2599 29.7718 66.0936 29.6486 65.9748C29.5254 65.856 29.3376 65.7946 29.0853 65.7946H28.3537V67.1649H28.3517Z" fill="#282828"/>
<path d="M36.6201 65.248V65.7946H35.5462V69.3332H34.8851V65.7946H33.8053V65.248H36.6201Z" fill="#282828"/>
<path d="M46.8193 67.5807C46.9699 67.7728 47.0462 67.9906 47.0462 68.2322C47.0462 68.4401 46.9934 68.6282 46.8858 68.7946C46.7802 68.9609 46.6257 69.0916 46.4242 69.1886C46.2227 69.2857 45.988 69.3332 45.7219 69.3332H44.1082V65.248H45.6476C45.9234 65.248 46.1581 65.2956 46.3557 65.3886C46.5533 65.4817 46.7019 65.6084 46.8037 65.7669C46.9034 65.9253 46.9543 66.1035 46.9543 66.2995C46.9543 66.5352 46.8917 66.7312 46.7685 66.8877C46.6452 67.0441 46.4789 67.1609 46.2696 67.2342C46.4848 67.2738 46.6687 67.3886 46.8193 67.5807ZM44.7693 66.9649H45.5889C45.806 66.9649 45.9743 66.9154 46.0975 66.8144C46.2188 66.7154 46.2814 66.5708 46.2814 66.3827C46.2814 66.1985 46.2207 66.054 46.0975 65.951C45.9762 65.8461 45.806 65.7946 45.5889 65.7946H44.7693V66.9649ZM46.1934 68.6223C46.3205 68.5114 46.3851 68.3589 46.3851 68.1629C46.3851 67.9629 46.3166 67.8045 46.1816 67.6857C46.0466 67.5688 45.8667 67.5094 45.6417 67.5094H44.7713V68.7847H45.6652C45.8882 68.7867 46.0643 68.7312 46.1934 68.6223Z" fill="#282828"/>
<path d="M51.2245 69.1072C50.9095 68.929 50.6591 68.6795 50.4753 68.3607C50.2914 68.0419 50.1995 67.6815 50.1995 67.2815C50.1995 66.8815 50.2914 66.523 50.4753 66.2062C50.6591 65.8894 50.9095 65.6419 51.2245 65.4617C51.5394 65.2834 51.8856 65.1943 52.2612 65.1943C52.6407 65.1943 52.9889 65.2834 53.3038 65.4617C53.6187 65.6399 53.8672 65.8874 54.051 66.2062C54.2329 66.523 54.3249 66.8815 54.3249 67.2815C54.3249 67.6815 54.2329 68.0399 54.051 68.3607C53.8691 68.6795 53.6207 68.929 53.3038 69.1072C52.9889 69.2854 52.6407 69.3745 52.2612 69.3745C51.8856 69.3745 51.5413 69.2854 51.2245 69.1072ZM52.9752 68.6062C53.1845 68.4834 53.3488 68.3072 53.4661 68.0775C53.5835 67.8478 53.6442 67.5825 53.6442 67.2815C53.6442 66.9785 53.5855 66.7151 53.4661 66.4874C53.3488 66.2597 53.1845 66.0854 52.9752 65.9646C52.7659 65.8438 52.5272 65.7825 52.2612 65.7825C51.9932 65.7825 51.7565 65.8438 51.5472 65.9646C51.3379 66.0854 51.1736 66.2617 51.0562 66.4874C50.9389 66.7151 50.8782 66.9785 50.8782 67.2815C50.8782 67.5825 50.9369 67.8478 51.0562 68.0775C51.1736 68.3072 51.3379 68.4834 51.5472 68.6062C51.7565 68.731 51.9952 68.7924 52.2612 68.7924C52.5292 68.7924 52.7678 68.731 52.9752 68.6062Z" fill="#282828"/>
<path d="M60.0622 68.4996H58.3721L58.0826 69.3352H57.3921L58.8377 65.2441H59.6044L61.05 69.3352H60.3536L60.0622 68.4996ZM59.8763 67.9531L59.221 66.054L58.5599 67.9531H59.8763Z" fill="#282828"/>
<path d="M66.4273 69.3332L65.4981 67.6995H64.9934V69.3332H64.3323V65.248H65.725C66.0341 65.248 66.2962 65.3035 66.5114 65.4124C66.7265 65.5233 66.8869 65.6698 66.9945 65.854C67.1002 66.0381 67.153 66.2441 67.153 66.4718C67.153 66.7391 67.0767 66.9807 66.9241 67.1985C66.7715 67.4164 66.5368 67.5649 66.218 67.6421L67.2175 69.3352H66.4273V69.3332ZM64.9934 67.1649H65.725C65.9734 67.1649 66.1593 67.1015 66.2845 66.9768C66.4097 66.852 66.4742 66.6837 66.4742 66.4718C66.4742 66.2599 66.4116 66.0936 66.2884 65.9748C66.1651 65.856 65.9754 65.7946 65.725 65.7946H64.9934V67.1649Z" fill="#282828"/>
<path d="M73.1033 65.4976C73.4261 65.6639 73.6765 65.9035 73.8525 66.2144C74.0286 66.5253 74.1166 66.8896 74.1166 67.3055C74.1166 67.7213 74.0286 68.0817 73.8525 68.3867C73.6765 68.6916 73.4261 68.9273 73.1033 69.0896C72.7806 69.252 72.4031 69.3332 71.9747 69.3332H70.6562V65.248H71.9747C72.4031 65.248 72.7786 65.3312 73.1033 65.4976ZM73.0603 68.3985C73.3126 68.1391 73.4378 67.7748 73.4378 67.3055C73.4378 66.8322 73.3126 66.4619 73.0603 66.1946C72.808 65.9273 72.4461 65.7946 71.9747 65.7946H71.3194V68.7867H71.9747C72.4461 68.7867 72.808 68.6579 73.0603 68.3985Z" fill="#282828"/>
<path d="M77 0H0V0.930693H77V0Z" fill="#412774"/>
<path d="M37.4965 9.31445H0V10.2451H37.4965V9.31445Z" fill="#412774"/>
<path d="M77 9.31445H42.2107V10.2451H77V9.31445Z" fill="#412774"/>
<path d="M29.1085 57.2783L76.9998 57.2783V56.3476L29.1085 56.3476V57.2783Z" fill="#412774"/>
<path d="M0.000732422 72L77.0007 72V71.0693L0.000732422 71.0693V72Z" fill="#412774"/>
<path d="M0.000980377 57.2783H25.8274V56.3476H0.000980377V57.2783Z" fill="#412774"/>
</g>
<defs>
<clipPath id="clip0_4458_20964">
<rect width="77" height="72" fill="white"/>
</clipPath>
</defs>
</svg>
