<svg width="120" height="33" viewBox="0 0 120 33" fill="none" xmlns="http://www.w3.org/2000/svg">
<g clip-path="url(#clip0_4458_20950)">
<path d="M31.2235 0H36.6867V33H31.2235V0ZM55.8078 22.473C55.8078 27.5232 51.4141 27.9261 50.1069 27.9261C46.8413 27.9261 46.2472 24.9719 46.2472 23.19V10.56H40.7841V23.1636C40.7841 26.2919 41.8002 28.8738 43.5814 30.5953C45.1547 32.1172 47.5122 32.9489 50.0661 32.9489C51.877 32.9489 54.442 32.4036 55.8078 31.1987V33H61.2709V10.56H55.8078V22.473ZM72.1973 2.64H66.7341V10.56H62.6367V15.84H66.7341V33H72.1973V15.84H76.2946V10.56H72.1973V2.64ZM93.4996 26.2905C92.31 27.3241 90.7392 27.8968 89.0156 27.8968C85.216 27.8968 82.4258 25.2002 82.4258 21.4973C82.4258 17.7945 85.1271 15.2116 89.0156 15.2116C90.7094 15.2116 92.31 15.7569 93.5294 16.7901L94.3582 17.4793L98.0417 13.9208L97.1196 13.1169C94.9523 11.2256 92.0742 10.1641 89.0137 10.1641C82.1847 10.1641 77.2253 14.9266 77.2253 21.47C77.2253 27.9855 82.3034 32.9183 89.0137 32.9183C92.1319 32.9183 95.0397 31.8568 97.1796 29.9353L98.07 29.1314L94.329 25.5752L93.4996 26.2905ZM117.541 12.5163C115.968 10.9958 114.124 10.1641 111.57 10.1641C109.759 10.1641 107.707 10.7095 106.342 11.913V0H100.878V33H106.342V20.6382C106.342 15.588 110.054 15.1865 111.361 15.1865C114.627 15.1865 114.536 18.1421 114.536 19.9211V33H120V19.949C120 16.8207 119.324 14.2387 117.541 12.5163Z" fill="#282828"/>
<path d="M88.8351 17.7383C91.0163 17.7383 92.785 19.4472 92.785 21.5558C92.785 23.6644 91.0168 25.3733 88.8351 25.3733C86.6538 25.3733 84.8851 23.6644 84.8851 21.5558C84.8851 19.4472 86.6538 17.7383 88.8351 17.7383Z" fill="#FF3D2E"/>
<path d="M23.5748 24.7117C21.4973 26.7775 18.6759 27.897 15.7066 27.897C9.62057 27.897 5.19568 23.277 5.19568 16.9356C5.19568 10.5653 9.62105 5.9453 15.7066 5.9453C18.6471 5.9453 21.4373 7.06341 23.5465 9.10142L24.3768 9.9053L28.029 6.37556L27.2275 5.57168C24.1991 2.55805 20.1017 0.923828 15.7066 0.923828C6.74012 0.923828 0 7.8102 0 16.9629C0 26.0883 6.77037 32.9468 15.7066 32.9468C20.132 32.9468 24.2294 31.2838 27.2572 28.2702L28.0588 27.4663L24.4368 23.8799L23.5748 24.7117Z" fill="#282828"/>
</g>
<defs>
<clipPath id="clip0_4458_20950">
<rect width="120" height="33" fill="white"/>
</clipPath>
</defs>
</svg>
