<svg width="33" height="29" viewBox="0 0 33 29" fill="none" xmlns="http://www.w3.org/2000/svg">
<path d="M6.80774 8.5918V10.2791H6.25096C5.83922 10.2791 5.5772 10.3358 5.46491 10.4445C5.35262 10.5579 5.29647 10.8367 5.29647 11.2857V17.7654C5.29647 18.2191 5.35262 18.5026 5.46959 18.6161C5.58656 18.7295 5.84857 18.7815 6.25096 18.7815H6.80774V20.4687H0V18.7815H0.566142C0.968524 18.7815 1.22586 18.7295 1.34283 18.6161C1.4598 18.5026 1.51595 18.2191 1.51595 17.7654V11.2905C1.51595 10.8415 1.4598 10.5579 1.34283 10.4492C1.23054 10.3405 0.973203 10.2838 0.566142 10.2838H0V8.59652H6.80774V8.5918Z" fill="white"/>
<path d="M8.0617 16.0968H9.70866C9.98003 17.0184 10.4339 17.7321 11.0655 18.2472C11.6972 18.7624 12.4411 19.0223 13.2973 19.0223C13.812 19.0223 14.2284 18.9089 14.5419 18.6821C14.8507 18.4552 15.0098 18.1574 15.0098 17.7841C15.0098 17.2122 14.336 16.7349 12.9839 16.3473C12.544 16.2292 12.2025 16.1252 11.9498 16.0448C11.1357 15.7896 10.5134 15.5769 10.0736 15.3973C9.63379 15.2177 9.31563 15.0523 9.1238 14.8964C8.66527 14.5419 8.32371 14.1402 8.09913 13.7101C7.87922 13.2753 7.77161 12.779 7.77161 12.2261C7.77161 11.0303 8.19738 10.0709 9.05361 9.33363C9.90517 8.60107 11.0328 8.23242 12.4318 8.23242C13.1429 8.23242 13.8073 8.30804 14.4249 8.44983C15.0426 8.59634 15.6414 8.81847 16.2169 9.12095L16.5258 8.52072H18.1634V12.6467H16.2403C16.0485 11.8054 15.6929 11.1816 15.1736 10.7704C14.6542 10.3592 13.9524 10.1513 13.0821 10.1513C12.5721 10.1513 12.151 10.2694 11.8188 10.5152C11.4866 10.7562 11.3229 11.054 11.3229 11.4037C11.3229 11.933 11.9545 12.3348 13.2225 12.6042C13.5313 12.6751 13.7746 12.727 13.9477 12.7696C15.7163 13.1902 16.9562 13.7148 17.6674 14.3387C18.3786 14.9673 18.7342 15.818 18.7342 16.8956C18.7342 18.096 18.299 19.0554 17.4194 19.7644C16.5445 20.4733 15.3654 20.8325 13.8822 20.8325C13.2038 20.8325 12.5487 20.7521 11.9218 20.5962C11.2948 20.4355 10.6725 20.1944 10.0549 19.8731L9.62911 20.53H8.06638V16.0968H8.0617Z" fill="white"/>
<path d="M19.7214 14.5458C19.7214 12.575 20.311 11.0342 21.49 9.91413C22.6691 8.79402 24.2927 8.23633 26.3748 8.23633C28.4382 8.23633 30.0617 8.79402 31.2361 9.91413C32.4105 11.0342 33 12.5797 33 14.5458C33 16.5119 32.4105 18.0527 31.2314 19.168C30.0524 20.2787 28.4241 20.8364 26.3373 20.8364C24.274 20.8364 22.6598 20.2787 21.4854 19.1586C20.3063 18.0385 19.7214 16.4977 19.7214 14.5458ZM26.3701 10.0465C25.5981 10.0465 25.0366 10.4009 24.6857 11.1051C24.3301 11.8141 24.157 12.9436 24.157 14.508C24.157 16.1007 24.3301 17.2492 24.681 17.9581C25.0319 18.6671 25.5887 19.0215 26.3561 19.0215C27.1328 19.0215 27.6989 18.6718 28.0451 17.9676C28.396 17.2634 28.5692 16.1291 28.5692 14.56C28.5692 12.9814 28.3914 11.833 28.0451 11.1193C27.6895 10.4009 27.1328 10.0465 26.3701 10.0465Z" fill="white"/>
<path d="M11.8421 5.32203L11.5708 5.26531C10.0735 4.94866 8.52951 4.62255 7.46273 3.5497L7.09778 3.92307C8.27217 5.10462 9.9706 5.46382 11.4678 5.7852L11.7392 5.84191C15.1033 6.56502 19.8336 6.76825 23.2726 3.64423L22.9217 3.25195C19.6418 6.22473 15.0846 6.01678 11.8421 5.32203Z" fill="white"/>
<path d="M17.2136 1.83854C16.3292 2.41513 15.0566 2.3726 13.9243 2.25917C12.7499 2.14101 12.0434 1.28557 12.0387 1.28085L11.6364 1.61168C11.6738 1.65422 12.4832 2.64199 13.8775 2.78378C15.094 2.90666 16.479 2.94447 17.4943 2.2828C18.3599 1.72038 18.6874 1.58332 18.6874 1.5786L18.4956 1.0918C18.4815 1.09652 18.14 1.24304 17.2136 1.83854Z" fill="white"/>
<mask id="mask0_4037_44079" style="mask-type:luminance" maskUnits="userSpaceOnUse" x="3" y="0" width="25" height="8">
<path d="M27.0438 0H3.32666V7.01841H27.0438V0Z" fill="white"/>
</mask>
<g mask="url(#mask0_4037_44079)">
<path d="M3.33606 7.21207L3.75248 7.52873C7.25227 2.79307 14.2939 -0.623971 20.4607 2.35826C22.9686 3.5729 25.0974 5.43502 26.2999 7.46256L26.7491 7.19317C25.4951 5.07583 23.2867 3.13809 20.6899 1.88564C14.2706 -1.21947 6.9575 2.311 3.33606 7.21207Z" fill="white"/>
</g>
<mask id="mask1_4037_44079" style="mask-type:luminance" maskUnits="userSpaceOnUse" x="3" y="0" width="25" height="8">
<path d="M27.0438 0H3.32666V7.01841H27.0438V0Z" fill="white"/>
</mask>
<g mask="url(#mask1_4037_44079)">
<path d="M6.68604 7.15974L7.08374 7.50003C8.41253 5.89312 10.3964 3.65763 12.3007 2.14052L11.9778 1.72461C10.0455 3.27008 8.03355 5.53393 6.68604 7.15974Z" fill="white"/>
</g>
<mask id="mask2_4037_44079" style="mask-type:luminance" maskUnits="userSpaceOnUse" x="3" y="0" width="25" height="8">
<path d="M27.0438 0H3.32666V7.01841H27.0438V0Z" fill="white"/>
</mask>
<g mask="url(#mask2_4037_44079)">
<path d="M17.7281 1.88012C19.6184 3.22236 21.6911 5.38224 23.0059 7.38142L23.441 7.0884C22.0935 5.03723 19.9693 2.82536 18.0276 1.44531L17.7281 1.88012Z" fill="white"/>
</g>
<mask id="mask3_4037_44079" style="mask-type:luminance" maskUnits="userSpaceOnUse" x="3" y="0" width="25" height="8">
<path d="M27.0438 0H3.32666V7.01841H27.0438V0Z" fill="white"/>
</mask>
<g mask="url(#mask3_4037_44079)">
<path d="M16.39 2.51009L16.652 2.77476C16.8532 3.00161 18.4113 5.87042 19.3424 7.62856L19.8009 7.37808C19.216 6.27687 17.2884 2.67078 17.0217 2.40139L16.7596 2.13672L16.39 2.51009Z" fill="white"/>
</g>
<mask id="mask4_4037_44079" style="mask-type:luminance" maskUnits="userSpaceOnUse" x="3" y="0" width="25" height="8">
<path d="M27.0438 0H3.32666V7.01841H27.0438V0Z" fill="white"/>
</mask>
<g mask="url(#mask4_4037_44079)">
<path d="M14.9465 2.65438L14.8817 7.32812L15.401 7.33547L15.4658 2.66172L14.9465 2.65438Z" fill="white"/>
</g>
<mask id="mask5_4037_44079" style="mask-type:luminance" maskUnits="userSpaceOnUse" x="3" y="0" width="25" height="8">
<path d="M27.0438 0H3.32666V7.01841H27.0438V0Z" fill="white"/>
</mask>
<g mask="url(#mask5_4037_44079)">
<path d="M12.703 3.10935L10.3964 7.01792L10.8455 7.28731L13.1475 3.38347L13.6669 2.52803L13.2224 2.25391L12.703 3.10935Z" fill="white"/>
</g>
<path d="M12.0808 23.1687L11.8094 23.2254C10.3122 23.542 8.61372 23.9012 7.43933 25.0875L7.80896 25.4609C8.87574 24.388 10.4198 24.0619 11.917 23.7453L12.1884 23.6885C15.4355 22.9938 19.988 22.7858 23.2632 25.7586L23.6142 25.3663C20.1752 22.2423 15.4449 22.4456 12.0808 23.1687Z" fill="white"/>
<path d="M14.2237 26.2172C12.8294 26.359 12.02 27.3468 11.9825 27.3893L12.3849 27.7202C12.3896 27.7107 13.1008 26.86 14.2705 26.7418C15.3981 26.6284 16.6754 26.5859 17.5597 27.1625C18.4815 27.7627 18.8277 27.9045 18.8418 27.9092L19.0383 27.4224C19.0383 27.4224 18.7107 27.2854 17.8452 26.7182C16.8252 26.0613 15.4449 26.0944 14.2237 26.2172Z" fill="white"/>
<mask id="mask6_4037_44079" style="mask-type:luminance" maskUnits="userSpaceOnUse" x="3" y="21" width="25" height="8">
<path d="M27.39 21.9824H3.67285V29.0008H27.39V21.9824Z" fill="white"/>
</mask>
<g mask="url(#mask6_4037_44079)">
<path d="M3.68225 21.7885C7.30837 26.6896 14.6167 30.2248 21.0315 27.1196C23.6282 25.8625 25.8413 23.9295 27.0906 21.8121L26.6414 21.5427C25.439 23.575 23.3101 25.4371 20.8022 26.647C14.6355 29.6293 7.59378 26.2075 4.09399 21.4766L3.68225 21.7885Z" fill="white"/>
</g>
<mask id="mask7_4037_44079" style="mask-type:luminance" maskUnits="userSpaceOnUse" x="3" y="21" width="25" height="8">
<path d="M27.39 21.9824H3.67285V29.0008H27.39V21.9824Z" fill="white"/>
</mask>
<g mask="url(#mask7_4037_44079)">
<path d="M7.03699 21.8461C8.3845 23.472 10.3964 25.7358 12.3335 27.2813L12.6563 26.8654C10.752 25.3483 8.76817 23.1128 7.43937 21.5059L7.03699 21.8461Z" fill="white"/>
</g>
<mask id="mask8_4037_44079" style="mask-type:luminance" maskUnits="userSpaceOnUse" x="3" y="21" width="25" height="8">
<path d="M27.39 21.9824H3.67285V29.0008H27.39V21.9824Z" fill="white"/>
</mask>
<g mask="url(#mask8_4037_44079)">
<path d="M18.0743 27.1193L18.3738 27.5494C20.3155 26.1693 22.4397 23.9575 23.7826 21.9063L23.3474 21.6133C22.0373 23.6172 19.9646 25.7771 18.0743 27.1193Z" fill="white"/>
</g>
<mask id="mask9_4037_44079" style="mask-type:luminance" maskUnits="userSpaceOnUse" x="3" y="21" width="25" height="8">
<path d="M27.39 21.9824H3.67285V29.0008H27.39V21.9824Z" fill="white"/>
</mask>
<g mask="url(#mask9_4037_44079)">
<path d="M16.9935 26.2316L16.7362 26.4915L17.1058 26.8649L17.3679 26.6002C17.6345 26.3308 19.5622 22.7247 20.1518 21.6235L19.6932 21.373C18.7575 23.1312 17.1994 26 16.9935 26.2316Z" fill="white"/>
</g>
<mask id="mask10_4037_44079" style="mask-type:luminance" maskUnits="userSpaceOnUse" x="3" y="21" width="25" height="8">
<path d="M27.39 21.9824H3.67285V29.0008H27.39V21.9824Z" fill="white"/>
</mask>
<g mask="url(#mask10_4037_44079)">
<path d="M15.7488 21.6723L15.2295 21.6797L15.2931 26.3534L15.8124 26.3461L15.7488 21.6723Z" fill="white"/>
</g>
<mask id="mask11_4037_44079" style="mask-type:luminance" maskUnits="userSpaceOnUse" x="3" y="21" width="25" height="8">
<path d="M27.39 21.9824H3.67285V29.0008H27.39V21.9824Z" fill="white"/>
</mask>
<g mask="url(#mask11_4037_44079)">
<path d="M10.7473 21.9815L13.0493 25.8948L13.5733 26.7502L14.0132 26.4761L13.4938 25.6159L11.1965 21.7168L10.7473 21.9815Z" fill="white"/>
</g>
</svg>
