<svg width="35" height="33" viewBox="0 0 35 33" fill="none" xmlns="http://www.w3.org/2000/svg">
<path d="M7.04024 9.05469H5.14905V22.0196H6.87575V16.2809H7.31854C9.80635 16.2809 11.2912 14.9114 11.2912 12.6188C11.2912 10.4215 9.66142 9.05469 7.04024 9.05469ZM7.23319 14.8333H6.87575V10.5032H7.08292C8.73049 10.5032 9.5645 11.1893 9.5645 12.5407C9.5645 14.0401 8.75806 14.8333 7.23319 14.8333Z" fill="white"/>
<path d="M20.082 20.572V15.986H23.2358V14.5402H20.082V10.5023H23.531V9.05469H18.2468V22.0196H23.7132V20.572H20.082Z" fill="white"/>
<path d="M29.2579 15.1038L29.1334 15.0539L29.2534 14.9949C30.6138 14.3178 31.1962 13.4901 31.1962 12.2276C31.1962 10.3017 29.6597 9.05469 27.2831 9.05469H25.0024V22.0196H26.9879C29.7495 22.0196 31.5358 20.5584 31.5358 18.2985C31.5367 16.7919 30.7703 15.7173 29.2579 15.1038ZM26.8385 10.5023H27.0546C28.4985 10.5023 29.361 11.2057 29.361 12.3846C29.361 13.7714 28.5074 14.5992 27.0786 14.5992H26.8394V10.5023H26.8385ZM27.1915 20.572H26.8385V16.045H27.2368C28.7582 16.045 29.7015 16.9317 29.7015 18.3575C29.7006 19.7661 28.7875 20.572 27.1915 20.572Z" fill="white"/>
<path d="M18.3598 4.64062C16.3681 6.44855 13.9105 9.17132 14.2235 12.072C14.3435 13.1402 14.9464 14.0387 15.6025 14.8401C16.3414 15.7858 16.8429 16.9575 16.9389 18.1701C17.1043 20.2131 16.0765 22.1798 14.7748 23.6002C14.0768 24.4043 13.2614 25.0623 12.4532 25.7013L12.9342 25.0896C14.3053 23.3043 15.9226 20.8166 15.1633 18.5014C14.9526 17.8996 14.6067 17.3387 14.2359 16.8268C13.9443 16.4466 13.6055 16.0436 13.3148 15.6497C10.2224 11.3468 14.8059 6.70086 18.3598 4.64062Z" fill="white"/>
<path d="M2.22906 2.28679C2.18461 2.3721 2.11259 2.44199 2.01478 2.49644C1.91609 2.54999 1.79072 2.57722 1.6369 2.57722H1.29903V3.34867H0.993164V1.44727H1.63601C1.77916 1.44727 1.90008 1.47268 1.99878 1.5226C2.09747 1.57251 2.17216 1.64058 2.22106 1.7259C2.26997 1.81121 2.29486 1.90741 2.29486 2.0136C2.29575 2.10981 2.27352 2.20147 2.22906 2.28679ZM1.89653 2.24232C1.95343 2.18877 1.98188 2.11253 1.98188 2.0136C1.98188 1.80576 1.8663 1.70139 1.63601 1.70139H1.29814V2.32218H1.63601C1.75338 2.32309 1.83962 2.29586 1.89653 2.24232Z" fill="white"/>
<path d="M6.70857 2.96008H5.9288L5.79454 3.34853H5.47534L6.14219 1.44531H6.49607L7.16292 3.34853H6.84106L6.70857 2.96008ZM6.62322 2.70596L6.32002 1.82196L6.01416 2.70596H6.62322Z" fill="white"/>
<path d="M11.4779 3.34867L10.7568 2.49826V3.34867H10.4509V1.44727H10.7568V2.31401L11.4805 1.44727H11.8638L11.0547 2.39933L11.8771 3.34867H11.4779Z" fill="white"/>
<path d="M15.4514 1.44727V3.34776H15.1455V1.44727H15.4514Z" fill="white"/>
<path d="M19.1271 3.29982C19.0267 3.25535 18.9484 3.19181 18.8915 3.11013C18.8346 3.02845 18.8062 2.93224 18.8062 2.82243H19.1334C19.1405 2.90411 19.1725 2.97218 19.2285 3.02482C19.2845 3.07746 19.3636 3.10378 19.4659 3.10378C19.5708 3.10378 19.6535 3.07746 19.7122 3.02573C19.7709 2.97399 19.8011 2.90683 19.8011 2.82515C19.8011 2.76162 19.7824 2.70898 19.746 2.66904C19.7095 2.62911 19.6633 2.59825 19.609 2.57647C19.5548 2.55469 19.4792 2.53109 19.3823 2.50568C19.2605 2.473 19.1618 2.43942 19.0862 2.40584C19.0098 2.37226 18.9457 2.31962 18.8915 2.24883C18.8382 2.17804 18.8115 2.08274 18.8115 1.96475C18.8115 1.85493 18.8382 1.75964 18.8915 1.67795C18.9449 1.59627 19.0204 1.53274 19.1165 1.48917C19.2134 1.44561 19.3245 1.42383 19.4517 1.42383C19.6322 1.42383 19.7798 1.47012 19.8953 1.56178C20.01 1.65345 20.0741 1.78051 20.0865 1.94025H19.7486C19.7433 1.87127 19.7113 1.81137 19.6517 1.76236C19.5922 1.71335 19.5148 1.68884 19.4188 1.68884C19.3316 1.68884 19.2596 1.71153 19.2045 1.75691C19.1494 1.80229 19.1209 1.86764 19.1209 1.95386C19.1209 2.01195 19.1387 2.06005 19.1734 2.09726C19.208 2.13447 19.2525 2.16442 19.3058 2.1862C19.3592 2.20799 19.433 2.23158 19.5255 2.257C19.6482 2.29148 19.7486 2.32597 19.8269 2.36137C19.9042 2.39586 19.9709 2.44941 20.0252 2.52111C20.0794 2.59281 20.107 2.68901 20.107 2.80972C20.107 2.90592 20.0821 2.99759 20.0305 3.0829C19.9798 3.16822 19.9051 3.23719 19.8082 3.28983C19.7113 3.34157 19.5966 3.36789 19.4641 3.36789C19.3396 3.36698 19.2276 3.34429 19.1271 3.29982Z" fill="white"/>
<path d="M24.6709 1.44727V1.70139H24.1748V3.34776H23.8689V1.70139H23.371V1.44727H24.6709Z" fill="white"/>
<path d="M29.0997 2.96008H28.3199L28.1857 3.34853H27.8665L28.5333 1.44531H28.8872L29.554 3.34853H29.2322L29.0997 2.96008ZM29.0143 2.70596L28.712 1.82196L28.4062 2.70596H29.0143Z" fill="white"/>
<path d="M34.3722 3.34748H34.0664L33.1479 1.92801V3.34748H32.842V1.44336H33.1479L34.0664 2.86011V1.44336H34.3722V3.34748Z" fill="white"/>
<path d="M1.31592 29.1149C1.21545 29.0704 1.1372 29.0069 1.07941 28.9243C1.02251 28.8417 0.993164 28.7464 0.993164 28.6366H1.32037C1.32748 28.7192 1.35949 28.7864 1.4155 28.839C1.47152 28.8925 1.55065 28.9189 1.6529 28.9189C1.75871 28.9189 1.84051 28.8934 1.90008 28.8408C1.95877 28.7891 1.989 28.7219 1.989 28.6393C1.989 28.5758 1.97033 28.5232 1.93387 28.4832C1.89742 28.4433 1.85118 28.4124 1.79694 28.3897C1.74271 28.368 1.66713 28.3444 1.57021 28.3189C1.4484 28.2863 1.34971 28.2527 1.27324 28.2191C1.19678 28.1855 1.13187 28.1329 1.07852 28.0612C1.02517 27.9904 0.99761 27.8951 0.99761 27.7762C0.99761 27.6664 1.02428 27.5711 1.07852 27.4885C1.13276 27.4059 1.20745 27.3433 1.30436 27.2997C1.40128 27.2562 1.51242 27.2344 1.63957 27.2344C1.82006 27.2344 1.96855 27.2807 2.08414 27.3732C2.19972 27.4658 2.26374 27.592 2.27619 27.7526H1.93832C1.93298 27.6836 1.90097 27.6237 1.8414 27.5747C1.78272 27.5257 1.70447 27.5003 1.60756 27.5003C1.51953 27.5003 1.4484 27.523 1.39239 27.5693C1.33726 27.6147 1.30881 27.6809 1.30881 27.7662C1.30881 27.8243 1.32659 27.8724 1.36127 27.9105C1.39594 27.9477 1.4404 27.9777 1.49375 27.9995C1.5471 28.0213 1.6209 28.0449 1.71425 28.0712C1.83784 28.1057 1.93832 28.1402 2.01656 28.1755C2.09481 28.21 2.1606 28.2636 2.21484 28.3362C2.26908 28.4088 2.29664 28.505 2.29664 28.6248C2.29664 28.7219 2.27085 28.8127 2.22017 28.8989C2.16949 28.9851 2.09481 29.0532 1.997 29.1058C1.89919 29.1576 1.7845 29.1839 1.65201 29.1839C1.52842 29.1821 1.41639 29.1594 1.31592 29.1149Z" fill="white"/>
<path d="M5.71094 29.0568C5.56512 28.9733 5.44953 28.8581 5.36506 28.7092C5.2797 28.5604 5.23792 28.3925 5.23792 28.2064C5.23792 28.0204 5.28059 27.8534 5.36506 27.7054C5.45042 27.5575 5.56512 27.4422 5.71094 27.3587C5.85675 27.2752 6.0168 27.2344 6.19018 27.2344C6.36534 27.2344 6.52628 27.2761 6.67209 27.3587C6.81791 27.4422 6.93261 27.5575 7.01708 27.7054C7.10155 27.8534 7.14334 28.0204 7.14334 28.2064C7.14334 28.3925 7.10155 28.5604 7.01708 28.7092C6.93261 28.8581 6.81791 28.9742 6.67209 29.0568C6.52628 29.1403 6.36534 29.1812 6.19018 29.1812C6.01591 29.1812 5.85675 29.1394 5.71094 29.0568ZM6.52005 28.8236C6.61697 28.7664 6.69254 28.6838 6.74678 28.5767C6.80102 28.4696 6.82858 28.3462 6.82858 28.2055C6.82858 28.0648 6.80102 27.9414 6.74678 27.8361C6.69254 27.7299 6.61697 27.6491 6.52005 27.592C6.42314 27.5357 6.31377 27.5076 6.19018 27.5076C6.06659 27.5076 5.95634 27.5357 5.86031 27.592C5.7634 27.6491 5.68782 27.7299 5.63358 27.8361C5.57934 27.9423 5.55178 28.0657 5.55178 28.2055C5.55178 28.3462 5.57934 28.4696 5.63358 28.5767C5.68782 28.6838 5.7634 28.7655 5.86031 28.8236C5.95723 28.8807 6.06659 28.9098 6.19018 28.9098C6.31377 28.9098 6.42314 28.8807 6.52005 28.8236Z" fill="white"/>
<path d="M11.2191 27.2598V27.5148H10.4278V28.0766H11.0449V28.3316H10.4278V29.1648H10.1219V27.2607H11.2191V27.2598Z" fill="white"/>
<path d="M15.3874 27.2598V27.5148H14.8913V29.1639H14.5854V27.5148H14.0857V27.2598H15.3874Z" fill="white"/>
<path d="M20.804 27.2598L20.251 29.1639H19.9051L19.513 27.7226L19.0969 29.1639L18.7536 29.1666L18.2246 27.2598H18.5491L18.9359 28.8099L19.3547 27.2598H19.6979L20.0874 28.8018L20.4768 27.2598H20.804Z" fill="white"/>
<path d="M24.8594 28.7734H24.0787L23.9444 29.1627H23.6252L24.2939 27.2559H24.6486L25.3173 29.1627H24.9954L24.8594 28.7734ZM24.7731 28.5183L24.4699 27.6334L24.1641 28.5183H24.7731Z" fill="white"/>
<path d="M29.2526 29.1639L28.8231 28.4024H28.5902V29.1639H28.2843V27.2598H28.9289C29.0721 27.2598 29.193 27.2852 29.2926 27.3369C29.3922 27.3877 29.466 27.4567 29.5158 27.542C29.5647 27.6282 29.5896 27.7235 29.5896 27.8297C29.5896 27.9541 29.554 28.0666 29.4837 28.1683C29.4126 28.2699 29.3041 28.3389 29.1574 28.3752L29.6189 29.1639H29.2526ZM28.5902 28.1528H28.928C29.0427 28.1528 29.129 28.1238 29.1868 28.0648C29.2446 28.0067 29.2739 27.9278 29.2739 27.8288C29.2739 27.7299 29.2455 27.6537 29.1877 27.5974C29.1308 27.542 29.0436 27.5139 28.9271 27.5139H28.5893V28.1528H28.5902Z" fill="white"/>
<path d="M32.9648 27.5119V28.071H33.6094V28.326H32.9648V28.9096H33.6894V29.1647H32.6589V27.2578H33.6894V27.5128H32.9648V27.5119Z" fill="white"/>
<path d="M1.29455 30.1539V30.7039H1.9285V30.9544H1.29455V31.5289H2.00763V31.7794H0.994019V29.9043H2.00763V30.1548H1.29455V30.1539Z" fill="white"/>
<path d="M4.42518 30.8438L4.99511 31.7786H4.65724L4.2429 31.0997L3.85435 31.7786H3.51915L4.08908 30.8438L3.51648 29.9062H3.85435L4.27136 30.5906L4.66169 29.9062H4.99689L4.42518 30.8438Z" fill="white"/>
<path d="M7.7497 30.7331C7.70524 30.8175 7.635 30.8864 7.53808 30.9391C7.44117 30.9917 7.31758 31.019 7.16554 31.019H6.833V31.7786H6.53247V29.9062H7.16643C7.30691 29.9062 7.42694 29.9308 7.52386 29.9807C7.62166 30.0297 7.69457 30.0968 7.74259 30.1812C7.79149 30.2657 7.8155 30.36 7.8155 30.4644C7.8155 30.5588 7.79327 30.6487 7.7497 30.7331ZM7.42161 30.6886C7.47762 30.636 7.50608 30.5606 7.50608 30.4635C7.50608 30.2584 7.39227 30.1567 7.16554 30.1567H6.833V30.7685H7.16554C7.28023 30.7685 7.36559 30.7421 7.42161 30.6886Z" fill="white"/>
<path d="M9.6755 31.6743C9.53235 31.5926 9.41854 31.4782 9.33496 31.3321C9.25138 31.186 9.20959 31.0208 9.20959 30.8375C9.20959 30.6541 9.25138 30.4899 9.33496 30.3446C9.41854 30.1994 9.53235 30.086 9.6755 30.0034C9.81865 29.9217 9.97603 29.8809 10.1467 29.8809C10.3192 29.8809 10.4775 29.9217 10.6207 30.0034C10.7638 30.0851 10.8767 30.1985 10.9603 30.3446C11.043 30.4899 11.0839 30.6541 11.0839 30.8375C11.0839 31.0208 11.0421 31.1851 10.9603 31.3321C10.8776 31.4782 10.7647 31.5926 10.6207 31.6743C10.4775 31.7559 10.3192 31.7968 10.1467 31.7968C9.97603 31.7968 9.81865 31.7559 9.6755 31.6743ZM10.4713 31.4446C10.5664 31.3884 10.6402 31.3076 10.6945 31.2023C10.7478 31.097 10.7754 30.9754 10.7754 30.8375C10.7754 30.6986 10.7487 30.5779 10.6945 30.4735C10.6411 30.3691 10.5664 30.2893 10.4713 30.2339C10.3761 30.1785 10.2677 30.1504 10.1467 30.1504C10.0258 30.1504 9.91735 30.1785 9.82221 30.2339C9.72707 30.2893 9.65327 30.3701 9.59904 30.4735C9.54569 30.5779 9.51813 30.6986 9.51813 30.8375C9.51813 30.9754 9.5448 31.097 9.59904 31.2023C9.65238 31.3076 9.72707 31.3884 9.82221 31.4446C9.91735 31.5018 10.0258 31.53 10.1467 31.53C10.2677 31.53 10.3761 31.5018 10.4713 31.4446Z" fill="white"/>
<path d="M13.5388 31.7786L13.1165 31.0298H12.8871V31.7786H12.5865V29.9062H13.2205C13.361 29.9062 13.481 29.9317 13.5779 29.9816C13.6757 30.0324 13.7487 30.0996 13.7967 30.184C13.8447 30.2684 13.8696 30.3628 13.8696 30.4671C13.8696 30.5897 13.8349 30.7004 13.7655 30.8002C13.6962 30.9001 13.5895 30.9681 13.4446 31.0035L13.8989 31.7795H13.5388V31.7786ZM12.8871 30.7848H13.2196C13.3325 30.7848 13.417 30.7558 13.4748 30.6986C13.5317 30.6414 13.561 30.5643 13.561 30.4671C13.561 30.37 13.5326 30.2938 13.4766 30.2393C13.4206 30.1849 13.3352 30.1567 13.2205 30.1567H12.888V30.7848H12.8871Z" fill="white"/>
<path d="M16.6456 29.9062V30.1567H16.1574V31.7786H15.8569V30.1567H15.3661V29.9062H16.6456Z" fill="white"/>
<path d="M21.2814 30.9754C21.3499 31.0634 21.3846 31.1633 21.3846 31.274C21.3846 31.3693 21.3605 31.4555 21.3116 31.5317C21.2636 31.608 21.1934 31.6679 21.1018 31.7124C21.0102 31.7568 20.9035 31.7786 20.7826 31.7786H20.0491V29.9062H20.7488C20.8742 29.9062 20.9809 29.928 21.0707 29.9707C21.1605 30.0133 21.2281 30.0714 21.2743 30.144C21.3196 30.2166 21.3428 30.2983 21.3428 30.3882C21.3428 30.4962 21.3143 30.586 21.2583 30.6577C21.2023 30.7294 21.1267 30.783 21.0316 30.8166C21.1294 30.8347 21.213 30.8874 21.2814 30.9754ZM20.3496 30.6931H20.7221C20.8208 30.6931 20.8973 30.6704 20.9533 30.6242C21.0085 30.5788 21.0369 30.5125 21.0369 30.4263C21.0369 30.3419 21.0093 30.2756 20.9533 30.2284C20.8982 30.1803 20.8208 30.1567 20.7221 30.1567H20.3496V30.6931ZM20.9969 31.4528C21.0547 31.402 21.084 31.3321 21.084 31.2422C21.084 31.1506 21.0529 31.0779 20.9916 31.0235C20.9302 30.9699 20.8484 30.9427 20.7462 30.9427H20.3505V31.5272H20.7568C20.8582 31.5281 20.9382 31.5027 20.9969 31.4528Z" fill="white"/>
<path d="M23.2838 31.6743C23.1406 31.5926 23.0268 31.4782 22.9432 31.3321C22.8597 31.186 22.8179 31.0208 22.8179 30.8375C22.8179 30.6541 22.8597 30.4899 22.9432 30.3446C23.0268 30.1994 23.1406 30.086 23.2838 30.0034C23.4269 29.9217 23.5843 29.8809 23.755 29.8809C23.9275 29.8809 24.0858 29.9217 24.2289 30.0034C24.3721 30.0851 24.485 30.1985 24.5686 30.3446C24.6513 30.4899 24.6931 30.6541 24.6931 30.8375C24.6931 31.0208 24.6513 31.1851 24.5686 31.3321C24.4859 31.4782 24.373 31.5926 24.2289 31.6743C24.0858 31.7559 23.9275 31.7968 23.755 31.7968C23.5843 31.7968 23.4278 31.7559 23.2838 31.6743ZM24.0796 31.4446C24.1747 31.3884 24.2494 31.3076 24.3027 31.2023C24.3561 31.097 24.3836 30.9754 24.3836 30.8375C24.3836 30.6986 24.357 30.5779 24.3027 30.4735C24.2494 30.3691 24.1747 30.2893 24.0796 30.2339C23.9844 30.1785 23.8759 30.1504 23.755 30.1504C23.6332 30.1504 23.5256 30.1785 23.4305 30.2339C23.3353 30.2893 23.2607 30.3701 23.2073 30.4735C23.154 30.5779 23.1264 30.6986 23.1264 30.8375C23.1264 30.9754 23.1531 31.097 23.2073 31.2023C23.2607 31.3076 23.3353 31.3884 23.4305 31.4446C23.5256 31.5018 23.6341 31.53 23.755 31.53C23.8768 31.53 23.9853 31.5018 24.0796 31.4446Z" fill="white"/>
<path d="M27.301 31.3964H26.5327L26.4011 31.7794H26.0873L26.7444 29.9043H27.0929L27.75 31.7794H27.4334L27.301 31.3964ZM27.2165 31.1459L26.9186 30.2755L26.6181 31.1459H27.2165Z" fill="white"/>
<path d="M30.1942 31.7786L29.7719 31.0298H29.5425V31.7786H29.2419V29.9062H29.875C30.0155 29.9062 30.1346 29.9317 30.2324 29.9816C30.3302 30.0324 30.4032 30.0996 30.4521 30.184C30.5001 30.2684 30.5241 30.3628 30.5241 30.4671C30.5241 30.5897 30.4894 30.7004 30.4201 30.8002C30.3507 30.9001 30.244 30.9681 30.0991 31.0035L30.5534 31.7795H30.1942V31.7786ZM29.5425 30.7848H29.875C29.9879 30.7848 30.0724 30.7558 30.1293 30.6986C30.1862 30.6414 30.2155 30.5643 30.2155 30.4671C30.2155 30.37 30.1871 30.2938 30.1311 30.2393C30.0751 30.1849 29.9888 30.1567 29.875 30.1567H29.5425V30.7848Z" fill="white"/>
<path d="M33.2288 30.0206C33.3755 30.0968 33.4893 30.2067 33.5693 30.3492C33.6493 30.4916 33.6893 30.6586 33.6893 30.8492C33.6893 31.0398 33.6493 31.205 33.5693 31.3448C33.4893 31.4846 33.3755 31.5926 33.2288 31.667C33.0821 31.7414 32.9105 31.7786 32.7157 31.7786H32.1165V29.9062H32.7157C32.9105 29.9062 33.0812 29.9444 33.2288 30.0206ZM33.2092 31.3502C33.3239 31.2313 33.3808 31.0643 33.3808 30.8492C33.3808 30.6323 33.3239 30.4626 33.2092 30.3401C33.0945 30.2176 32.93 30.1567 32.7157 30.1567H32.4179V31.5281H32.7157C32.93 31.5281 33.0945 31.4691 33.2092 31.3502Z" fill="white"/>
<path d="M35 0H0V0.426568H35V0Z" fill="white"/>
<path d="M17.0439 4.26953H0V4.6961H17.0439V4.26953Z" fill="white"/>
<path d="M35 4.26953H19.1866V4.6961H35V4.26953Z" fill="white"/>
<path d="M13.2311 26.252L34.9999 26.252V25.8254L13.2311 25.8254V26.252Z" fill="white"/>
<path d="M0.000366211 33L35.0004 33V32.5734L0.000366211 32.5734V33Z" fill="white"/>
<path d="M0.0004673 26.252H11.7397V25.8254H0.0004673V26.252Z" fill="white"/>
</svg>
