<svg width="88" height="22" viewBox="0 0 88 22" fill="none" xmlns="http://www.w3.org/2000/svg">
<g clip-path="url(#clip0_4200_20535)">
<path d="M23.1264 7.79688H32.0367V9.48918H28.5332V19.0025H26.6066V9.48918H23.1187V7.79688H23.1264ZM31.6561 10.8889H33.303V12.4547H33.334C33.3884 12.2333 33.4894 12.0197 33.637 11.8141C33.7846 11.6085 33.9633 11.4108 34.173 11.2448C34.3828 11.0708 34.6158 10.9363 34.8722 10.8256C35.1285 10.7228 35.3927 10.6675 35.6568 10.6675C35.8588 10.6675 36.0064 10.6754 36.084 10.6833C36.1617 10.6912 36.2394 10.707 36.3249 10.7149V12.4389C36.2006 12.4151 36.0763 12.3993 35.9442 12.3835C35.8122 12.3677 35.6879 12.3598 35.5636 12.3598C35.2684 12.3598 34.9887 12.423 34.7246 12.5417C34.4605 12.6603 34.2352 12.8422 34.041 13.0715C33.8468 13.3087 33.6914 13.5934 33.5749 13.9414C33.4583 14.2893 33.404 14.6847 33.404 15.1355V18.9946H31.6483V10.8889H31.6561ZM44.3962 19.0025H42.6716V17.8716H42.6405C42.423 18.2829 42.1045 18.6071 41.6773 18.8522C41.25 19.0974 40.815 19.2239 40.3722 19.2239C39.3235 19.2239 38.5622 18.9629 38.0961 18.4331C37.63 17.9033 37.3969 17.1046 37.3969 16.037V10.8889H39.1526V15.863C39.1526 16.5747 39.2846 17.0808 39.5565 17.3734C39.8206 17.666 40.2013 17.8163 40.6829 17.8163C41.0558 17.8163 41.3588 17.7609 41.6074 17.6423C41.8559 17.5237 42.0579 17.3734 42.2055 17.1757C42.3609 16.9859 42.4696 16.7487 42.5396 16.4798C42.6095 16.211 42.6405 15.9184 42.6405 15.6021V10.8968H44.3962V19.0025ZM47.387 16.4008C47.4414 16.9227 47.6356 17.2864 47.9696 17.5C48.3114 17.7056 48.7154 17.8163 49.1893 17.8163C49.3524 17.8163 49.5389 17.8005 49.7486 17.7767C49.9583 17.753 50.1603 17.6977 50.339 17.6265C50.5254 17.5553 50.673 17.4446 50.7973 17.3023C50.9139 17.1599 50.9682 16.978 50.9605 16.7487C50.9527 16.5194 50.8672 16.3296 50.7119 16.1872C50.5565 16.037 50.3623 15.9263 50.1215 15.8314C49.8807 15.7444 49.6088 15.6653 49.298 15.6021C48.9873 15.5388 48.6766 15.4676 48.3581 15.3964C48.0318 15.3253 47.7133 15.2304 47.4103 15.1276C47.1074 15.0248 46.8355 14.8824 46.5946 14.7005C46.3538 14.5266 46.1596 14.2972 46.0198 14.0205C45.8722 13.7437 45.8023 13.4036 45.8023 12.9924C45.8023 12.5496 45.911 12.1858 46.1208 11.8853C46.3305 11.5848 46.6024 11.3476 46.9209 11.1657C47.2472 10.9838 47.6045 10.8573 48.0007 10.7782C48.3969 10.707 48.7776 10.6675 49.1349 10.6675C49.5466 10.6675 49.9428 10.7149 50.3157 10.8019C50.6886 10.8889 51.0304 11.0312 51.3333 11.2368C51.6363 11.4345 51.8849 11.6955 52.0869 12.0118C52.2889 12.3281 52.4131 12.7156 52.4675 13.1664H50.6342C50.5487 12.7394 50.3623 12.4468 50.0593 12.3044C49.7564 12.1542 49.4068 12.083 49.0184 12.083C48.8941 12.083 48.7465 12.0909 48.5756 12.1146C48.4047 12.1384 48.2493 12.1779 48.0939 12.2333C47.9463 12.2886 47.822 12.3756 47.7133 12.4863C47.6123 12.597 47.5579 12.7394 47.5579 12.9212C47.5579 13.1427 47.6356 13.3166 47.7832 13.4511C47.9308 13.5855 48.125 13.6962 48.3658 13.7911C48.6066 13.8781 48.8785 13.9572 49.1893 14.0205C49.5 14.0837 49.8185 14.1549 50.1448 14.2261C50.4633 14.2972 50.774 14.3921 51.0848 14.4949C51.3955 14.5977 51.6674 14.7401 51.9082 14.922C52.149 15.1038 52.3432 15.3253 52.4908 15.5941C52.6384 15.863 52.7161 16.2031 52.7161 16.5985C52.7161 17.0808 52.6074 17.4841 52.3898 17.8242C52.1723 18.1563 51.8927 18.4331 51.5509 18.6387C51.209 18.8443 50.8206 19.0025 50.4011 19.0974C49.9816 19.1923 49.5622 19.2397 49.1504 19.2397C48.6455 19.2397 48.1794 19.1844 47.7521 19.0657C47.3249 18.9471 46.952 18.7731 46.6413 18.5438C46.3305 18.3066 46.0819 18.014 45.9033 17.666C45.7246 17.3181 45.6314 16.899 45.6158 16.4166H47.387V16.4008ZM53.1822 10.8889H54.5106V8.45324H56.2663V10.8889H57.851V12.2253H56.2663V16.5589C56.2663 16.7487 56.274 16.9069 56.2896 17.0492C56.3051 17.1836 56.3439 17.3023 56.3983 17.3972C56.4527 17.4921 56.5381 17.5632 56.6547 17.6107C56.7712 17.6581 56.9188 17.6818 57.1208 17.6818C57.2451 17.6818 57.3694 17.6818 57.4937 17.6739C57.6179 17.666 57.7422 17.6502 57.8665 17.6186V19.0025C57.6723 19.0262 57.4781 19.042 57.2994 19.0657C57.113 19.0895 56.9266 19.0974 56.7324 19.0974C56.2663 19.0974 55.8934 19.0499 55.6137 18.9629C55.334 18.876 55.1088 18.7415 54.9534 18.5675C54.7903 18.3936 54.6893 18.1801 54.6271 17.9191C54.5728 17.6581 54.5339 17.3576 54.5261 17.0255V12.2412H53.1977V10.8889H53.1822ZM59.0939 10.8889H60.7564V11.9881H60.7874C61.036 11.5136 61.3778 11.1815 61.8206 10.9759C62.2634 10.7703 62.7373 10.6675 63.2578 10.6675C63.887 10.6675 64.4308 10.7782 64.8969 11.0075C65.363 11.2289 65.7514 11.5373 66.0622 11.9327C66.3729 12.3281 66.5982 12.7868 66.7535 13.3087C66.9089 13.8307 66.9866 14.3921 66.9866 14.9852C66.9866 15.5309 66.9167 16.0607 66.7768 16.5668C66.637 17.0808 66.4273 17.5316 66.1476 17.927C65.868 18.3224 65.5106 18.6308 65.0756 18.868C64.6405 19.1053 64.1356 19.2239 63.5452 19.2239C63.2889 19.2239 63.0325 19.2002 62.7761 19.1527C62.5198 19.1053 62.2712 19.0262 62.0381 18.9234C61.8051 18.8206 61.5798 18.6862 61.3856 18.5201C61.1836 18.354 61.0205 18.1642 60.8807 17.9507H60.8496V21.9996H59.0939V10.8889ZM65.2309 14.9536C65.2309 14.5898 65.1843 14.234 65.0911 13.886C64.9979 13.5381 64.8581 13.2376 64.6716 12.9687C64.4852 12.6998 64.2521 12.4863 63.9802 12.3281C63.7006 12.17 63.3821 12.083 63.0247 12.083C62.2867 12.083 61.7274 12.344 61.3545 12.8659C60.9816 13.3878 60.7952 14.0837 60.7952 14.9536C60.7952 15.3648 60.8418 15.7444 60.9428 16.0923C61.0438 16.4403 61.1836 16.7408 61.3856 16.9939C61.5798 17.2469 61.8129 17.4446 62.0848 17.587C62.3566 17.7372 62.6752 17.8084 63.0325 17.8084C63.4365 17.8084 63.7705 17.7214 64.0502 17.5553C64.3298 17.3893 64.5551 17.1678 64.7338 16.9069C64.9124 16.638 65.0445 16.3375 65.1222 15.9974C65.1921 15.6574 65.2309 15.3095 65.2309 14.9536ZM68.3305 7.79688H70.0862V9.48918H68.3305V7.79688ZM68.3305 10.8889H70.0862V19.0025H68.3305V10.8889ZM71.6554 7.79688H73.411V19.0025H71.6554V7.79688ZM78.7945 19.2239C78.1575 19.2239 77.5904 19.1132 77.0932 18.8997C76.5961 18.6862 76.1766 18.3857 75.827 18.014C75.4852 17.6344 75.2211 17.1836 75.0424 16.6617C74.8637 16.1398 74.7705 15.5625 74.7705 14.9378C74.7705 14.321 74.8637 13.7516 75.0424 13.2297C75.2211 12.7077 75.4852 12.257 75.827 11.8774C76.1688 11.4978 76.5961 11.2052 77.0932 10.9917C77.5904 10.7782 78.1575 10.6675 78.7945 10.6675C79.4315 10.6675 79.9986 10.7782 80.4958 10.9917C80.9929 11.2052 81.4124 11.5057 81.762 11.8774C82.1038 12.257 82.368 12.7077 82.5466 13.2297C82.7253 13.7516 82.8185 14.321 82.8185 14.9378C82.8185 15.5625 82.7253 16.1398 82.5466 16.6617C82.368 17.1836 82.1038 17.6344 81.762 18.014C81.4202 18.3936 80.9929 18.6862 80.4958 18.8997C79.9986 19.1132 79.4315 19.2239 78.7945 19.2239ZM78.7945 17.8084C79.1829 17.8084 79.5247 17.7214 79.8122 17.5553C80.0996 17.3893 80.3326 17.1678 80.5191 16.899C80.7055 16.6301 80.8376 16.3217 80.9308 15.9816C81.0163 15.6416 81.0629 15.2936 81.0629 14.9378C81.0629 14.5898 81.0163 14.2498 80.9308 13.9018C80.8454 13.5539 80.7055 13.2534 80.5191 12.9845C80.3326 12.7156 80.0996 12.5021 79.8122 12.3361C79.5247 12.17 79.1829 12.083 78.7945 12.083C78.4061 12.083 78.0643 12.17 77.7768 12.3361C77.4894 12.5021 77.2564 12.7235 77.0699 12.9845C76.8835 13.2534 76.7514 13.5539 76.6582 13.9018C76.5727 14.2498 76.5261 14.5898 76.5261 14.9378C76.5261 15.2936 76.5727 15.6416 76.6582 15.9816C76.7437 16.3217 76.8835 16.6301 77.0699 16.899C77.2564 17.1678 77.4894 17.3893 77.7768 17.5553C78.0643 17.7293 78.4061 17.8084 78.7945 17.8084ZM83.3312 10.8889H84.6596V8.45324H86.4153V10.8889H88V12.2253H86.4153V16.5589C86.4153 16.7487 86.423 16.9069 86.4386 17.0492C86.4541 17.1836 86.493 17.3023 86.5473 17.3972C86.6017 17.4921 86.6872 17.5632 86.8037 17.6107C86.9202 17.6581 87.0678 17.6818 87.2698 17.6818C87.3941 17.6818 87.5184 17.6818 87.6427 17.6739C87.767 17.666 87.8913 17.6502 88.0155 17.6186V19.0025C87.8213 19.0262 87.6271 19.042 87.4485 19.0657C87.262 19.0895 87.0756 19.0974 86.8814 19.0974C86.4153 19.0974 86.0424 19.0499 85.7627 18.9629C85.4831 18.876 85.2578 18.7415 85.1024 18.5675C84.9393 18.3936 84.8383 18.1801 84.7761 17.9191C84.7218 17.6581 84.6829 17.3576 84.6752 17.0255V12.2412H83.3468V10.8889H83.3312Z" fill="white"/>
<path d="M21.0756 7.79727H13.0275L10.5417 0L8.04802 7.79727L0 7.78936L6.51766 12.6132L4.02401 20.4026L10.5417 15.5866L17.0516 20.4026L14.5657 12.6132L21.0756 7.79727Z" fill="#00B67A"/>
<path d="M15.1251 14.3768L14.5658 12.6133L10.5417 15.5867L15.1251 14.3768Z" fill="#005128"/>
</g>
<defs>
<clipPath id="clip0_4200_20535">
<rect width="88" height="22" fill="white"/>
</clipPath>
</defs>
</svg>
