<svg width="76" height="21" viewBox="0 0 76 21" fill="none" xmlns="http://www.w3.org/2000/svg">
<g clip-path="url(#clip0_4037_44025)">
<path d="M19.7749 0H23.2349V21H19.7749V0ZM35.3449 14.301C35.3449 17.5148 32.5623 17.7711 31.7344 17.7711C29.6662 17.7711 29.2899 15.8912 29.2899 14.7573V6.72H25.8299V14.7405C25.8299 16.7312 26.4735 18.3743 27.6016 19.4697C28.598 20.4382 30.0911 20.9675 31.7085 20.9675C32.8555 20.9675 34.4799 20.6205 35.3449 19.8537V21H38.8049V6.72H35.3449V14.301ZM45.7249 1.68H42.2649V6.72H39.6699V10.08H42.2649V21H45.7249V10.08H48.32V6.72H45.7249V1.68ZM59.2164 16.7303C58.463 17.3881 57.4682 17.7525 56.3766 17.7525C53.9701 17.7525 52.203 16.0365 52.203 13.6801C52.203 11.3238 53.9139 9.68008 56.3766 9.68008C57.4493 9.68008 58.463 10.0271 59.2353 10.6846L59.7602 11.1232L62.0931 8.85869L61.5091 8.34713C60.1365 7.14354 58.3137 6.46806 56.3754 6.46806C52.0504 6.46806 48.9094 9.49873 48.9094 13.6627C48.9094 17.8089 52.1255 20.948 56.3754 20.948C58.3502 20.948 60.1918 20.2725 61.5471 19.0497L62.111 18.5382L59.7417 16.2751L59.2164 16.7303ZM74.4428 7.96494C73.4464 6.99734 72.2784 6.46806 70.661 6.46806C69.514 6.46806 68.2147 6.81511 67.3497 7.58097V0H63.8897V21H67.3497V13.1334C67.3497 9.91962 69.7008 9.66413 70.5287 9.66413C72.5969 9.66413 72.5397 11.545 72.5397 12.6771V21H75.9997V12.6948C76 10.7041 75.5718 9.06101 74.4428 7.96494Z" fill="white"/>
<path d="M56.2623 11.2871C57.6437 11.2871 58.7639 12.3746 58.7639 13.7164C58.7639 15.0582 57.644 16.1458 56.2623 16.1458C54.8808 16.1458 53.7606 15.0582 53.7606 13.7164C53.7606 12.3746 54.8808 11.2871 56.2623 11.2871Z" fill="#FF3D2E"/>
<path d="M14.9307 15.7256C13.615 17.0403 11.8281 17.7527 9.94752 17.7527C6.09303 17.7527 3.2906 14.8127 3.2906 10.7772C3.2906 6.72338 6.09333 3.78338 9.94752 3.78338C11.8098 3.78338 13.5769 4.49489 14.9128 5.79181L15.4386 6.30338L17.7517 4.05717L17.2441 3.54561C15.3261 1.62785 12.7311 0.587891 9.94752 0.587891C4.26874 0.587891 0 4.97013 0 10.7946C0 16.6016 4.2879 20.9662 9.94752 20.9662C12.7503 20.9662 15.3453 19.9079 17.2629 17.9901L17.7706 17.4786L15.4767 15.1963L14.9307 15.7256Z" fill="white"/>
</g>
<defs>
<clipPath id="clip0_4037_44025">
<rect width="76" height="21" fill="white"/>
</clipPath>
</defs>
</svg>
