<svg width="294" height="63" viewBox="0 0 294 63" fill="none" xmlns="http://www.w3.org/2000/svg">
<path d="M278.731 29.4156C275.406 29.4207 272.138 29.059 269.027 27.5257C267.416 26.7308 265.986 25.641 264.874 24.0569C264.069 22.9008 263.378 21.5503 264.012 20.0937C264.677 18.5655 266.056 18.3364 267.412 18.3666C269.04 18.4021 270.002 19.5691 270.873 21.0154C273.555 25.4524 281.41 26.5937 285.032 23.119C286.651 21.5651 286.454 19.553 284.507 18.3049C282.534 17.0361 280.302 16.863 278.14 16.4304C275.498 15.9007 272.841 15.4527 270.269 14.5148C269.083 14.0816 267.941 13.537 266.908 12.7215C263.74 10.2098 263.614 6.0123 266.672 3.31266C268.764 1.46849 271.249 0.837026 273.796 0.42442C277.865 -0.232788 281.903 -0.171637 285.89 1.03593C287.426 1.49938 288.887 2.21774 290.156 3.37381C291.919 4.98368 292.444 6.7004 291.587 8.02447C290.611 9.53714 287.955 9.94009 286.48 8.76343C286.087 8.45253 285.754 8.02962 285.426 7.61702C282.367 3.79156 277.699 2.68055 273.56 4.81503C272.602 5.30939 271.591 5.84944 271.635 7.31641C271.678 8.77823 272.715 9.27774 273.695 9.68004C276.964 11.0196 280.433 11.2288 283.794 12.0643C285.881 12.5837 287.977 13.0935 289.906 14.1782C294.65 16.8372 294.982 22.7109 290.611 26.1849C287.977 28.2949 283.916 29.395 278.731 29.4156Z" fill="white"/>
<path d="M97.3087 11.2548C97.3087 13.8225 97.3612 16.3895 97.2954 18.952C97.1904 23.1849 95.2912 25.9715 91.9838 27.5562C87.3765 29.7622 82.5587 29.609 77.7369 29.2015C75.6802 29.0284 73.6499 28.59 71.6944 27.7448C67.9054 26.1099 65.936 22.885 65.8138 18.2697C65.6872 13.3848 65.7353 8.4837 65.7878 3.59358C65.8138 1.26021 67.0833 0.104139 69.4065 0.0429883C71.9183 -0.0233118 73.2878 1.0259 73.3486 3.42558C73.4581 7.83228 73.379 12.2486 73.41 16.6547C73.4537 22.5947 75.2345 24.7337 80.3322 25.0343C80.6777 25.0549 81.0189 25.0549 81.365 25.06C88.5498 25.1109 90.0852 22.0237 89.7966 15.5038C89.6301 11.7446 89.7484 7.96424 89.7744 4.19479C89.7966 1.2808 90.9206 0.0635864 93.5109 0.0429883C96.1714 0.0223902 97.2915 1.17395 97.3922 4.03709C97.3966 4.19479 97.3966 4.35829 97.3966 4.51599C97.3966 6.76247 97.3966 9.00895 97.3966 11.2554C97.3656 11.2548 97.3396 11.2548 97.3087 11.2548Z" fill="white"/>
<path d="M172.454 0.521428C176.243 0.521428 180.028 0.521428 183.817 0.521428C184.299 0.521428 184.789 0.470576 185.261 0.547175C186.618 0.776329 188.285 0.842629 188.228 3.02796C188.176 5.02984 186.583 5.21329 185.297 5.27959C182.82 5.40704 180.335 5.42249 177.863 5.30984C176.541 5.25384 176.108 5.651 176.134 7.27117C176.222 13.1242 176.173 18.9773 176.165 24.8304C176.16 28.1621 175.11 29.4051 172.362 29.4051C169.601 29.4051 168.569 28.1924 168.56 24.851C168.542 18.9979 168.508 13.1448 168.586 7.29176C168.608 5.69219 168.179 5.23904 166.836 5.31499C164.569 5.43729 162.289 5.33044 160.019 5.34074C159.179 5.34589 158.369 5.22359 157.604 4.82128C156.938 4.47497 156.435 3.91947 156.4 3.02796C156.361 2.01415 156.899 1.40779 157.643 1.02608C158.479 0.592877 159.363 0.511772 160.268 0.516921C164.324 0.531726 168.389 0.521428 172.454 0.521428Z" fill="white"/>
<path d="M143.816 14.4742C143.816 10.9539 143.781 7.4342 143.829 3.91386C143.864 1.19362 145.015 0.0523565 147.562 0.0420575C150.187 0.0317584 151.391 1.23932 151.399 4.04581C151.426 11.1676 151.426 18.2836 151.399 25.4054C151.39 28.1919 150.156 29.4246 147.549 29.404C145.033 29.3885 143.86 28.217 143.829 25.5071C143.781 21.8297 143.816 18.1516 143.816 14.4742Z" fill="white"/>
<path d="M134.356 15.6508C133.113 14.7644 131.748 14.2244 129.967 13.7764C131.144 13.0838 132.032 12.6608 132.834 12.0751C136.006 9.76746 136.133 5.80426 133.118 3.20117C131.656 1.93761 129.985 1.19415 128.173 0.954694C121.785 0.103735 115.371 0.557537 108.969 0.638642C106.541 0.668895 105.823 1.88676 105.819 4.8619C105.806 11.4385 105.806 18.0202 105.819 24.5962C105.828 27.6324 106.606 28.8291 109.179 28.8497C115.786 28.9108 122.411 29.3743 129.005 28.4319C131.293 28.1062 133.437 27.2501 135.17 25.3757C137.988 22.3188 137.625 17.9784 134.356 15.6508ZM113.371 6.23682C113.433 5.21271 113.66 4.8207 114.557 4.8561C117.913 4.999 121.287 4.58125 124.625 5.29446C126.178 5.62531 127.776 6.06881 127.732 8.34555C127.693 10.4446 126.244 11.2035 124.687 11.6464C122.657 12.2219 120.587 12.0133 118.806 12.0744C118.329 12.0744 118.123 12.0744 117.918 12.0744C113.008 12.0796 113.035 12.0796 113.371 6.23682ZM126.03 24.0407C123.68 24.7487 121.26 24.6013 118.858 24.591C117.484 24.5962 116.106 24.5144 114.741 24.6168C113.616 24.7037 113.288 24.1836 113.389 22.9612C113.577 20.6793 112.549 17.7093 113.822 16.308C114.819 15.2131 117.34 15.972 119.182 15.9411C121.448 15.9057 123.724 15.8188 125.947 16.4451C127.623 16.9137 129.202 17.6984 129.268 20.0569C129.342 22.5325 127.785 23.5109 126.03 24.0407Z" fill="white"/>
<path d="M257.786 24.8666C255.611 21.0714 252.754 18.1426 248.803 15.7687C251.398 15.208 253.48 14.704 255.318 13.3999C258.762 10.9648 258.998 6.3341 255.835 3.42076C254.285 1.99434 252.465 1.30688 250.536 0.950278C246.222 0.150815 241.876 0.644525 237.545 0.537673C235.274 0.481672 232.995 0.446268 230.732 0.598823C228.369 0.761677 227.446 1.80639 227.433 4.20542C227.398 11.4186 227.39 18.6318 227.438 25.8501C227.455 28.3258 228.711 29.4213 231.214 29.411C233.678 29.4007 234.911 28.2646 234.968 25.7993C235.029 23.1557 235.012 20.5062 234.977 17.8626C234.964 16.9048 235.139 16.4671 236.097 16.3956C239.878 16.1053 243.172 17.0934 245.741 20.5983C247.438 22.9162 249.263 25.1015 251.013 27.3635C252.382 29.131 254.106 29.6865 256.062 29.3454C258.612 28.8961 259.208 27.3525 257.786 24.8666ZM235.816 12.5541C235.195 12.5747 234.959 12.2026 234.998 11.5197C235.007 11.362 235.002 11.1985 234.993 11.0408C234.714 4.87164 234.714 4.87164 240.716 4.87164C242.983 4.90189 245.28 4.64763 247.494 5.39625C248.921 5.8803 250.242 6.67977 250.229 8.77369C250.216 10.8013 248.894 11.5042 247.538 11.8911C243.679 12.9873 239.728 12.4421 235.816 12.5541Z" fill="white"/>
<path d="M220.291 23.5015C216.821 16.8689 213.229 10.3232 209.75 3.70096C208.385 1.10303 206.477 -0.0736386 203.887 0.0486626C201.402 -0.0684891 199.586 1.19508 198.295 3.70096C194.76 10.5679 191.163 17.389 187.619 24.2508C186.026 27.3328 186.967 29.2123 190.104 29.4164C191.688 29.5232 192.939 28.9375 193.771 27.3173C194.405 26.0846 195.105 24.8822 195.661 23.5987C196.125 22.5289 196.729 22.1517 197.766 22.1723C201.966 22.2437 206.167 22.2386 210.372 22.1774C211.321 22.162 211.86 22.5135 212.315 23.4816C213.006 24.9537 213.763 26.4007 214.647 27.7196C215.973 29.7061 218.86 30.0273 220.611 28.4785C222.645 26.6653 221.079 25.0045 220.291 23.5015ZM198.44 17.8061C200.247 13.8732 201.975 10.1192 203.927 5.87599C205.848 9.94604 207.62 13.6955 209.558 17.8061C205.686 17.8061 202.203 17.8061 198.44 17.8061Z" fill="white"/>
<path d="M143.602 40.5527H139.073L139.812 36.2734H153.429L152.69 40.5527H148.196L145.435 56.9456H140.84L143.602 40.5527Z" fill="url(#paint0_linear_4174_21708)"/>
<path d="M155.425 50.2293C155.377 50.499 155.346 50.7385 155.337 51.0191C155.294 52.3947 155.644 53.5456 156.782 53.5456C157.757 53.5456 158.252 52.8427 158.571 51.9203H163.048C162.308 54.6663 160.348 57.2842 156.463 57.2842C152.476 57.2842 150.91 54.3142 150.91 50.6619C150.91 46.6427 152.734 40.8662 158.13 40.8662C162.103 40.8662 163.708 43.5813 163.708 47.2136C163.708 48.3749 163.555 49.3835 163.363 50.2345H155.425V50.2293H155.425ZM159.437 47.1628C159.494 46.8519 159.503 46.6073 159.503 46.4039C159.503 45.3598 159.171 44.4735 158.099 44.4735C156.961 44.4735 156.283 45.4564 155.933 47.1634C155.932 47.1628 159.437 47.1628 159.437 47.1628Z" fill="url(#paint1_linear_4174_21708)"/>
<path d="M177.093 51.2946C176.397 54.6772 174.647 57.2803 170.35 57.2803C166.784 57.2803 165.047 54.7789 165.047 51.0249C165.047 46.3942 167.2 40.8623 172.289 40.8623C176.795 40.8623 177.946 44.4946 177.736 46.9497H173.409C173.501 45.625 173.356 44.5506 172.21 44.5506C170.416 44.5506 169.593 48.8808 169.593 51.2901C169.593 52.9 170.057 53.6331 170.867 53.6331C171.746 53.6331 172.306 52.8691 172.73 51.2952C172.73 51.2946 177.093 51.2946 177.093 51.2946Z" fill="url(#paint2_linear_4174_21708)"/>
<path d="M186.294 35.1979L185.003 42.8237C185.764 41.8047 186.845 40.8624 188.586 40.8624C191.133 40.8624 192.41 42.8083 191.728 46.9292L190.043 56.934H185.628L187.221 47.3926C187.484 45.8188 187.287 45.0592 186.245 45.0592C185.046 45.0592 184.434 46.2617 184.149 47.9172L182.622 56.9392H178.172L181.848 35.1973H186.294V35.1979Z" fill="url(#paint3_linear_4174_21708)"/>
<path d="M194.625 45.5375C194.958 43.5098 195.155 42.3383 195.308 41.2074H199.693C199.662 41.6354 199.557 42.4806 199.491 42.8732C200.095 42.0126 201.198 40.8662 203.136 40.8662C205.713 40.8662 206.96 42.843 206.195 47.3662L204.58 56.9379H200.156L201.754 47.4067C202.025 45.8941 201.78 45.0586 200.796 45.0586C199.719 45.0586 198.975 46.0363 198.59 48.3395L197.146 56.9385H192.696L194.625 45.5375Z" fill="url(#paint4_linear_4174_21708)"/>
<path d="M221.049 47.7234C221.049 51.8444 219.159 57.2797 213.514 57.2797C209.454 57.2797 207.922 54.2434 207.922 50.6316C207.922 46.2301 210.158 40.8662 215.313 40.8662C218.896 40.8669 221.049 43.3573 221.049 47.7234ZM212.464 51.106C212.464 52.7159 212.942 53.5463 213.873 53.5463C215.759 53.5463 216.52 48.9008 216.52 46.8783C216.52 45.3753 216.056 44.637 215.098 44.637C213.269 44.6363 212.464 49.0681 212.464 51.106Z" fill="url(#paint5_linear_4174_21708)"/>
<path d="M221.819 56.9392L225.494 35.1973H229.944L226.268 56.9392H221.819Z" fill="url(#paint6_linear_4174_21708)"/>
<path d="M242.778 47.7234C242.778 51.8444 240.887 57.2797 235.243 57.2797C231.182 57.2797 229.651 54.2434 229.651 50.6316C229.651 46.2301 231.887 40.8662 237.041 40.8662C240.625 40.8669 242.778 43.3573 242.778 47.7234ZM234.193 51.106C234.193 52.7159 234.67 53.5463 235.602 53.5463C237.488 53.5463 238.249 48.9008 238.249 46.8783C238.249 45.3753 237.785 44.637 236.827 44.637C234.998 44.6363 234.193 49.0681 234.193 51.106Z" fill="url(#paint7_linear_4174_21708)"/>
<path d="M256.062 54.6662C255.2 59.7501 253.953 63.0001 248.812 63.0001C243.705 63.0001 243.29 59.7346 243.264 57.8197H247.626C247.648 58.5683 247.98 59.3426 249.109 59.3426C250.387 59.3426 251.039 58.4511 251.516 55.7154L251.639 54.9816C250.799 56.0765 249.81 56.5046 248.349 56.5046C245.684 56.5046 244.27 54.1307 244.27 50.6515C244.27 46.0414 246.598 40.8604 250.65 40.8604C252.417 40.8604 253.424 41.6193 253.752 42.5159C253.857 42.0827 254.045 41.4918 254.141 41.2015H258.421C258.189 42.3325 257.909 43.876 257.624 45.5471L256.062 54.6662ZM248.873 50.4436C248.873 51.8546 249.337 52.7055 250.33 52.7055C251.681 52.7055 252.478 50.8105 252.89 48.4314C253.226 46.4701 253.244 44.7231 251.573 44.7231C249.792 44.7225 248.873 48.2222 248.873 50.4436Z" fill="url(#paint8_linear_4174_21708)"/>
<path d="M261.032 41.2096H265.482L262.821 56.9401H258.372L261.032 41.2096ZM262.043 35.1885H266.493L265.806 39.2688H261.356L262.043 35.1885Z" fill="url(#paint9_linear_4174_21708)"/>
<path d="M270.737 50.2293C270.689 50.499 270.659 50.7385 270.65 51.0191C270.606 52.3947 270.956 53.5456 272.094 53.5456C273.07 53.5456 273.564 52.8427 273.884 51.9203H278.36C277.621 54.6663 275.66 57.2842 271.775 57.2842C267.789 57.2842 266.222 54.3142 266.222 50.6619C266.222 46.6427 268.047 40.8662 273.442 40.8662C277.415 40.8662 279.021 43.5813 279.021 47.2136C279.021 48.3749 278.868 49.3835 278.675 50.2345H270.738V50.2293H270.737ZM274.75 47.1628C274.807 46.8519 274.815 46.6073 274.815 46.4039C274.815 45.3598 274.483 44.4735 273.411 44.4735C272.273 44.4735 271.595 45.4564 271.245 47.1634C271.245 47.1628 274.75 47.1628 274.75 47.1628Z" fill="url(#paint10_linear_4174_21708)"/>
<path d="M283.977 51.9918C284.052 53.0822 284.634 53.6422 285.658 53.6422C286.62 53.6422 287.075 53.1633 287.075 52.3226C287.075 51.5791 286.537 51.1916 285.155 50.6973C281.904 49.5663 280.985 48.2217 280.985 46.1689C280.985 43.2704 282.814 40.8662 286.559 40.8662C290.396 40.8662 292.098 43.0773 292.02 45.7975H287.937C287.928 44.9318 287.535 44.31 286.476 44.31C285.863 44.31 285.242 44.5391 285.242 45.3695C285.242 46.0318 285.846 46.317 287.469 46.9079C290.484 48.0183 291.464 49.5618 291.464 51.7317C291.464 55.6441 288.571 57.2842 285.377 57.2842C281.75 57.2842 279.746 55.3486 279.811 51.9963H283.977V51.9918H283.977Z" fill="url(#paint11_linear_4174_21708)"/>
<path d="M55.5364 43.2266C55.2359 42.2428 55.8107 41.2374 56.3101 40.3369C60.6423 32.5424 60.7702 22.6094 56.6419 14.7099C52.5129 6.81035 44.2422 1.17075 35.3045 0.164806C26.3662 -0.840587 17.0258 2.80977 11.2039 9.59065C10.4347 10.4867 9.70076 11.4965 9.59463 12.6637C9.49297 13.7829 9.99233 14.8585 10.3414 15.9252C11.429 19.2303 11.1681 22.7978 11.4686 26.2598C12.4942 38.0461 20.7649 48.9231 31.9268 53.1811C31.9492 53.1899 31.9754 53.2032 32.0022 53.2071C29.845 54.0025 27.4225 53.3905 25.2787 52.5425C18.1396 49.7186 12.1277 44.2099 8.73276 37.3898C8.01667 35.9513 7.40671 34.2814 7.96807 32.7733C8.22893 32.0827 8.71097 31.4966 9.04667 30.8409C10.3107 28.3622 8.93608 24.9389 6.3013 23.9904C4.93113 23.4966 3.37942 23.7369 2.12823 24.4495C1.08929 25.0439 0.0240924 25.9272 0.00174964 27.195C-0.0205932 28.4932 0.165411 29.8748 0.885966 30.9851C1.91597 32.5766 3.38333 33.84 4.4178 35.4486C5.41708 37.0048 6.2393 38.662 7.14083 40.2751C10.5716 46.4052 16.3667 51.2051 23.0685 53.4612C29.7741 55.7255 37.3243 55.4283 43.8271 52.6436C44.5254 52.342 45.2638 52.0139 46.0195 52.1061C46.8993 52.2199 47.5886 52.88 48.2074 53.5137C49.476 54.8035 50.745 56.0973 52.0135 57.3828C54.6746 54.4495 57.5479 51.7084 60.6116 49.1899C59.2102 47.6338 57.8048 46.0815 56.3989 44.5253C56.0537 44.1447 55.6873 43.7337 55.5364 43.2266ZM4.75853 30.8591C3.40567 30.8591 2.30976 29.7748 2.30976 28.4374C2.30976 27.1 3.40623 26.0156 4.75853 26.0156C6.11083 26.0156 7.2073 27.1 7.2073 28.4374C7.2073 29.7748 6.11586 30.8591 4.75853 30.8591ZM12.3886 13.4946C12.3886 11.8069 13.7722 10.443 15.4741 10.443C17.1761 10.443 18.5597 11.8114 18.5597 13.4946C18.5597 15.1822 17.1761 16.5461 15.4741 16.5461C13.7722 16.5461 12.3886 15.1733 12.3886 13.4946ZM47.8449 28.0435C47.7388 31.1779 46.5809 33.434 45.7542 34.9768C45.0426 36.3148 44.0081 38.2206 41.8733 39.9955C40.7639 40.9181 38.8145 42.2599 36.0513 42.9465C34.1901 43.41 32.2452 43.4581 30.3444 43.2393C28.8547 43.0642 26.5914 42.9073 25.6055 41.6218C25.3005 41.2197 25.0173 40.6076 24.9955 40.5507C23.3025 36.7998 24.3102 33.8709 27.0952 31.147C28.3637 29.9096 28.4877 29.7173 28.5849 29.5251C28.7128 29.2715 29.2127 28.3142 28.8854 27.1641C28.5318 25.9399 27.4929 25.3803 27.2454 25.245C26.0428 24.5937 24.8626 24.8688 24.5621 24.9478C24.3102 25.0179 23.1478 25.3543 22.4713 26.4211C22.1664 26.9105 22.025 27.4441 22.1708 30.1106C22.268 31.8331 22.3652 32.2308 22.4713 33.8002C22.635 36.2004 22.4624 36.0563 22.6216 37.4898C22.7495 38.6791 23.0327 40.2833 23.665 42.0627C23.8331 42.5438 24.2174 43.5708 24.8587 44.7949C25.1681 45.3893 25.4552 45.8705 25.8267 46.4914C27.0159 48.4762 27.5063 49.0358 27.3957 49.1452C27.1834 49.3374 25.3357 47.7813 24.142 46.6576C24.08 46.6007 23.9521 46.4787 23.8147 46.3428C22.0597 44.6159 20.7644 42.5875 20.2343 41.7699C17.29 37.197 17.5554 37.8223 17.2504 37.197C16.0567 34.7443 15.6814 32.6462 15.3099 30.5564C14.2313 24.5103 16.1852 18.342 21.2777 14.6215C22.7054 13.5769 23.9124 13.0653 25.4552 12.4052C32.8021 9.27522 40.8472 12.3179 44.9979 18.7486C46.7976 21.5123 47.9511 24.7345 47.8449 28.0435ZM23.6164 28.2098C23.6164 27.2569 24.3945 26.4829 25.3625 26.4829C26.326 26.4829 27.1086 27.2524 27.1086 28.2098C27.1086 29.1671 26.3305 29.9366 25.3625 29.9366C24.3945 29.9366 23.6164 29.1627 23.6164 28.2098Z" fill="url(#paint12_linear_4174_21708)"/>
<defs>
<linearGradient id="paint0_linear_4174_21708" x1="143.566" y1="53.2673" x2="147.514" y2="37.1553" gradientUnits="userSpaceOnUse">
<stop stop-color="#E74F04"/>
<stop offset="0.4888" stop-color="#FF8315"/>
<stop offset="1" stop-color="#E95100"/>
</linearGradient>
<linearGradient id="paint1_linear_4174_21708" x1="157.017" y1="55.3634" x2="157.93" y2="40.4966" gradientUnits="userSpaceOnUse">
<stop stop-color="#E74F04"/>
<stop offset="0.4888" stop-color="#FF8315"/>
<stop offset="1" stop-color="#E95100"/>
</linearGradient>
<linearGradient id="paint2_linear_4174_21708" x1="170.244" y1="56.2027" x2="173.13" y2="41.7654" gradientUnits="userSpaceOnUse">
<stop stop-color="#E74F04"/>
<stop offset="0.4888" stop-color="#FF8315"/>
<stop offset="1" stop-color="#E95100"/>
</linearGradient>
<linearGradient id="paint3_linear_4174_21708" x1="184.556" y1="54.4891" x2="187.818" y2="38.9196" gradientUnits="userSpaceOnUse">
<stop stop-color="#E74F04"/>
<stop offset="0.4888" stop-color="#FF8315"/>
<stop offset="1" stop-color="#E95100"/>
</linearGradient>
<linearGradient id="paint4_linear_4174_21708" x1="198.809" y1="56.5319" x2="201.841" y2="41.1752" gradientUnits="userSpaceOnUse">
<stop stop-color="#E74F04"/>
<stop offset="0.4888" stop-color="#FF8315"/>
<stop offset="1" stop-color="#E95100"/>
</linearGradient>
<linearGradient id="paint5_linear_4174_21708" x1="213.841" y1="56.1293" x2="215.717" y2="41.2287" gradientUnits="userSpaceOnUse">
<stop stop-color="#E74F04"/>
<stop offset="0.4888" stop-color="#FF8315"/>
<stop offset="1" stop-color="#E95100"/>
</linearGradient>
<linearGradient id="paint6_linear_4174_21708" x1="225.07" y1="51.2727" x2="227.015" y2="42.0717" gradientUnits="userSpaceOnUse">
<stop stop-color="#E74F04"/>
<stop offset="0.4888" stop-color="#FF8315"/>
<stop offset="1" stop-color="#E95100"/>
</linearGradient>
<linearGradient id="paint7_linear_4174_21708" x1="235.577" y1="56.0753" x2="237.457" y2="41.0854" gradientUnits="userSpaceOnUse">
<stop stop-color="#E74F04"/>
<stop offset="0.4888" stop-color="#FF8315"/>
<stop offset="1" stop-color="#E95100"/>
</linearGradient>
<linearGradient id="paint8_linear_4174_21708" x1="249.472" y1="59.8133" x2="252.481" y2="42.8078" gradientUnits="userSpaceOnUse">
<stop stop-color="#E74F04"/>
<stop offset="0.4888" stop-color="#FF8315"/>
<stop offset="1" stop-color="#E95100"/>
</linearGradient>
<linearGradient id="paint9_linear_4174_21708" x1="261.073" y1="52.4415" x2="263.671" y2="43.4476" gradientUnits="userSpaceOnUse">
<stop stop-color="#E74F04"/>
<stop offset="0.4888" stop-color="#FF8315"/>
<stop offset="1" stop-color="#E95100"/>
</linearGradient>
<linearGradient id="paint10_linear_4174_21708" x1="271.154" y1="56.4315" x2="274.849" y2="42.4531" gradientUnits="userSpaceOnUse">
<stop stop-color="#E74F04"/>
<stop offset="0.4888" stop-color="#FF8315"/>
<stop offset="1" stop-color="#E95100"/>
</linearGradient>
<linearGradient id="paint11_linear_4174_21708" x1="285.245" y1="56.173" x2="287.023" y2="42.3995" gradientUnits="userSpaceOnUse">
<stop stop-color="#E74F04"/>
<stop offset="0.4888" stop-color="#FF8315"/>
<stop offset="1" stop-color="#E95100"/>
</linearGradient>
<linearGradient id="paint12_linear_4174_21708" x1="0.000632505" y1="28.6914" x2="60.6114" y2="28.6914" gradientUnits="userSpaceOnUse">
<stop stop-color="#E74F04"/>
<stop offset="0.4888" stop-color="#FF8315"/>
<stop offset="1" stop-color="#E95100"/>
</linearGradient>
</defs>
</svg>
