<svg width="24" height="24" viewBox="0 0 24 24" fill="none" xmlns="http://www.w3.org/2000/svg">
<g clip-path="url(#clip0_5151_160920)">
<path d="M1.21875 3.375C1.21875 3.65816 1.27452 3.93856 1.38288 4.20016C1.49124 4.46177 1.65008 4.69947 1.8503 4.8997C2.05053 5.09992 2.28823 5.25876 2.54984 5.36712C2.81144 5.47548 3.09184 5.53125 3.375 5.53125C3.65816 5.53125 3.93856 5.47548 4.20016 5.36712C4.46177 5.25876 4.69947 5.09992 4.8997 4.8997C5.09992 4.69947 5.25876 4.46177 5.36712 4.20016C5.47548 3.93856 5.53125 3.65816 5.53125 3.375C5.53125 3.09184 5.47548 2.81144 5.36712 2.54984C5.25876 2.28823 5.09992 2.05053 4.8997 1.8503C4.69947 1.65008 4.46177 1.49124 4.20016 1.38288C3.93856 1.27452 3.65816 1.21875 3.375 1.21875C3.09184 1.21875 2.81144 1.27452 2.54984 1.38288C2.28823 1.49124 2.05053 1.65008 1.8503 1.8503C1.65008 2.05053 1.49124 2.28823 1.38288 2.54984C1.27452 2.81144 1.21875 3.09184 1.21875 3.375Z" stroke="#389FFF" stroke-width="1.5" stroke-linecap="round" stroke-linejoin="round"/>
<path d="M5.12109 4.64062L6.96876 5.98037" stroke="#389FFF" stroke-width="1.5" stroke-linecap="round" stroke-linejoin="round"/>
<path d="M1.21875 20.625C1.21875 20.9082 1.27452 21.1886 1.38288 21.4501C1.49124 21.7117 1.65008 21.9495 1.8503 22.1497C2.05053 22.3499 2.28823 22.5088 2.54984 22.6171C2.81144 22.7255 3.09184 22.7812 3.375 22.7812C3.65816 22.7812 3.93856 22.7255 4.20016 22.6171C4.46177 22.5088 4.69947 22.3499 4.8997 22.1497C5.09992 21.9495 5.25876 21.7117 5.36712 21.4501C5.47548 21.1886 5.53125 20.9082 5.53125 20.625C5.53125 20.3418 5.47548 20.0614 5.36712 19.7999C5.25876 19.5383 5.09992 19.3005 4.8997 19.1003C4.69947 18.9001 4.46177 18.7412 4.20016 18.6329C3.93856 18.5245 3.65816 18.4688 3.375 18.4688C3.09184 18.4688 2.81144 18.5245 2.54984 18.6329C2.28823 18.7412 2.05053 18.9001 1.8503 19.1003C1.65008 19.3005 1.49124 19.5383 1.38288 19.7999C1.27452 20.0614 1.21875 20.3418 1.21875 20.625Z" stroke="#389FFF" stroke-width="1.5" stroke-linecap="round" stroke-linejoin="round"/>
<path d="M5.12109 19.3583L6.96876 18.0176" stroke="#389FFF" stroke-width="1.5" stroke-linecap="round" stroke-linejoin="round"/>
<path d="M18.4688 3.375C18.4688 3.94688 18.696 4.49532 19.1003 4.8997C19.5047 5.30408 20.0532 5.53125 20.625 5.53125C21.1968 5.53125 21.7453 5.30408 22.1497 4.8997C22.554 4.49532 22.7812 3.94688 22.7812 3.375C22.7812 2.80312 22.554 2.25468 22.1497 1.8503C21.7453 1.44593 21.1968 1.21875 20.625 1.21875C20.0532 1.21875 19.5047 1.44593 19.1003 1.8503C18.696 2.25468 18.4688 2.80312 18.4688 3.375Z" stroke="#389FFF" stroke-width="1.5" stroke-linecap="round" stroke-linejoin="round"/>
<path d="M18.8789 4.64062L17.0312 5.98037" stroke="#389FFF" stroke-width="1.5" stroke-linecap="round" stroke-linejoin="round"/>
<path d="M18.4688 20.625C18.4688 21.1968 18.696 21.7453 19.1003 22.1497C19.5047 22.554 20.0532 22.7812 20.625 22.7812C21.1968 22.7812 21.7453 22.554 22.1497 22.1497C22.554 21.7453 22.7812 21.1968 22.7812 20.625C22.7812 20.0532 22.554 19.5047 22.1497 19.1003C21.7453 18.696 21.1968 18.4688 20.625 18.4688C20.0532 18.4688 19.5047 18.696 19.1003 19.1003C18.696 19.5047 18.4688 20.0532 18.4688 20.625Z" stroke="#389FFF" stroke-width="1.5" stroke-linecap="round" stroke-linejoin="round"/>
<path d="M18.8789 19.3583L17.0312 18.0176" stroke="#389FFF" stroke-width="1.5" stroke-linecap="round" stroke-linejoin="round"/>
<path d="M9.48438 8.04688C9.48438 8.71406 9.74941 9.35392 10.2211 9.8257C10.6929 10.2974 11.3328 10.5625 12 10.5625C12.6672 10.5625 13.3071 10.2974 13.7789 9.8257C14.2505 9.35392 14.5156 8.71406 14.5156 8.04688C14.5156 7.37969 14.2505 6.73983 13.7789 6.26805C13.3071 5.79629 12.6672 5.53125 12 5.53125C11.3328 5.53125 10.6929 5.79629 10.2211 6.26805C9.74941 6.73983 9.48438 7.37969 9.48438 8.04688Z" stroke="#389FFF" stroke-width="1.5" stroke-linecap="round" stroke-linejoin="round"/>
<path d="M7.6875 15.5938C7.6875 14.45 8.14186 13.3531 8.9506 12.5443C9.75935 11.7356 10.8562 11.2812 12 11.2812C13.1438 11.2812 14.2407 11.7356 15.0494 12.5443C15.8582 13.3531 16.3125 14.45 16.3125 15.5938H7.6875Z" stroke="#389FFF" stroke-width="1.5" stroke-linecap="round" stroke-linejoin="round"/>
</g>
<defs>
<clipPath id="clip0_5151_160920">
<rect width="24" height="24" fill="white"/>
</clipPath>
</defs>
</svg>
