<svg width="54" height="54" viewBox="0 0 54 54" fill="none" xmlns="http://www.w3.org/2000/svg">
<g clip-path="url(#clip0_5124_134920)">
<path d="M54 24.7437C54.0059 20.0729 53.7431 15.4057 53.2134 10.765C53.0228 9.33518 52.448 7.98377 51.5504 6.8546C50.5505 5.7195 49.1479 5.01824 47.6399 4.8994C45.6847 4.67467 43.1451 4.51735 40.0887 4.40498C36.6728 4.29262 32.7848 4.24766 28.852 4.29262C28.6747 4.32338 28.5138 4.41576 28.3979 4.55348C28.2821 4.69123 28.2184 4.86547 28.2184 5.04547C28.2184 5.22549 28.2821 5.39973 28.3979 5.53745C28.5138 5.6752 28.6747 5.76758 28.852 5.79834C32.7623 5.79834 36.6503 6.06803 40.0887 6.31523C43.0103 6.51751 45.5499 6.78719 47.4602 7.07936C48.3995 7.17201 49.264 7.63252 49.865 8.36035C50.4497 9.21544 50.7701 10.2236 50.7863 11.2595C51.1459 13.7765 51.2807 17.4397 51.3932 21.485C51.3932 23.7323 51.5054 26.2944 51.5729 28.744C51.7077 35.4861 51.82 42.0259 51.9325 45.7117C51.9836 46.9273 51.6958 48.1335 51.1009 49.1951C50.8597 49.7016 50.49 50.1363 50.0288 50.4556C49.5675 50.7748 49.0304 50.9679 48.4715 51.0154C48.3165 51.0442 48.1766 51.1261 48.0758 51.2471C47.975 51.3684 47.9198 51.5209 47.9198 51.6784C47.9198 51.8359 47.975 51.9885 48.0758 52.1098C48.1766 52.2308 48.3165 52.3127 48.4715 52.3415C49.113 52.3168 49.7408 52.1485 50.3087 51.849C50.8766 51.5495 51.37 51.1263 51.7527 50.611C52.8937 49.1976 53.5199 47.4381 53.5282 45.6219C53.663 41.2168 54 32.6995 54 24.7437Z" fill="#1A1A1A"/>
<path d="M44.2462 51.3738C38.0212 51.3738 27.7731 51.5986 19.5252 51.3738C16.0277 51.4134 12.5308 51.2483 9.05249 50.8795C7.87918 50.7245 6.7399 50.3753 5.68143 49.8456C5.2411 49.66 4.8463 49.381 4.52425 49.028C4.20221 48.6749 3.96061 48.256 3.81611 47.8006C3.41158 45.5533 3.05201 41.508 2.71489 36.9009C2.46769 33.395 2.31037 29.552 2.08564 25.8662C1.81641 20.9941 1.95172 16.1081 2.49016 11.2583C2.57944 10.718 2.78662 10.2039 3.09694 9.7526C3.43633 9.27481 3.84541 8.8506 4.31053 8.49406C4.39281 8.45242 4.4653 8.39376 4.52324 8.32198C4.58116 8.25023 4.62321 8.16698 4.64656 8.07777C4.66994 7.98853 4.6741 7.89538 4.65878 7.80444C4.64348 7.71349 4.60903 7.62682 4.55773 7.55017C4.45097 7.4135 4.29565 7.32323 4.12405 7.29812C3.95246 7.27301 3.77777 7.315 3.63631 7.41532C2.99801 7.85216 2.43612 8.39128 1.97327 9.01098C1.51488 9.61389 1.19977 10.3133 1.05185 11.0561C0.180018 17.1955 -0.150868 23.3996 0.0630032 29.597C0.108421 35.8268 0.528689 42.0482 1.32153 48.2276C1.46081 48.9191 1.74256 49.5738 2.14883 50.1503C2.5551 50.7269 3.07701 51.2125 3.68127 51.5761C5.1966 52.5344 6.91069 53.134 8.6929 53.3291C12.2694 53.6864 15.865 53.8142 19.4578 53.7111C27.7731 53.7111 38.0212 53.0595 44.179 52.8797C44.3758 52.8685 44.5612 52.7837 44.6987 52.6422C44.836 52.5006 44.9152 52.3127 44.9206 52.1156C44.9212 51.93 44.8524 51.7509 44.7277 51.6137C44.6029 51.4762 44.4312 51.3907 44.2462 51.3738Z" fill="#1A1A1A"/>
<path d="M6.80501 28.1585C6.84038 28.5054 6.94877 28.8411 7.12307 29.1433C7.29738 29.4452 7.53363 29.7071 7.81632 29.9114C8.6029 30.361 9.72659 30.1362 10.6031 28.8103C11.5187 27.2117 12.2716 25.5251 12.8504 23.7761C13.6814 25.6344 14.7463 27.3791 16.0192 28.9676C17.2328 30.2935 18.5812 30.743 19.6824 30.0912C20.248 29.6754 20.6274 29.054 20.7387 28.3607C20.9912 26.718 21.0665 25.0528 20.9635 23.3941C20.9635 19.9781 19.6824 13.5056 20.6263 9.34799C21.0533 7.43774 21.9523 6.04436 23.8626 6.02188C24.0399 5.99112 24.2008 5.89874 24.3167 5.76099C24.4325 5.62327 24.4962 5.44903 24.4962 5.26901C24.4962 5.08901 24.4325 4.91477 24.3167 4.77702C24.2008 4.6393 24.0399 4.54689 23.8626 4.51614C21.1432 4.51614 19.6824 6.26909 19.0082 9.01089C17.952 13.2584 19.0082 19.9556 19.0082 23.4616V26.3605C19.0082 27.1696 19.0082 28.608 18.6262 28.3157C18.2441 28.0237 18.6262 28.3157 18.7385 28.3157C18.8509 28.3157 18.5363 28.181 18.379 28.0687C17.833 27.5456 17.3638 26.9477 16.9856 26.2932C16.1767 25.0762 15.4485 23.8074 14.8057 22.4951C14.6259 22.1355 14.3786 21.3265 14.109 20.8321C13.9231 20.5378 13.6782 20.2853 13.3898 20.0904C13.0991 19.9303 12.7595 19.883 12.436 19.9576C12.1126 20.0323 11.828 20.2236 11.6369 20.495C11.2534 21.0909 10.9297 21.7232 10.6705 22.3828C10.5132 22.7648 10.0862 24.63 9.61423 25.9784C9.43443 25.1246 9.16475 24.293 9.14227 24.0009C8.73371 20.5936 8.58346 17.1603 8.69281 13.7304C8.757 11.4592 9.05065 9.20034 9.56927 6.98826C9.7801 5.77193 10.2642 4.61928 10.9851 3.61719C11.733 2.75459 12.7909 2.22162 13.9292 2.13393C16.3339 1.8054 18.7749 1.85088 21.1657 2.26877C22.7095 2.48445 24.1803 3.06201 25.4583 3.95431C25.5247 4.0089 25.6012 4.04989 25.6833 4.07491C25.7657 4.09995 25.8521 4.10853 25.9376 4.10018C26.0231 4.09183 26.1061 4.06672 26.1821 4.02627C26.258 3.98581 26.325 3.93082 26.3797 3.8644C26.4341 3.798 26.4753 3.7215 26.5003 3.63924C26.5253 3.55701 26.5338 3.47065 26.5255 3.38508C26.5172 3.29952 26.492 3.21645 26.4517 3.14058C26.4112 3.06473 26.3561 2.99759 26.2897 2.94298C24.8789 1.81839 23.2108 1.06162 21.4354 0.740561C18.9056 0.237119 16.3136 0.123438 13.7494 0.403455C12.1508 0.489877 10.6499 1.19997 9.56927 2.38113C8.60846 3.54607 7.92457 4.91385 7.56911 6.38145C6.94157 8.71097 6.55004 11.0977 6.40049 13.5056C6.20172 17.0574 6.28439 20.6194 6.64769 24.1582C6.62384 25.4936 6.67636 26.8292 6.80501 28.1585Z" fill="#FC7E13"/>
<path d="M48.359 15.1023C48.359 14.9034 48.2816 14.7124 48.1432 14.5698C48.0046 14.4271 47.8161 14.344 47.6174 14.3382C46.6261 14.3331 45.6379 14.4463 44.6733 14.6753C42.5833 15.1247 40.4032 15.9787 38.493 16.4282C37.6823 16.687 36.8568 16.8972 36.0209 17.0575C35.6321 17.1717 35.2186 17.1717 34.8298 17.0575C34.398 16.8886 34.0292 16.5903 33.7736 16.2035C33.435 15.7986 33.1481 15.3532 32.9195 14.8775C32.7622 14.6303 32.605 13.8212 32.3577 13.3718C32.2177 13.022 31.9644 12.7293 31.6386 12.5403C30.0654 11.7762 29.8406 13.5516 28.1326 15.1921C27.8487 15.4949 27.5141 15.7459 27.1438 15.9338C27.0488 15.978 26.9453 16.0009 26.8405 16.0009C26.7356 16.0009 26.6321 15.978 26.5369 15.9338C24.874 15.2146 25.6831 14.046 24.7392 13.9786C24.2221 13.9786 24.0201 14.1808 23.9076 14.5629C24.0016 15.1894 24.2318 15.7878 24.5819 16.3158C24.9991 16.8429 25.5393 17.2595 26.1549 17.5294C26.689 17.7421 27.2842 17.7421 27.8181 17.5294C28.3957 17.3194 28.9348 17.0157 29.4136 16.6305C29.8449 16.2857 30.2503 15.9102 30.6272 15.5068C30.6009 15.663 30.6009 15.8225 30.6272 15.9787C30.9877 16.7926 31.4647 17.5497 32.0431 18.2261C32.4956 18.7179 33.0471 19.1085 33.6611 19.3723C34.465 19.6713 35.3342 19.7489 36.1782 19.597C37.1432 19.3683 38.0898 19.0678 39.01 18.6981C40.8753 18.0912 42.9653 17.035 45.0103 16.4507C45.8455 16.1065 46.7219 15.8723 47.6174 15.754C47.7994 15.7553 47.9756 15.6897 48.1124 15.5695C48.2492 15.4493 48.337 15.283 48.359 15.1023Z" fill="#1A1A1A"/>
<path d="M22.6714 29.0124C22.3118 29.417 22.4916 29.7318 22.8062 29.9788C23.7926 30.2247 24.8017 30.3678 25.8176 30.4059L30.5372 30.6306C31.6608 30.6306 32.7845 30.6306 33.9306 30.4509C35.0768 30.2711 36.4702 30.1138 37.7511 29.9115C45.3924 28.7204 43.9989 29.3272 45.4149 29.7765C45.5998 29.8182 45.7917 29.8182 45.9767 29.7765C46.0748 29.7797 46.1727 29.7628 46.264 29.7266C46.3554 29.6904 46.4384 29.6359 46.5079 29.5664C46.5774 29.4969 46.6319 29.4138 46.6681 29.3225C46.7043 29.2311 46.7214 29.1333 46.7183 29.0349C46.7183 28.8383 46.64 28.6497 46.5009 28.5107C46.3619 28.3714 46.1733 28.2933 45.9767 28.2933C44.8528 27.6417 44.0887 26.7651 36.987 27.4842C35.6836 27.5967 34.3802 27.7765 33.0768 27.9338C32.2227 27.9338 31.3911 28.1586 30.5147 28.2261L26.0199 28.6304C22.986 28.7879 22.941 28.6081 22.6714 29.0124Z" fill="#1A1A1A"/>
<path d="M27.6381 39.1934L20.4015 39.98L12.2661 40.6768C10.7306 40.3517 9.13775 40.4212 7.63649 40.8791C7.56449 40.9394 7.50691 41.0152 7.46803 41.1007C7.42912 41.1862 7.40991 41.2794 7.41173 41.3734C7.40168 41.4828 7.42145 41.5928 7.46895 41.6916C7.51643 41.7906 7.58987 41.8747 7.68142 41.9353C7.89645 42.0739 8.14496 42.1515 8.40058 42.16C9.34448 42.16 11.7492 42.2948 12.2661 42.3173H20.4015C21.1501 42.3585 21.9004 42.3585 22.649 42.3173C24.3119 42.16 25.9751 41.8455 27.6381 41.778C47.1229 40.5643 46.3138 39.8902 46.4486 39.7105C46.5185 39.6414 46.5741 39.5593 46.6121 39.4686C46.6499 39.3779 46.6695 39.2805 46.6695 39.1822C46.6695 39.0841 46.6499 38.9866 46.6121 38.896C46.5741 38.8053 46.5185 38.7232 46.4486 38.6541C45.9767 38.227 47.7745 38.7666 27.6381 39.1934Z" fill="#1A1A1A"/>
</g>
<defs>
<clipPath id="clip0_5124_134920">
<rect width="54" height="54" fill="white"/>
</clipPath>
</defs>
</svg>
