<svg width="35" height="35" viewBox="0 0 35 35" fill="none" xmlns="http://www.w3.org/2000/svg">
<path d="M16.3063 10.5443C16.8374 9.59158 17.1029 9.11523 17.5 9.11523C17.897 9.11523 18.1625 9.59158 18.6936 10.5443L18.831 10.7907C18.9818 11.0615 19.0573 11.1968 19.1749 11.2861C19.2926 11.3755 19.4391 11.4086 19.7322 11.4749L19.9989 11.5353C21.0302 11.7686 21.5459 11.8853 21.6686 12.2798C21.7913 12.6743 21.4397 13.0853 20.7367 13.9075L20.5548 14.1202C20.355 14.3538 20.2551 14.4706 20.2101 14.6151C20.1653 14.7596 20.1804 14.9154 20.2105 15.2272L20.2381 15.5109C20.3443 16.6079 20.3975 17.1563 20.0764 17.4002C19.7551 17.6439 19.2724 17.4217 18.3068 16.9771L18.057 16.8621C17.7825 16.7358 17.6454 16.6726 17.5 16.6726C17.3545 16.6726 17.2174 16.7358 16.9429 16.8621L16.6931 16.9771C15.7276 17.4217 15.2448 17.6439 14.9235 17.4002C14.6024 17.1563 14.6556 16.6079 14.7618 15.5109L14.7894 15.2272C14.8196 14.9154 14.8347 14.7596 14.7898 14.6151C14.7448 14.4706 14.6449 14.3538 14.4451 14.1202L14.2632 13.9075C13.5602 13.0853 13.2086 12.6743 13.3313 12.2798C13.454 11.8853 13.9696 11.7686 15.001 11.5353L15.2678 11.4749C15.5608 11.4086 15.7073 11.3755 15.825 11.2861C15.9426 11.1968 16.0181 11.0615 16.1689 10.7907L16.3063 10.5443Z" stroke="#389FFF" stroke-width="1.5"/>
<path d="M11.0029 21.6934L10.1128 24.9399C9.23467 28.1429 8.7956 29.7443 9.38152 30.6212C9.58686 30.9284 9.86232 31.175 10.182 31.3377C11.0941 31.8021 12.5023 31.0684 15.3189 29.6008C16.2561 29.1125 16.7247 28.8683 17.2225 28.8152C17.4071 28.7955 17.593 28.7955 17.7776 28.8152C18.2754 28.8683 18.744 29.1125 19.6812 29.6008C22.4977 31.0684 23.9061 31.8021 24.8181 31.3377C25.1378 31.175 25.4132 30.9284 25.6185 30.6212C26.2045 29.7443 25.7654 28.1429 24.8873 24.9399L23.9972 21.6934" stroke="#389FFF" stroke-width="1.5" stroke-linecap="round"/>
<path d="M8.41583 9.66842C7.96504 10.793 7.71704 12.0208 7.71704 13.3064C7.71704 18.7094 12.097 23.0894 17.5 23.0894C22.903 23.0894 27.283 18.7094 27.283 13.3064C27.283 7.90343 22.903 3.52344 17.5 3.52344C16.2144 3.52344 14.9866 3.77144 13.862 4.22222" stroke="#389FFF" stroke-width="1.5" stroke-linecap="round"/>
</svg>
