<svg width="56" height="56" viewBox="0 0 56 56" fill="none" xmlns="http://www.w3.org/2000/svg">
<g clip-path="url(#clip0_5123_134897)">
<path fill-rule="evenodd" clip-rule="evenodd" d="M12.6116 47.5256C12.4261 46.9285 12.0986 46.3853 11.6571 45.9427C11.3428 45.6272 10.9715 45.3745 10.5629 45.1976C11.4542 44.4344 12.0951 43.4203 12.402 42.2875C12.6087 41.6332 12.6767 40.9433 12.6017 40.2612C12.5267 39.5792 12.3103 38.9203 11.9664 38.3267C11.6225 37.7331 11.1585 37.2176 10.6042 36.8133C10.0499 36.4089 9.41736 36.1247 8.74699 35.9786C9.10765 35.1725 9.52789 34.3943 10.0041 33.6504C10.2137 33.3245 10.3999 32.9987 10.5861 32.6728C10.7624 32.3214 10.9567 31.9795 11.1682 31.6484C11.3675 31.3563 11.5935 31.0835 11.8433 30.8336H12.0063C12.9596 30.9006 13.9165 30.9006 14.8698 30.8336C15.4751 31.462 15.9407 32.1373 16.4761 32.8123C17.0116 33.4876 17.0814 33.534 17.6634 34.2557C18.2455 34.9774 18.9672 33.8366 18.8275 32.6494C18.6878 31.462 18.6878 31.2991 18.0825 30.7636C17.7813 30.4118 17.4372 30.0989 17.0581 29.8324C17.9336 29.0883 18.5661 28.0992 18.874 26.9923C19.087 26.3191 19.1538 25.6081 19.0699 24.907C18.9859 24.206 18.7533 23.5308 18.3874 22.927C18.0215 22.3231 17.5309 21.8043 16.9484 21.4053C16.3658 21.0063 15.7048 20.7363 15.0095 20.6134C14.1929 20.4726 13.3583 20.4726 12.5417 20.6134C11.9171 20.7211 11.3222 20.9591 10.7957 21.3118C9.94929 21.904 9.26781 22.7021 8.81566 23.6309C8.36348 24.5595 8.15558 25.5883 8.21154 26.6199C8.25281 27.2522 8.42277 27.8696 8.71101 28.434C8.99922 28.9985 9.39965 29.498 9.88773 29.9024C9.32535 30.1399 8.7938 30.4449 8.30466 30.8103C7.944 31.1668 7.63805 31.5747 7.39671 32.0208C7.16277 32.466 6.97555 32.9341 6.838 33.4176C6.65481 34.2347 6.57657 35.0719 6.60518 35.9086C6.42689 35.897 6.24801 35.897 6.06972 35.9086C5.4411 36.0146 4.83973 36.2439 4.3004 36.5839C3.46033 37.1822 2.78364 37.9813 2.33222 38.9086C1.88079 39.8359 1.66902 40.8616 1.71627 41.8918C1.75444 42.5283 1.92291 43.1501 2.21124 43.7188C2.49958 44.2874 2.90162 44.7907 3.39248 45.1976C2.83082 45.4272 2.29922 45.7243 1.80939 46.0822C1.4537 46.4518 1.14841 46.8667 0.901451 47.3161C0.663749 47.7512 0.476303 48.2121 0.342718 48.6897C0.0755146 49.7465 -0.0343105 50.8368 0.0167908 51.9258C-0.00654166 52.0436 -0.00554734 52.1652 0.019713 52.283C0.0449731 52.4006 0.0939685 52.5119 0.163702 52.6099C0.233436 52.708 0.322441 52.7908 0.425273 52.8533C0.528108 52.9158 0.642607 52.9567 0.761768 52.9732C1.00112 53.0012 1.24213 52.9375 1.43645 52.795C1.63076 52.6524 1.76399 52.4417 1.80939 52.2051C2.22092 51.0272 2.78441 49.9079 3.48558 48.8759C3.69511 48.5733 3.88136 48.2473 4.06761 47.9214C4.24646 47.5595 4.44864 47.2094 4.6729 46.8739C4.88397 46.5909 5.10932 46.319 5.34802 46.0591H5.51101C6.46478 46.1118 7.42072 46.1118 8.3745 46.0591C8.97981 46.7108 9.4454 47.3861 9.98086 48.0378C10.5163 48.6897 10.6094 48.8061 10.9121 49.1785C11.1319 49.4116 11.3343 49.6606 11.5174 49.9236C12.1227 50.715 13.1237 48.8759 12.6116 47.5256ZM12.3788 23.7562C12.6401 23.6059 12.9389 23.5331 13.2401 23.5466C13.6328 23.4766 14.0348 23.4766 14.4274 23.5466C14.7533 23.597 15.0647 23.7158 15.3411 23.8955C15.6176 24.0751 15.8527 24.3113 16.031 24.5887C16.2093 24.8659 16.3266 25.1781 16.3752 25.5041C16.4239 25.83 16.4027 26.1628 16.3132 26.4801C16.2544 26.9995 16.0741 27.4979 15.787 27.9347C15.4998 28.3715 15.1138 28.7346 14.6602 28.9943C14.5427 29.0164 14.4314 29.064 14.3343 29.134C14.0191 29.274 13.6781 29.3461 13.3333 29.3461C12.9884 29.3461 12.6474 29.274 12.3322 29.134C11.7689 29.0057 11.2735 28.6725 10.9422 28.1993C10.6109 27.7259 10.4674 27.1463 10.5396 26.5732C10.5754 25.9845 10.7638 25.4152 11.0862 24.9212C11.4087 24.4272 11.8541 24.0259 12.3788 23.7562ZM9.91102 41.752C9.84107 42.2649 9.65335 42.7546 9.36255 43.1828C9.07174 43.6107 8.68574 43.9659 8.23482 44.2197C8.11767 44.2552 8.00744 44.3103 7.9089 44.3828C7.59369 44.5226 7.25268 44.5949 6.90783 44.5949C6.56299 44.5949 6.22197 44.5226 5.90676 44.3828C5.35673 44.2554 4.87167 43.9327 4.5419 43.4745C4.21213 43.0162 4.06012 42.4539 4.11416 41.8918C4.15287 41.3187 4.33522 40.7643 4.64443 40.2804C4.95364 39.7962 5.37976 39.3977 5.88348 39.1214C6.15998 38.9891 6.46168 38.9177 6.76814 38.9119C7.15479 38.8657 7.54553 38.8657 7.93217 38.9119C8.2561 38.9522 8.56791 39.0603 8.84737 39.229C9.12681 39.3977 9.36766 39.6233 9.55428 39.8912C9.74087 40.159 9.86907 40.4631 9.93053 40.7837C9.99199 41.1043 9.98534 41.4342 9.91102 41.752Z" fill="#1A1A1A"/>
<path fill-rule="evenodd" clip-rule="evenodd" d="M39.0348 42.9859C38.4296 41.1932 37.8476 39.3774 37.3586 37.5382L35.6359 32.1137C35.4737 31.5719 35.2714 31.0427 35.0306 30.5308C34.8922 30.2368 34.6941 29.9752 34.4487 29.7624C33.8814 29.4658 33.2496 29.3139 32.6095 29.32C30.6073 29.32 25.8347 29.1805 24.6242 29.0407C24.0077 28.9504 23.3847 28.9114 22.7618 28.9243C22.2751 28.959 21.8076 29.1282 21.4115 29.4133C21.202 29.6551 21.0507 29.9418 20.9692 30.2512C20.7983 30.6696 20.6506 31.0971 20.5268 31.5318C20.5268 31.5318 18.8274 35.6524 18.8739 35.7222C18.9205 35.7922 13.0771 48.5964 12.8676 51.7858C12.9422 52.014 13.1041 52.2032 13.3178 52.3122C13.5316 52.4212 13.7798 52.4412 14.0083 52.3677C14.1515 52.3197 14.2791 52.2336 14.3775 52.119C14.4758 52.0042 14.5413 51.8649 14.567 51.716C14.7429 51.5945 14.8674 51.412 14.9162 51.2039L21.2253 36.7699L23.2972 32.5794C23.2972 32.5794 23.6465 32.0906 23.7629 31.7877C24.0061 31.8808 24.2548 31.9585 24.5077 32.0206C25.7416 32.137 30.6073 32.1604 32.6326 32.2535H32.8422C32.8893 32.536 32.9514 32.8158 33.0286 33.0916L34.9608 38.2133C35.5661 40.0524 36.2645 41.8915 37.0095 43.7076C37.9872 46.0355 39.0348 48.3635 40.1058 50.6917C39.3993 50.5162 38.6844 50.3765 37.9641 50.2726C36.4273 50.0864 34.8908 50.0164 33.3079 49.8536C31.7247 49.6905 30.9797 49.644 29.7692 49.5974C27.9835 49.5432 26.1964 49.582 24.4146 49.7138C21.436 50.0129 18.4805 50.5109 15.5681 51.2039C15.3701 51.2508 15.1969 51.3702 15.0825 51.5387C14.9681 51.7069 14.9209 51.912 14.9501 52.1134C14.9792 52.3148 15.0828 52.4979 15.2402 52.627C15.3977 52.756 15.5977 52.8213 15.8009 52.8101C16.9649 52.8101 18.129 52.6706 19.2697 52.6473H26.2538C28.582 52.6473 30.9099 52.5308 33.2381 52.6473C34.7746 52.6473 36.3111 52.4842 37.8941 52.4842C38.8528 52.473 39.8107 52.543 40.7575 52.6937C41.363 52.6937 41.8752 52.3911 41.8752 52.042C41.2443 48.9331 40.2925 45.8981 39.0348 42.9859Z" fill="#FC7E13"/>
<path fill-rule="evenodd" clip-rule="evenodd" d="M55.5646 48.6199C55.4312 48.1423 55.2438 47.6815 55.006 47.2463C54.7592 46.7969 54.4537 46.382 54.0981 46.0124C53.6079 45.6681 53.0855 45.3717 52.5383 45.1279C53.0208 44.7289 53.4182 44.2365 53.7061 43.6805C53.9941 43.1245 54.167 42.5162 54.2146 41.8918C54.2612 40.859 54.0468 39.8314 53.5911 38.9035C53.1354 37.9757 52.4529 37.178 51.6071 36.5839C51.0767 36.243 50.4826 36.0132 49.861 35.9086C49.6748 35.897 49.4884 35.897 49.3022 35.9086C49.3309 35.0719 49.2527 34.2347 49.0696 33.4176C48.9319 32.9341 48.7448 32.466 48.5107 32.0208C48.2695 31.5747 47.9636 31.1668 47.6028 30.8103C47.1138 30.4449 46.582 30.1399 46.0197 29.9024C46.5078 29.498 46.9082 28.9985 47.1964 28.434C47.4848 27.8696 47.6546 27.2522 47.6959 26.6199C47.7519 25.5883 47.544 24.5595 47.0918 23.6309C46.6396 22.7021 45.9583 21.904 45.1118 21.3118C44.5851 20.9591 43.9904 20.7211 43.3657 20.6134C42.5493 20.4726 41.7147 20.4726 40.898 20.6134C40.2027 20.7363 39.5416 21.0063 38.959 21.4053C38.3766 21.8043 37.8859 22.3231 37.52 22.927C37.1542 23.5308 36.9215 24.206 36.8375 24.907C36.7538 25.6081 36.8205 26.3191 37.0335 26.9923C37.335 28.1274 37.9767 29.1429 38.8727 29.9024C38.1855 30.6068 37.6402 31.4366 37.2662 32.3468C36.754 33.4176 37.5922 34.6748 38.2441 34.2093C38.081 34.2093 39.2684 33.278 39.571 32.8823C39.8737 32.4866 40.572 31.532 41.1773 30.9034C42.1307 30.9706 43.0876 30.9706 44.0408 30.9034H44.2039C44.4535 31.1535 44.6796 31.4263 44.8789 31.7182C45.0905 32.0493 45.2847 32.3914 45.4611 32.7425C45.6473 33.0685 45.8335 33.3945 46.043 33.7204C46.523 34.462 46.9432 35.2404 47.3002 36.0484C46.6326 36.1945 46.0031 36.478 45.4515 36.8812C44.8999 37.2844 44.4386 37.7979 44.0968 38.3897C43.7549 38.9812 43.5403 39.6375 43.4665 40.3168C43.3928 40.9958 43.4616 41.6829 43.6684 42.3342C43.9757 43.4602 44.6169 44.4666 45.5075 45.221C45.0835 45.3866 44.6712 45.581 44.2736 45.8029C43.9068 46.075 43.6047 46.4247 43.3891 46.8272C42.9196 47.4822 42.616 48.241 42.5043 49.039C42.1785 50.9712 43.3424 51.5298 43.645 51.0877C43.9477 50.6453 44.8091 49.7374 45.1351 49.3417C45.4611 48.9459 45.7637 48.5966 46.0663 48.2009C46.369 47.8051 47.0673 46.8739 47.6726 46.222C48.6339 46.2864 49.5983 46.2864 50.5594 46.222H50.6992C50.943 46.4691 51.1686 46.7337 51.3742 47.0134C51.5905 47.3499 51.7849 47.6999 51.9564 48.0611C52.1426 48.3871 52.3288 48.713 52.5383 49.0157C53.2313 50.0489 53.7869 51.1679 54.1912 52.3446C54.2365 52.5815 54.3697 52.7922 54.5641 52.9345C54.7585 53.0771 54.9995 53.1408 55.2389 53.113C55.3579 53.0962 55.4725 53.0554 55.5754 52.9931C55.678 52.9305 55.7672 52.8477 55.8369 52.7497C55.9067 52.6515 55.9557 52.5404 55.9809 52.4226C56.0061 52.305 56.007 52.1834 55.9837 52.0653C56.0259 50.9019 55.8845 49.7392 55.5646 48.6199ZM41.5964 29.134C41.4993 29.064 41.388 29.0164 41.2704 28.9943C40.8126 28.7371 40.422 28.3752 40.1308 27.9384C39.8394 27.5014 39.6555 27.0016 39.5944 26.4801C39.5199 26.1639 39.5125 25.8356 39.5727 25.5167C39.6326 25.1975 39.7589 24.8944 39.943 24.6267C40.1273 24.3593 40.3653 24.1332 40.642 23.9634C40.9188 23.7933 41.2279 23.6831 41.5499 23.6397C41.9426 23.5697 42.3444 23.5697 42.7371 23.6397C43.0384 23.6262 43.3373 23.699 43.5986 23.8493C44.1005 24.1218 44.5256 24.5161 44.835 24.9963C45.1442 25.4765 45.3274 26.0267 45.368 26.5965C45.3554 27.0504 45.2336 27.4946 45.0124 27.8911C44.7914 28.2877 44.4776 28.6251 44.0982 28.8743C43.7185 29.1235 43.2843 29.2773 42.8326 29.3226C42.3808 29.3678 41.9247 29.3032 41.5033 29.134H41.5964ZM48.0683 44.4062C47.9827 44.3457 47.8887 44.2988 47.7891 44.2664C47.3324 44.0079 46.9427 43.6455 46.6515 43.2089C46.3603 42.7721 46.176 42.2733 46.1128 41.752C46.0386 41.4342 46.0318 41.1043 46.0934 40.7837C46.1548 40.4631 46.2831 40.159 46.4695 39.8912C46.6562 39.6233 46.897 39.3977 47.1765 39.229C47.4561 39.0603 47.7678 38.9522 48.0917 38.9119C48.4783 38.8657 48.8691 38.8657 49.2558 38.9119C49.5621 38.9177 49.8638 38.9891 50.1403 39.1214C50.6268 39.4089 51.0345 39.8123 51.3268 40.2958C51.6194 40.7792 51.7877 41.3276 51.8166 41.8918C51.8045 42.3428 51.6834 42.7843 51.4633 43.1781C51.2435 43.5722 50.9313 43.9071 50.5538 44.1542C50.1763 44.4013 49.7446 44.5532 49.2957 44.597C48.8465 44.6409 48.3936 44.5753 47.9752 44.4062H48.0683Z" fill="#1A1A1A"/>
<path fill-rule="evenodd" clip-rule="evenodd" d="M31.2592 12.4197C31.0961 12.606 30.9099 12.7456 30.747 12.9086C29.7691 13.0483 29.9553 14.3986 30.747 14.6779C31.4242 15.395 32.0322 16.1745 32.5628 17.006C32.9352 17.5492 33.2845 18.1079 33.6105 18.6822C33.8574 19.0409 34.083 19.4141 34.2855 19.7996C34.7639 20.6443 35.1167 21.554 35.3332 22.5002C35.3453 22.7369 35.4494 22.9595 35.6235 23.1205C35.7975 23.2814 36.0274 23.3681 36.2644 23.3615C36.3827 23.3587 36.4992 23.332 36.6067 23.2833C36.7145 23.2345 36.8116 23.1647 36.8919 23.0779C36.9721 22.9911 37.0342 22.889 37.0743 22.7778C37.1145 22.6666 37.132 22.5484 37.1259 22.4303C37.2792 21.0196 37.1364 19.5923 36.7068 18.2399C36.5225 17.6582 36.2642 17.1027 35.9385 16.5869C35.634 16.0568 35.2581 15.5711 34.821 15.1435C34.1535 14.5697 33.4089 14.0917 32.6093 13.7234C32.9205 13.4278 33.2085 13.1087 33.4707 12.7689C33.9444 12.1455 34.2823 11.4299 34.4626 10.6681C34.643 9.90633 34.6619 9.11519 34.5184 8.34561C34.2382 6.77178 33.4143 5.34632 32.1904 4.31809C31.2963 3.54956 30.1945 3.06346 29.0241 2.92124C27.8735 2.79349 26.7094 2.9701 25.6485 3.43343C24.7163 3.89496 23.8919 4.54837 23.23 5.3508C22.568 6.15321 22.0832 7.08654 21.8072 8.08953C21.5065 9.09302 21.5002 10.1618 21.7891 11.1687C22.078 12.1757 22.6499 13.0785 23.4369 13.77C23.4369 13.77 23.6696 13.77 23.786 13.9795C23.301 14.1986 22.834 14.4555 22.3892 14.7478C21.8944 15.1335 21.4418 15.5705 21.0389 16.0515C20.6566 16.5338 20.3287 17.0569 20.0612 17.6113C19.4583 18.8649 19.0351 20.1972 18.804 21.569C18.7636 21.682 18.746 21.802 18.7522 21.9219C18.7585 22.0419 18.7884 22.1593 18.8404 22.2676C18.8923 22.3759 18.9653 22.4728 19.0549 22.5526C19.1446 22.6325 19.2492 22.6938 19.3627 22.733C19.5882 22.8075 19.8338 22.7908 20.0471 22.6863C20.2603 22.5819 20.4242 22.3981 20.5035 22.1742C21.2384 20.8943 22.1128 19.6997 23.1109 18.6123C23.46 18.1933 23.8093 17.7742 24.1817 17.3785C24.5544 16.9827 24.6008 16.7965 24.857 16.5404C26.2771 15.0504 27.4412 13.7001 25.9744 13.025C25.6069 12.8684 25.2803 12.6294 25.0199 12.3266C24.6314 11.8511 24.3838 11.2762 24.3056 10.6671C24.2275 10.0581 24.3217 9.43927 24.5775 8.88106C24.7693 8.31173 25.0745 7.78715 25.4746 7.33901C25.8748 6.89087 26.3615 6.52846 26.9057 6.27366C27.4888 6.00864 28.1297 5.89645 28.7681 5.94771C29.3893 6.01127 29.9831 6.23597 30.4908 6.59958C31.2788 7.15785 31.8341 7.98649 32.0507 8.92764C32.3463 9.81724 32.2793 10.7876 31.8645 11.6282C31.6825 11.9067 31.4802 12.1713 31.2592 12.4197Z" fill="#1A1A1A"/>
</g>
<defs>
<clipPath id="clip0_5123_134897">
<rect width="56" height="56" fill="white"/>
</clipPath>
</defs>
</svg>
