<svg width="56" height="56" viewBox="0 0 56 56" fill="none" xmlns="http://www.w3.org/2000/svg">
<g clip-path="url(#clip0_5123_134890)">
<path fill-rule="evenodd" clip-rule="evenodd" d="M55.6964 35.4422C56 30.5373 56 6.38606 56 6.1525C55.6964 3.46646 52.9403 3.81681 48.993 3.06937C39.977 1.50446 39.0663 1.52782 17.7413 2.15846C16.6902 2.15846 17.0405 2.43874 13.7706 5.19487C10.972 7.31534 8.28249 9.57608 5.71242 11.9684C0.0600264 17.6675 0.480452 17.0135 0.503809 17.504C0.503809 17.7084 0.585016 17.9045 0.729566 18.049C0.874116 18.1936 1.07017 18.2748 1.27459 18.2748C2.74608 18.2748 3.79715 16.196 6.90363 13.1596C10.0101 10.1232 17.6245 4.23723 17.7646 4.09709C18.1383 4.70436 37.2678 2.9993 52.006 5.91893C52.4498 5.91893 52.2163 5.91893 51.3987 6.5963C41.7289 13.7202 37.8982 15.4019 35.3992 17.5741C31.6549 16.946 27.8675 16.6102 24.0709 16.5697C17.9748 16.5697 0.480452 18.3215 0.34031 18.485C0.14945 19.6427 0.0634592 20.8153 0.0833837 21.9885C-0.0567581 48.5922 -0.220257 51.7688 1.41473 53.4271C2.25558 54.3147 4.19421 53.754 4.89491 53.8475C6.06277 53.9875 7.23063 54.0342 8.39846 54.0578C23.7907 54.338 20.801 52.9599 35.329 54.0578C36.3568 54.2678 37.3611 54.4313 37.9918 53.8006C41.8458 49.9702 42.3362 52.843 55.0191 40.1835C56.1402 39.1093 55.6262 36.5634 55.6964 35.4422ZM35.1421 51.5352L16.2931 51.6985C12.4392 51.6985 2.55922 51.3016 2.44244 51.395C1.41473 48.3819 1.50816 22.5024 1.55487 19.8397C2.97964 19.8397 7.37077 19.3492 7.60433 19.3258C23.7907 19.0222 30.3774 19.0923 35.189 20.3302C35.5626 30.0935 34.6283 32.2889 35.1421 51.5352ZM53.0103 37.6376L52.1927 39.2962C42.2193 49.3162 40.7013 47.9615 36.7537 51.4883C37.2678 21.5681 37.1742 20.3302 36.8706 19.7463C39.6501 17.0369 41.2384 16.9668 52.4732 7.8342C52.4732 7.8342 52.8234 7.6707 53.0803 7.50721C53.0803 8.51157 53.4074 9.6794 53.4074 9.8429C53.2439 45.2753 53.0336 29.6264 53.0103 37.6376Z" fill="#1A1A1A"/>
<path fill-rule="evenodd" clip-rule="evenodd" d="M18.0214 7.95052C18.0214 7.27318 18.0214 5.28784 17.671 5.1477C17.3207 5.00756 16.2696 5.5214 16.3163 6.5491C15.9893 13.5562 16.1528 13.0891 16.0127 15.3547C16.0127 16.3824 17.5776 17.1065 18.0681 15.7985L18.0214 7.95052Z" fill="#FC7E13"/>
<path fill-rule="evenodd" clip-rule="evenodd" d="M37.8985 39.5054L51.6322 39.2951C52.5898 38.6647 52.7534 37.6835 51.7725 37.6602H37.8985C36.9642 37.8704 36.754 39.0382 37.8985 39.5054Z" fill="#FC7E13"/>
<path fill-rule="evenodd" clip-rule="evenodd" d="M17.7411 37.941C18.0915 27.3603 18.0214 24.6508 18.0681 20.0029C17.9046 19.1153 16.1762 18.8116 15.7324 20.5634C15.4916 26.5814 15.5617 32.6077 15.9426 38.6184C15.7324 38.7586 6.76331 47.2839 3.70356 50.2969C3.16633 51.0676 3.70356 51.4181 5.0816 51.161C18.7688 39.9731 16.293 41.1876 17.8112 40.4869C17.2973 40.4869 18.0447 40.3469 17.8112 40.4869C18.5352 40.4869 22.1088 40.4869 33.904 39.5993C34.8619 39.4124 35.2821 38.2681 33.904 37.6374C25.3321 37.5439 23.3001 37.5672 17.7411 37.941Z" fill="#FC7E13"/>
<path fill-rule="evenodd" clip-rule="evenodd" d="M17.8809 40.4392C17.3675 40.4392 18.1142 40.2992 17.8809 40.4392V40.4392Z" fill="#1A1A1A"/>
</g>
<defs>
<clipPath id="clip0_5123_134890">
<rect width="56" height="56" fill="white"/>
</clipPath>
</defs>
</svg>
