<svg width="56" height="56" viewBox="0 0 56 56" fill="none" xmlns="http://www.w3.org/2000/svg">
<g clip-path="url(#clip0_5123_134903)">
<path fill-rule="evenodd" clip-rule="evenodd" d="M5.38414 28.3772C7.71654 30.1498 9.37253 28.4939 7.57659 26.5348L7.38999 26.3481C7.00735 25.9813 6.60231 25.6386 6.17717 25.3219C5.734 24.9953 5.26752 24.7155 4.80104 24.4355C3.67271 23.8011 2.48537 23.2777 1.25583 22.8728C1.0486 22.7708 0.809317 22.7552 0.590611 22.8296C0.371908 22.9039 0.191701 23.0621 0.0896343 23.2693C-0.0124325 23.4765 -0.0279986 23.7159 0.0463608 23.9345C0.12072 24.1532 0.278913 24.3335 0.486141 24.4355C1.48907 25.1119 2.32873 25.975 3.28501 26.7679C3.89816 27.313 4.5447 27.8193 5.22088 28.2841L5.38414 28.3772Z" fill="black"/>
<path fill-rule="evenodd" clip-rule="evenodd" d="M27.9849 41.0878C27.9077 40.8712 27.7476 40.6944 27.5397 40.5959C27.3321 40.4977 27.0936 40.4858 26.8771 40.563C26.6605 40.6405 26.4837 40.8005 26.3852 41.0082C26.287 41.2161 26.2751 41.4543 26.3523 41.6709C26.4823 42.3513 26.3364 43.0555 25.9472 43.6285C25.5578 44.2014 24.957 44.5964 24.2766 44.7264C23.8652 44.7376 23.4571 44.6494 23.087 44.4697C22.6883 44.3171 22.3237 44.0873 22.0141 43.7935C21.8074 43.5788 21.6128 43.353 21.431 43.1171C21.3245 42.9521 21.2457 42.7708 21.1978 42.5806C21.1031 42.1368 21.1692 41.6739 21.3844 41.2744C21.5476 41.1111 21.6642 40.9478 21.8042 40.7847C21.9976 40.5131 22.2435 40.2832 22.5272 40.1082C23.0401 39.772 23.64 39.593 24.2532 39.593C24.8664 39.593 25.4663 39.772 25.9792 40.1082C26.1278 40.231 26.3173 40.2935 26.51 40.2832C26.7025 40.273 26.8843 40.1908 27.0194 40.0532C27.1543 39.9153 27.2324 39.7316 27.2385 39.5389C27.2446 39.3462 27.1781 39.1581 27.0521 39.012C26.4788 38.4245 25.7608 37.9989 24.9705 37.7777C24.1802 37.5565 23.3453 37.5479 22.5506 37.7525C22.5456 37.389 22.4906 37.028 22.3873 36.6796C22.3081 36.4615 22.1465 36.283 21.9371 36.1826C21.7278 36.0823 21.4874 36.0681 21.2677 36.1432C21.1578 36.1798 21.0564 36.2382 20.9695 36.3147C20.8826 36.3912 20.812 36.4846 20.7619 36.5891C20.7119 36.6936 20.6834 36.807 20.6781 36.9228C20.6728 37.0385 20.6909 37.1542 20.7313 37.2627C20.8596 37.6568 20.8596 38.0815 20.7313 38.4756C20.013 38.8874 19.4173 39.4831 19.0053 40.2016C18.9123 40.2116 18.8185 40.2116 18.7254 40.2016C18.321 40.2186 17.9191 40.1302 17.5593 39.9449C17.1104 39.8406 16.689 39.6418 16.3231 39.3618C16.1129 39.1572 15.9252 38.9304 15.7633 38.6854C15.641 38.5267 15.5535 38.344 15.5067 38.1489C15.4315 37.6573 15.5154 37.1545 15.7462 36.7139C15.977 36.2734 16.3426 35.918 16.7896 35.7001C17.3002 35.358 17.901 35.1756 18.5155 35.1756C19.1301 35.1756 19.7308 35.358 20.2415 35.7001C20.39 35.8422 20.5889 35.9197 20.7944 35.9155C21 35.911 21.1954 35.8252 21.3377 35.6768C21.48 35.5281 21.5575 35.3293 21.5531 35.1238C21.5487 34.9182 21.4629 34.7227 21.3144 34.5806C20.8415 34.0789 20.2575 33.6953 19.6094 33.4603C18.9612 33.2254 18.2671 33.1456 17.5826 33.2277C17.6658 32.5765 17.569 31.9152 17.3027 31.3151C17.2254 31.0985 17.0652 30.9217 16.8574 30.8232C16.6497 30.725 16.4113 30.7131 16.1948 30.7903C15.9783 30.8678 15.8014 31.0278 15.703 31.2355C15.6046 31.4434 15.5927 31.6816 15.67 31.8982C15.7505 32.2407 15.7524 32.597 15.6756 32.9402C15.5989 33.2837 15.4455 33.605 15.2269 33.8808C14.7728 34.1223 14.3564 34.4287 13.9907 34.7903C13.8564 34.8582 13.7157 34.9128 13.5709 34.9537C13.1681 34.9537 12.7702 34.8662 12.4047 34.697C12.006 34.5444 11.6414 34.3146 11.3318 34.0208C11.1186 33.8122 10.9236 33.5859 10.7487 33.3444C10.6281 33.1787 10.5482 32.9869 10.5154 32.7846C10.4188 32.2855 10.4985 31.7684 10.7411 31.3216C10.9836 30.875 11.3738 30.5264 11.8449 30.3355C12.3578 29.9993 12.9576 29.8203 13.5709 29.8203C14.1841 29.8203 14.7839 29.9993 15.2968 30.3355C15.4475 30.424 15.6238 30.4585 15.7967 30.4333C15.9696 30.4083 16.1288 30.3253 16.2482 30.1976C16.3676 30.0702 16.44 29.9057 16.4537 29.7317C16.4673 29.5574 16.4212 29.3838 16.3231 29.2393C15.5864 28.5825 14.6841 28.1396 13.7139 27.9588C12.7437 27.778 11.7425 27.8659 10.8187 28.2131C9.84554 28.5279 9.01786 29.1819 8.48628 30.0555C7.81472 30.9952 7.51554 32.1504 7.64661 33.2977C7.72881 33.7886 7.89448 34.2621 8.13642 34.697C8.46722 35.2159 8.85873 35.6936 9.3026 36.1199C9.98148 36.7039 10.7886 37.1195 11.6583 37.3327C12.0141 37.4419 12.3826 37.5047 12.7545 37.5192C12.7077 37.8988 12.7077 38.2826 12.7545 38.662C12.841 39.1481 13.0148 39.6143 13.2677 40.0382C13.5833 40.5749 13.9763 41.0621 14.4339 41.4844C15.1102 42.0589 15.9075 42.4733 16.7662 42.6971C17.3204 42.8485 17.8951 42.9115 18.4689 42.8837C18.4803 42.9453 18.4803 43.0086 18.4689 43.0704C18.5488 43.5653 18.723 44.0404 18.982 44.4697C19.2982 44.9991 19.6912 45.4786 20.1482 45.8926C20.8152 46.4808 21.6159 46.8971 22.4806 47.1054C23.3344 47.3479 24.239 47.3479 25.0928 47.1054C25.7176 46.9125 26.2977 46.5963 26.7984 46.1758C27.2992 45.7551 27.7105 45.2385 28.0083 44.6564C28.2652 44.0959 28.3963 43.486 28.3923 42.8695C28.3884 42.253 28.2493 41.645 27.9849 41.0878Z" fill="#FC7E13"/>
<path fill-rule="evenodd" clip-rule="evenodd" d="M25.1861 14.8248C25.5034 14.8856 25.8154 14.9714 26.1192 15.0814C27.7285 15.7345 28.6147 14.0318 27.4485 13.2855C26.8679 12.9383 26.2391 12.6789 25.5827 12.5158C24.126 12.2019 22.6246 12.1545 21.1511 12.3758C19.8499 12.4639 18.5428 12.4012 17.256 12.1892L12.4746 10.3933C11.3701 9.92862 10.2214 9.57697 9.04599 9.34375C8.94638 9.35206 8.84957 9.38092 8.76168 9.42854C8.6738 9.47614 8.59673 9.54148 8.53537 9.62039C8.474 9.69928 8.42964 9.79005 8.40514 9.88697C8.38062 9.98388 8.37647 10.0848 8.39294 10.1834C8.40862 10.3575 8.48492 10.5206 8.60852 10.6442C8.73214 10.7678 8.89521 10.8441 9.06933 10.8598C9.06933 10.8598 9.34921 10.9997 9.60578 11.1397C11.0518 11.8861 14.1073 13.7986 16.1831 14.8482C17.0358 15.3351 17.9815 15.6371 18.9586 15.7345L21.5942 15.198C22.7669 14.8988 23.9769 14.7731 25.1861 14.8248Z" fill="black"/>
<path fill-rule="evenodd" clip-rule="evenodd" d="M55.7869 9.04162C55.6658 8.84104 55.4703 8.69656 55.243 8.63975C55.0157 8.58293 54.7754 8.6184 54.574 8.7384L50.4226 11.0708C49.6787 11.4973 48.898 11.8564 48.0902 12.1437C47.6156 12.2962 47.1188 12.3672 46.6206 12.3536C45.8399 12.3417 45.061 12.2794 44.2882 12.167C43.6018 12.0487 42.9239 11.885 42.2592 11.6772C41.2796 11.3507 40.3465 10.9308 39.367 10.651C38.611 10.422 37.8242 10.3118 37.0346 10.3244C36.4048 10.3538 35.7835 10.4796 35.192 10.6976C34.3667 10.9721 33.5822 11.3565 32.8596 11.8405C32.2765 12.1903 26.9119 17.1583 26.3988 17.6948C25.5002 18.5459 24.7162 19.5103 24.0664 20.5636C23.6182 21.3561 23.3624 22.243 23.3201 23.1525C23.2678 23.6845 23.3372 24.2214 23.5232 24.7223C23.7089 25.2235 24.0064 25.6757 24.3931 26.0446C24.9416 26.4784 25.5807 26.7833 26.263 26.9366C26.9453 27.0902 27.6534 27.0881 28.3348 26.9311C29.539 26.69 30.6672 26.162 31.6234 25.3918C32.5763 24.6336 33.4655 23.799 34.2824 22.896C35.4701 23.3951 36.7299 23.7022 38.0141 23.8055C38.6187 23.8753 39.2291 23.8753 39.8334 23.8055C40.4326 23.7188 41.0197 23.5622 41.5827 23.3391C42.8696 22.798 44.0353 22.005 45.0113 21.0067C45.0967 20.9507 45.1695 20.8778 45.2255 20.7925C45.2815 20.7072 45.3196 20.6113 45.3371 20.5107C45.3546 20.4102 45.3513 20.3071 45.3273 20.2079C45.3035 20.1086 45.2594 20.0154 45.198 19.9339C45.1397 19.8511 45.0659 19.7806 44.9805 19.7265C44.8951 19.6723 44.7997 19.6355 44.7001 19.6182C44.6004 19.6009 44.4985 19.6034 44.3998 19.6255C44.3011 19.6476 44.2077 19.689 44.1251 19.7473C43.0523 20.2022 41.9222 20.5082 40.7663 20.6569L38.7372 21.0067C38.2708 21.0067 37.8508 21.17 37.3844 21.1933C36.6547 21.2517 35.9216 21.2517 35.192 21.1933C35.2148 21.1093 35.2148 21.0208 35.192 20.9368C35.1224 20.8648 35.0391 20.8076 34.947 20.7686C34.8548 20.7295 34.7556 20.7093 34.6555 20.7093C34.5554 20.7093 34.4563 20.7295 34.3641 20.7686C34.2719 20.8076 34.1886 20.8648 34.1191 20.9368C33.0175 22.0306 31.8322 23.0366 30.5738 23.9456C29.8218 24.4633 28.9592 24.7989 28.055 24.9251C27.429 25.0273 26.7868 24.912 26.2357 24.5986C26.0164 24.4789 25.8414 24.2918 25.7364 24.065C25.6314 23.8382 25.602 23.5839 25.6526 23.3391C25.7504 22.8053 25.9569 22.2972 26.259 21.8464C26.8398 21.0328 27.513 20.2893 28.2648 19.6306C29.4076 18.4878 30.5972 17.2983 31.81 16.1554C32.5735 15.4528 33.3925 14.8132 34.2591 14.2428C34.7099 13.9384 35.1859 13.6731 35.6817 13.4498C36.6006 13.0466 37.6303 12.9724 38.5972 13.2399C39.5534 13.4498 40.4632 13.7997 41.4194 14.0796C42.2552 14.2877 43.1048 14.4357 43.9618 14.5227C44.8009 14.5691 45.6418 14.5691 46.4806 14.5227C47.2294 14.501 47.9695 14.3593 48.6733 14.1029C49.5989 13.7152 50.4886 13.247 51.3321 12.7035L55.3671 10.1612C55.568 10.0649 55.7241 9.89454 55.8023 9.68587C55.8807 9.47718 55.8751 9.24632 55.7869 9.04162Z" fill="#FC7E13"/>
<path fill-rule="evenodd" clip-rule="evenodd" d="M43.3087 32.6675C43.1661 32.2594 42.9946 31.8618 42.7956 31.478C42.136 30.3461 41.3538 29.29 40.4632 28.3292L37.9677 25.4837C37.841 25.3369 37.6637 25.2433 37.4712 25.2216C37.2784 25.1999 37.0848 25.2517 36.9287 25.3665C36.7726 25.4813 36.6655 25.651 36.6288 25.8414C36.5924 26.0318 36.6291 26.2289 36.7315 26.3934L38.5741 29.7054C39.1803 30.6735 39.7107 31.6873 40.1601 32.7375C40.4441 33.326 40.6331 33.9558 40.7199 34.6033C40.7941 35.0111 40.7805 35.4302 40.68 35.8325C40.5794 36.2347 40.3941 36.6109 40.1368 36.9357C39.8099 37.3081 39.392 37.5892 38.9239 37.7521C38.8896 37.6646 38.8506 37.579 38.8072 37.4954C38.3154 36.7642 37.7696 36.0702 37.1746 35.4197L33.816 31.618C33.7516 31.523 33.6692 31.4416 33.5736 31.3786C33.4777 31.3154 33.3706 31.2717 33.2579 31.25C33.0304 31.2064 32.7949 31.2547 32.6031 31.3847C32.4113 31.5146 32.279 31.7153 32.2354 31.9428C32.1915 32.1703 32.2401 32.4057 32.3698 32.5975L34.9822 37.0523C35.4265 37.6765 35.839 38.3226 36.2184 38.9883C36.42 39.3322 36.5768 39.7007 36.6848 40.0845C36.8143 40.3514 36.8526 40.6536 36.7936 40.9443C36.7348 41.2351 36.5817 41.4985 36.3584 41.6938C36.0247 41.9698 35.6208 42.1474 35.1922 42.2069V41.9971C34.9444 41.4677 34.6394 40.967 34.2824 40.5043C33.7227 39.8278 33.1862 39.1747 32.5798 38.5452C31.9734 37.9154 31.4136 37.309 30.7838 36.7259C30.656 36.5696 30.4721 36.4697 30.2712 36.448C30.0705 36.4261 29.8694 36.4842 29.711 36.6092C29.5532 36.7411 29.4529 36.9291 29.431 37.1338C29.4093 37.3384 29.4678 37.5433 29.5943 37.7054C29.9676 38.2652 30.2941 38.8016 30.6205 39.3847C30.9472 39.9678 31.5303 41.0874 31.95 41.9738L32.6031 43.5598L32.2767 44.1195C32.1192 44.3715 31.9118 44.5885 31.667 44.757C31.4222 44.9255 31.1455 45.0419 30.8538 45.0991C30.2903 45.2489 29.6914 45.1824 29.1745 44.9124C29.0782 44.8527 28.9708 44.8123 28.8588 44.7941C28.7468 44.7757 28.6323 44.7796 28.5217 44.8058C28.4113 44.8317 28.307 44.8793 28.2148 44.9455C28.1227 45.012 28.0447 45.0958 27.985 45.1924C27.863 45.3907 27.8238 45.6292 27.8763 45.8562C27.9285 46.0833 28.0683 46.2804 28.265 46.4053C29.0147 47.0551 29.9786 47.4042 30.9705 47.3848C31.6166 47.4014 32.2594 47.2835 32.8577 47.0385C33.4557 46.7938 33.9966 46.4272 34.4458 45.9622C34.7862 45.6119 35.0695 45.2106 35.2853 44.7726C35.3565 44.5449 35.4036 44.3104 35.4253 44.0729C36.228 44.1289 37.0316 43.976 37.7577 43.6298C38.4442 43.2455 38.9944 42.6577 39.3329 41.9477C39.6713 41.2374 39.7809 40.4399 39.647 39.6647C40.5094 39.503 41.3137 39.1169 41.9794 38.5452C42.5107 38.061 42.9396 37.4749 43.2401 36.8218C43.5404 36.1687 43.7068 35.4619 43.7287 34.7433C43.6753 34.0367 43.5341 33.3393 43.3087 32.6675Z" fill="black"/>
<path fill-rule="evenodd" clip-rule="evenodd" d="M55.9736 29.7988C55.9465 29.6884 55.8975 29.5844 55.8301 29.4929C55.7624 29.4014 55.6775 29.3242 55.5799 29.2656C55.4824 29.2071 55.3741 29.1683 55.2617 29.1518C55.149 29.1352 55.0344 29.141 54.924 29.169C53.5014 29.3324 52.1252 29.379 50.749 29.6121C49.8126 29.7626 48.8914 29.9969 47.9968 30.3119C46.9683 30.6997 45.9897 31.2088 45.0813 31.8279C43.1689 32.621 44.3118 34.1603 46.1078 33.6472L48.2768 33.2041L49.9095 32.8076L51.5188 32.2945C52.8016 31.8512 54.0612 31.3614 55.3438 30.8483C55.4544 30.821 55.5582 30.7723 55.6497 30.7046C55.7414 30.6372 55.8186 30.552 55.877 30.4545C55.9355 30.3569 55.9743 30.2489 55.9908 30.1362C56.0074 30.0237 56.0016 29.9089 55.9736 29.7988Z" fill="#FC7E13"/>
</g>
<defs>
<clipPath id="clip0_5123_134903">
<rect width="56" height="56" fill="white"/>
</clipPath>
</defs>
</svg>
