<svg width="56" height="56" viewBox="0 0 56 56" fill="none" xmlns="http://www.w3.org/2000/svg">
<path d="M42.6703 27.2622C42.4349 24.1316 41.3847 21.1173 39.6239 18.518C35.892 12.9916 29.0649 10.4418 22.6241 12.1692C16.2134 13.629 11.3453 18.8568 10.345 25.3552C10.1703 26.5816 10.1703 27.8266 10.345 29.0528C10.5243 30.3282 10.9936 31.5455 11.7172 32.6111C12.9962 34.4248 14.9729 34.9366 15.9729 36.355C16.3605 36.9021 16.5341 37.5723 16.4615 38.2389C16.4348 38.5859 16.6955 38.8883 17.0426 38.9132H17.6938C19.3588 39.3731 21.0526 39.7227 22.7636 39.9595C23.4964 40.0524 24.2342 40.099 24.9729 40.099H27.1821C28.8799 40.099 30.5543 39.7736 32.2751 39.5409C32.6734 39.5283 32.9858 39.1951 32.9728 38.7971C32.9604 38.3892 32.6125 38.0728 32.2056 38.0991L27.1821 37.8201H17.7405C17.7412 37.0473 17.506 36.2927 17.066 35.6575C16.1124 34.2853 14.1822 33.6574 12.9729 31.8435C12.4408 30.9501 12.115 29.9488 12.0196 28.9133C11.8755 27.8238 11.8912 26.7192 12.066 25.6342C13.1289 19.9792 17.5176 15.5352 23.1591 14.4018C28.6563 12.9804 34.4528 15.1797 37.624 19.8901C39.1426 22.1225 40.0561 24.7105 40.2752 27.4018C40.5654 30.0125 39.718 32.6219 37.9495 34.5644C37.5949 34.9167 37.2222 35.2506 36.8333 35.5644C35.7868 36.3783 34.7403 37.0296 33.7171 37.8901C33.3386 38.2655 33.0591 38.7289 32.903 39.239C32.6853 40.0027 32.5143 40.7794 32.3913 41.5644C32.3684 42.0996 32.1909 42.6165 31.8798 43.0526C30.4353 44.292 28.5719 44.9323 26.6704 44.8434C23.7603 44.7536 20.8912 44.1311 18.2055 43.0061C18.4148 42.634 18.2055 41.4946 18.2055 40.7969C18.1805 40.3951 17.8405 40.086 17.4381 40.0993C17.0395 40.124 16.7372 40.4682 16.7636 40.8667C16.7636 41.797 16.601 42.9828 16.7636 43.4945C16.8279 43.8156 17.045 44.0848 17.345 44.2155C20.3291 45.5929 23.5505 46.3827 26.8333 46.5409C29.1991 46.6973 31.5329 45.9303 33.3449 44.4015C33.7176 44.0398 33.9969 43.593 34.159 43.0992C34.4029 42.3391 34.5893 41.5618 34.7172 40.7736C34.706 40.3636 34.7937 39.9567 34.9729 39.5876C35.9961 38.7039 37.0192 38.1225 38.0426 37.2619C38.5252 36.9061 38.9767 36.5092 39.3913 36.0759C41.7127 33.7538 42.9097 30.5371 42.6703 27.2622Z" fill="#1A1A1A"/>
<path d="M22.6247 32.6099C22.7642 31.2608 22.8573 29.8888 22.9735 28.5401C23.3368 28.9151 23.7517 29.2362 24.206 29.4935C24.9489 29.9632 25.816 30.1984 26.6945 30.1679C27.5114 30.145 28.3099 29.9215 29.0199 29.5169V31.447C29.0103 32.959 29.1349 34.4687 29.3921 35.9585C29.3921 36.4469 30.5548 36.749 30.7874 35.9585C30.646 34.4579 30.646 32.9476 30.7874 31.447C31.1113 29.4035 31.5695 27.3837 32.1594 25.4006C32.3118 24.9379 32.1172 24.4323 31.6944 24.1913C31.258 23.8588 30.639 23.9197 30.2757 24.3308C30.1826 24.4444 30.1047 24.5695 30.0433 24.7027L29.7876 25.2144L29.2292 26.1214C28.9154 26.5591 28.5108 26.9238 28.0432 27.191C27.6262 27.4582 27.143 27.6033 26.6481 27.6098C26.1126 27.6054 25.595 27.4166 25.1827 27.0748C24.6783 26.7085 24.2643 26.2311 23.9734 25.6797L23.555 24.633C23.555 24.4237 23.3921 23.912 23.3457 23.7724C23.1261 23.4798 22.7813 23.3075 22.4154 23.3075C22.0375 23.2099 21.6363 23.3256 21.3689 23.6098C20.6247 24.4006 21.2061 28.8656 20.8804 34.0515C20.9375 34.5538 20.9375 35.0611 20.8804 35.5632C20.8804 36.5397 21.9735 36.819 22.2294 35.7959C22.4768 34.7512 22.6094 33.683 22.6247 32.6099Z" fill="#FC7E13"/>
<path d="M7.22933 14.4243C6.94123 14.0779 6.62194 13.7588 6.27576 13.4707L5.206 12.68C4.34551 12.1219 3.43862 11.68 2.53172 11.1684C2.20267 10.9374 1.74958 11.0093 1.50839 11.3312C1.27982 11.6529 1.35244 12.0986 1.67125 12.3312C2.36885 13.0522 3.04337 13.7731 3.76433 14.4707C4.06647 14.7731 4.36885 15.0753 4.67125 15.3312C4.97362 15.5872 5.2991 15.866 5.62455 16.1219C6.43028 16.67 7.20646 17.26 7.95028 17.8893C8.19502 18.1317 8.58931 18.1317 8.83384 17.8893C9.1267 17.6769 9.18002 17.2617 8.95028 16.9824C8.4767 16.0664 7.89909 15.2081 7.22933 14.4243Z" fill="#FC7E13"/>
<path d="M16.4847 4.05235C16.6006 4.4814 16.7485 4.90117 16.9266 5.30805C17.0895 5.70353 17.2521 6.09877 17.4613 6.49425C17.9499 7.40115 18.5311 8.2152 19.0428 9.14543C19.2837 9.58496 19.9102 9.59877 20.1704 9.17019C20.2554 9.03042 20.2844 8.86377 20.2521 8.70352C20.1013 7.66138 19.8916 6.62877 19.6242 5.61045C19.508 5.19188 19.3452 4.7733 19.1823 4.35475C19.0471 3.94854 18.884 3.55236 18.694 3.16855C18.0895 2.23832 17.5311 1.40118 16.9964 0.494275C16.8654 0.0995136 16.4287 -0.102866 16.0428 0.052371C15.6794 0.202608 15.5035 0.616653 15.6475 0.982606C15.9266 2.0757 16.1592 3.07568 16.4847 4.05235Z" fill="#FC7E13"/>
<path d="M33.8566 10.1689C34.2041 10.2096 34.5179 9.95867 34.5543 9.61082C34.8831 8.76487 35.1703 7.90345 35.4146 7.02941C35.5308 6.51775 35.5772 5.98298 35.647 5.47132C35.6685 4.69036 35.7541 3.91252 35.903 3.14585C36.1984 2.63562 35.8306 1.99681 35.2412 1.99609C34.9675 1.99586 34.7144 2.14157 34.5774 2.37823C34.0832 3.09895 33.6847 3.88085 33.3914 4.70394C33.2766 5.0544 33.1835 5.4118 33.1123 5.7737C33.0892 6.13775 33.0892 6.50275 33.1123 6.8668C33.1123 7.75036 33.2983 8.54106 33.368 9.33178C33.2651 9.69867 33.4863 10.078 33.8566 10.1689Z" fill="#FC7E13"/>
<path d="M53.8568 17.4947C52.7636 17.4947 51.7407 17.332 50.6709 17.332H49.2987C48.857 17.332 48.3919 17.4947 47.95 17.6111C46.9114 17.9601 45.9074 18.4037 44.95 18.9365C44.4539 19.0097 44.2232 19.5923 44.5347 19.9851C44.7346 20.2375 45.0891 20.3058 45.3686 20.1458C46.4149 19.9832 47.3919 19.9832 48.3919 19.9135L49.6475 19.7739L50.9266 19.5413C51.9267 19.332 52.9034 19.0761 53.9499 18.8668C54.3461 18.8187 54.6392 18.4751 54.6243 18.0761C54.5545 17.7149 54.2234 17.4642 53.8568 17.4947Z" fill="#FC7E13"/>
<path d="M30.1359 49.0047C29.3615 49.053 28.5847 49.053 27.8103 49.0047C27.0662 49.0047 26.3218 48.8883 25.4846 48.8419L23.1592 48.7257C21.6242 48.7257 20.1126 48.7257 18.508 48.5628C18.1621 48.4902 17.8214 48.7072 17.7407 49.0512C17.6681 49.3972 17.885 49.7379 18.229 49.8186C19.5326 50.3373 20.8788 50.7419 22.2521 51.028C22.8511 51.136 23.4577 51.1981 24.0662 51.2142C24.6698 51.2606 25.2763 51.2606 25.8801 51.2142C27.3807 51.0914 28.8673 50.8345 30.3219 50.4465C30.716 50.3756 30.9831 50.0055 30.9267 49.6093C30.8669 49.2292 30.5186 48.963 30.1359 49.0047Z" fill="#1A1A1A"/>
<path d="M27.6248 53.7022C26.846 53.6793 26.0694 53.6095 25.2992 53.4929C24.7882 53.4581 24.2753 53.4581 23.7643 53.4929C22.8341 53.4929 21.9736 53.7253 21.0667 53.8184C20.7193 53.7775 20.4055 54.0286 20.3691 54.3765C20.3524 54.7293 20.6019 55.0392 20.9503 55.0975C21.7341 55.3973 22.5336 55.6535 23.3457 55.8647C23.6918 55.9268 24.0413 55.9655 24.3922 55.9811C24.7483 56.0049 25.1058 56.0049 25.4618 55.9811C26.3422 55.8113 27.195 55.5217 27.997 55.1208C28.5428 55.0044 28.7581 54.3406 28.3843 53.9259C28.211 53.7334 27.9478 53.648 27.6946 53.7022H27.6248Z" fill="#1A1A1A"/>
</svg>
