<svg width="29" height="29" viewBox="0 0 29 29" fill="none" xmlns="http://www.w3.org/2000/svg">
<path d="M14.4698 9.30469C15.471 9.30469 16.2823 8.4932 16.2823 7.49219C16.2823 6.49117 15.471 5.67969 14.4698 5.67969C13.4689 5.67969 12.6573 6.49117 12.6573 7.49219C12.6573 8.4932 13.4689 9.30469 14.4698 9.30469Z" stroke="#389FFF" stroke-width="1.5" stroke-miterlimit="10" stroke-linecap="round" stroke-linejoin="round"/>
<path d="M6.25317 23.1992C7.25418 23.1992 8.06567 22.3878 8.06567 21.3867C8.06567 20.3857 7.25418 19.5742 6.25317 19.5742C5.25215 19.5742 4.44067 20.3857 4.44067 21.3867C4.44067 22.3878 5.25215 23.1992 6.25317 23.1992Z" stroke="#389FFF" stroke-width="1.5" stroke-miterlimit="10" stroke-linecap="round" stroke-linejoin="round"/>
<path d="M22.5657 23.1992C23.5667 23.1992 24.3782 22.3878 24.3782 21.3867C24.3782 20.3857 23.5667 19.5742 22.5657 19.5742C21.5647 19.5742 20.7532 20.3857 20.7532 21.3867C20.7532 22.3878 21.5647 23.1992 22.5657 23.1992Z" stroke="#389FFF" stroke-width="1.5" stroke-miterlimit="10" stroke-linecap="round" stroke-linejoin="round"/>
<path d="M18.7291 25.3752C20.9041 27.5502 24.2874 27.5502 26.4624 25.3752C28.6374 23.2002 28.6374 19.8169 26.4624 17.6419C24.6499 15.8294 21.8708 15.5877 19.8166 16.7961L15.2573 9.11719" stroke="#389FFF" stroke-width="1.5" stroke-miterlimit="10" stroke-linecap="round" stroke-linejoin="round"/>
<path d="M4.77292 16.1914C2.59792 16.7956 0.90625 18.9706 0.90625 21.3872C0.90625 24.4081 3.32292 26.8247 6.34375 26.8247C9.36458 26.8247 11.7813 24.4081 11.7813 21.3872H20.7601" stroke="#389FFF" stroke-width="1.5" stroke-miterlimit="10" stroke-linecap="round" stroke-linejoin="round"/>
<path d="M19.7865 8.94258C20.149 7.13008 19.6657 5.19675 18.3365 3.86758C16.1615 1.69258 12.7782 1.69258 10.6032 3.86758C8.18651 6.40508 8.54902 10.5134 11.6907 12.4468L7.35815 19.9409" stroke="#389FFF" stroke-width="1.5" stroke-miterlimit="10" stroke-linecap="round" stroke-linejoin="round"/>
</svg>
