<svg width="32" height="32" viewBox="0 0 32 32" fill="none" xmlns="http://www.w3.org/2000/svg">
<path d="M5.92875 19.9862L7.3495 16.9737C7.53188 16.5869 8.05875 16.5869 8.24125 16.9737L9.662 19.9862L12.8393 20.4723C13.247 20.5347 13.4094 21.059 13.1143 21.36L10.8156 23.7033L11.3581 27.0137C11.4278 27.4389 11.0014 27.7629 10.6366 27.5622L7.79538 25.9984L4.95413 27.5622C4.58925 27.7629 4.16288 27.4389 4.23263 27.0137L4.77513 23.7033L2.47638 21.36C2.18125 21.059 2.34375 20.5347 2.75138 20.4723L5.92875 19.9862Z" stroke="#389FFF" stroke-width="1.5" stroke-linecap="round" stroke-linejoin="round"/>
<path d="M22.3381 19.9862L23.7589 16.9737C23.9412 16.5869 24.4682 16.5869 24.6506 16.9737L26.0714 19.9862L29.2487 20.4723C29.6563 20.5347 29.8188 21.059 29.5237 21.36L27.2249 23.7033L27.7674 27.0137C27.8372 27.4389 27.4108 27.7629 27.0459 27.5622L24.2047 25.9984L21.3634 27.5622C20.9986 27.7629 20.5723 27.4389 20.6419 27.0137L21.1844 23.7033L18.8858 21.36C18.5907 21.059 18.7532 20.5347 19.1608 20.4723L22.3381 19.9862Z" stroke="#389FFF" stroke-width="1.5" stroke-linecap="round" stroke-linejoin="round"/>
<path d="M14.1333 7.67955L15.5542 4.66692C15.7365 4.2803 16.2635 4.2803 16.4457 4.66692L17.8667 7.67955L21.044 8.16555C21.4516 8.22792 21.614 8.75242 21.319 9.0533L19.0202 11.3965L19.5627 14.707C19.6325 15.1322 19.2061 15.4562 18.8412 15.2555L16 13.6917L13.1587 15.2554C12.794 15.4562 12.3676 15.1322 12.4372 14.707L12.9797 11.3965L10.681 9.0533C10.3858 8.75242 10.5483 8.22792 10.9561 8.16555L14.1333 7.67955Z" stroke="#389FFF" stroke-width="1.5" stroke-linecap="round" stroke-linejoin="round"/>
</svg>
