<svg width="56" height="56" viewBox="0 0 56 56" fill="none" xmlns="http://www.w3.org/2000/svg">
<path fill-rule="evenodd" clip-rule="evenodd" d="M36.3123 4.77332C36.4985 5.7281 36.452 6.58952 37.3602 6.61285C38.2683 6.63619 38.1752 5.93761 38.664 4.79666C40.3405 4.49405 40.9925 4.63358 40.9925 3.8188C40.9925 3.00405 40.2939 2.79428 38.9669 2.32857C38.5709 0.325953 38.3847 0 37.849 0C37.3133 0 37.1971 0.349286 36.4054 1.93262C33.9374 2.32857 33.7276 2.58452 33.6579 3.07356C33.5881 3.56263 33.5414 4.07477 36.3123 4.77332Z" fill="#1A1A1A"/>
<path fill-rule="evenodd" clip-rule="evenodd" d="M50.1202 32.482C49.6545 31.2943 49.6312 30.4097 48.793 30.5028C47.9551 30.5959 48.1875 31.1545 47.8151 32.6217H47.6056C44.229 33.553 44.3921 33.9723 44.4155 34.3216C44.4388 34.6709 44.8345 35.2064 47.7454 35.4159C48.5135 38.7222 49.1888 38.466 49.4914 38.4429C49.794 38.4198 50.3998 38.0703 50.586 35.1597V35.0433C52.9144 34.368 53.4735 34.3913 53.4501 33.5299C53.4268 32.6684 53.1473 32.7148 50.1202 32.482Z" fill="#1A1A1A"/>
<path fill-rule="evenodd" clip-rule="evenodd" d="M12.0727 18.7441C11.3653 18.7824 10.667 18.9236 10.0003 19.1632C9.38008 19.4422 8.93626 20.0079 8.81269 20.6767C8.61818 21.7915 8.52461 22.9215 8.53341 24.0532C8.53341 26.5212 8.37031 28.9894 8.39364 31.4809C8.39364 33.1574 8.39364 34.8339 8.60317 36.4871C8.76627 38.8155 8.60318 44.4038 8.74294 46.8256C8.71508 47.2365 8.71508 47.6488 8.74294 48.0595C8.78436 48.5915 9.11579 49.057 9.6046 49.2705C10.8586 49.5409 12.1408 49.658 13.4232 49.6198C17.4048 49.6198 23.8781 49.48 26.4394 49.4102L33.3083 49.084C33.3083 49.084 34.6588 49.084 35.1479 48.9676C35.7007 48.9184 36.1452 48.493 36.2191 47.943C36.2602 47.1677 36.2602 46.3902 36.2191 45.6148C36.0794 43.7986 35.7767 41.7497 35.5903 40.3989C35.5415 39.9089 35.1019 39.5528 34.6124 39.6072C34.1189 39.6679 33.7661 40.1142 33.8207 40.6087C33.8207 41.7497 34.1233 43.4259 34.2164 45.0327V46.7792L33.2619 46.9887H26.4394C24.4834 46.9887 20.3389 46.9887 16.7296 46.8489C14.6108 46.8489 12.7013 46.8489 11.6537 46.7092C11.6537 44.2176 11.6537 38.5362 11.5139 36.2311C11.3741 34.6244 11.3275 33.0176 11.281 31.4109V24.0299C11.2344 20.6301 9.30175 21.5848 16.5201 20.9329L30.7703 20.0015C31.3798 19.9567 31.7123 19.2689 31.3686 18.7636C31.2092 18.5291 30.9367 18.3974 30.6539 18.4181L16.2872 18.7441H12.0727Z" fill="#1A1A1A"/>
<path fill-rule="evenodd" clip-rule="evenodd" d="M5.55301 25.2412C5.55301 21.9116 5.83252 18.6052 6.18156 15.2987H6.4611C7.68325 15.0823 8.9223 14.9732 10.1635 14.9728C10.9785 14.9728 11.8166 14.9728 12.6549 14.833C18.8718 14.088 16.2873 14.9494 18.383 12.062C18.678 11.6139 19.0482 11.2202 19.4773 10.898C19.9459 10.502 20.4823 10.1944 21.0606 9.9899C21.7425 9.68587 22.5211 9.68587 23.2028 9.9899C24.6906 10.8794 25.7945 12.2901 26.2997 13.9482C26.4247 14.4268 26.9178 14.7101 27.3942 14.5768C27.8273 14.4037 28.0588 13.9306 27.9297 13.4825C27.5935 10.6904 25.8297 8.27371 23.2728 7.10252C21.9875 6.72515 20.6028 6.90229 19.454 7.59158C18.7839 7.98419 18.1854 8.48824 17.6844 9.08181C17.1725 9.69919 16.7709 10.4001 16.4968 11.154C16.3328 11.6042 16.1928 12.0628 16.0778 12.5278C15.1304 12.2816 14.1649 12.1102 13.1904 12.0156C12.6249 11.969 12.0563 11.969 11.4906 12.0156C10.9113 12.0635 10.3359 12.149 9.76752 12.2718C4.52847 13.4825 3.89991 12.2718 2.78206 27.0575C2.61919 28.9438 2.54919 30.8296 2.54919 32.7158V38.3508C2.80539 42.7282 3.2711 47.0826 3.80658 51.4369C3.84324 51.9364 4.2868 52.3058 4.78467 52.2519C5.26204 52.1919 5.61538 51.778 5.59968 51.2971C5.36681 46.1047 5.36681 40.9121 5.43658 35.6964V29.5026C5.52968 28.059 5.52968 26.6151 5.55301 25.2412Z" fill="#1A1A1A"/>
<path fill-rule="evenodd" clip-rule="evenodd" d="M40.8296 33.0639C40.7475 32.632 40.3294 32.3499 39.8982 32.4351C39.4737 32.5284 39.1975 32.9382 39.2696 33.3666C39.4719 35.8994 39.5111 38.4427 39.386 40.9807C39.386 42.6572 39.386 44.3337 39.2696 45.9871C39.201 47.7884 38.9751 49.5804 38.5943 51.3426C38.4545 51.8172 38.71 52.3179 39.1765 52.4836C39.6448 52.6215 40.1385 52.3643 40.2941 51.9014C41.1663 49.8096 41.784 47.6207 42.1335 45.3816C42.2901 44.4268 42.3757 43.4615 42.3897 42.4941C42.4473 41.5328 42.4473 40.5684 42.3897 39.6068C42.0563 37.3857 41.5343 35.1968 40.8296 33.0639Z" fill="#1A1A1A"/>
<path fill-rule="evenodd" clip-rule="evenodd" d="M37.6163 52.437C35.7933 52.8185 33.9374 53.0213 32.0747 53.0425C29.2105 53.0425 26.2768 53.0425 23.5291 52.9261C22.1087 52.9261 20.7115 52.9261 19.3146 53.089C17.2189 53.2052 15.1232 53.4149 13.0277 53.4847H8.55701C8.11893 53.4303 7.72058 53.7446 7.67202 54.1833C7.64344 54.6091 7.9482 54.9848 8.37058 55.0448C10.8982 55.4659 13.4484 55.7382 16.0082 55.8598C17.0327 55.8598 18.0339 55.8598 19.0584 55.9996H23.5755C26.3932 55.8598 29.3503 55.8134 32.2842 55.4641C34.2507 55.2324 36.1918 54.8194 38.0821 54.23C38.5639 54.0944 38.8451 53.5944 38.7109 53.1123C38.5956 52.6232 38.1049 52.3206 37.6163 52.437Z" fill="#1A1A1A"/>
<path fill-rule="evenodd" clip-rule="evenodd" d="M45.2536 24.9618C45.3931 24.9618 45.4864 25.2875 45.6493 25.4504C45.8339 25.6436 46.0457 25.8081 46.2781 25.9395C46.5941 26.0533 46.9401 26.0533 47.256 25.9395C47.6695 25.8321 48.0174 25.5524 48.2108 25.1713C48.4817 24.6678 48.6406 24.1118 48.6763 23.5413C48.7361 22.6107 48.7361 21.6774 48.6763 20.7469C48.6763 19.6526 48.6763 18.5584 48.4204 17.4872C48.0944 14.9724 47.5353 12.5274 47.0696 10.036C46.935 9.60051 46.4916 9.33836 46.045 9.4305C45.6577 9.49241 45.3607 9.80836 45.3233 10.1991C43.158 10.7112 40.9458 10.8743 38.7335 11.2236C37.7092 11.4098 36.6846 11.6426 35.7067 11.8988C34.7232 12.1588 33.7766 12.5422 32.8892 13.0398C32.4524 13.2736 32.1017 13.6407 31.888 14.0876C31.7492 14.5305 31.8656 15.0138 32.1909 15.345L32.8892 15.8805L35.2177 17.65C35.2177 17.65 35.0315 17.65 34.9848 17.8365C33.8207 19.6526 32.6564 21.4922 31.4923 23.285C30.7006 24.4494 29.8855 25.6135 29.0241 26.7078C29.0241 26.7078 28.4883 27.8022 27.9995 28.4777C27.1378 27.8955 26.2997 27.2667 25.4149 26.6845C24.8992 26.334 24.3628 26.0153 23.8081 25.7299C23.2377 25.3977 22.6467 25.1023 22.0386 24.8451C21.6072 24.6615 21.1196 24.6615 20.6882 24.8451C20.1734 25.152 19.7227 25.5549 19.3608 26.0326C18.7322 26.8243 18.1965 27.8955 17.7308 28.5241L12.3522 36.6037C12.1053 36.9584 12.1881 37.4456 12.5384 37.6983C12.9003 37.9477 13.3946 37.8654 13.656 37.5119C14.4011 36.5183 15.1773 35.5404 15.9846 34.5782C17.2653 33.1345 18.6158 31.7373 19.8498 30.387C20.2922 29.898 20.8277 29.1063 21.3867 28.4077L21.7824 27.9886C22.0851 28.1981 22.4112 28.5008 22.481 28.5474L27.2542 31.6209C27.9883 31.9711 28.867 31.7686 29.3734 31.1318C30.0685 30.2771 30.7136 29.3832 31.3061 28.4543C32.0978 27.2202 32.8659 25.9628 33.6343 24.6589C34.7055 22.7495 35.6603 20.8169 36.6849 18.9074C36.7885 18.67 36.7885 18.4 36.6849 18.1624H36.8711C37.1788 17.8534 37.1788 17.3536 36.8711 17.0448L35.1712 15.1353C35.7067 14.9955 36.2425 14.9024 36.4984 14.856C38.0818 14.3903 39.7117 14.041 41.3417 13.5986C42.7121 13.2169 44.0575 12.7503 45.37 12.2015L45.6726 21.0495V22.6098C45.3749 22.4348 45.0942 22.2319 44.8343 22.0043C44.2932 21.58 43.7941 21.1043 43.3442 20.5838C43.1078 20.2241 42.6169 20.1388 42.2732 20.3976C41.9703 20.6041 41.8702 21.0046 42.0403 21.3291C39.9679 23.9837 37.8723 26.6612 35.6834 29.246C34.2398 30.9456 32.7728 32.5988 31.1896 34.1822C26.9285 38.3269 29.35 37.1395 24.8327 34.8344C24.2865 34.5611 23.7176 34.3353 23.1329 34.1591C22.6967 34.0469 22.2332 34.1411 21.8755 34.4151C20.4679 35.5764 19.1305 36.8205 17.8705 38.1407C16.031 40.0967 14.2848 42.169 12.4917 44.1017C12.1839 44.4106 12.1839 44.9102 12.4917 45.2193C12.8134 45.5182 13.311 45.5182 13.6327 45.2193C15.5422 43.4495 17.4515 41.5637 19.4772 39.7939C20.5243 38.8594 21.62 37.9809 22.7605 37.1626C23.0165 37.279 23.4124 37.349 23.4588 37.3954C24.3672 37.9078 25.3218 38.7229 26.2766 39.3515C26.7962 39.697 27.3604 39.971 27.9528 40.1665C28.3297 40.2995 28.7406 40.2995 29.1172 40.1665C29.5757 39.8909 30.0118 39.5797 30.421 39.235L33.355 36.278C34.8917 34.5548 36.3122 32.7386 37.6861 30.899C39.5719 28.3146 41.3417 25.6366 43.1347 22.9824C43.2744 23.1453 43.3675 23.3315 43.5073 23.4946C44.0503 24.0282 44.6341 24.5189 45.2536 24.9618Z" fill="#FC7E13"/>
</svg>
