<svg width="108" height="41" viewBox="0 0 108 41" fill="none" xmlns="http://www.w3.org/2000/svg">
<path d="M41.4468 12.2774H46.4389L47.3564 14.4779H50.8205L45.6067 3.1543H42.3272L37.1301 14.4779H40.5274L41.4468 12.2774ZM42.432 9.91635L43.9424 6.29529L45.4527 9.91635H42.432Z" fill="#621843"/>
<path d="M55.083 10.5954H60.2791V8.1201H55.083V5.62872H60.986V3.1543H51.7524V14.4779H55.083V10.5954Z" fill="#621843"/>
<path d="M65.8867 11.4699H67.7041L69.8388 14.4788H73.404L70.8602 10.9131C71.5718 10.5874 72.1293 10.1359 72.5301 9.55317C72.9559 8.93301 73.1693 8.19684 73.1693 7.34467C73.1693 6.48178 72.9559 5.73491 72.5301 5.10403C72.1043 4.47316 71.5013 3.99041 70.722 3.65578C69.9427 3.32205 69.015 3.1543 67.9388 3.1543H62.5571V14.4779H65.8876V11.4699H65.8867ZM69.2924 6.11504C69.6338 6.40594 69.8054 6.81641 69.8054 7.34467C69.8054 7.86221 69.6347 8.26644 69.2924 8.55823C68.9501 8.84913 68.4315 8.99458 67.7366 8.99458H65.8867V5.67869H67.7366C68.4324 5.67869 68.9501 5.82414 69.2924 6.11504Z" fill="#621843"/>
<path d="M78.3378 3.1543H75.0073V14.4779H78.3378V3.1543Z" fill="#621843"/>
<path d="M81.9387 13.0539C82.5157 13.5821 83.2004 13.9899 83.9908 14.2755C84.7812 14.561 85.6412 14.7038 86.5727 14.7038C87.6599 14.7038 88.6331 14.5182 89.4903 14.1461C90.3485 13.774 91.0628 13.2484 91.6343 12.5693L89.5154 10.7249C89.1341 11.1559 88.7166 11.4852 88.262 11.7118C87.8084 11.9385 87.3009 12.0518 86.7396 12.0518C86.2572 12.0518 85.8147 11.9768 85.4112 11.8251C85.0076 11.6743 84.6625 11.4557 84.3767 11.1702C84.091 10.8846 83.8665 10.542 83.7041 10.1431C83.5418 9.74422 83.4602 9.30163 83.4602 8.8162C83.4602 8.33078 83.5418 7.88907 83.7041 7.48931C83.8665 7.09044 84.091 6.74779 84.3767 6.46224C84.6625 6.1767 85.0076 5.95808 85.4112 5.80727C85.8147 5.65647 86.2572 5.58062 86.7396 5.58062C87.3 5.58062 87.8074 5.69395 88.262 5.9206C88.7157 6.14725 89.1341 6.47652 89.5154 6.90751L91.6343 5.06307C91.0628 4.3733 90.3475 3.84415 89.4903 3.47741C88.6322 3.11066 87.6599 2.92773 86.5727 2.92773C85.6421 2.92773 84.7812 3.07051 83.9908 3.35605C83.2004 3.6416 82.5167 4.04939 81.9387 4.57765C81.3607 5.10591 80.9099 5.72875 80.5851 6.44618C80.2595 7.16361 80.0972 7.95332 80.0972 8.8162C80.0972 9.67908 80.2595 10.4688 80.5851 11.1862C80.9099 11.9028 81.3607 12.5256 81.9387 13.0539Z" fill="#621843"/>
<path d="M94.8731 14.4779L95.7906 12.2774H100.783L101.7 14.4779H105.165L99.9514 3.1543H96.6719L91.4749 14.4779H94.8731ZM96.7758 9.91635L98.2862 6.29529L99.7965 9.91635H96.7758Z" fill="#621843"/>
<path d="M47.7858 18.7576V16.2832H38.5522V27.6068H41.8828V23.7243H47.0789V21.249H41.8828V18.7576H47.7858Z" fill="#621843"/>
<path d="M59.8749 17.7306C59.2914 17.197 58.6049 16.7839 57.8145 16.493C57.024 16.2021 56.152 16.0566 55.1992 16.0566C54.2576 16.0566 53.3883 16.2021 52.5923 16.493C51.7963 16.7839 51.1043 17.197 50.5152 17.7306C49.927 18.2643 49.4696 18.8871 49.144 19.5992C48.8184 20.3113 48.656 21.0929 48.656 21.9451C48.656 22.7973 48.8184 23.579 49.144 24.291C49.4687 25.0031 49.9261 25.626 50.5152 26.1596C51.1043 26.6932 51.7963 27.1063 52.5923 27.3972C53.3883 27.6881 54.2576 27.8336 55.1992 27.8336C56.152 27.8336 57.024 27.6881 57.8145 27.3972C58.6049 27.1063 59.2914 26.6959 59.8749 26.1676C60.4575 25.6393 60.9149 25.0165 61.2452 24.2991C61.5754 23.5816 61.7415 22.7973 61.7415 21.9451C61.7415 21.0929 61.5764 20.3113 61.2452 19.5992C60.9149 18.8871 60.4575 18.2643 59.8749 17.7306ZM58.1345 23.2711C57.9722 23.67 57.7477 24.0126 57.4619 24.2982C57.1762 24.5837 56.8394 24.8023 56.4526 24.9531C56.0657 25.1039 55.6482 25.1798 55.2001 25.1798C54.7521 25.1798 54.3337 25.1048 53.9468 24.9531C53.5599 24.8023 53.2232 24.5837 52.9374 24.2982C52.6517 24.0126 52.4272 23.67 52.2648 23.2711C52.1025 22.8722 52.0208 22.4296 52.0208 21.9442C52.0208 21.4481 52.1025 21.0037 52.2648 20.6093C52.4272 20.2158 52.6517 19.8758 52.9374 19.5903C53.2232 19.3047 53.5599 19.0861 53.9468 18.9353C54.3337 18.7845 54.7511 18.7086 55.2001 18.7086C55.6482 18.7086 56.0666 18.7845 56.4526 18.9353C56.8394 19.0861 57.1762 19.3047 57.4619 19.5903C57.7477 19.8758 57.9722 20.2158 58.1345 20.6093C58.2969 21.0028 58.3785 21.4481 58.3785 21.9442C58.3785 22.4305 58.2969 22.8722 58.1345 23.2711Z" fill="#FF8415"/>
<path d="M71.5821 16.7847C70.8028 16.451 69.8751 16.2832 68.7989 16.2832H63.4172V27.6068H66.7477V24.5979H68.5652L70.6998 27.6068H74.2651L71.7213 24.0411C72.4328 23.7154 72.9904 23.2639 73.3912 22.6812C73.817 22.061 74.0303 21.3249 74.0303 20.4727C74.0303 19.6098 73.817 18.8629 73.3912 18.232C72.9635 17.6012 72.3614 17.1184 71.5821 16.7847ZM70.1525 19.2431C70.4939 19.534 70.6655 19.9444 70.6655 20.4727C70.6655 20.9902 70.4948 21.3945 70.1525 21.6862C69.8102 21.9771 69.2916 22.1226 68.5967 22.1226H66.7468V18.8067H68.5967C69.2925 18.8067 69.8102 18.9522 70.1525 19.2431Z" fill="#621843"/>
<path d="M46.4242 33.6658H41.884V29.4121H38.5535V40.7357H41.884V36.3196H46.4242V40.7357H49.7548V29.4121H46.4242V33.6658Z" fill="#621843"/>
<path d="M55.4078 36.1902H60.6382V33.7961H55.4078V31.8865H61.3442V29.4121H52.1116V40.7357H61.5632V38.2604H55.4078V36.1902Z" fill="#621843"/>
<path d="M67.1876 29.4121L61.9905 40.7357H65.3878L66.3053 38.5353H71.2974L72.2149 40.7357H75.6799L70.4661 29.4121H67.1876ZM67.2915 36.1733L68.8018 32.5522L70.3121 36.1733H67.2915Z" fill="#621843"/>
<path d="M79.9255 29.4121H76.595V40.7357H85.5428V38.1953H79.9255V29.4121Z" fill="#621843"/>
<path d="M84.6787 31.9517H88.294V40.7357H91.6245V31.9517H95.2232V29.4121H84.6787V31.9517Z" fill="#621843"/>
<path d="M104.358 29.4121V33.6658H99.8166V29.4121H96.4871V40.7357H99.8166V36.3196H104.358V40.7357H107.688V29.4121H104.358Z" fill="#621843"/>
<path d="M11.9962 34.5364C15.2219 28.241 14.9872 18.9081 6.65625 13.166C11.2689 19.7157 13.5613 26.7062 11.9962 34.5364Z" fill="#FF8415"/>
<path d="M15.2601 28.9301C15.2257 30.8307 14.7572 32.6644 14.1913 34.4902C14.2656 34.3545 14.3472 34.2216 14.414 34.0824C16.531 29.7332 17.0496 25.2671 15.4957 20.643C14.4882 17.6475 12.7042 15.1106 10.5203 12.8066C8.94044 11.1397 7.19447 9.63438 5.46984 8.10939C3.65429 6.5032 1.75432 4.98 0.148435 3.16411C0.133592 3.14716 0.0834948 3.15876 0 3.1543C0.00834948 4.23223 0.279244 5.23967 0.725477 6.21319C1.49363 7.89255 2.79893 9.15431 4.19237 10.3482C5.71383 11.6501 7.37908 12.7861 8.86158 14.1353C13.2757 18.157 15.3649 23.1094 15.2601 28.9301Z" fill="#FF8415"/>
<path d="M19.5925 10.7115C22.7912 10.7088 25.1031 8.44947 25.105 5.32632C25.1059 2.42002 22.6595 0.00894825 19.7029 2.49744e-05C16.5449 -0.0088983 13.9835 2.37451 13.9751 5.32632C13.9668 8.38165 16.4002 10.7151 19.5925 10.7115ZM19.5312 1.37867C21.8839 1.40812 23.6299 3.12495 23.6206 5.40307C23.6123 7.64191 21.7847 9.38731 19.4579 9.37928C17.2732 9.37124 15.4595 7.56339 15.4706 5.40485C15.4827 3.17582 17.3223 1.3519 19.5312 1.37867Z" fill="#FF8415"/>
<path d="M24.5271 22.547C23.4148 26.1253 23.899 32.6348 25.5346 34.2954C25.504 34.1232 25.4864 33.9876 25.4557 33.8564C24.9 31.4364 24.9112 29.0075 25.3722 26.5804C26.068 22.9174 27.5932 19.5729 29.6231 16.423C30.3541 15.2889 31.1788 14.2225 32.0157 13.166C28.5191 15.5619 25.7879 18.4941 24.5271 22.547Z" fill="#FF8415"/>
<path d="M23.8313 37.7607C20.0759 33.0582 18.8735 27.8247 20.5184 22.079C21.7615 17.7315 24.2933 14.0935 27.4818 10.8455C29.8049 8.47811 32.3848 6.39899 35.1318 4.4082C35.0251 4.45014 34.9147 4.48405 34.8108 4.53224C32.2689 5.73599 29.8067 7.07269 27.4939 8.65479C24.3591 10.7982 21.756 13.3939 20.1176 16.7928C19.8634 17.3193 19.6408 17.8609 19.407 18.3901C19.2687 18.3829 19.2567 18.2857 19.2261 18.2089C18.1184 15.4775 16.2397 13.277 14.0262 11.3273C11.0937 8.74313 7.70286 6.79607 4.24896 4.94449C3.97807 4.79904 3.6979 4.66965 3.42236 4.53224C4.47811 5.36389 5.57375 6.12058 6.6063 6.95847C10.0212 9.72826 13.0669 12.813 15.2406 16.601C18.5164 22.3127 19.0016 28.1825 16.031 34.1459C14.4029 37.4145 12.0733 40.0076 8.13425 40.8508C10.1873 41.0079 12.0771 40.5635 13.7154 39.4856C16.5682 37.609 18.1082 34.9213 18.8132 31.7339C18.8615 31.518 18.9004 31.3003 18.9431 31.0825C19.0851 31.3065 19.1268 31.5091 19.1723 31.7107C19.5981 33.6069 20.2373 35.4175 21.4211 37.0174C23.1949 39.4151 25.5308 40.85 28.7649 40.9606C28.5821 40.8892 28.5033 40.85 28.4188 40.8268C26.5365 40.2923 25.0123 39.2384 23.8313 37.7607Z" fill="#FF8415"/>
<path d="M30.4636 10.3562C28.1758 12.3791 26.0449 14.5358 24.4009 17.1031C21.0305 22.366 20.4201 27.8494 22.9064 33.5986C22.9481 33.695 22.9917 33.7896 23.0409 33.8824C23.0817 33.9591 23.0966 34.0671 23.2738 34.0823C22.488 31.8425 22.2217 29.5894 22.4759 27.2792C22.924 23.2137 24.516 19.6194 27.2463 16.49C28.9282 14.5626 30.985 13.0376 33.0334 11.501C34.5131 10.3919 35.9733 9.25684 37.1525 7.83626C38.3102 6.44066 38.8938 4.82912 39.0654 2.92578C36.2368 5.5983 33.2625 7.88266 30.4636 10.3562Z" fill="#FF8415"/>
</svg>
