<svg width="166" height="35" viewBox="0 0 166 35" fill="none" xmlns="http://www.w3.org/2000/svg">
<path d="M22.7545 25.5591C22.7628 27.1184 21.507 28.5488 19.7745 29.7753C19.0387 30.297 18.2193 30.7813 17.3731 31.2251C17.3731 31.2251 17.3731 31.2251 17.3714 31.2251C13.863 33.0633 9.92141 34.1863 9.84449 34.2073C9.99667 34.1338 21.7327 28.4379 10.9783 25.4932C-0.0186124 22.484 -3.24778 17.6082 5.26579 10.6737C6.23069 9.88806 7.20396 9.15789 8.17388 8.48168L8.17555 8.48018C15.649 3.25799 22.8665 1.13943 23.1023 1.07046C22.9016 1.15143 16.7744 3.65832 14.2158 11.4159C11.6138 19.3039 22.7177 19.187 22.7528 25.5576L22.7545 25.5591Z" fill="url(#paint0_linear_2422_15592)"/>
<path d="M26.4436 11.3737C26.2363 11.5027 26.0323 11.6286 25.8349 11.7516C24.9871 12.2853 24.2279 12.7816 23.5506 13.2479C21.3934 14.7292 20.0723 15.8792 19.3431 16.8253C18.0271 18.5346 18.6425 19.5766 19.7746 20.6771C16.6826 18.3097 12.5152 16.5764 14.2176 11.4142C14.8364 9.53553 15.6658 7.96423 16.5705 6.6613C19.4017 2.58011 22.9603 1.12725 23.1041 1.07028C23.1074 1.06728 23.1091 1.06728 23.1091 1.06728C23.1091 1.06728 25.1409 0.355092 27.3734 0.148183C28.1778 0.0732164 29.0072 0.0642204 29.7765 0.175171C34.4104 0.849873 35.499 5.7722 26.442 11.3707L26.4436 11.3737Z" fill="url(#paint1_linear_2422_15592)"/>
<path d="M9.85294 34.2041L9.84458 34.2086H9.84291C9.84291 34.2086 9.38972 34.312 8.67566 34.4425C8.31277 34.5099 7.87965 34.5834 7.4064 34.6569C6.62711 34.7753 5.73412 34.8878 4.84446 34.9507C2.20728 35.1336 -0.399801 34.8728 0.0533868 33.0226C0.304229 32 1.52666 31.3658 3.08523 30.8725C4.90968 30.2938 7.19402 29.907 8.91312 29.3147C8.91646 29.3147 8.91981 29.3132 8.92315 29.3117C9.00342 29.2847 9.08369 29.2547 9.16229 29.2248C9.16898 29.2233 9.17567 29.2203 9.18236 29.2173C9.19239 29.2128 9.19908 29.2113 9.19908 29.2113C10.0519 28.8934 10.7376 28.5141 11.1172 28.0193C11.1523 27.9743 11.1841 27.9308 11.2125 27.8859C12.2978 26.2891 10.2861 25.376 9.41815 25.0386C9.91983 25.1945 10.4399 25.3475 10.9784 25.4944C21.6224 28.4076 10.2325 34.0181 9.85294 34.2041Z" fill="url(#paint2_linear_2422_15592)"/>
<path d="M16.5102 12.5193C16.6858 14.7593 17.8347 16.0757 19.3414 16.8269C18.0253 18.5362 18.6407 19.5767 19.7728 20.6787C16.6808 18.3113 12.5134 16.5766 14.2158 11.4159C16.7778 3.65232 22.9134 1.14684 23.104 1.07187C22.895 1.19632 15.9517 5.37647 16.5119 12.5193H16.5102Z" fill="#021B8D"/>
<path d="M17.3714 31.2251C17.3714 31.2251 17.3715 31.2252 17.3698 31.2252C13.8614 33.0634 9.91984 34.1864 9.84291 34.2074C9.99509 34.1339 21.7311 28.438 10.9767 25.4933C-0.0185146 22.4841 -3.24778 17.6082 5.26579 10.6737C6.23069 9.88806 7.20396 9.15789 8.17388 8.48168C8.04344 8.60313 1.43135 14.2452 7.75591 18.1165C14.1457 22.0283 24.7161 26.5547 17.3731 31.2251H17.3714Z" fill="#021B8D"/>
<path d="M9.85115 34.2041C10.0334 34.1081 12.5151 32.8247 13.1572 30.5037C13.7994 28.1827 11.2107 27.8844 11.2107 27.8844C12.2944 26.2876 10.2826 25.3745 9.41636 25.0386C9.91804 25.1945 10.4364 25.3475 10.9749 25.4944C21.6206 28.4091 10.2308 34.0181 9.84948 34.2041H9.85115Z" fill="#021B8D"/>
<path d="M19.1107 19.947C19.2946 20.1929 19.5204 20.4343 19.7712 20.6787C19.7194 20.6397 19.6675 20.5992 19.614 20.5602C19.5806 20.5347 19.5471 20.5092 19.5137 20.4853C19.4635 20.4478 19.4133 20.4103 19.3615 20.3728C19.3113 20.3353 19.2595 20.2978 19.2077 20.2619C19.1474 20.2169 19.0856 20.1734 19.0237 20.1299C18.9401 20.0699 18.8548 20.01 18.7695 19.95C17.3364 18.9439 15.7477 17.9574 14.7544 16.5585C14.0955 15.6304 13.8062 14.6363 13.8062 13.6438C13.8062 12.5463 14.1607 11.4502 14.5888 10.3632C15.0253 9.25371 15.5654 8.18169 16.221 7.16364C16.8882 6.1276 17.6641 5.15453 18.5538 4.26242C19.4434 3.37032 20.4017 2.61915 21.4552 1.95044C21.6559 1.823 21.8632 1.70755 22.0689 1.5876C22.1107 1.56361 22.1542 1.54112 22.1943 1.51863C22.6609 1.25625 22.9786 1.12581 23.0756 1.08683C23.0756 1.08683 23.079 1.08683 23.0807 1.08533C23.084 1.08533 23.0873 1.08233 23.0907 1.08083C23.0974 1.07933 23.1007 1.07633 23.1041 1.07633C23.1074 1.07483 23.1091 1.07333 23.1091 1.07333C23.1091 1.07333 23.2613 1.01936 23.5288 0.938391C23.5405 0.933893 23.5539 0.930894 23.5656 0.926396C23.579 0.921898 23.5924 0.9189 23.6024 0.914402C23.6074 0.914402 23.6124 0.911403 23.6175 0.909904C23.6241 0.908404 23.6308 0.905406 23.6392 0.903906C23.6409 0.903906 23.6442 0.903906 23.6459 0.902407C23.4452 0.983371 17.119 3.66269 14.5604 11.4203C13.0369 16.0382 16.2109 17.9124 19.1123 19.9515L19.1107 19.947Z" fill="#66E5FB"/>
<path d="M9.41815 25.0386C9.41815 25.0386 10.2158 25.28 11.2309 25.5709C12.853 26.0357 14.7577 26.7868 15.3095 27.9818C15.4065 28.1917 15.4784 28.4106 15.5019 28.6265C15.7009 30.4482 13.3497 32.4363 9.85294 34.2041C9.85294 34.2041 14.3714 31.6732 15.0336 29.862C15.6958 28.0523 15.3062 26.8933 9.41815 25.0386Z" fill="url(#paint3_linear_2422_15592)"/>
<path d="M7.40465 34.6569C6.62536 34.7754 5.73237 34.8878 4.84272 34.9508C2.20553 35.1337 -0.401551 34.8729 0.0516367 33.0227C0.302479 32.0001 1.52491 31.3659 3.08348 30.8726C4.90794 30.2939 7.19227 29.907 8.91137 29.3148C7.40297 29.8741 3.17044 32.309 7.40465 34.6584V34.6569Z" fill="#021B8D"/>
<path d="M27.5724 11.2814C27.365 11.4103 27.161 11.5363 26.9637 11.6592C26.9637 11.6592 31.9521 7.6245 29.6627 4.54636C27.5925 1.76209 22.7194 2.39931 17.6976 6.56896C20.5288 2.48777 24.0874 1.03491 24.2312 0.977934C24.2345 0.974936 24.2362 0.974936 24.2362 0.974936C24.2362 0.974936 27.9955 -0.339983 30.9052 0.0843295C35.5391 0.759031 36.6278 5.68135 27.5707 11.2799L27.5724 11.2814Z" fill="url(#paint4_linear_2422_15592)"/>
<path d="M42.0433 14.979C41.9789 14.3716 41.7076 13.8986 41.2295 13.5601C40.756 13.2216 40.1399 13.0523 39.3814 13.0523C38.8481 13.0523 38.3906 13.1335 38.0091 13.2958C37.6275 13.4581 37.3355 13.6783 37.1333 13.9566C36.931 14.2348 36.8275 14.5524 36.8229 14.9095C36.8229 15.2063 36.8896 15.4636 37.0229 15.6816C37.1608 15.8995 37.347 16.085 37.5815 16.238C37.816 16.3864 38.0757 16.5116 38.3608 16.6137C38.6458 16.7157 38.9331 16.8015 39.2228 16.871L40.5468 17.2049C41.0801 17.3301 41.5927 17.4994 42.0846 17.7127C42.5812 17.926 43.0248 18.1949 43.4156 18.5195C43.8109 18.8441 44.1236 19.236 44.3534 19.6951C44.5833 20.1541 44.6982 20.692 44.6982 21.3088C44.6982 22.1435 44.4868 22.8785 44.0638 23.5138C43.6408 24.1444 43.0294 24.6383 42.2295 24.9953C41.4341 25.3478 40.471 25.524 39.34 25.524C38.2412 25.524 37.2873 25.3524 36.4781 25.0093C35.6736 24.6661 35.0438 24.1653 34.5886 23.5068C34.1381 22.8483 33.8944 22.0461 33.8576 21.1001H36.3747C36.4115 21.5963 36.5632 22.009 36.8298 22.3382C37.0965 22.6675 37.4436 22.9132 37.8711 23.0756C38.3033 23.2379 38.786 23.319 39.3193 23.319C39.8756 23.319 40.3629 23.2355 40.7813 23.0686C41.2042 22.897 41.5352 22.6605 41.7743 22.3591C42.0134 22.0531 42.1352 21.696 42.1398 21.2879C42.1352 20.9169 42.0272 20.6109 41.8157 20.3698C41.6042 20.124 41.3077 19.92 40.9261 19.7577C40.5491 19.5907 40.1078 19.4423 39.6021 19.3125L37.9953 18.8951C36.8321 18.5937 35.9127 18.137 35.2368 17.5249C34.5656 16.9081 34.23 16.0897 34.23 15.0695C34.23 14.2301 34.4553 13.4952 34.9058 12.8645C35.361 12.2338 35.9793 11.7446 36.7609 11.3968C37.5424 11.0444 38.4274 10.8682 39.4159 10.8682C40.4181 10.8682 41.2962 11.0444 42.0502 11.3968C42.8087 11.7446 43.4041 12.2292 43.8362 12.8506C44.2684 13.4673 44.4914 14.1768 44.5051 14.979H42.0433Z" fill="url(#paint5_linear_2422_15592)"/>
<path d="M49.3652 19.0482V25.3083H46.8688V11.063H49.31V16.4398H49.4341C49.6824 15.8369 50.0662 15.3616 50.5858 15.0138C51.1099 14.6614 51.7765 14.4852 52.5856 14.4852C53.3212 14.4852 53.9625 14.6405 54.5096 14.9512C55.0567 15.2619 55.4797 15.7164 55.7785 16.3146C56.0819 16.9128 56.2336 17.6431 56.2336 18.5056V25.3083H53.7373V18.8951C53.7373 18.1764 53.5534 17.6176 53.1856 17.2188C52.8224 16.8154 52.3121 16.6137 51.6546 16.6137C51.2133 16.6137 50.8179 16.711 50.4685 16.9058C50.1237 17.0959 49.8525 17.3718 49.6548 17.7335C49.4617 18.0952 49.3652 18.5334 49.3652 19.0482Z" fill="url(#paint6_linear_2422_15592)"/>
<path d="M63.3986 25.517C62.3642 25.517 61.4677 25.2875 60.7092 24.8284C59.9506 24.3693 59.3621 23.7271 58.9438 22.9017C58.53 22.0762 58.3231 21.1117 58.3231 20.0081C58.3231 18.9044 58.53 17.9376 58.9438 17.1075C59.3621 16.2775 59.9506 15.6329 60.7092 15.1738C61.4677 14.7147 62.3642 14.4852 63.3986 14.4852C64.4331 14.4852 65.3295 14.7147 66.0881 15.1738C66.8467 15.6329 67.4328 16.2775 67.8466 17.1075C68.265 17.9376 68.4742 18.9044 68.4742 20.0081C68.4742 21.1117 68.265 22.0762 67.8466 22.9017C67.4328 23.7271 66.8467 24.3693 66.0881 24.8284C65.3295 25.2875 64.4331 25.517 63.3986 25.517ZM63.4124 23.4999C63.9733 23.4999 64.4422 23.3445 64.8192 23.0338C65.1962 22.7185 65.4767 22.2965 65.6606 21.7679C65.849 21.2392 65.9433 20.6503 65.9433 20.0011C65.9433 19.3473 65.849 18.756 65.6606 18.2274C65.4767 17.6941 65.1962 17.2698 64.8192 16.9545C64.4422 16.6392 63.9733 16.4815 63.4124 16.4815C62.8378 16.4815 62.3596 16.6392 61.9781 16.9545C61.6011 17.2698 61.3183 17.6941 61.1298 18.2274C60.9459 18.756 60.854 19.3473 60.854 20.0011C60.854 20.6503 60.9459 21.2392 61.1298 21.7679C61.3183 22.2965 61.6011 22.7185 61.9781 23.0338C62.3596 23.3445 62.8378 23.4999 63.4124 23.4999Z" fill="url(#paint7_linear_2422_15592)"/>
<path d="M72.4756 25.3083L69.4827 14.6243H72.0273L73.8893 22.1365H73.9858L75.8891 14.6243H78.4062L80.3095 22.0948H80.413L82.2473 14.6243H84.7989L81.7991 25.3083H79.1992L77.2132 18.0883H77.0684L75.0823 25.3083H72.4756Z" fill="url(#paint8_linear_2422_15592)"/>
<path d="M86.6522 25.3083V11.063H91.9483C93.0333 11.063 93.9436 11.2531 94.6792 11.6333C95.4194 12.0136 95.978 12.5469 96.3549 13.2332C96.7365 13.9148 96.9273 14.7101 96.9273 15.619C96.9273 16.5325 96.7342 17.3255 96.348 17.9978C95.9665 18.6656 95.4033 19.1826 94.6585 19.549C93.9137 19.9107 92.9989 20.0915 91.9139 20.0915H88.1417V17.9492H91.5691C92.2035 17.9492 92.723 17.8611 93.1276 17.6848C93.5322 17.504 93.831 17.242 94.0241 16.8988C94.2217 16.5511 94.3206 16.1244 94.3206 15.619C94.3206 15.1135 94.2217 14.6823 94.0241 14.3252C93.8264 13.9635 93.5253 13.6899 93.1207 13.5044C92.7161 13.3143 92.1943 13.2192 91.5553 13.2192H89.2106V25.3083H86.6522ZM93.9482 18.8534L97.4445 25.3083H94.5895L91.1553 18.8534H93.9482Z" fill="url(#paint9_linear_2422_15592)"/>
<path d="M103.71 25.517C102.648 25.517 101.73 25.2944 100.958 24.8493C100.19 24.3995 99.5995 23.7642 99.1858 22.9434C98.772 22.118 98.5651 21.1465 98.5651 20.0289C98.5651 18.9299 98.772 17.9654 99.1858 17.1353C99.6041 16.3006 100.188 15.6514 100.937 15.1877C101.687 14.7194 102.567 14.4852 103.579 14.4852C104.231 14.4852 104.847 14.5918 105.427 14.8052C106.011 15.0138 106.525 15.3384 106.971 15.779C107.422 16.2195 107.776 16.7806 108.033 17.4623C108.291 18.1393 108.42 18.9461 108.42 19.8829V20.6549H99.7375V18.9577H106.027C106.022 18.4755 105.919 18.0465 105.716 17.6709C105.514 17.2907 105.231 16.9916 104.868 16.7736C104.51 16.5557 104.091 16.4467 103.613 16.4467C103.103 16.4467 102.654 16.5719 102.268 16.8223C101.882 17.0681 101.581 17.3927 101.365 17.7961C101.153 18.1949 101.045 18.6331 101.041 19.1108V20.5923C101.041 21.2137 101.153 21.747 101.379 22.1922C101.604 22.6327 101.919 22.9712 102.323 23.2077C102.728 23.4396 103.202 23.5555 103.744 23.5555C104.107 23.5555 104.436 23.5045 104.73 23.4025C105.024 23.2958 105.28 23.1405 105.496 22.9364C105.712 22.7324 105.875 22.4797 105.985 22.1783L108.316 22.4426C108.169 23.064 107.889 23.6065 107.475 24.0702C107.066 24.5293 106.542 24.8864 105.903 25.1414C105.263 25.3918 104.533 25.517 103.71 25.517Z" fill="url(#paint10_linear_2422_15592)"/>
<path d="M110.532 29.3149V14.6243H112.987V16.3911H113.131C113.26 16.1314 113.442 15.8555 113.676 15.5633C113.911 15.2666 114.228 15.0138 114.628 14.8052C115.028 14.5918 115.538 14.4852 116.159 14.4852C116.977 14.4852 117.715 14.6962 118.372 15.1182C119.034 15.5355 119.558 16.1546 119.945 16.9754C120.335 17.7915 120.531 18.7931 120.531 19.9802C120.531 21.1534 120.34 22.1504 119.958 22.9712C119.577 23.792 119.057 24.418 118.4 24.8493C117.742 25.2805 116.998 25.4962 116.166 25.4962C115.559 25.4962 115.055 25.3941 114.655 25.1901C114.255 24.9861 113.934 24.7403 113.69 24.4528C113.451 24.1606 113.265 23.8847 113.131 23.6251H113.028V29.3149H110.532ZM112.98 19.9663C112.98 20.6573 113.076 21.2624 113.269 21.7818C113.467 22.3011 113.75 22.7069 114.117 22.999C114.49 23.2865 114.94 23.4303 115.469 23.4303C116.021 23.4303 116.483 23.2819 116.855 22.9851C117.228 22.6837 117.508 22.2733 117.697 21.754C117.89 21.23 117.986 20.6341 117.986 19.9663C117.986 19.3032 117.892 18.7143 117.703 18.1996C117.515 17.6848 117.234 17.2814 116.862 16.9893C116.49 16.6971 116.025 16.5511 115.469 16.5511C114.936 16.5511 114.483 16.6925 114.111 16.9754C113.738 17.2582 113.455 17.6547 113.262 18.1648C113.074 18.6749 112.98 19.2754 112.98 19.9663Z" fill="url(#paint11_linear_2422_15592)"/>
<path d="M129.42 20.8149V14.6243H131.916V25.3083H129.496V23.4094H129.385C129.146 24.0076 128.753 24.4968 128.206 24.8771C127.664 25.2573 126.995 25.4475 126.199 25.4475C125.505 25.4475 124.891 25.2921 124.358 24.9814C123.829 24.6661 123.416 24.2093 123.117 23.6111C122.818 23.0083 122.669 22.2803 122.669 21.427V14.6243H125.165V21.0375C125.165 21.7145 125.349 22.2525 125.717 22.6512C126.084 23.05 126.567 23.2494 127.165 23.2494C127.533 23.2494 127.889 23.159 128.234 22.9782C128.579 22.7973 128.861 22.5284 129.082 22.1713C129.307 21.8096 129.42 21.3575 129.42 20.8149Z" fill="url(#paint12_linear_2422_15592)"/>
<path d="M134.594 25.3083V11.063H137.09V16.3911H137.193C137.322 16.1314 137.504 15.8555 137.738 15.5633C137.973 15.2666 138.29 15.0138 138.69 14.8052C139.09 14.5918 139.6 14.4852 140.221 14.4852C141.039 14.4852 141.777 14.6962 142.434 15.1182C143.096 15.5355 143.621 16.1546 144.007 16.9754C144.398 17.7915 144.593 18.7931 144.593 19.9802C144.593 21.1534 144.402 22.1504 144.021 22.9712C143.639 23.792 143.119 24.418 142.462 24.8493C141.805 25.2805 141.06 25.4962 140.228 25.4962C139.621 25.4962 139.117 25.3941 138.717 25.1901C138.317 24.9861 137.996 24.7403 137.752 24.4528C137.513 24.1606 137.327 23.8847 137.193 23.6251H137.049V25.3083H134.594ZM137.042 19.9663C137.042 20.6573 137.138 21.2624 137.331 21.7818C137.529 22.3011 137.812 22.7069 138.18 22.999C138.552 23.2865 139.002 23.4303 139.531 23.4303C140.083 23.4303 140.545 23.2819 140.917 22.9851C141.29 22.6837 141.57 22.2733 141.759 21.754C141.952 21.23 142.048 20.6341 142.048 19.9663C142.048 19.3032 141.954 18.7143 141.766 18.1996C141.577 17.6848 141.297 17.2814 140.924 16.9893C140.552 16.6971 140.087 16.5511 139.531 16.5511C138.998 16.5511 138.545 16.6925 138.173 16.9754C137.8 17.2582 137.518 17.6547 137.324 18.1648C137.136 18.6749 137.042 19.2754 137.042 19.9663Z" fill="url(#paint13_linear_2422_15592)"/>
<path d="M149.212 11.063V25.3083H146.715V11.063H149.212Z" fill="url(#paint14_linear_2422_15592)"/>
<path d="M151.779 25.3083V14.6243H154.275V25.3083H151.779ZM153.034 13.108C152.638 13.108 152.298 12.9758 152.013 12.7115C151.728 12.4425 151.586 12.1202 151.586 11.7446C151.586 11.3644 151.728 11.0421 152.013 10.7778C152.298 10.5088 152.638 10.3743 153.034 10.3743C153.434 10.3743 153.774 10.5088 154.054 10.7778C154.339 11.0421 154.482 11.3644 154.482 11.7446C154.482 12.1202 154.339 12.4425 154.054 12.7115C153.774 12.9758 153.434 13.108 153.034 13.108Z" fill="url(#paint15_linear_2422_15592)"/>
<path d="M161.462 25.517C160.405 25.517 159.497 25.2828 158.738 24.8145C157.984 24.3461 157.403 23.6993 156.994 22.8738C156.589 22.0438 156.387 21.0885 156.387 20.0081C156.387 18.923 156.594 17.9654 157.008 17.1353C157.421 16.3006 158.005 15.6514 158.759 15.1877C159.518 14.7194 160.414 14.4852 161.449 14.4852C162.308 14.4852 163.069 14.6452 163.731 14.9651C164.398 15.2805 164.929 15.728 165.324 16.3076C165.72 16.8826 165.945 17.555 166 18.3248H163.614C163.517 17.81 163.288 17.3811 162.924 17.038C162.566 16.6902 162.085 16.5163 161.483 16.5163C160.973 16.5163 160.525 16.6554 160.138 16.9336C159.752 17.2072 159.451 17.6014 159.235 18.1161C159.023 18.6308 158.918 19.2476 158.918 19.9663C158.918 20.6944 159.023 21.3204 159.235 21.8444C159.446 22.3637 159.743 22.7649 160.125 23.0477C160.511 23.326 160.964 23.4651 161.483 23.4651C161.851 23.4651 162.18 23.3955 162.469 23.2564C162.763 23.1126 163.009 22.9063 163.207 22.6373C163.405 22.3684 163.54 22.0415 163.614 21.6566H166C165.94 22.4124 165.72 23.0825 165.338 23.6668C164.956 24.2464 164.437 24.7009 163.779 25.0301C163.122 25.3547 162.35 25.517 161.462 25.517Z" fill="url(#paint16_linear_2422_15592)"/>
<defs>
<linearGradient id="paint0_linear_2422_15592" x1="96.2549" y1="33.8297" x2="96.0061" y2="5.88666" gradientUnits="userSpaceOnUse">
<stop stop-color="#0463EF"/>
<stop offset="1" stop-color="#2DDAFF"/>
</linearGradient>
<linearGradient id="paint1_linear_2422_15592" x1="13.9556" y1="23.378" x2="33.2488" y2="-36.5498" gradientUnits="userSpaceOnUse">
<stop stop-color="#FA1477"/>
<stop offset="1" stop-color="#F9D92E"/>
</linearGradient>
<linearGradient id="paint2_linear_2422_15592" x1="152.962" y1="-33.0255" x2="144.5" y2="43.1451" gradientUnits="userSpaceOnUse">
<stop stop-color="#0463EF"/>
<stop offset="1" stop-color="#FA1477"/>
</linearGradient>
<linearGradient id="paint3_linear_2422_15592" x1="-15.3931" y1="17.8636" x2="70.4049" y2="-75.4516" gradientUnits="userSpaceOnUse">
<stop stop-color="#FDFDFE" stop-opacity="0"/>
<stop offset="0.17" stop-color="#FAFBFD" stop-opacity="0.01"/>
<stop offset="0.31" stop-color="#F0F8FC" stop-opacity="0.06"/>
<stop offset="0.43" stop-color="#E0F2FA" stop-opacity="0.13"/>
<stop offset="0.55" stop-color="#CAE9F7" stop-opacity="0.24"/>
<stop offset="0.67" stop-color="#ADDEF3" stop-opacity="0.38"/>
<stop offset="0.78" stop-color="#8AD0EE" stop-opacity="0.54"/>
<stop offset="0.88" stop-color="#5FC0E9" stop-opacity="0.74"/>
<stop offset="0.99" stop-color="#30ADE2" stop-opacity="0.96"/>
<stop offset="1" stop-color="#29ABE2"/>
</linearGradient>
<linearGradient id="paint4_linear_2422_15592" x1="-17.4937" y1="-7.91596" x2="25.3186" y2="110.707" gradientUnits="userSpaceOnUse">
<stop stop-color="#FDFDFE" stop-opacity="0"/>
<stop offset="0.16" stop-color="#FDFDFE" stop-opacity="0.01"/>
<stop offset="0.29" stop-color="#FDFDFE" stop-opacity="0.05"/>
<stop offset="0.41" stop-color="#FDFDFE" stop-opacity="0.12"/>
<stop offset="0.53" stop-color="#FDFDFE" stop-opacity="0.21"/>
<stop offset="0.63" stop-color="#FDFDFE" stop-opacity="0.33"/>
<stop offset="0.74" stop-color="#FDFDFE" stop-opacity="0.48"/>
<stop offset="0.84" stop-color="#FDFDFE" stop-opacity="0.66"/>
<stop offset="0.94" stop-color="#FDFDFE" stop-opacity="0.86"/>
<stop offset="1" stop-color="#FDFDFE"/>
</linearGradient>
<linearGradient id="paint5_linear_2422_15592" x1="166" y1="17.5" x2="-2.44117" y2="17.5" gradientUnits="userSpaceOnUse">
<stop stop-color="#D8963C"/>
<stop offset="0.618369" stop-color="#C6187A"/>
<stop offset="0.641253" stop-color="#90BCFF"/>
<stop offset="1" stop-color="#0079D0"/>
</linearGradient>
<linearGradient id="paint6_linear_2422_15592" x1="166" y1="17.5" x2="-2.44117" y2="17.5" gradientUnits="userSpaceOnUse">
<stop stop-color="#D8963C"/>
<stop offset="0.618369" stop-color="#C6187A"/>
<stop offset="0.641253" stop-color="#90BCFF"/>
<stop offset="1" stop-color="#0079D0"/>
</linearGradient>
<linearGradient id="paint7_linear_2422_15592" x1="166" y1="17.5" x2="-2.44117" y2="17.5" gradientUnits="userSpaceOnUse">
<stop stop-color="#D8963C"/>
<stop offset="0.618369" stop-color="#C6187A"/>
<stop offset="0.641253" stop-color="#90BCFF"/>
<stop offset="1" stop-color="#0079D0"/>
</linearGradient>
<linearGradient id="paint8_linear_2422_15592" x1="166" y1="17.5" x2="-2.44117" y2="17.5" gradientUnits="userSpaceOnUse">
<stop stop-color="#D8963C"/>
<stop offset="0.618369" stop-color="#C6187A"/>
<stop offset="0.641253" stop-color="#90BCFF"/>
<stop offset="1" stop-color="#0079D0"/>
</linearGradient>
<linearGradient id="paint9_linear_2422_15592" x1="166" y1="17.5" x2="-2.44117" y2="17.5" gradientUnits="userSpaceOnUse">
<stop stop-color="#D8963C"/>
<stop offset="0.618369" stop-color="#C6187A"/>
<stop offset="0.641253" stop-color="#90BCFF"/>
<stop offset="1" stop-color="#0079D0"/>
</linearGradient>
<linearGradient id="paint10_linear_2422_15592" x1="166" y1="17.5" x2="-2.44117" y2="17.5" gradientUnits="userSpaceOnUse">
<stop stop-color="#D8963C"/>
<stop offset="0.618369" stop-color="#C6187A"/>
<stop offset="0.641253" stop-color="#90BCFF"/>
<stop offset="1" stop-color="#0079D0"/>
</linearGradient>
<linearGradient id="paint11_linear_2422_15592" x1="166" y1="17.5" x2="-2.44117" y2="17.5" gradientUnits="userSpaceOnUse">
<stop stop-color="#D8963C"/>
<stop offset="0.618369" stop-color="#C6187A"/>
<stop offset="0.641253" stop-color="#90BCFF"/>
<stop offset="1" stop-color="#0079D0"/>
</linearGradient>
<linearGradient id="paint12_linear_2422_15592" x1="166" y1="17.5" x2="-2.44117" y2="17.5" gradientUnits="userSpaceOnUse">
<stop stop-color="#D8963C"/>
<stop offset="0.618369" stop-color="#C6187A"/>
<stop offset="0.641253" stop-color="#90BCFF"/>
<stop offset="1" stop-color="#0079D0"/>
</linearGradient>
<linearGradient id="paint13_linear_2422_15592" x1="166" y1="17.5" x2="-2.44117" y2="17.5" gradientUnits="userSpaceOnUse">
<stop stop-color="#D8963C"/>
<stop offset="0.618369" stop-color="#C6187A"/>
<stop offset="0.641253" stop-color="#90BCFF"/>
<stop offset="1" stop-color="#0079D0"/>
</linearGradient>
<linearGradient id="paint14_linear_2422_15592" x1="166" y1="17.5" x2="-2.44117" y2="17.5" gradientUnits="userSpaceOnUse">
<stop stop-color="#D8963C"/>
<stop offset="0.618369" stop-color="#C6187A"/>
<stop offset="0.641253" stop-color="#90BCFF"/>
<stop offset="1" stop-color="#0079D0"/>
</linearGradient>
<linearGradient id="paint15_linear_2422_15592" x1="166" y1="17.5" x2="-2.44117" y2="17.5" gradientUnits="userSpaceOnUse">
<stop stop-color="#D8963C"/>
<stop offset="0.618369" stop-color="#C6187A"/>
<stop offset="0.641253" stop-color="#90BCFF"/>
<stop offset="1" stop-color="#0079D0"/>
</linearGradient>
<linearGradient id="paint16_linear_2422_15592" x1="166" y1="17.5" x2="-2.44117" y2="17.5" gradientUnits="userSpaceOnUse">
<stop stop-color="#D8963C"/>
<stop offset="0.618369" stop-color="#C6187A"/>
<stop offset="0.641253" stop-color="#90BCFF"/>
<stop offset="1" stop-color="#0079D0"/>
</linearGradient>
</defs>
</svg>
