<svg width="190" height="41" viewBox="0 0 190 41" fill="none" xmlns="http://www.w3.org/2000/svg">
<path d="M39.2982 13.9362L26.4198 0.744634C25.956 0.269502 25.3248 0 24.6663 0H15.3588C14.7003 0 14.0692 0.269502 13.6038 0.744634L0.726955 13.9362C0.260061 14.4144 0 15.0578 0 15.7323V25.2677C0 25.9422 0.260061 26.5856 0.726955 27.0638L13.6038 40.2554C14.0707 40.7305 14.7018 41 15.3588 41H24.6648C25.3233 41 25.9544 40.7305 26.4183 40.2554L39.2966 27.0638C39.762 26.5871 40.0236 25.9422 40.0236 25.2677V15.7323C40.0236 15.0594 39.7635 14.4144 39.2982 13.9362ZM23.2245 36.7441H16.8401L15.4318 35.3015L28.5125 21.8903L33.1099 26.5903L23.2245 36.7441ZM28.5231 19.1034L28.5094 19.0894L28.4973 19.1019L20.0323 10.3999L10.1728 20.4992L18.6605 29.1934L14.0661 33.8995L4.15642 23.7457V17.2527L16.8432 4.25438H23.223L33.1114 14.4144L28.5231 19.1034Z" fill="black"/>
<path d="M37.639 19.0217L34.4939 15.8001L29.8934 20.4985V20.5001L34.4939 25.1984L37.639 21.9769V19.0217Z" fill="#49A8D8"/>
<path d="M58.8986 12.5773C58.64 10.7516 56.8835 9.36355 54.8699 9.36355C51.2275 9.36355 49.8588 12.448 49.8588 15.6633C49.8588 18.7229 51.2275 21.8073 54.8699 21.8073C57.3488 21.8073 58.7449 20.1109 59.0537 17.6932H62.9789C62.5653 22.27 59.3883 25.2002 54.8684 25.2002C49.1607 25.2002 45.8027 20.9583 45.8027 15.6618C45.8027 10.211 49.1607 5.96908 54.8684 5.96908C58.9229 5.96908 62.3326 8.33384 62.8238 12.5773H58.8986Z" fill="black"/>
<path d="M74.1631 6.40768H70.1223L63.3196 24.7633H67.3103L72.0796 10.9316H72.1298L76.7728 24.7633H80.8639L74.1631 6.40768Z" fill="black"/>
<path d="M85.1814 18.6701C85.1814 21.1128 87.0384 22.063 89.1462 22.063C90.5271 22.063 92.635 21.6518 92.635 19.7746C92.635 17.7946 89.9492 17.4613 87.3136 16.74C84.6537 16.0203 81.9679 14.9657 81.9679 11.5213C81.9679 7.76858 85.4324 5.96775 88.6702 5.96775C92.4099 5.96775 95.8485 7.63928 95.8485 11.8812H92.0328C91.9081 9.67066 90.3766 9.10518 88.4938 9.10518C87.2391 9.10518 85.7837 9.64573 85.7837 11.188C85.7837 12.6025 86.6369 12.7816 91.1294 13.964C92.4343 14.2974 96.4508 15.1464 96.4508 19.312C96.4508 22.6799 93.8654 25.1989 88.9957 25.1989C85.0309 25.1989 81.3155 23.194 81.3657 18.6686H85.1814V18.6701Z" fill="black"/>
<path d="M131.626 6.40768H135.567V21.3704H144.302V24.7633H131.626V6.40768Z" fill="black"/>
<path d="M154.513 5.96908C160.167 5.96908 163.495 10.211 163.495 15.6618C163.495 20.9583 160.169 25.2002 154.513 25.2002C148.859 25.2002 145.533 20.9583 145.533 15.6618C145.531 10.211 148.857 5.96908 154.513 5.96908ZM154.513 21.8058C158.12 21.8058 159.477 18.7213 159.477 15.6618C159.477 12.448 158.12 9.36199 154.513 9.36199C150.906 9.36199 149.549 12.4465 149.549 15.6618C149.549 18.7213 150.904 21.8058 154.513 21.8058Z" fill="black"/>
<path d="M129.544 9.79924V6.40633H115.627L119.073 10.5299H116.944V24.762H120.884V17.1786H128.388V14.0412H120.884V9.79924H129.544Z" fill="black"/>
<path d="M111.907 10.5299L115.352 6.40633H110.015V13.4508H102.761V6.40633H98.8203V24.762H102.761V16.8437H110.015V24.762H113.956V10.5299H111.907Z" fill="black"/>
<path d="M190 6.43215L186.259 2.413L181.167 6.43215H183.784L180.854 18.3245H180.804L177.741 6.40723H174.051L170.939 18.1702H170.889L168.053 6.40723H164.112L168.856 24.7629H172.847L175.833 12.2677H175.884L178.921 24.7629H182.837L187.649 6.43215H190Z" fill="black"/>
<path d="M68.3293 34.9999H45.8043V34.235H68.3293V34.9999ZM187.655 34.235H165.13V34.9999H187.655V34.235Z" fill="black"/>
<path d="M145.68 38.5868C141.916 38.5868 141.127 36.4277 141.127 34.616C141.127 32.8042 141.916 30.6451 145.68 30.6451C149.443 30.6451 150.233 32.8042 150.233 34.616C150.233 36.4277 149.443 38.5868 145.68 38.5868ZM145.68 32.1967C143.958 32.1967 143.349 33.5006 143.349 34.616C143.349 35.7314 143.96 37.0353 145.68 37.0353C147.402 37.0353 148.011 35.7314 148.011 34.616C148.011 33.5006 147.402 32.1967 145.68 32.1967ZM104.949 38.5868C101.187 38.5868 100.396 36.4277 100.396 34.616C100.396 32.8042 101.185 30.6451 104.949 30.6451C108.713 30.6451 109.503 32.8042 109.503 34.616C109.503 36.4277 108.713 38.5868 104.949 38.5868ZM104.949 32.1967C103.228 32.1967 102.618 33.5006 102.618 34.616C102.618 35.7314 103.228 37.0353 104.949 37.0353C106.671 37.0353 107.281 35.7314 107.281 34.616C107.281 33.5006 106.671 32.1967 104.949 32.1967ZM158.852 38.3812L158.817 38.3111C158.648 37.9777 158.633 37.674 158.633 36.8919C158.633 36.0258 158.352 35.6722 157.664 35.6722H155.302V38.3812H153.202V30.8523H158.513C160.604 30.8523 160.916 32.1546 160.916 32.932C160.916 33.8184 160.584 34.3854 159.872 34.7063C160.437 34.9073 160.733 35.5943 160.733 36.705C160.733 37.0945 160.771 37.8033 161.024 38.1771L161.162 38.3812H158.852ZM157.827 34.1206C158.247 34.1206 158.694 33.8932 158.694 33.2513C158.694 32.5145 158.087 32.4039 157.725 32.4039H155.302V34.1206H157.827ZM134.079 38.3812V32.4039H131.404V30.8523H138.855V32.4039H136.179V38.3812H134.079ZM127.882 38.3812L125.689 32.7139L123.496 38.3812H121.23L124.461 30.8523H126.916L130.148 38.3812H127.882ZM114.789 38.3812L111.525 30.8523H113.832L115.873 36.3467L117.914 30.8523H120.221L116.958 38.3812H114.789ZM95.1916 38.3812L91.35 33.3433V38.3812H89.3106V30.8523H91.6877L95.3878 35.8856V30.8523H97.4273V38.3812H95.1916ZM83.7018 38.3812L79.8602 33.3433V38.3812H77.8208V30.8523H80.1978L83.898 35.8856V30.8523H85.9374V38.3812H83.7018ZM72.3473 38.3812V30.8523H74.4476V38.3812H72.3473Z" fill="#49A8D8"/>
</svg>
