<svg width="168" height="53" viewBox="0 0 168 53" fill="none" xmlns="http://www.w3.org/2000/svg">
<g clip-path="url(#clip0_2422_15376)">
<path d="M67.0989 24.5101C66.5114 24.3831 65.8666 24.2131 65.1645 24.0001C64.8542 23.8761 64.5292 23.7913 64.1973 23.7478L64.3764 19.9148H65.752L66.1102 22.666C66.4596 22.9491 66.8663 23.1554 67.3031 23.2713C67.8906 23.4531 68.5035 23.5424 69.1193 23.536C70.2083 23.536 71.0358 23.296 71.6018 22.816C72.1678 22.336 72.4507 21.6719 72.4507 20.8236C72.4617 20.3153 72.299 19.8181 71.9886 19.4118C71.6539 18.9957 71.2371 18.6505 70.7635 18.3971C70.2548 18.1148 69.5563 17.783 68.6679 17.4018C67.9445 17.0901 67.2442 16.7286 66.5723 16.32C65.9574 15.9371 65.4283 15.4345 65.0176 14.843C64.5691 14.1912 64.3398 13.4171 64.362 12.63C64.3518 11.8871 64.5731 11.1591 64.9961 10.5441C65.4547 9.90104 66.0878 9.3983 66.823 9.09348C67.7021 8.72408 68.651 8.54359 69.6064 8.56407C70.1938 8.55779 70.7805 8.60744 71.3582 8.7123C71.8668 8.81113 72.4436 8.94525 73.0884 9.11466C73.3253 9.20078 73.57 9.2646 73.8192 9.30525L73.6902 12.8629H72.3791L71.9492 10.2582C71.8059 10.117 71.5074 9.98291 71.0537 9.85585C70.5743 9.7251 70.0788 9.66095 69.5814 9.66526C68.5927 9.66526 67.844 9.86996 67.3353 10.2794C66.8266 10.6888 66.5723 11.2817 66.5723 12.0582C66.5563 12.5673 66.7196 13.0661 67.0344 13.47C67.3542 13.8611 67.7439 14.1913 68.1843 14.4441C68.6428 14.7124 69.3736 15.0794 70.3766 15.5453C71.308 15.983 72.0675 16.3783 72.6549 16.7312C73.249 17.0892 73.7642 17.5609 74.1702 18.1183C74.6008 18.7137 74.8234 19.4309 74.8043 20.1618C74.7998 20.9258 74.5803 21.6735 74.1702 22.3219C73.6994 23.0567 73.0294 23.6472 72.2358 24.0266C71.3761 24.4795 70.3301 24.706 69.0978 24.706C68.4263 24.7115 67.7561 24.6458 67.0989 24.5101Z" fill="#202D3A"/>
<path d="M76.5775 23.43L77.8886 23.2394V14.3452L76.3411 13.964V12.8204L79.4146 12.4375L79.8015 12.7146L79.9305 13.5616L79.909 14.2393C80.5211 13.7211 81.2142 13.304 81.9616 13.004C82.6906 12.6616 83.483 12.47 84.2901 12.441C85.0638 12.441 85.6871 12.5687 86.16 12.824C86.6431 13.0893 87.0216 13.507 87.2347 14.0099C87.8167 13.5588 88.4655 13.1981 89.1583 12.9404C89.8883 12.6279 90.6731 12.4583 91.4689 12.441C92.3573 12.441 93.0522 12.6075 93.5537 12.9404C94.0847 13.3137 94.4621 13.8622 94.6177 14.4863C94.8254 15.1816 94.9293 16.1175 94.9293 17.294V23.2464L96.4769 23.437V24.4747H91.365V23.437L92.6976 23.2464V17.3523C92.715 16.6947 92.6549 16.0373 92.5185 15.3934C92.4313 14.9596 92.1868 14.5719 91.8307 14.3028C91.494 14.0628 91.0103 13.9499 90.3799 13.9499C89.8632 13.9593 89.3528 14.064 88.8753 14.2587C88.3914 14.4383 87.9355 14.6843 87.5212 14.9893C87.6706 15.7638 87.7354 16.5518 87.7147 17.3399V23.2482L89.2407 23.4388V24.4765H84.0465V23.4388L85.465 23.2482V17.3099C85.4816 16.6491 85.4276 15.9884 85.3038 15.3387C85.2257 14.9296 85.0053 14.5602 84.6805 14.294C84.3796 14.0628 83.9211 13.941 83.3049 13.941C82.7357 13.9537 82.1755 14.0842 81.6607 14.324C81.1194 14.5531 80.6101 14.8496 80.1454 15.2064V23.2323L81.5783 23.4229V24.4606H76.5632L76.5775 23.43Z" fill="#202D3A"/>
<path d="M100.006 18.3541C101.353 17.7259 103.058 17.3906 105.121 17.3482V16.7659C105.141 16.2358 105.068 15.7064 104.906 15.2005C104.779 14.837 104.513 14.5368 104.165 14.3641C103.813 14.1876 103.316 14.0994 102.671 14.0994C102.001 14.089 101.334 14.1929 100.701 14.4064C100.107 14.617 99.5286 14.8682 98.9703 15.1582L98.433 14.057C98.7552 13.8189 99.1008 13.6132 99.4647 13.4429C100.023 13.1664 100.606 12.9396 101.206 12.7652C101.844 12.571 102.508 12.4711 103.176 12.4688C104.193 12.4688 104.999 12.6058 105.594 12.8799C106.176 13.1439 106.634 13.6175 106.873 14.2035C107.131 14.8123 107.26 15.6153 107.26 16.6406V23.4383H108.542V24.3701C108.255 24.4406 107.894 24.5095 107.457 24.5818C107.077 24.6464 106.692 24.6818 106.307 24.6877C105.906 24.6877 105.633 24.6259 105.49 24.5112C105.347 24.3965 105.275 24.1265 105.275 23.7171V23.0112C104.803 23.4662 104.272 23.8573 103.695 24.1742C103.05 24.5328 102.319 24.7155 101.578 24.7036C100.546 24.7036 99.6903 24.4095 99.0097 23.8212C98.3291 23.233 97.9888 22.39 97.9888 21.2924C97.9864 19.9653 98.6587 18.9859 100.006 18.3541ZM103.788 22.9177C104.262 22.7 104.709 22.43 105.121 22.113V18.4759C103.559 18.4759 102.381 18.7112 101.585 19.1818C100.79 19.6524 100.392 20.27 100.392 21.0347C100.392 21.7971 100.582 22.3583 100.962 22.7183C101.169 22.9037 101.412 23.0469 101.676 23.1396C101.939 23.2323 102.219 23.2726 102.499 23.2583C102.948 23.24 103.388 23.1256 103.788 22.923V22.9177Z" fill="#202D3A"/>
<path d="M111.612 8.6709L109.871 8.43796V7.52736L113.331 7.125H113.378L113.851 7.44265V23.2616L115.678 23.4381V24.4758H109.874V23.4381L111.615 23.2475L111.612 8.6709Z" fill="#202D3A"/>
<path d="M118.769 8.6709L117.028 8.43796V7.52736L120.489 7.125H120.532L121.005 7.44265V23.2616L122.832 23.4381V24.4758H117.028V23.4381L118.769 23.2475V8.6709Z" fill="#202D3A"/>
<path d="M132.579 23.6948C131.468 23.0247 130.588 22.0409 130.053 20.8712C129.48 19.6571 129.194 18.2306 129.194 16.5918C129.164 15.1329 129.512 13.6906 130.204 12.4005C130.843 11.2232 131.803 10.2452 132.976 9.57698C134.18 8.89906 135.545 8.55168 136.931 8.57108C138.271 8.59948 139.604 8.76927 140.908 9.07756L141.624 9.20638L141.409 13.0182H139.976L139.439 10.327C139.124 10.1043 138.763 9.95243 138.382 9.88227C137.786 9.75274 137.176 9.6935 136.566 9.7058C135.685 9.69483 134.825 9.96679 134.116 10.4805C133.399 10.9958 132.837 11.7546 132.428 12.757C132.02 13.7594 131.816 14.9594 131.816 16.3571C131.801 17.5844 131.982 18.8065 132.353 19.9783C132.651 20.9713 133.216 21.8669 133.987 22.5707C134.732 23.2199 135.7 23.565 136.695 23.536C137.285 23.5552 137.875 23.491 138.447 23.3454C138.828 23.2326 139.183 23.0454 139.489 22.7948L140.385 20.7177L141.739 20.8942L141.223 23.8942C140.768 23.9425 140.321 24.0426 139.89 24.1924C139.399 24.3408 138.9 24.4645 138.396 24.563C137.805 24.6621 137.205 24.7076 136.605 24.6989C135.031 24.7036 133.689 24.3689 132.579 23.6948Z" fill="#202D3A"/>
<path d="M145.507 18.3541C146.854 17.7259 148.559 17.3906 150.623 17.3482V16.7659C150.642 16.2358 150.569 15.7064 150.408 15.2005C150.281 14.837 150.015 14.5368 149.666 14.3641C149.315 14.1876 148.817 14.0994 148.172 14.0994C147.503 14.089 146.836 14.1929 146.202 14.4064C145.608 14.617 145.03 14.8682 144.472 15.1582L143.935 14.057C144.257 13.8189 144.602 13.6132 144.966 13.4429C145.525 13.1664 146.108 12.9396 146.707 12.7652C147.345 12.571 148.009 12.4711 148.677 12.4688C149.695 12.4688 150.501 12.6058 151.095 12.8799C151.678 13.1439 152.135 13.6175 152.374 14.2035C152.632 14.8123 152.761 15.6153 152.761 16.6406V23.4383H154.036V24.3701C153.75 24.4406 153.388 24.5095 152.951 24.5818C152.571 24.6464 152.187 24.6818 151.801 24.6877C151.4 24.6877 151.128 24.6259 150.984 24.5112C150.841 24.3965 150.769 24.1265 150.769 23.7171V23.0112C150.301 23.4667 149.773 23.8589 149.2 24.1777C148.555 24.5363 147.824 24.719 147.083 24.7071C146.052 24.7071 145.195 24.413 144.515 23.8248C143.834 23.2365 143.494 22.3936 143.494 21.2959C143.489 19.9665 144.16 18.9859 145.507 18.3541ZM149.29 22.9177C149.764 22.7 150.211 22.43 150.623 22.113V18.4759C149.061 18.4759 147.882 18.7112 147.087 19.1818C146.292 19.6524 145.894 20.27 145.894 21.0347C145.894 21.7971 146.084 22.3583 146.464 22.7183C146.671 22.9037 146.913 23.0469 147.177 23.1396C147.441 23.2323 147.721 23.2726 148 23.2583C148.45 23.24 148.89 23.1256 149.29 22.923V22.9177Z" fill="#202D3A"/>
<path d="M166.42 21.4712C165.942 22.4408 165.197 23.2589 164.271 23.8324C163.29 24.4268 162.155 24.7301 161.004 24.7059C160.63 24.7036 160.256 24.6753 159.886 24.6212C159.558 24.5815 159.234 24.5112 158.919 24.4112L158.984 26.19V28.3271L161.219 28.5618V29.5995H155.222V28.5618L156.77 28.3271V14.3452L155.201 13.964V12.8205L158.246 12.4375H158.289L158.74 12.8205V14.0699C159.2 13.5827 159.745 13.1805 160.348 12.8822C161.011 12.5532 161.745 12.3867 162.487 12.3969C163.305 12.3907 164.11 12.6029 164.815 13.0111C165.565 13.4646 166.16 14.1282 166.524 14.917C166.954 15.7781 167.169 16.8646 167.169 18.1764C167.184 19.3172 166.928 20.4456 166.42 21.4712ZM160.08 14.2181C159.673 14.3991 159.301 14.6501 158.984 14.9593V22.9412C159.084 23.1176 159.342 23.2641 159.747 23.3982C160.18 23.5362 160.634 23.6042 161.09 23.5994C161.609 23.6119 162.123 23.5008 162.589 23.2756C163.055 23.0504 163.458 22.7177 163.766 22.3059C164.446 21.4459 164.787 20.1476 164.787 18.4111C164.787 16.8817 164.488 15.7446 163.891 14.9999C163.628 14.6465 163.283 14.3604 162.885 14.1654C162.487 13.9704 162.047 13.8723 161.602 13.8793C161.075 13.8762 160.554 13.9921 160.08 14.2181Z" fill="#202D3A"/>
<path d="M66.9592 44.8706C65.8482 44.2012 64.968 43.2171 64.4337 42.047C63.8606 40.8329 63.574 39.4064 63.574 37.7675C63.5445 36.3087 63.8921 34.8664 64.5842 33.5763C65.2233 32.399 66.1837 31.421 67.3569 30.7528C68.56 30.0748 69.9258 29.7275 71.3116 29.7469C72.6516 29.7753 73.9847 29.9451 75.2879 30.2533L76.0044 30.3822L75.7895 34.1922H74.3566L73.8192 31.5028C73.5076 31.2856 73.152 31.1375 72.7768 31.0686C72.1805 30.9401 71.5709 30.8809 70.9606 30.8922C70.0804 30.8815 69.2205 31.1527 68.5103 31.6651C67.7939 32.1828 67.2315 32.9422 66.8231 33.9434C66.4147 34.9446 66.2105 36.144 66.2105 37.5417C66.1953 38.7696 66.3767 39.9923 66.7479 41.1646C67.046 42.1577 67.6103 43.0532 68.3814 43.757C69.1268 44.4062 70.0951 44.7514 71.0895 44.7223C71.6797 44.7416 72.2696 44.6774 72.8413 44.5317C73.2224 44.4183 73.5768 44.2311 73.8837 43.9811L74.7793 41.9041L76.1333 42.0805L75.6175 45.0806C75.1631 45.1289 74.7159 45.229 74.2849 45.3788C73.7939 45.5274 73.2952 45.6505 72.7911 45.7476C72.1997 45.8483 71.6001 45.8944 71 45.8853C69.4166 45.8841 68.0697 45.5459 66.9592 44.8706Z" fill="#202D3A"/>
<path d="M79.884 39.5297C81.2309 38.9026 82.9361 38.5679 84.9994 38.5256V37.9414C85.019 37.4114 84.9463 36.882 84.7845 36.3761C84.6572 36.0124 84.3913 35.7118 84.043 35.5379C83.5719 35.3392 83.061 35.2486 82.5492 35.2732C81.8793 35.2634 81.2127 35.3679 80.5789 35.582C79.9855 35.7927 79.4074 36.0433 78.8487 36.332L78.3114 35.2308C78.6338 34.9935 78.9794 34.7883 79.3431 34.6185C79.9014 34.3412 80.4841 34.1144 81.084 33.9408C81.7222 33.7461 82.3862 33.6456 83.0543 33.6426C84.0716 33.6426 84.8776 33.7802 85.4723 34.0555C86.0546 34.3195 86.5122 34.7931 86.7511 35.3791C87.0091 35.9879 87.138 36.7908 87.138 37.8162V44.6121H88.4061V45.5457C88.1196 45.6162 87.7578 45.6851 87.3207 45.7574C86.9408 45.8215 86.5563 45.8563 86.1708 45.8615C85.7696 45.8615 85.4974 45.8015 85.3541 45.6851C85.2108 45.5686 85.1391 45.3004 85.1391 44.8909V44.185C84.6715 44.6403 84.1452 45.0331 83.5737 45.3533C82.9282 45.7119 82.1975 45.8946 81.4566 45.8827C80.4249 45.8827 79.5688 45.5886 78.8881 45.0004C78.2075 44.4121 77.8672 43.5686 77.8672 42.4697C77.8672 41.1427 78.5395 40.1627 79.884 39.5297ZM83.6668 44.0933C84.1408 43.8769 84.588 43.6075 84.9994 43.2903V39.6497C83.4376 39.6497 82.259 39.885 81.4638 40.3556C80.6685 40.8285 80.2709 41.4444 80.2709 42.2086C80.2709 42.9727 80.4607 43.5321 80.8404 43.8921C81.0479 44.0772 81.2905 44.2201 81.5543 44.3125C81.818 44.4048 82.0977 44.4449 82.3772 44.4303C82.8279 44.414 83.2694 44.3001 83.6704 44.0968L83.6668 44.0933Z" fill="#202D3A"/>
<path d="M91.2145 35.5214L89.667 35.1402V33.9949L92.7406 33.6137H92.805L93.2564 33.9949V34.8773L93.2349 35.3855C93.8476 34.8736 94.5362 34.457 95.2768 34.1502C96.0388 33.8026 96.8659 33.615 97.7055 33.5996C98.6083 33.5996 99.3068 33.7696 99.8012 34.1096C100.325 34.4899 100.694 35.0408 100.844 35.6643C101.044 36.3632 101.144 37.3044 101.144 38.4879V44.435L102.649 44.5833V45.6421H97.5551V44.6044L98.8877 44.428V38.4861C98.902 37.8281 98.8419 37.1705 98.7086 36.5255C98.628 36.1084 98.3994 35.7331 98.0638 35.4667C97.7485 35.2355 97.29 35.1137 96.6882 35.1137C96.1154 35.1262 95.5517 35.2567 95.0332 35.4967C94.4773 35.7299 93.9507 36.026 93.4642 36.3791V44.4033L94.9257 44.5938V45.6315H89.8604V44.5938L91.2145 44.4033V35.5214Z" fill="#202D3A"/>
<path d="M106.214 39.5297C107.561 38.9026 109.266 38.5679 111.329 38.5256V37.9414C111.349 37.4114 111.276 36.882 111.114 36.3761C110.987 36.0124 110.721 35.7118 110.373 35.5379C109.901 35.3392 109.391 35.2486 108.879 35.2732C108.209 35.2634 107.542 35.3679 106.909 35.582C106.315 35.7927 105.737 36.0433 105.178 36.332L104.641 35.2308C104.963 34.9935 105.309 34.7883 105.673 34.6185C106.231 34.3412 106.814 34.1144 107.414 33.9408C108.052 33.7461 108.716 33.6456 109.384 33.6426C110.401 33.6426 111.207 33.7802 111.802 34.0555C112.384 34.3195 112.842 34.7931 113.081 35.3791C113.339 35.9879 113.468 36.7908 113.468 37.8162V44.6121H114.736V45.5457C114.449 45.6162 114.087 45.6851 113.65 45.7574C113.27 45.8215 112.886 45.8563 112.5 45.8615C112.099 45.8615 111.827 45.8015 111.684 45.6851C111.54 45.5686 111.469 45.3004 111.469 44.8909V44.185C111.001 44.6403 110.475 45.0331 109.903 45.3533C109.258 45.7119 108.527 45.8946 107.786 45.8827C106.755 45.8827 105.898 45.5886 105.218 45.0004C104.537 44.4121 104.197 43.5686 104.197 42.4697C104.197 41.1427 104.869 40.1627 106.214 39.5297ZM109.996 44.0933C110.47 43.8769 110.918 43.6075 111.329 43.2903V39.6497C109.767 39.6497 108.589 39.885 107.793 40.3556C106.998 40.8285 106.6 41.4444 106.6 42.2086C106.6 42.9727 106.79 43.5321 107.17 43.8921C107.378 44.0772 107.62 44.2201 107.884 44.3125C108.148 44.4048 108.427 44.4449 108.707 44.4303C109.157 44.414 109.599 44.3001 110 44.0968L109.996 44.0933Z" fill="#202D3A"/>
<path d="M118.533 45.2421C117.78 44.7773 117.185 44.1013 116.824 43.3009C116.401 42.4256 116.19 41.345 116.19 40.0591C116.176 38.9226 116.433 37.7987 116.942 36.7785C117.424 35.8087 118.175 34.994 119.11 34.4297C120.113 33.8422 121.264 33.5455 122.43 33.5738C123.104 33.5673 123.775 33.645 124.429 33.805V29.8467L122.237 29.5926V28.682L126.106 28.3008H126.17L126.643 28.6396V44.5627H127.897V45.5386C127.438 45.6374 127.041 45.7151 126.704 45.7716C126.352 45.8277 125.996 45.8555 125.64 45.8545C125.267 45.8545 125.002 45.791 124.845 45.6639C124.687 45.5386 124.608 45.2704 124.608 44.861V44.1833C124.173 44.6897 123.635 45.1008 123.029 45.3904C122.369 45.7185 121.64 45.8873 120.901 45.8827C120.067 45.8884 119.247 45.6667 118.533 45.2421ZM123.326 44.0068C123.754 43.8087 124.129 43.5151 124.422 43.1492V35.3932C124.307 35.2167 124.039 35.0738 123.616 34.9379C123.181 34.8029 122.728 34.735 122.273 34.7367C121.757 34.7208 121.244 34.8273 120.778 35.0472C120.313 35.267 119.907 35.5939 119.597 36.0003C118.93 36.8426 118.597 38.1368 118.597 39.8827C118.597 41.4121 118.891 42.5421 119.479 43.2727C119.742 43.6216 120.086 43.9034 120.482 44.0946C120.879 44.2859 121.316 44.381 121.757 44.3721C122.303 44.3761 122.841 44.2489 123.326 44.0015V44.0068Z" fill="#202D3A"/>
<path d="M131.622 39.5297C132.969 38.9026 134.675 38.5679 136.738 38.5256V37.9414C136.757 37.4114 136.685 36.882 136.523 36.3761C136.396 36.0124 136.13 35.7118 135.781 35.5379C135.31 35.3392 134.799 35.2486 134.288 35.2732C133.618 35.2634 132.951 35.3679 132.317 35.582C131.724 35.7927 131.146 36.0433 130.587 36.332L130.05 35.2308C130.372 34.9935 130.718 34.7883 131.082 34.6185C131.64 34.3412 132.223 34.1144 132.822 33.9408C133.461 33.7461 134.125 33.6456 134.793 33.6426C135.81 33.6426 136.616 33.7802 137.211 34.0555C137.793 34.3195 138.251 34.7931 138.49 35.3791C138.748 35.9879 138.876 36.7908 138.876 37.8162V44.6121H140.145V45.5457C139.858 45.6162 139.496 45.6851 139.059 45.7574C138.679 45.8215 138.295 45.8563 137.909 45.8615C137.508 45.8615 137.236 45.8015 137.093 45.6851C136.949 45.5686 136.878 45.3004 136.878 44.8909V44.185C136.405 44.6395 135.874 45.0305 135.298 45.348C134.652 45.7066 133.922 45.8893 133.181 45.8774C132.149 45.8774 131.293 45.5833 130.612 44.9951C129.932 44.4068 129.591 43.5633 129.591 42.4644C129.598 41.1409 130.276 40.1627 131.622 39.5297ZM135.409 44.0968C135.883 43.8804 136.33 43.611 136.741 43.2939V39.6497C135.18 39.6497 134.001 39.885 133.206 40.3556C132.411 40.8285 132.013 41.4444 132.013 42.2086C132.013 42.9727 132.203 43.5321 132.582 43.8921C132.79 44.0772 133.033 44.2201 133.296 44.3125C133.56 44.4048 133.84 44.4449 134.119 44.4303C134.569 44.4135 135.009 44.2996 135.409 44.0968Z" fill="#202D3A"/>
<path d="M26.9672 52.2533C41.4027 52.2533 53.105 40.7235 53.105 26.5007C53.105 12.2779 41.4027 0.748047 26.9672 0.748047C12.5316 0.748047 0.829346 12.2779 0.829346 26.5007C0.829346 40.7235 12.5316 52.2533 26.9672 52.2533Z" fill="#EF2525"/>
<path d="M48.3209 29.989L47.0671 29.4596L46.4384 29.1949L46.3596 29.1613C46.3375 29.1534 46.3159 29.144 46.2951 29.1331C46.2697 29.1219 46.2452 29.1089 46.2217 29.0943C46.1746 29.0662 46.1318 29.0317 46.0945 28.9919C46.0181 28.9126 45.9638 28.8152 45.9369 28.7092C45.9099 28.6031 45.9111 28.492 45.9405 28.3866L46.3273 27.1054L47.8874 21.9348C47.9218 21.8215 47.9255 21.7012 47.8979 21.5861C47.8704 21.4709 47.8127 21.3649 47.7306 21.2786C47.6484 21.1924 47.5448 21.1288 47.4299 21.0944C47.315 21.06 47.193 21.0558 47.076 21.0824L42.0269 22.2348L41.7116 22.3071L41.554 22.3424L41.468 22.3583C41.3626 22.3688 41.2562 22.3562 41.1564 22.3213C41.056 22.2839 40.9662 22.2234 40.8945 22.1448C40.8228 22.0662 40.7714 21.9718 40.7444 21.8695L40.1587 19.3989C40.1302 19.278 40.0685 19.1672 39.9803 19.0786C39.8921 18.99 39.7809 18.927 39.6588 18.8966C39.5367 18.8662 39.4085 18.8694 39.2881 18.906C39.1678 18.9427 39.06 19.0112 38.9766 19.1042L35.5466 22.9054L34.6886 23.8548L34.2606 24.3295L34.1083 24.4972C34.0946 24.4962 34.0816 24.4913 34.0707 24.483C34.0546 24.4672 34.06 24.483 34.06 24.4689C34.06 24.4548 34.06 24.4601 34.06 24.4513L34.0904 24.2977L34.1495 23.9854L34.2677 23.3607L36.1771 13.3617C36.2052 13.2188 36.1851 13.0706 36.1197 12.94C36.0805 12.86 36.0257 12.7884 35.9583 12.7293C35.8909 12.6703 35.8124 12.625 35.7271 12.5959C35.6419 12.5669 35.5517 12.5548 35.4617 12.5602C35.3717 12.5656 35.2837 12.5885 35.2027 12.6276L32.1578 14.0853L31.9679 14.1753L31.873 14.2212C31.8637 14.2271 31.8534 14.2312 31.8425 14.2335H31.8246C31.7763 14.2527 31.7245 14.2617 31.6724 14.26C31.5657 14.2591 31.4635 14.2174 31.3876 14.1435C31.3715 14.1241 31.3536 14.1047 31.3392 14.0835L31.3195 14.05C31.3106 14.0376 31.2891 13.9935 31.2748 13.9653L31.0813 13.5947L30.6926 12.8535L27.5833 6.93285C27.5256 6.82247 27.4381 6.72988 27.3306 6.66524C27.223 6.6006 27.0994 6.56641 26.9734 6.56641C26.8474 6.56641 26.7238 6.6006 26.6162 6.66524C26.5086 6.72988 26.4212 6.82247 26.3635 6.93285L23.2523 12.8676L22.8637 13.6088L22.6684 13.9794C22.6541 14.0076 22.6326 14.0517 22.6254 14.0641L22.6039 14.0976C22.5894 14.1188 22.5732 14.1389 22.5556 14.1576C22.4803 14.2314 22.3787 14.2732 22.2726 14.2741C22.2199 14.2758 22.1675 14.2668 22.1185 14.2476H22.1006C22.0905 14.2449 22.0809 14.2407 22.072 14.2353L21.9753 14.1894L21.7854 14.0994L18.7405 12.6417C18.6084 12.5776 18.4588 12.5578 18.3142 12.5853C18.1352 12.6187 17.977 12.7207 17.8742 12.8689C17.7715 13.0171 17.7326 13.1994 17.7661 13.3759L19.6755 23.3748L19.7937 23.9995L19.8546 24.3119L19.8832 24.4654C19.8832 24.4654 19.8832 24.4795 19.8832 24.483C19.8832 24.4866 19.8832 24.483 19.8707 24.4972C19.8598 24.5054 19.8468 24.5103 19.8331 24.5113C19.8492 24.5325 19.7453 24.4177 19.6808 24.3436L19.251 23.8689L18.393 22.9195L14.9559 19.1024C14.8724 19.0094 14.7647 18.9409 14.6443 18.9043C14.524 18.8677 14.3957 18.8644 14.2736 18.8948C14.1515 18.9253 14.0403 18.9882 13.9521 19.0768C13.8639 19.1654 13.8022 19.2762 13.7737 19.3971L13.188 21.8677C13.1611 21.9698 13.1099 22.064 13.0385 22.1426C12.9672 22.2212 12.8778 22.2818 12.7779 22.3195C12.6775 22.3547 12.5704 22.3673 12.4644 22.3565L12.3784 22.3407L12.2208 22.3054L11.9056 22.2348L6.86178 21.0842C6.74339 21.0578 6.62013 21.0614 6.50356 21.0948C6.32913 21.1462 6.18253 21.2638 6.0959 21.4215C6.00928 21.5793 5.9897 21.7645 6.04145 21.9365L7.60331 27.1072L7.9884 28.3884C8.0181 28.4938 8.01953 28.605 7.99253 28.7111C7.96552 28.8172 7.91103 28.9146 7.83436 28.9937C7.79783 29.0343 7.75489 29.0689 7.70719 29.096C7.68369 29.1107 7.65915 29.1237 7.63375 29.1349C7.61361 29.1458 7.59265 29.1553 7.57107 29.1631L7.49226 29.1966L6.86357 29.4613L5.60979 29.9907C5.5142 30.031 5.42864 30.0912 5.35903 30.1672C5.24043 30.3035 5.18156 30.4806 5.19533 30.6595C5.2091 30.8385 5.29438 31.0048 5.43247 31.1219C6.63968 32.1808 7.85048 33.2273 9.08277 34.2632C9.7025 34.782 10.3151 35.292 10.9885 35.8002C11.6647 36.3022 12.3777 36.7541 13.1217 37.152C14.6264 37.9617 16.257 38.5199 17.947 38.8038C19.6379 39.0795 21.3613 39.1015 23.0589 38.8691C24.7365 38.6395 26.3827 38.2252 27.9666 37.6338C29.5324 37.0542 31.0499 36.355 32.5053 35.5426C35.2873 33.972 37.9086 32.1399 40.3325 30.0719L41.1456 30.8696C41.179 30.9022 41.224 30.9206 41.271 30.9208H41.3068C41.336 30.9149 41.3632 30.902 41.386 30.8832C41.4089 30.8644 41.4266 30.8403 41.4376 30.8131L43.7445 25.2772C43.7577 25.2456 43.7614 25.211 43.755 25.1775C43.7486 25.144 43.7326 25.113 43.7087 25.0883C43.6859 25.0654 43.6572 25.0489 43.6256 25.0408C43.5941 25.0328 43.5609 25.0333 43.5296 25.0425L37.5813 27.0172C37.5525 27.0269 37.5268 27.0437 37.5064 27.0659C37.486 27.0881 37.4717 27.1151 37.4649 27.1442C37.4578 27.1737 37.4586 27.2044 37.4671 27.2334C37.4755 27.2625 37.4914 27.2889 37.5132 27.3101L38.3085 28.0901C36.1323 30.0869 33.7681 31.875 31.2479 33.4302C28.6006 35.0185 25.7402 36.2961 22.7437 36.8097C21.2561 37.0722 19.7367 37.1115 18.2372 36.9261C16.7379 36.7322 15.2816 36.2945 13.9278 35.6308C13.2433 35.2974 12.5847 34.9146 11.9575 34.4855C11.3342 34.0531 10.7037 33.5626 10.0715 33.0737C9.10606 32.3237 8.14781 31.5561 7.19314 30.7796L7.41166 30.6878L8.04034 30.4231L8.11915 30.3896L8.2105 30.349C8.28964 30.3143 8.36625 30.2742 8.43976 30.229C8.58678 30.1392 8.72109 30.0306 8.83918 29.906C9.07504 29.658 9.2425 29.3545 9.32558 29.0246C9.40867 28.6947 9.40462 28.3493 9.31383 28.0213L8.92157 26.7154L7.69644 22.6566L11.5903 23.5389L11.9074 23.6113L12.065 23.6466C12.1313 23.6607 12.219 23.6766 12.2978 23.6872C12.6225 23.7235 12.9514 23.6842 13.2579 23.5724C13.5612 23.4585 13.8339 23.2773 14.0549 23.043C14.2718 22.8028 14.4282 22.5156 14.5117 22.2048L14.8036 20.9695L17.3542 23.793L18.2121 24.7442L18.6456 25.2348C18.7361 25.3393 18.8324 25.4389 18.9339 25.5331C19.176 25.736 19.4809 25.8518 19.7986 25.8614C20.1163 25.871 20.4278 25.7739 20.6821 25.586C20.8522 25.4634 20.9924 25.3048 21.0922 25.1219C21.1931 24.9352 21.2483 24.728 21.2534 24.5166C21.2558 24.4166 21.248 24.3167 21.2302 24.2183L21.1997 24.0595L21.1406 23.7454L21.0206 23.1207L19.3638 14.4418L21.1854 15.3135L21.377 15.4035L21.472 15.4494L21.5382 15.4794L21.617 15.5129C21.8323 15.595 22.0615 15.6357 22.2923 15.6329C22.7573 15.6255 23.2012 15.44 23.53 15.1159C23.6105 15.0348 23.6837 14.9468 23.7485 14.8529C23.7807 14.8053 23.8076 14.7559 23.8362 14.7065L23.89 14.6059L24.0834 14.2353L24.4721 13.4923L26.9671 8.72757L29.4604 13.4923L29.849 14.2353L30.0425 14.6059L30.098 14.7065C30.1267 14.7559 30.1535 14.8053 30.1858 14.8529C30.2499 14.9468 30.3225 15.0347 30.4025 15.1159C30.648 15.3575 30.9595 15.5237 31.2991 15.5942C31.6387 15.6647 31.9918 15.6365 32.3154 15.5129L32.3942 15.4794L32.4623 15.4494L32.5572 15.4035L32.7471 15.3135L34.5686 14.4365L32.9118 23.1171L32.7918 23.7419L32.7327 24.056L32.7023 24.2148C32.6845 24.3132 32.6767 24.4131 32.679 24.513C32.6839 24.7247 32.7398 24.9321 32.842 25.1183C32.9413 25.3016 33.0816 25.4603 33.2522 25.5825C33.4206 25.7041 33.614 25.788 33.8189 25.8282C34.0237 25.8684 34.235 25.8641 34.4379 25.8154C34.6443 25.7632 34.836 25.6654 34.9985 25.5295C35.0998 25.4369 35.1955 25.3385 35.2851 25.2348L35.7132 24.7601L36.5711 23.8089L39.1217 20.9854L39.4136 22.2207C39.4969 22.5319 39.6541 22.8192 39.8721 23.0589C40.0906 23.2982 40.3643 23.4823 40.6701 23.5957C40.9759 23.709 41.3048 23.7482 41.6292 23.7101C41.7062 23.6995 41.7958 23.6836 41.8621 23.6695L42.0197 23.6342L42.3349 23.5619L46.2306 22.6795L45.0055 26.7384L44.6115 28.0443C44.5014 28.4554 44.5278 28.8904 44.6867 29.2857C44.8456 29.681 45.1286 30.0159 45.4945 30.2413C45.5674 30.2865 45.6434 30.3266 45.7219 30.3613L45.8151 30.4019L45.8939 30.4355L46.5226 30.7002L46.7429 30.7937L40.7176 35.6767L38.9927 37.0744L38.1294 37.7644L37.6995 38.1173L37.4828 38.2938C37.38 38.3747 37.2842 38.4638 37.1962 38.5603C37 38.7867 36.8644 39.0579 36.8019 39.3492C36.7393 39.6405 36.7517 39.9426 36.838 40.2279L37.155 41.2868L37.4971 42.4179L27.0459 41.2779C27.0209 41.2762 26.9957 41.2762 26.9707 41.2779C26.8804 41.2779 26.7909 41.2955 26.7075 41.3295C26.624 41.3636 26.5482 41.4135 26.4844 41.4764C26.4205 41.5393 26.3698 41.614 26.3353 41.6963C26.3007 41.7785 26.2829 41.8666 26.2829 41.9556V47.7033C26.2919 47.8768 26.3682 48.0403 26.496 48.16C26.6239 48.2797 26.7935 48.3464 26.9698 48.3464C27.1461 48.3464 27.3157 48.2797 27.4436 48.16C27.5714 48.0403 27.6477 47.8768 27.6567 47.7033V42.7056L38.373 43.8721C38.4639 43.8813 38.5558 43.8729 38.6434 43.8474C38.8179 43.7959 38.9645 43.6784 39.0511 43.5206C39.1377 43.3628 39.1573 43.1776 39.1055 43.0056L38.4697 40.8985L38.1527 39.8397C38.1319 39.772 38.1289 39.7002 38.144 39.6311C38.159 39.562 38.1916 39.4977 38.2386 39.4444C38.2476 39.4232 38.441 39.2679 38.5754 39.1638L39.0052 38.8108L39.8686 38.105L41.5934 36.7073L48.491 31.1184C48.5715 31.0542 48.6369 30.9735 48.6827 30.8819C48.719 30.8 48.7384 30.7117 48.7398 30.6223C48.7413 30.5329 48.7247 30.4441 48.691 30.361C48.6574 30.278 48.6073 30.2023 48.5438 30.1384C48.4803 30.0746 48.4045 30.0238 48.3209 29.989Z" fill="white"/>
</g>
<defs>
<clipPath id="clip0_2422_15376">
<rect width="168" height="53" fill="white"/>
</clipPath>
</defs>
</svg>
