<svg width="194" height="40" viewBox="0 0 194 40" fill="none" xmlns="http://www.w3.org/2000/svg">
<path d="M21.1141 0.000282235C21.1327 0.00762034 21.1503 0.0189097 21.1694 0.0214498C21.7879 0.104709 22.3202 0.625714 22.3932 1.28417C22.4541 1.83453 22.2616 2.2813 21.8376 2.62986C21.8067 2.65526 21.7744 2.67926 21.7309 2.71312C21.7587 2.72074 21.7725 2.72752 21.7862 2.7278C21.8679 2.72977 21.9495 2.72865 22.0309 2.73175C22.1701 2.73711 22.2936 2.78735 22.4027 2.87259C22.712 3.11446 22.7114 3.5539 22.4022 3.79521C22.2823 3.88863 22.146 3.93689 21.9941 3.94084C21.9498 3.94197 21.9052 3.94113 21.855 3.94113C21.8373 3.98826 21.8376 4.03257 21.8364 4.0766C21.83 4.35968 21.8238 4.64276 21.8171 4.92584C21.8011 5.59051 21.7845 6.25517 21.7683 6.91983C21.752 7.58449 21.7354 8.24916 21.7191 8.91382C21.7026 9.58667 21.6863 10.2595 21.6698 10.9324C21.6535 11.5931 21.6372 12.2535 21.6209 12.9142C21.6055 13.5461 21.5901 14.1781 21.5746 14.8097C21.5738 14.8424 21.571 14.8749 21.569 14.9082C21.541 14.9367 21.5106 14.9534 21.4714 14.948C21.4669 14.9407 21.4596 14.9345 21.4596 14.928C21.4604 14.7967 21.461 14.6655 21.4641 14.5342C21.4716 14.1896 21.4806 13.845 21.489 13.5001C21.5053 12.8394 21.5216 12.179 21.5379 11.5183C21.5544 10.8494 21.5707 10.1808 21.587 9.51188C21.6033 8.84721 21.6195 8.18255 21.6361 7.51789C21.6524 6.85322 21.6684 6.18856 21.6852 5.5239C21.6973 5.04382 21.7107 4.56402 21.7231 4.08394C21.7242 4.04329 21.7234 4.00237 21.7234 3.95721C21.6291 3.92335 21.5365 3.95072 21.4416 3.93972C21.42 3.98769 21.4211 4.03229 21.4206 4.07632C21.4158 4.41697 21.411 4.75763 21.4063 5.09829C21.3987 5.62776 21.3905 6.15695 21.3827 6.68642C21.3723 7.4129 21.3622 8.13937 21.3518 8.86556C21.3437 9.42382 21.3355 9.9818 21.3271 10.5401C21.319 11.0817 21.3108 11.6236 21.3027 12.1652C21.2946 12.715 21.2867 13.265 21.278 13.8148C21.2721 14.1882 21.2657 14.5616 21.2592 14.935C21.2587 14.9635 21.2564 14.992 21.2547 15.0279C20.9581 15.1396 20.6609 15.2517 20.3556 15.3668C20.3495 15.344 20.3394 15.3225 20.3388 15.3008C20.3326 15.0586 20.329 14.8165 20.3231 14.5743C20.3071 13.9054 20.2905 13.2368 20.2743 12.5679C20.258 11.9033 20.2417 11.2386 20.2251 10.5739C20.2089 9.91321 20.1926 9.25278 20.1763 8.59207C20.16 7.93136 20.1438 7.27093 20.1275 6.61022C20.1109 5.93737 20.0947 5.26452 20.0781 4.59168C20.0736 4.4071 20.068 4.22251 20.0624 4.03793C20.0615 4.00999 20.0585 3.98205 20.0562 3.95016C20.0026 3.93548 19.9538 3.94169 19.9061 3.94056C19.7543 3.93661 19.6176 3.88948 19.4978 3.79606C19.1857 3.55249 19.1905 3.10176 19.5082 2.86553C19.619 2.78312 19.7433 2.73401 19.8825 2.73062C19.9717 2.72836 20.0613 2.73034 20.1466 2.73034C20.164 2.69506 20.1412 2.68659 20.1258 2.67587C19.9978 2.58583 19.885 2.47971 19.7908 2.35412C19.1577 1.50939 19.5792 0.271228 20.6542 0.0316103C20.7014 0.0211676 20.7485 0.0107249 20.7956 0C20.9017 0.000282235 21.0081 0.000282235 21.1141 0.000282235ZM21.6237 0.628819C21.6226 0.632206 21.6195 0.636439 21.6206 0.638415C21.6352 0.662969 21.6504 0.687242 21.6655 0.711514C21.7629 0.867025 21.8196 1.03552 21.8339 1.21925C21.8712 1.69284 21.6027 2.13736 21.1658 2.31771C20.9017 2.42665 20.6343 2.42609 20.3655 2.33408C20.3357 2.32392 20.309 2.29513 20.2712 2.31207C20.4987 2.52939 20.9576 2.66063 21.3731 2.47322C21.7918 2.28441 22.0118 1.95109 22.0379 1.4933C22.057 1.15857 21.853 0.746793 21.6237 0.628819Z" fill="#11401C"/>
<path d="M41.8607 4.53326C41.8087 4.60805 41.7403 4.66534 41.6656 4.71501C41.5046 4.82226 41.332 4.90496 41.1448 4.9535C41.0825 4.96959 41.016 4.9806 40.952 4.97834C40.6175 4.96705 40.2833 4.95181 39.9491 4.93629C39.7737 4.92838 39.5986 4.91907 39.4235 4.9075C39.0163 4.88097 38.6089 4.85782 38.2023 4.82396C37.629 4.77626 37.0574 4.71135 36.4883 4.62442C35.6077 4.49007 34.7442 4.28235 33.8968 4.00576C33.2763 3.8034 32.6542 3.60583 32.0439 3.37355C31.4287 3.1393 30.8358 2.85763 30.2532 2.5514C29.6494 2.23361 29.0317 1.94573 28.3897 1.71317C28.0785 1.60055 27.7633 1.50177 27.4375 1.44166C27.2001 1.39791 26.9616 1.37307 26.7192 1.40101C26.4394 1.43319 26.2169 1.55935 26.0538 1.79106C25.9562 1.9302 25.8908 2.08402 25.8422 2.24631C25.7774 2.46335 25.7443 2.68659 25.7205 2.91125C25.6944 3.15595 25.6669 3.40093 25.6486 3.64647C25.609 4.18187 25.3688 4.6168 24.9959 4.98624C24.7094 5.27017 24.3676 5.46773 23.9961 5.61506C23.6607 5.74799 23.3128 5.83295 22.9572 5.89052C22.6626 5.93822 22.366 5.96165 22.0682 5.97604C22.0404 5.97745 22.0127 5.97632 21.979 5.97632C21.9605 5.90294 21.9714 5.83351 21.9714 5.76521C21.9714 5.6955 21.9734 5.62579 21.9745 5.55579C21.9759 5.48608 21.9765 5.41609 21.979 5.34637C21.9818 5.27723 21.9869 5.20808 21.9913 5.13216C22.0688 5.12171 22.1406 5.11014 22.2127 5.10252C22.5298 5.06894 22.8427 5.01249 23.1492 4.92443C23.3969 4.85331 23.6366 4.76074 23.8591 4.62809C24.0359 4.52281 24.195 4.39581 24.3266 4.23522C24.5029 4.02015 24.5997 3.77094 24.6412 3.49774C24.6841 3.21578 24.6749 2.93298 24.6535 2.65018C24.6297 2.33521 24.5997 2.02052 24.5797 1.70498C24.566 1.4871 24.5837 1.27034 24.6395 1.05782C24.6822 0.895531 24.7619 0.75526 24.8786 0.634464C25.1253 0.379323 25.4224 0.219014 25.7684 0.149584C26.0516 0.0928552 26.3364 0.0968065 26.6215 0.134908C27.1471 0.205467 27.6449 0.374526 28.1329 0.575194C28.594 0.764856 29.041 0.984717 29.4782 1.22405C30.0408 1.53197 30.5998 1.84638 31.1599 2.15881C31.5309 2.36569 31.901 2.57455 32.2858 2.75518C32.9556 3.06987 33.6479 3.32642 34.3539 3.54572C35.1261 3.78561 35.9108 3.97387 36.706 4.11893C37.1637 4.20248 37.6234 4.27416 38.0852 4.32807C38.4621 4.3721 38.8404 4.40456 39.2184 4.43673C40.0122 4.50475 40.8078 4.51858 41.6039 4.51265C41.6895 4.51209 41.7754 4.50926 41.8609 4.50757C41.8607 4.51689 41.8607 4.52507 41.8607 4.53326Z" fill="#11401C"/>
<path d="M0 4.5087C0.326357 4.51011 0.652433 4.51604 0.978509 4.51181C1.32114 4.50729 1.66405 4.49798 2.00641 4.48161C2.31621 4.46693 2.62545 4.44294 2.9344 4.41726C3.21502 4.39383 3.49508 4.36589 3.77485 4.33371C4.03021 4.30408 4.28529 4.27247 4.53869 4.23013C4.93688 4.16381 5.33508 4.09579 5.73019 4.01394C7.02804 3.74526 8.28885 3.35662 9.49914 2.80993C9.8342 2.65865 10.158 2.48423 10.4791 2.30529C11.0568 1.98298 11.6327 1.65644 12.2121 1.33723C12.6987 1.06911 13.1937 0.817352 13.7059 0.602007C14.0864 0.44198 14.4742 0.303685 14.8763 0.2097C15.1513 0.145351 15.4297 0.105556 15.7128 0.108943C15.9424 0.111765 16.168 0.143657 16.3855 0.221837C16.6243 0.307636 16.8291 0.44452 17.0093 0.622892C17.1732 0.785459 17.2573 0.985564 17.2933 1.20994C17.3351 1.47129 17.3253 1.73377 17.3053 1.99596C17.2815 2.31094 17.2506 2.62563 17.2307 2.94089C17.2158 3.17514 17.2352 3.40798 17.2862 3.63801C17.3643 3.98967 17.5523 4.26908 17.8334 4.48781C18.0257 4.6374 18.2403 4.74493 18.4668 4.83073C18.7387 4.93375 19.0196 5.00346 19.3058 5.04975C19.4829 5.07825 19.6614 5.09829 19.8393 5.122C19.8592 5.12454 19.8789 5.12792 19.9024 5.13131C19.926 5.22586 19.9134 5.32041 19.9179 5.41355C19.9224 5.50358 19.9246 5.59389 19.9274 5.68421C19.9302 5.77763 19.9378 5.87105 19.9299 5.9687C19.9086 5.97293 19.8932 5.97914 19.878 5.97858C19.3631 5.95798 18.8532 5.90266 18.3543 5.76521C18.0265 5.67489 17.7114 5.55297 17.4179 5.37855C16.993 5.12623 16.6582 4.78868 16.4337 4.34303C16.342 4.1607 16.2909 3.96766 16.2668 3.76727C16.237 3.5189 16.2154 3.26941 16.1902 3.02048C16.1649 2.77126 16.1352 2.5229 16.067 2.28102C16.0302 2.15035 15.9833 2.02362 15.9168 1.90508C15.8543 1.79332 15.7774 1.69313 15.6806 1.60902C15.5464 1.49246 15.3882 1.43234 15.2153 1.40666C15.0155 1.37702 14.8163 1.38831 14.6176 1.4171C14.1913 1.47863 13.7842 1.61043 13.3826 1.76171C12.9201 1.93585 12.4695 2.13793 12.0278 2.35948C11.7432 2.50229 11.4607 2.64934 11.1769 2.79384C10.5652 3.10486 9.92905 3.35888 9.2811 3.5841C8.59528 3.82259 7.90468 4.0464 7.20623 4.24509C6.739 4.37803 6.2642 4.47737 5.78575 4.56176C5.3477 4.63909 4.90742 4.70118 4.46545 4.7486C4.06389 4.7915 3.6612 4.8265 3.25852 4.85613C2.78652 4.89085 2.31396 4.91822 1.84112 4.94447C1.55181 4.96056 1.26193 4.96705 0.972616 4.98003C0.885625 4.98398 0.80144 4.97213 0.7195 4.94588C0.551411 4.89226 0.392302 4.81972 0.244697 4.72207C0.172579 4.67437 0.106634 4.61962 0.0521946 4.55216C0.0381638 4.53467 0.0230105 4.52422 0.000280616 4.53326C0 4.52507 0 4.51689 0 4.5087Z" fill="#11401C"/>
<path d="M20.2745 19.6726C20.2745 19.8264 20.2745 19.978 20.2745 20.1338C19.9473 20.3192 19.6176 20.506 19.2828 20.6957C19.2783 20.6943 19.2652 20.6937 19.2553 20.6875C18.8925 20.455 18.5524 20.1942 18.2687 19.8657C18.0274 19.586 17.8435 19.2735 17.756 18.9106C17.5997 18.2634 17.7083 17.6648 18.0894 17.1187C18.2406 16.9022 18.4244 16.7162 18.6265 16.5477C18.9391 16.2869 19.2848 16.0778 19.6457 15.8929C20.1592 15.6299 20.6932 15.4154 21.2373 15.228C21.8507 15.0169 22.4675 14.8162 23.0829 14.6113C23.5089 14.4696 23.9329 14.3223 24.3446 14.1419C24.603 14.0288 24.855 13.9034 25.0919 13.7485C25.2499 13.6452 25.3975 13.5292 25.5274 13.3912C25.7148 13.1922 25.838 12.9622 25.8798 12.6884C25.9424 12.2775 25.7536 12.0074 25.4808 11.8468C25.4076 11.8036 25.3251 11.7765 25.2465 11.7429C25.1435 11.6989 25.0394 11.7031 24.9361 11.7404C24.848 11.7723 24.7616 11.8093 24.6732 11.8409C24.5506 11.8852 24.4291 11.936 24.3031 11.9676C24.0522 12.0303 23.8005 12.019 23.5541 11.9399C23.3318 11.8685 23.1208 11.7706 22.9213 11.6487C22.8728 11.619 22.8276 11.5829 22.7832 11.5471C22.7058 11.4844 22.6845 11.4006 22.6968 11.3043C22.7069 11.2248 22.7411 11.1553 22.7855 11.0907C22.8436 11.0055 22.9157 10.9324 22.9951 10.8677C23.2381 10.6693 23.5084 10.5195 23.8047 10.417C23.8785 10.3916 23.9543 10.3792 24.032 10.3713C24.2559 10.349 24.4798 10.3416 24.7046 10.3473C25.3113 10.3622 25.8568 10.5547 26.3395 10.9239C26.617 11.1361 26.8348 11.3989 26.9793 11.7204C27.1014 11.9916 27.1415 12.2783 27.1367 12.5727C27.1263 13.208 26.8954 13.7553 26.4784 14.2272C26.2188 14.521 25.916 14.7629 25.5905 14.9779C25.1699 15.2556 24.7223 15.4828 24.2674 15.6968C23.7755 15.9282 23.2667 16.1173 22.7585 16.3078C22.2085 16.5141 21.6563 16.7151 21.1164 16.9479C20.8388 17.0676 20.565 17.1952 20.3012 17.343C20.137 17.4351 19.9776 17.5347 19.8292 17.651C19.7293 17.7294 19.6361 17.8152 19.5533 17.9123C19.3625 18.1358 19.3095 18.3879 19.3892 18.671C19.4321 18.8234 19.504 18.96 19.5996 19.0847C19.738 19.2653 19.9089 19.411 20.0921 19.5431C20.1516 19.5857 20.2117 19.6277 20.2745 19.6726ZM22.7139 14.9393C22.6629 14.9161 22.6174 14.9429 22.5722 14.9579C22.2593 15.0632 21.9459 15.1673 21.6347 15.2779C21.0849 15.4732 20.542 15.6852 20.0166 15.9412C19.6639 16.1131 19.3213 16.3027 19.0039 16.5359C18.7923 16.6914 18.5959 16.8635 18.4328 17.0715C18.313 17.2242 18.221 17.3919 18.1623 17.5779C18.0377 17.9724 18.0063 18.3735 18.0804 18.7807C18.1362 19.0881 18.2575 19.3684 18.4486 19.6164C18.4727 19.6478 18.4999 19.6766 18.5311 19.7127C18.5471 19.6599 18.5167 19.632 18.5019 19.6006C18.3447 19.2682 18.2347 18.923 18.2137 18.5521C18.1977 18.2696 18.2342 17.9953 18.3346 17.7311C18.4921 17.3174 18.755 16.9838 19.1077 16.7216C19.2093 16.6462 19.3154 16.5765 19.4231 16.5099C19.7952 16.2799 20.1847 16.0823 20.5779 15.8918C21.2791 15.5517 21.995 15.2438 22.71 14.9353C22.7131 14.933 22.7164 14.9313 22.7193 14.9288C22.7237 14.9246 22.728 14.9198 22.7322 14.9153C22.7288 14.9144 22.7251 14.9124 22.7218 14.9127C22.7187 14.913 22.7134 14.9155 22.7131 14.9175C22.7125 14.9249 22.7134 14.9322 22.7139 14.9393ZM24.2711 10.8037C24.2685 10.7077 24.1804 10.6233 24.0861 10.6267C23.9904 10.6301 23.9074 10.7184 23.9102 10.8133C23.9133 10.9106 23.998 10.9908 24.0957 10.9882C24.1933 10.9857 24.2739 10.9008 24.2711 10.8037Z" fill="#11401C"/>
<path d="M21.6857 17.3828C21.6857 17.3493 21.6846 17.3165 21.686 17.2841C21.6911 17.1534 21.6967 17.0224 21.7023 16.8861C22.1499 16.7032 22.6022 16.5418 23.0577 16.3803C23.1155 16.4241 23.1716 16.4647 23.2255 16.5082C23.4691 16.7043 23.686 16.9256 23.8586 17.1887C24.1139 17.5781 24.2281 18.0054 24.2082 18.4717C24.1872 18.9707 24.0034 19.4039 23.6952 19.7889C23.4943 20.0401 23.2564 20.2518 22.9996 20.4431C22.6842 20.6785 22.3483 20.8806 22.002 21.0654C21.6742 21.2404 21.3423 21.4072 21.0151 21.5833C20.7959 21.7013 20.5801 21.8261 20.366 21.9533C20.2288 22.0346 20.1 22.1297 19.9847 22.2407C19.9257 22.2971 19.8702 22.3578 19.8194 22.4216C19.6869 22.5878 19.6426 22.7778 19.6763 22.988C19.7119 23.2099 19.7868 23.4162 19.9033 23.6075C20.0172 23.7944 20.157 23.96 20.3144 24.1102C20.3632 24.1568 20.3834 24.2045 20.384 24.2705C20.3854 24.4427 20.3924 24.6145 20.3972 24.7825C20.1819 24.9741 19.9717 25.1612 19.7562 25.3534C19.7467 25.3486 19.731 25.3441 19.7195 25.3348C19.3825 25.061 19.0575 24.7743 18.7752 24.4424C18.5698 24.2011 18.3924 23.9414 18.2614 23.6516C18.1244 23.349 18.0487 23.0318 18.0414 22.699C18.0355 22.4221 18.1006 22.1625 18.2367 21.9209C18.3383 21.7408 18.4682 21.5836 18.6164 21.4408C18.8237 21.241 19.0567 21.0756 19.3002 20.924C19.578 20.751 19.8674 20.5997 20.1584 20.4513C20.4819 20.2862 20.8066 20.1231 21.1293 19.9563C21.3434 19.8453 21.5505 19.7223 21.7492 19.5851C21.9077 19.4756 22.0576 19.3557 22.19 19.2148C22.3466 19.048 22.4675 18.8612 22.52 18.6343C22.5781 18.3834 22.5385 18.1545 22.3766 17.9498C22.2714 17.8169 22.1476 17.7046 22.011 17.6064C21.9248 17.5443 21.8345 17.4878 21.7466 17.4286C21.7264 17.4147 21.7076 17.3992 21.6857 17.3828ZM23.3753 17.146C23.3753 17.1726 23.3739 17.1771 23.3756 17.1802C23.381 17.1912 23.3868 17.2019 23.3933 17.2121C23.5855 17.5096 23.6997 17.8361 23.7469 18.1866C23.778 18.4181 23.7632 18.6447 23.6821 18.8657C23.5791 19.1468 23.4216 19.394 23.2263 19.6184C23.0535 19.8168 22.8598 19.9924 22.6547 20.1558C22.3533 20.3957 22.0332 20.6077 21.7054 20.8089C21.3852 21.0056 21.06 21.1947 20.7406 21.3928C20.4732 21.5588 20.2111 21.7326 19.9468 21.9037C19.9221 21.9198 19.9005 21.9404 19.8775 21.959C19.9033 21.9641 19.921 21.9573 19.9375 21.948C20.5633 21.5941 21.1896 21.2413 21.814 20.8845C22.1013 20.7203 22.382 20.5447 22.6528 20.3534C22.8935 20.1832 23.1233 19.9994 23.3282 19.7858C23.5485 19.5558 23.727 19.2981 23.8476 19.0015C23.9164 18.8324 23.95 18.6557 23.9531 18.4737C23.9582 18.1841 23.8863 17.9129 23.7545 17.6572C23.6582 17.4703 23.5361 17.3021 23.3753 17.146ZM19.5626 24.9617C19.5309 24.8925 19.4986 24.857 19.4692 24.82C19.3283 24.6442 19.1846 24.4709 19.046 24.2934C18.8945 24.0992 18.7598 23.894 18.6557 23.6696C18.4342 23.1929 18.4062 22.7072 18.5835 22.2105C18.6557 22.0081 18.7544 21.8204 18.8841 21.6494C18.8953 21.6344 18.925 21.6209 18.9012 21.5879C18.8049 21.6626 18.7222 21.7467 18.6503 21.8416C18.4017 22.1707 18.2844 22.5427 18.2909 22.955C18.2945 23.1929 18.3495 23.4173 18.4598 23.6287C18.5378 23.778 18.6237 23.9219 18.7216 24.0585C18.9495 24.3763 19.2189 24.656 19.5048 24.9205C19.5152 24.9304 19.5281 24.9374 19.5626 24.9617Z" fill="#11401C"/>
<path d="M20.1544 15.1388C20.1544 15.2774 20.1544 15.4007 20.1544 15.5328C19.6906 15.7467 19.2374 15.9855 18.8097 16.2779C18.6161 16.2022 18.4247 16.1292 18.2347 16.0524C17.6861 15.8305 17.1527 15.5763 16.6397 15.2805C16.2541 15.0581 15.8893 14.8058 15.5694 14.493C15.2624 14.193 15.0166 13.851 14.8715 13.4417C14.7248 13.0282 14.6914 12.6029 14.7674 12.1728C14.8387 11.7695 15.043 11.4339 15.3357 11.1531C15.6881 10.815 16.1077 10.5979 16.5783 10.4805C16.8224 10.4195 17.0719 10.3964 17.323 10.4029C17.5158 10.4077 17.7083 10.4181 17.9005 10.4345C17.9768 10.441 18.0537 10.4641 18.1264 10.4907C18.3787 10.5824 18.6124 10.7105 18.8266 10.8734C18.9284 10.9507 19.023 11.0365 19.0973 11.1418C19.1552 11.2236 19.197 11.3111 19.1967 11.4158C19.1967 11.4915 19.1709 11.5527 19.1161 11.6021C19.0917 11.6241 19.067 11.6461 19.0398 11.6642C18.7847 11.8341 18.5109 11.9642 18.2131 12.0365C17.9606 12.0974 17.7075 12.0839 17.4608 12.0003C17.3522 11.9636 17.2458 11.9196 17.1389 11.8776C17.0396 11.8383 16.9414 11.7957 16.835 11.7805C16.803 11.776 16.7691 11.7731 16.7379 11.7796C16.5328 11.8225 16.349 11.9092 16.2011 12.0621C16.0571 12.2109 15.9825 12.387 15.9842 12.5973C15.9862 12.849 16.0586 13.0765 16.2003 13.2825C16.3089 13.4403 16.4447 13.5713 16.5948 13.6881C16.8036 13.8501 17.032 13.9799 17.2686 14.0954C17.6937 14.3028 18.1362 14.4665 18.5838 14.6164C19.0583 14.7753 19.534 14.9299 20.0093 15.0869C20.0554 15.1027 20.1011 15.1199 20.1544 15.1388ZM17.9704 10.872C17.9726 10.7726 17.8941 10.6888 17.7958 10.6857C17.6999 10.6826 17.6157 10.765 17.6137 10.8641C17.6118 10.9648 17.6892 11.047 17.788 11.0489C17.887 11.0512 17.9681 10.9722 17.9704 10.872Z" fill="#11401C"/>
<path d="M20.5074 29.3087C20.4033 29.41 20.3003 29.5076 20.1951 29.6061C20.1746 29.5906 20.1606 29.5822 20.1494 29.5711C19.9086 29.336 19.6872 29.084 19.4995 28.8038C19.2994 28.5051 19.1465 28.1845 19.071 27.8306C18.9298 27.1696 19.0393 26.5589 19.4366 26.0068C19.6246 25.7455 19.8491 25.5185 20.0966 25.3162C20.3466 25.1118 20.6034 24.9154 20.8593 24.7181C21.1023 24.5307 21.3456 24.3439 21.5668 24.1302C21.7054 23.9962 21.8334 23.8528 21.942 23.6928C22.0963 23.4653 22.1951 23.2172 22.229 22.942C22.2478 22.7885 22.2184 22.6485 22.1437 22.5161C22.0868 22.4151 22.0135 22.3265 21.9262 22.2514C21.8176 22.1583 21.7043 22.071 21.5875 21.9768C21.5724 21.9037 21.5718 21.6982 21.5884 21.5212C21.9243 21.3282 22.2605 21.1349 22.6014 20.939C22.6073 20.9404 22.6208 20.9398 22.6306 20.9458C22.9095 21.1188 23.1722 21.3127 23.3958 21.5557C23.5412 21.7134 23.661 21.8882 23.7449 22.0871C23.8544 22.3473 23.8779 22.618 23.8473 22.896C23.7988 23.3386 23.6338 23.7359 23.386 24.1012C23.1963 24.3806 22.971 24.6287 22.7268 24.8601C22.4473 25.1251 22.1468 25.365 21.8446 25.6029C21.5682 25.8205 21.2926 26.0393 21.0201 26.2614C20.8616 26.3906 20.7148 26.5337 20.581 26.6895C20.4844 26.8016 20.398 26.921 20.3335 27.0547C20.2684 27.1894 20.2347 27.3308 20.2296 27.4815C20.2184 27.8055 20.2905 28.1089 20.4423 28.3931C20.4743 28.4529 20.4898 28.5125 20.4909 28.5805C20.494 28.8227 20.5015 29.0645 20.5074 29.3087ZM21.1924 25.8733C21.2168 25.8595 21.2429 25.8476 21.2657 25.8313C21.5471 25.6275 21.8224 25.4158 22.0876 25.1911C22.378 24.9453 22.6567 24.6868 22.9076 24.3995C23.1074 24.1706 23.2867 23.9273 23.4258 23.6558C23.482 23.5463 23.5339 23.4351 23.5628 23.3146C23.6574 22.9208 23.6133 22.541 23.4489 22.1738C23.3557 21.9655 23.2258 21.7832 23.0535 21.633C23.0408 21.622 23.0271 21.5991 22.9993 21.6214C23.0128 21.6415 23.0251 21.6618 23.0392 21.681C23.2277 21.9404 23.3473 22.2294 23.4051 22.5449C23.4564 22.8255 23.4396 23.0989 23.3296 23.3657C23.2353 23.594 23.1203 23.8099 22.9825 24.0142C22.7799 24.314 22.5428 24.5843 22.2902 24.8415C21.9863 25.1514 21.6619 25.4387 21.3336 25.7217C21.2814 25.7666 21.2326 25.8157 21.1823 25.8631C21.1492 25.8753 21.1228 25.8948 21.0987 25.9365C21.1456 25.9224 21.1733 25.9041 21.1924 25.8733ZM19.9224 28.9999C19.8617 28.9 19.8115 28.8224 19.7672 28.7417C19.722 28.6592 19.6791 28.5754 19.6412 28.4896C19.603 28.4038 19.5699 28.3155 19.5388 28.2269C19.5076 28.1382 19.479 28.0485 19.4537 27.9579C19.4276 27.8633 19.4027 27.7679 19.3853 27.6714C19.3684 27.5791 19.358 27.4849 19.3521 27.3912C19.3463 27.2972 19.346 27.2026 19.3496 27.1086C19.3533 27.0147 19.3656 26.9212 19.3721 26.8273C19.3782 26.7378 19.4105 26.6517 19.4164 26.5368C19.3524 26.6291 19.3258 26.7104 19.303 26.7928C19.2273 27.0686 19.2124 27.35 19.2379 27.6336C19.2556 27.83 19.2966 28.0217 19.3749 28.2043C19.4975 28.4893 19.6704 28.7408 19.8744 28.972C19.8803 28.9787 19.8909 28.9818 19.9224 28.9999Z" fill="#11401C"/>
<path d="M20.8417 32.5256C20.7064 32.7093 20.5756 32.8871 20.4407 33.0703C20.4283 33.0627 20.4132 33.0576 20.4036 33.0471C20.2077 32.8267 20.0158 32.6029 19.8556 32.3543C19.715 32.1358 19.6036 31.9047 19.5427 31.6501C19.4338 31.1948 19.5026 30.7715 19.7582 30.3786C19.8906 30.1748 20.0475 29.9917 20.2173 29.8195C20.4157 29.6186 20.6177 29.4216 20.817 29.2215C20.973 29.0648 21.1212 28.9008 21.2525 28.7222C21.4138 28.5026 21.5435 28.2669 21.6136 28.0014C21.6602 27.8255 21.6799 27.6466 21.672 27.4651C21.6641 27.2763 21.6069 27.1022 21.505 26.9441C21.4677 26.8862 21.4517 26.8284 21.4542 26.7598C21.4618 26.567 21.4652 26.3743 21.4691 26.1815C21.47 26.1383 21.4784 26.1028 21.5149 26.0737C21.7102 25.9185 21.9038 25.7615 22.103 25.6015C22.1269 25.6216 22.1505 25.6365 22.1681 25.6568C22.2641 25.7683 22.3648 25.8767 22.4527 25.9947C22.7619 26.4107 22.9062 26.8792 22.8848 27.3999C22.8691 27.7801 22.7687 28.1354 22.5969 28.4721C22.4583 28.7439 22.2812 28.9892 22.0828 29.2195C21.9035 29.4275 21.7096 29.6214 21.5078 29.8071C21.255 30.0399 20.9999 30.2702 20.7485 30.5045C20.6738 30.5739 20.604 30.6498 20.5389 30.7283C20.4816 30.7972 20.43 30.872 20.3828 30.9482C20.3186 31.0517 20.2956 31.1661 20.2995 31.2891C20.3071 31.5191 20.3671 31.7339 20.4654 31.9397C20.547 32.1104 20.652 32.2668 20.7645 32.4183C20.7909 32.4536 20.8164 32.4903 20.8417 32.5256ZM19.7773 30.881C19.7296 30.8841 19.7357 30.9279 19.7285 30.9547C19.6633 31.1957 19.646 31.4407 19.7004 31.6848C19.7703 31.9986 19.9355 32.264 20.1438 32.5047C20.1581 32.4714 20.1306 32.4513 20.1191 32.4274C20.0554 32.2947 19.9841 32.1652 19.9266 32.0297C19.7703 31.6608 19.6945 31.2795 19.7739 30.8773C19.7778 30.8635 19.7818 30.85 19.7854 30.8361C19.7683 30.8494 19.7675 30.8649 19.7773 30.881ZM22.4841 26.5645C22.4903 26.6046 22.4942 26.6362 22.5001 26.6672C22.5621 26.9932 22.5658 27.3189 22.4962 27.644C22.3864 28.1586 22.1667 28.6197 21.8308 29.0239C21.7551 29.1151 21.6773 29.2051 21.5954 29.2903C21.4281 29.4642 21.2572 29.6344 21.088 29.8062C21.0403 29.8545 20.9929 29.9031 20.9455 29.9513C20.9677 29.9555 20.9803 29.9485 20.9915 29.9392C21.2974 29.6869 21.5974 29.4278 21.8724 29.1416C22.0598 28.9466 22.2318 28.7391 22.371 28.5057C22.4762 28.3293 22.5635 28.145 22.6112 27.9435C22.6822 27.6446 22.6898 27.3429 22.6491 27.0398C22.6323 26.9139 22.6053 26.7892 22.5565 26.6712C22.5416 26.6351 22.5346 26.5916 22.4841 26.5645Z" fill="#11401C"/>
<path d="M33.6829 5.20554C33.7879 5.1951 33.8934 5.18776 33.9978 5.17336C34.1684 5.15022 34.334 5.10478 34.4869 5.02406C34.5585 4.98624 34.6258 4.93854 34.6889 4.88718C34.726 4.85726 34.7555 4.81464 34.7793 4.77231C34.8253 4.69018 34.8186 4.60692 34.7664 4.52817C34.7271 4.4689 34.6724 4.42629 34.6137 4.38847C34.5812 4.3673 34.5481 4.34698 34.5197 4.31593C34.6491 4.3498 34.7785 4.38339 34.9078 4.41726C35.3736 4.5389 35.8456 4.63147 36.3204 4.70965C36.7231 4.77598 37.1272 4.82875 37.5327 4.87222C37.8408 4.90524 38.1498 4.93177 38.459 4.95463C38.9024 4.98737 39.3461 5.01559 39.79 5.04297C40.0097 5.05652 40.23 5.06386 40.45 5.0743C40.5903 5.08107 40.7236 5.11748 40.8499 5.17731C40.8864 5.19453 40.9214 5.21767 40.9515 5.24449C41.0205 5.3063 41.032 5.38532 40.9868 5.46689C40.9523 5.52898 40.901 5.57583 40.8451 5.61788C40.7595 5.68223 40.6641 5.72824 40.5648 5.76634C40.404 5.82815 40.2362 5.86258 40.0667 5.8877C39.6864 5.94386 39.304 5.96249 38.9201 5.96503C38.4955 5.96785 38.0712 5.96023 37.6478 5.93258C37.2816 5.90859 36.9156 5.87782 36.5503 5.84311C36.2663 5.81629 35.9826 5.78186 35.6997 5.74489C35.2255 5.68336 34.7619 5.57216 34.3048 5.43302C34.1176 5.37601 33.933 5.31053 33.7475 5.24844C33.725 5.24082 33.7037 5.23009 33.6818 5.22078C33.6821 5.2157 33.6827 5.21062 33.6829 5.20554Z" fill="#11401C"/>
<path d="M7.2688 4.35573C7.26431 4.36561 7.26291 4.37944 7.25533 4.3848C7.21885 4.41133 7.17901 4.43334 7.14393 4.46157C6.97921 4.5945 6.97023 4.75678 7.12401 4.90411C7.17676 4.95463 7.2399 4.99584 7.30304 5.03337C7.42034 5.10337 7.5497 5.14486 7.68215 5.17449C7.81825 5.20497 7.95603 5.22614 8.09634 5.22642C8.11486 5.22642 8.13338 5.22953 8.18109 5.23348C8.13843 5.25436 8.12216 5.26452 8.10448 5.27102C7.48572 5.49342 6.85433 5.66925 6.20387 5.76634C5.89996 5.81178 5.59381 5.84367 5.28793 5.87359C4.93295 5.90802 4.57741 5.93878 4.22131 5.96193C3.6438 5.99918 3.06573 6.01132 2.48738 5.9893C2.18432 5.97773 1.88153 5.95318 1.58268 5.89588C1.42104 5.86484 1.26333 5.82166 1.11433 5.74997C1.01751 5.7034 0.927156 5.64695 0.853915 5.56652C0.731847 5.43217 0.749246 5.31392 0.907233 5.22417C1.03772 5.14994 1.18083 5.11184 1.32928 5.10337C1.68538 5.08305 2.04233 5.07119 2.39843 5.0489C2.80364 5.0235 3.20857 4.99414 3.61294 4.95971C3.9682 4.92923 4.32346 4.89423 4.67759 4.85246C5.16615 4.7946 5.65189 4.71784 6.13455 4.62075C6.48813 4.54962 6.83918 4.46749 7.18686 4.37069C7.21408 4.36307 7.24327 4.3625 7.27133 4.35855L7.2688 4.35573Z" fill="#11401C"/>
<path d="M33.0378 6.01329C33.0858 6.00483 33.1338 5.99636 33.1818 5.98789C33.2831 5.97011 33.3807 5.94104 33.4697 5.88855C33.5149 5.86173 33.5597 5.83069 33.5962 5.79343C33.6897 5.69776 33.6939 5.58938 33.6133 5.48326C33.5937 5.45729 33.5696 5.43443 33.546 5.41213C33.5289 5.39605 33.509 5.38306 33.5017 5.35202C33.532 5.36077 33.5628 5.36839 33.5929 5.37855C34.2052 5.58514 34.8309 5.73501 35.4674 5.84367C35.9021 5.9179 36.3387 5.9735 36.7776 6.01527C37.3955 6.07426 38.0148 6.10559 38.6353 6.11885C38.8393 6.12337 39.0433 6.12845 39.2473 6.13099C39.3839 6.13268 39.5153 6.15921 39.6401 6.2134C39.7889 6.27803 39.8155 6.36524 39.7339 6.50805C39.6761 6.60937 39.5944 6.68981 39.5024 6.75924C39.2664 6.93648 38.9978 7.02736 38.7065 7.0426C38.2907 7.06434 37.8739 7.06349 37.4581 7.0395C36.9364 7.0093 36.4181 6.94664 35.9032 6.8552C34.9603 6.68784 34.0441 6.42705 33.1512 6.08075C33.1136 6.06607 33.0774 6.04886 33.0403 6.03277C33.0392 6.02628 33.0384 6.01979 33.0378 6.01329Z" fill="#11401C"/>
<path d="M8.30709 5.4C8.3026 5.41072 8.30063 5.42342 8.29333 5.43161C8.27425 5.45306 8.25152 5.4714 8.233 5.49313C8.12777 5.6176 8.13451 5.74404 8.25994 5.84988C8.31242 5.89419 8.37471 5.93088 8.43813 5.95713C8.50941 5.98676 8.58658 6.00285 8.66179 6.02176C8.70528 6.03277 8.75018 6.03757 8.80602 6.04716C8.77992 6.07934 8.75018 6.08667 8.72296 6.0974C8.21168 6.30004 7.69001 6.47108 7.15936 6.61502C6.62872 6.75896 6.09134 6.87242 5.54778 6.95398C5.21133 7.0045 4.8729 7.04063 4.53308 7.06546C4.06585 7.09962 3.59862 7.09962 3.13112 7.08353C2.88558 7.07506 2.65379 7.01156 2.43856 6.89048C2.31537 6.82133 2.20536 6.73581 2.11893 6.62349C2.08414 6.57833 2.05271 6.52809 2.0325 6.47531C1.99883 6.38697 2.0238 6.32432 2.10434 6.27521C2.13914 6.25404 2.17702 6.23626 2.21575 6.22384C2.32547 6.18828 2.43743 6.16655 2.55361 6.16457C2.92262 6.15808 3.29191 6.15385 3.66064 6.13889C4.01281 6.12449 4.36527 6.10276 4.7166 6.07397C5.06372 6.04547 5.41112 6.01188 5.75656 5.96701C6.56698 5.86145 7.36421 5.6938 8.14292 5.4412C8.19652 5.42371 8.24759 5.3921 8.30765 5.40113L8.30709 5.4Z" fill="#11401C"/>
<path d="M31.5522 6.55547C31.6098 6.5597 31.6373 6.56083 31.6642 6.56422C31.85 6.58623 32.0312 6.56365 32.2063 6.50212C32.2748 6.47813 32.3396 6.44116 32.4016 6.40221C32.4387 6.37907 32.4712 6.34464 32.4979 6.30908C32.5448 6.2467 32.5605 6.17642 32.5293 6.1005C32.5203 6.07849 32.5122 6.05619 32.5038 6.03361C32.5327 6.01724 32.5532 6.03644 32.5728 6.0449C33.498 6.44398 34.4586 6.72594 35.4441 6.92745C35.9276 7.02623 36.4139 7.10921 36.903 7.17412C37.0689 7.19614 37.2344 7.21787 37.4 7.24243C37.4522 7.25005 37.5038 7.26388 37.5538 7.28053C37.588 7.2921 37.6217 7.30988 37.6509 7.33133C37.7311 7.3906 37.7463 7.47188 37.6963 7.55853C37.6584 7.62401 37.6023 7.67114 37.5409 7.71263C37.3868 7.81649 37.2167 7.88423 37.0383 7.93193C36.8399 7.98499 36.6373 8.00587 36.4324 8.00023C36.0612 7.98978 35.691 7.96128 35.324 7.90342C34.8523 7.82891 34.3881 7.71997 33.9313 7.5797C33.1453 7.3381 32.3921 7.01664 31.6678 6.62659C31.6367 6.60994 31.6075 6.58962 31.5522 6.55547Z" fill="#11401C"/>
<path d="M9.33302 6.06071C9.32797 6.07934 9.32685 6.08724 9.32376 6.09486C9.27016 6.23344 9.28952 6.31754 9.40065 6.41266C9.48988 6.48914 9.59567 6.53458 9.70764 6.5628C9.86759 6.60316 10.0301 6.62264 10.1954 6.5978C10.2142 6.59498 10.2335 6.59583 10.2649 6.59413C10.2332 6.64014 10.1925 6.65199 10.158 6.67062C9.75366 6.88991 9.33779 7.08522 8.91209 7.2588C8.2765 7.51789 7.62491 7.72364 6.95255 7.86362C6.4292 7.97257 5.90052 8.03325 5.36623 8.04454C5.06344 8.05103 4.7702 8.00079 4.49126 7.87745C4.39333 7.83427 4.29904 7.7846 4.21542 7.71658C4.16715 7.67735 4.12338 7.63389 4.0984 7.57546C4.06697 7.50208 4.0782 7.43519 4.14077 7.38665C4.18202 7.35447 4.23085 7.32738 4.28052 7.3127C4.3546 7.29041 4.43233 7.27799 4.50922 7.26698C4.82155 7.22182 5.135 7.18344 5.44676 7.13461C6.74686 6.92999 8.01637 6.61248 9.23059 6.09232C9.25332 6.08272 9.27577 6.07313 9.29906 6.06466C9.30636 6.06184 9.3145 6.06268 9.33302 6.06071Z" fill="#11401C"/>
<path d="M14.8584 1.50996C14.8993 1.51193 14.9383 1.51391 14.9858 1.51645C14.9689 1.57148 14.9358 1.60366 14.91 1.63922C14.5769 2.09531 14.2225 2.53419 13.8518 2.9598C13.2151 3.69022 12.5343 4.37661 11.8232 5.03309C11.7792 5.07373 11.7354 5.11494 11.6882 5.15897C11.7272 5.17619 11.7415 5.14966 11.7595 5.13667C12.0833 4.9027 12.3884 4.6453 12.6825 4.3752C13.5855 3.546 14.4009 2.6372 15.1325 1.65164C15.1547 1.622 15.1766 1.59209 15.1993 1.56273C15.2041 1.55624 15.2108 1.55144 15.2243 1.53874C15.2495 1.54411 15.281 1.5489 15.3113 1.55765C15.3424 1.56669 15.3724 1.57939 15.403 1.59068C15.4117 1.63696 15.38 1.66264 15.3607 1.69143C15.1126 2.06116 14.8488 2.41932 14.5732 2.76872C14.106 3.36142 13.6085 3.92673 13.075 4.45987C12.6409 4.89395 12.1889 5.30771 11.6958 5.67433C11.3453 5.93483 10.9769 6.16627 10.5885 6.36552C10.3331 6.49648 10.0649 6.52357 9.7865 6.46656C9.69754 6.4485 9.61279 6.41745 9.53394 6.37145C9.36866 6.27464 9.36276 6.16514 9.51682 6.04716C9.54937 6.02233 9.58473 6.00059 9.62065 5.98112C10.9236 5.27469 12.0845 4.3769 13.1469 3.34505C13.7202 2.7882 14.2606 2.20058 14.7831 1.59576C14.8048 1.57064 14.8266 1.54608 14.8584 1.50996Z" fill="#11401C"/>
<path d="M26.4475 1.58531C26.5216 1.5616 26.5789 1.54326 26.6392 1.52407C26.6616 1.54975 26.6816 1.56951 26.6981 1.5918C27.293 2.40266 27.9513 3.15764 28.6633 3.86633C29.0696 4.27078 29.4936 4.65546 29.9488 5.0043C30.0136 5.05398 30.0807 5.10083 30.1469 5.14824C30.1522 5.15191 30.1604 5.15163 30.1845 5.15671C30.0088 4.98398 29.8351 4.83158 29.6696 4.67042C29.5026 4.50757 29.3342 4.34613 29.1695 4.18103C29.0045 4.0162 28.8412 3.8494 28.6807 3.68034C28.5174 3.50818 28.3563 3.33376 28.198 3.1568C28.0425 2.98294 27.8896 2.80654 27.7398 2.62761C27.5899 2.44867 27.4443 2.26635 27.2992 2.08346C27.1547 1.90113 27.0149 1.71514 26.8833 1.52887C26.8993 1.495 26.9221 1.50488 26.94 1.50318C26.9602 1.50121 26.9804 1.50262 27.0068 1.50262C27.0413 1.541 27.0769 1.57995 27.1115 1.61975C27.545 2.12212 27.992 2.61152 28.4607 3.08087C29.2256 3.84714 30.0419 4.5516 30.9357 5.1632C31.3406 5.44036 31.7582 5.69663 32.1881 5.93286C32.238 5.96023 32.2866 5.991 32.3329 6.0243C32.359 6.04293 32.3817 6.06833 32.4011 6.0943C32.4471 6.15611 32.4443 6.21707 32.3882 6.27069C32.3531 6.304 32.3116 6.33222 32.2689 6.3548C32.1668 6.40899 32.0562 6.43947 31.942 6.45104C31.6973 6.47588 31.4635 6.44003 31.2421 6.32488C30.7106 6.04857 30.2173 5.71554 29.7577 5.33142C29.1347 4.81126 28.5639 4.23691 28.0254 3.62982C27.4897 3.02584 26.9916 2.39194 26.537 1.72361C26.5093 1.68325 26.4837 1.64176 26.4475 1.58531Z" fill="#11401C"/>
<path d="M26.1975 1.79671C26.227 1.74957 26.2564 1.7174 26.2963 1.6968C26.342 1.7126 26.3577 1.75381 26.3824 1.78485C26.7158 2.2051 27.0441 2.6293 27.382 3.0456C27.8312 3.59906 28.3069 4.1291 28.8089 4.63486C29.3777 5.2078 29.9808 5.74122 30.631 6.21961C30.7039 6.27323 30.7713 6.33222 30.8251 6.40532C30.847 6.43495 30.8678 6.466 30.8838 6.49874C30.9197 6.57184 30.906 6.62264 30.8361 6.66554C30.7435 6.72227 30.6391 6.74344 30.5325 6.75049C30.2597 6.76855 30.0069 6.70477 29.774 6.5597C29.451 6.3579 29.1471 6.13014 28.8583 5.88149C28.2853 5.38843 27.7841 4.82763 27.3245 4.22816C26.848 3.60668 26.4231 2.94992 26.0269 2.27453C26.0185 2.26042 26.0115 2.24546 26.0022 2.23191C25.9817 2.202 25.9811 2.17095 25.9949 2.13849C26.0061 2.11225 26.0165 2.08543 26.0289 2.05947C26.0409 2.03378 26.0549 2.00867 26.0695 1.98016C26.1167 2.00133 26.1316 2.0462 26.1548 2.08205C26.4616 2.55733 26.7868 3.01935 27.1325 3.46669C27.5108 3.95665 27.909 4.42911 28.3501 4.86347C28.4405 4.95237 28.5339 5.03817 28.6265 5.12482C28.6436 5.14091 28.6633 5.15474 28.6868 5.17393C28.6947 5.13667 28.6689 5.12623 28.656 5.11043C28.638 5.08813 28.617 5.06865 28.5973 5.04777C28.5805 5.02999 28.5637 5.01193 28.5471 4.99386C28.5277 4.97269 28.5084 4.95153 28.489 4.93036C28.4725 4.9123 28.4559 4.89395 28.4396 4.87561C28.4205 4.85444 28.4012 4.83299 28.3821 4.81182C28.3658 4.79348 28.3493 4.77513 28.333 4.75679C28.3139 4.73534 28.2951 4.71389 28.2763 4.69215C28.26 4.67353 28.244 4.65518 28.228 4.63655C28.2092 4.61482 28.1904 4.59309 28.1719 4.57136C28.1559 4.55273 28.1399 4.5341 28.1242 4.51519C28.1085 4.49628 28.0928 4.47737 28.0771 4.45875C28.0588 4.43673 28.0403 4.41472 28.0221 4.3927C28.0064 4.37379 27.9909 4.3546 27.9755 4.33569C27.9572 4.31339 27.939 4.29138 27.921 4.26908C27.9056 4.24989 27.8902 4.2307 27.875 4.21151C27.8571 4.18921 27.8391 4.16663 27.8214 4.14434C27.8063 4.12514 27.7911 4.10567 27.776 4.08648C27.7583 4.0639 27.7406 4.04132 27.7229 4.01874C27.7078 3.99927 27.6929 3.97979 27.6778 3.96032C27.6604 3.93774 27.6427 3.91488 27.6253 3.89202C27.6104 3.87254 27.5955 3.85279 27.5807 3.83331C27.5658 3.81384 27.5509 3.79436 27.536 3.77461C27.5189 3.75175 27.5018 3.7286 27.4847 3.70574C27.4701 3.68599 27.4555 3.66623 27.4409 3.64647C27.4238 3.62333 27.407 3.60019 27.3898 3.57733C27.3752 3.55757 27.3609 3.53753 27.3463 3.51777C27.3295 3.49463 27.3127 3.47149 27.2958 3.44806C27.2815 3.42802 27.2672 3.40827 27.2529 3.38823C27.2363 3.3648 27.2198 3.34138 27.2029 3.31823C27.1886 3.2982 27.1743 3.27816 27.1603 3.25812C27.146 3.23808 27.132 3.21804 27.1179 3.19772C27.1014 3.17429 27.0851 3.15059 27.0688 3.12716C27.0548 3.10712 27.0408 3.0868 27.0267 3.06676C27.0104 3.04306 26.9942 3.01963 26.9779 2.99592C26.9639 2.9756 26.9501 2.95528 26.9364 2.93496C26.9201 2.91125 26.9041 2.88754 26.8881 2.86384C26.8743 2.84352 26.8606 2.82319 26.8468 2.80287C26.8309 2.77917 26.8151 2.75518 26.7989 2.73147C26.7851 2.71115 26.7711 2.69083 26.7573 2.67051C26.7413 2.6468 26.7256 2.62281 26.7099 2.59882C26.6964 2.57821 26.6827 2.55789 26.6692 2.53729C26.6557 2.51669 26.6423 2.49608 26.6288 2.47576C26.6131 2.45177 26.5971 2.42778 26.5817 2.40379C26.5682 2.38319 26.555 2.36259 26.5418 2.34198C26.5264 2.31799 26.5107 2.29372 26.495 2.26973C26.4815 2.24913 26.4683 2.22853 26.4548 2.20792C26.4391 2.18393 26.4237 2.15994 26.4082 2.13567C26.3951 2.11507 26.3816 2.09418 26.3684 2.07358C26.353 2.04931 26.3375 2.02532 26.3221 2.00104C26.3089 1.98044 26.2957 1.95956 26.2825 1.93867C26.2671 1.9144 26.2511 1.89069 26.2365 1.86614C26.2242 1.84582 26.2129 1.82408 26.1975 1.79671Z" fill="#11401C"/>
<path d="M15.7908 1.98129C15.8094 2.00923 15.82 2.02137 15.8262 2.03576C15.8495 2.08825 15.8714 2.14131 15.8935 2.19296C15.8848 2.21187 15.879 2.2274 15.8708 2.24151C15.4011 3.04701 14.8917 3.82513 14.3047 4.54991C13.8498 5.11127 13.354 5.63199 12.7913 6.08583C12.5607 6.27182 12.3207 6.44483 12.0687 6.60091C11.8381 6.74372 11.5869 6.80807 11.3173 6.78662C11.2325 6.77984 11.1461 6.76065 11.0667 6.73102C10.928 6.67937 10.9098 6.60796 10.9906 6.48321C11.0496 6.39233 11.1264 6.31952 11.2137 6.25545C11.7775 5.84057 12.3064 5.38391 12.809 4.89621C13.4208 4.3021 13.9907 3.66905 14.5286 3.00721C14.8505 2.61124 15.1623 2.20651 15.4791 1.8063C15.5066 1.77159 15.5268 1.72982 15.568 1.70611C15.5812 1.71288 15.5939 1.71627 15.6023 1.72417C15.6261 1.74647 15.648 1.77074 15.6693 1.79275C15.6343 1.89238 15.4808 2.14075 15.119 2.67305C14.9223 2.96262 14.7253 3.25219 14.5191 3.53471C14.3151 3.81384 14.1049 4.08902 13.8866 4.35686C13.6694 4.62357 13.4384 4.87956 13.2131 5.14091C13.2218 5.14288 13.2308 5.14824 13.2344 5.1457C13.2513 5.13441 13.2681 5.12228 13.2824 5.10788C13.4884 4.90072 13.7011 4.69977 13.8981 4.48443C14.5749 3.74469 15.1679 2.93947 15.7137 2.09842C15.7356 2.06342 15.7586 2.02983 15.7908 1.98129Z" fill="#11401C"/>
<path d="M10.8722 6.44144C10.8593 6.47983 10.8514 6.50579 10.8419 6.53119C10.8091 6.61982 10.8357 6.69263 10.8997 6.75557C10.9539 6.80863 11.0209 6.84024 11.0925 6.86085C11.2277 6.89979 11.3655 6.91532 11.5061 6.90008C11.5465 6.89556 11.5869 6.89161 11.6341 6.88681C11.629 6.9314 11.5948 6.94156 11.5712 6.95793C11.1248 7.26642 10.6631 7.54978 10.1836 7.80294C9.62346 8.09816 9.04567 8.35076 8.43982 8.53619C8.04303 8.65783 7.63894 8.74646 7.22587 8.78766C6.90962 8.81927 6.59504 8.8108 6.28693 8.72105C6.19208 8.69339 6.09892 8.66009 6.01838 8.60167C5.97572 8.5709 5.93447 8.53393 5.90389 8.49188C5.85562 8.42584 5.86909 8.35669 5.93616 8.30871C5.97208 8.28303 6.01445 8.26299 6.05682 8.25C6.1194 8.23109 6.18394 8.21783 6.24848 8.2071C7.19556 8.05188 8.10616 7.7719 8.98926 7.39766C9.59455 7.14139 10.178 6.84137 10.7437 6.50664C10.7807 6.48434 10.8158 6.45668 10.8722 6.44144Z" fill="#11401C"/>
<path d="M30.2232 6.84927C30.2633 6.85351 30.3038 6.85802 30.3439 6.86226C30.4836 6.87665 30.6214 6.86367 30.755 6.82161C30.8086 6.80468 30.8616 6.77928 30.9082 6.74767C31.014 6.6757 31.0362 6.593 30.9927 6.46995C30.9865 6.45217 30.9683 6.43608 30.9831 6.40899C31.0269 6.4183 31.0611 6.44765 31.0985 6.46967C31.598 6.76488 32.1112 7.03301 32.6413 7.26811C33.3889 7.59945 34.1583 7.86532 34.9572 8.04087C35.1879 8.09167 35.4214 8.13034 35.6529 8.17775C35.7163 8.19073 35.7811 8.2071 35.8386 8.23505C35.9596 8.29375 35.9722 8.39479 35.8771 8.49273C35.8221 8.54945 35.7539 8.58671 35.6829 8.6186C35.5743 8.66743 35.4592 8.69565 35.3431 8.71738C35.0801 8.76621 34.8158 8.76198 34.5512 8.73291C33.7649 8.64598 33.0249 8.39874 32.3068 8.07671C31.5935 7.75694 30.9214 7.3635 30.2779 6.91983C30.2555 6.90431 30.235 6.88625 30.2134 6.86959C30.217 6.86282 30.2201 6.85605 30.2232 6.84927Z" fill="#11401C"/>
<path d="M28.4775 1.87122C28.5348 1.89041 28.5687 1.90029 28.6018 1.91327C28.952 2.04874 29.2947 2.20143 29.6328 2.36541C29.6766 2.38658 29.7181 2.41367 29.7585 2.44105C30.2591 2.78001 30.7584 3.12152 31.2604 3.45851C31.6067 3.69107 31.9644 3.90415 32.3433 4.07914C32.4359 4.12204 32.5304 4.15986 32.6245 4.19937C32.6382 4.20502 32.6536 4.20727 32.6722 4.20022C32.4558 4.07321 32.2369 3.95016 32.0234 3.81835C31.8115 3.6874 31.603 3.55051 31.3965 3.41109C31.1869 3.26969 30.9809 3.12236 30.7802 2.96234C30.7968 2.96572 30.8148 2.96601 30.8296 2.97306C31.2966 3.19857 31.775 3.3967 32.2616 3.57535C32.3113 3.59341 32.3582 3.61938 32.4059 3.64224C32.9842 3.92024 33.5791 4.15506 34.1948 4.33626C34.3084 4.36984 34.4212 4.40681 34.5239 4.46665C34.5728 4.49515 34.6199 4.53015 34.6589 4.57051C34.7128 4.62611 34.7148 4.6851 34.6654 4.74804C34.6306 4.79235 34.5874 4.83214 34.5413 4.86488C34.4305 4.94419 34.3039 4.99217 34.1726 5.02463C33.7691 5.12397 33.3726 5.1045 32.985 4.94645C32.2799 4.65885 31.612 4.30013 30.9736 3.88496C30.1076 3.32162 29.3107 2.67079 28.5603 1.96069C28.537 1.93839 28.5168 1.91355 28.4775 1.87122Z" fill="#11401C"/>
<path d="M9.15286 4.24142C9.32516 4.18611 9.48764 4.10764 9.64927 4.02721C10.0247 3.84009 10.3797 3.61768 10.7268 3.38258C11.1896 3.0693 11.6509 2.75405 12.1131 2.43992C12.1403 2.42157 12.1675 2.40266 12.197 2.38855C12.5635 2.21272 12.9333 2.04564 13.3136 1.90226C13.3279 1.8969 13.3422 1.88363 13.3638 1.90057C13.3481 1.91835 13.334 1.93726 13.3172 1.95306C12.3856 2.83589 11.386 3.62897 10.2742 4.27247C9.80445 4.54426 9.32039 4.7867 8.81528 4.98483C8.38566 5.15332 7.95098 5.15784 7.51603 5.00628C7.43184 4.97693 7.35131 4.93233 7.27554 4.88464C7.2284 4.855 7.18743 4.81041 7.15347 4.76497C7.10998 4.70683 7.11419 4.64897 7.16526 4.59648C7.20482 4.55583 7.25169 4.51999 7.3008 4.49148C7.40406 4.43137 7.51715 4.39383 7.63164 4.35996C7.91871 4.27529 8.20214 4.17905 8.48191 4.07208C8.80013 3.95016 9.11189 3.81384 9.41973 3.66792C9.50476 3.62756 9.59147 3.59003 9.67958 3.55672C10.1252 3.38908 10.5646 3.20732 10.9931 2.99903C11.0223 2.98491 11.0524 2.97165 11.0846 2.95697C11.0947 2.98604 11.0706 2.99169 11.0571 3.00128C10.4765 3.41899 9.88696 3.82287 9.25809 4.1655C9.22161 4.18526 9.1697 4.19006 9.15623 4.24255C9.14809 4.24481 9.14052 4.24763 9.13294 4.25017C9.13911 4.24735 9.14613 4.24425 9.15286 4.24142Z" fill="#11401C"/>
<path d="M31.2935 4.8677C31.2941 4.85613 31.2997 4.84146 31.2943 4.83384C31.2856 4.82085 31.2708 4.81154 31.2576 4.80194C30.6399 4.35573 30.0647 3.85787 29.5048 3.34138C28.9633 2.84154 28.4405 2.32251 27.9421 1.77921C27.9149 1.74957 27.8885 1.71881 27.8627 1.68946C27.8773 1.65644 27.8992 1.67309 27.9154 1.67647C27.9432 1.68184 27.9699 1.69341 27.9976 1.6999C28.0667 1.71655 28.1225 1.75211 28.1744 1.80235C28.7747 2.38404 29.4047 2.93101 30.0582 3.45088C30.6301 3.90556 31.2427 4.29533 31.8878 4.63514C32.3539 4.88069 32.8192 5.12792 33.2842 5.37601C33.3487 5.41044 33.413 5.44854 33.4697 5.49455C33.5954 5.59672 33.5867 5.68788 33.4475 5.77424C33.3414 5.84 33.2241 5.87443 33.1015 5.88826C32.8787 5.91338 32.6629 5.88629 32.4527 5.80444C31.9448 5.60659 31.4649 5.35399 31.0061 5.06019C30.315 4.61736 29.6844 4.09777 29.0901 3.53217C28.4663 2.93863 27.8913 2.29993 27.3497 1.63047C27.3278 1.60338 27.2944 1.58136 27.2967 1.53395C27.3379 1.54044 27.3778 1.5489 27.4176 1.55229C27.4785 1.55737 27.5217 1.58672 27.5627 1.63216C27.7692 1.85936 27.9755 2.08713 28.1879 2.30868C28.7924 2.93863 29.4296 3.53245 30.1163 4.07208C30.4898 4.36561 30.879 4.63571 31.2955 4.86488C31.2997 4.86601 31.3033 4.86883 31.307 4.86883C31.3137 4.86911 31.3204 4.86799 31.3272 4.86742C31.3258 4.86403 31.3252 4.85952 31.3227 4.85754C31.3199 4.85528 31.3143 4.85359 31.3117 4.855C31.3056 4.85782 31.2997 4.86319 31.2935 4.8677Z" fill="#11401C"/>
<path d="M10.5147 4.91794C10.5268 4.90722 10.5374 4.89367 10.5515 4.88633C11.024 4.63288 11.4553 4.31819 11.8726 3.98318C12.3606 3.59172 12.8222 3.17006 13.2678 2.7309C13.6225 2.38121 13.9663 2.02137 14.2952 1.64712C14.3381 1.5983 14.3841 1.56414 14.4506 1.55963C14.4907 1.55681 14.5306 1.54806 14.5741 1.54128C14.564 1.59519 14.5272 1.62454 14.4994 1.65898C14.1288 2.11676 13.7415 2.55987 13.3338 2.98463C12.8258 3.51382 12.2902 4.01225 11.7132 4.46495C11.2075 4.86149 10.6758 5.21796 10.1039 5.51176C9.85188 5.64131 9.59427 5.75844 9.32769 5.85496C9.09393 5.93963 8.85485 5.95318 8.61352 5.89645C8.54252 5.8798 8.47433 5.84847 8.40726 5.81827C8.37443 5.80359 8.34441 5.77904 8.31831 5.75336C8.26247 5.6986 8.25686 5.63566 8.30961 5.57781C8.35058 5.53265 8.39997 5.4937 8.45076 5.46011C8.51222 5.41947 8.579 5.38673 8.64439 5.3523C9.04342 5.14091 9.44049 4.92556 9.84234 4.71981C10.7316 4.26429 11.546 3.69869 12.307 3.05152C12.7835 2.64652 13.2529 2.23417 13.7011 1.79755C13.7833 1.7174 13.8835 1.70188 14.0089 1.6793C13.9722 1.72502 13.9514 1.75437 13.927 1.78034C13.7668 1.95165 13.6082 2.12438 13.4443 2.29231C12.7801 2.97306 12.0892 3.62531 11.3551 4.22985C11.111 4.43109 10.8562 4.61934 10.6062 4.81323C10.577 4.83581 10.547 4.85754 10.5195 4.8821C10.5133 4.88746 10.5169 4.90383 10.5158 4.91484C10.5108 4.91314 10.5054 4.91145 10.5004 4.90976C10.5052 4.91258 10.5099 4.91512 10.5147 4.91794Z" fill="#11401C"/>
<path d="M13.1937 7.03922C13.1797 7.04797 13.1646 7.05502 13.1519 7.06547C12.4075 7.69541 11.601 8.22855 10.7165 8.63921C10.3772 8.79669 10.0284 8.92934 9.66078 9.00385C9.53647 9.02897 9.41019 9.04732 9.28363 9.05832C9.13069 9.07159 8.98 9.04845 8.83689 8.992C8.77684 8.96829 8.71763 8.93555 8.66712 8.89519C8.59893 8.841 8.59837 8.78117 8.65898 8.71428C8.69181 8.67815 8.73025 8.64485 8.77179 8.61973C8.831 8.58361 8.89385 8.55228 8.95784 8.52518C9.4868 8.30081 10.0076 8.05893 10.5141 7.78686C11.0504 7.49898 11.5659 7.17779 12.0586 6.81992C12.0875 6.79904 12.1179 6.78041 12.151 6.75839C12.1653 6.90741 12.2015 6.95963 12.3345 7.0124C12.4981 7.07732 12.6693 7.09199 12.8427 7.0728C12.9558 7.0601 13.068 7.03809 13.1805 7.02031C13.185 7.02595 13.1892 7.03244 13.1937 7.03922Z" fill="#11401C"/>
<path d="M28.656 6.97769C28.7924 6.99914 28.9043 7.02031 29.0171 7.03385C29.1602 7.05107 29.3022 7.0364 29.4417 6.99942C29.4692 6.99208 29.4964 6.98305 29.5228 6.97205C29.6275 6.92745 29.7074 6.86395 29.6923 6.73384C29.7394 6.7265 29.7627 6.76093 29.7911 6.78154C30.3447 7.18344 30.9267 7.53849 31.5337 7.85233C31.9729 8.07925 32.4216 8.285 32.8764 8.47833C32.9474 8.50853 33.0156 8.54635 33.0821 8.58586C33.1164 8.60647 33.1467 8.63638 33.1736 8.66658C33.2356 8.73658 33.2317 8.79669 33.1562 8.85512C33.1116 8.88955 33.0603 8.91862 33.0078 8.93866C32.8492 8.99906 32.6845 9.02135 32.515 9.00583C32.2414 8.98071 31.9768 8.91523 31.7169 8.82689C31.2671 8.67392 30.8423 8.4662 30.4292 8.2325C29.8301 7.89326 29.2683 7.49954 28.741 7.05615C28.7166 7.03555 28.6939 7.01297 28.656 6.97769Z" fill="#11401C"/>
<path d="M15.9662 2.5037C15.9999 2.58583 16.0131 2.67107 16.0139 2.7563C16.0142 2.78933 15.989 2.82489 15.9699 2.85565C15.7541 3.20647 15.5414 3.55954 15.3194 3.90641C14.9793 4.43786 14.6123 4.94983 14.2051 5.43189C14.1919 5.44741 14.1807 5.46435 14.1694 5.47987C14.1857 5.50442 14.1995 5.49031 14.2096 5.48043C14.3069 5.38589 14.4063 5.29303 14.5003 5.1951C14.8917 4.78642 15.229 4.33456 15.5422 3.86408C15.6862 3.64817 15.824 3.42831 15.9645 3.21014C15.9864 3.17599 16.0092 3.1424 16.0392 3.09668C16.051 3.11982 16.0611 3.13139 16.0625 3.1441C16.072 3.23018 16.0776 3.31682 16.0883 3.40262C16.0962 3.46697 16.0813 3.52173 16.0476 3.57789C15.7993 3.99136 15.5338 4.39355 15.2487 4.78219C14.7773 5.42483 14.2528 6.01979 13.6784 6.57155C13.5061 6.73723 13.3091 6.84137 13.0821 6.89895C12.9701 6.92745 12.8567 6.94326 12.7419 6.94947C12.6637 6.9537 12.5854 6.94947 12.5113 6.92124C12.4697 6.90544 12.4277 6.88483 12.3931 6.85718C12.3112 6.79142 12.3067 6.70844 12.3788 6.63308C12.4128 6.5978 12.4529 6.56817 12.4916 6.53769C12.8149 6.28283 13.1236 6.01104 13.4191 5.724C14.0589 5.1028 14.6268 4.42008 15.148 3.69671C15.4056 3.33912 15.6503 2.9725 15.886 2.59995C15.9073 2.56664 15.9199 2.52487 15.9662 2.5037Z" fill="#11401C"/>
<path d="M25.9225 2.48762C25.9534 2.53531 25.9848 2.58245 26.0151 2.63043C26.4543 3.32331 26.9265 3.99221 27.4516 4.62244C28.0378 5.32633 28.6812 5.97152 29.4035 6.53486C29.4324 6.55744 29.4613 6.58115 29.4852 6.60881C29.5388 6.6709 29.5343 6.7488 29.4754 6.8075C29.4212 6.86113 29.3536 6.88738 29.2798 6.90149C29.1572 6.92491 29.0345 6.91306 28.9147 6.89048C28.803 6.86931 28.693 6.83601 28.585 6.79988C28.452 6.75529 28.3375 6.67937 28.2339 6.58228C27.4171 5.81686 26.7164 4.95491 26.1102 4.01366C26.0126 3.8621 25.9205 3.70715 25.8237 3.55503C25.7937 3.5079 25.7802 3.46076 25.787 3.40403C25.799 3.30243 25.806 3.20026 25.8147 3.10091C25.856 3.08624 25.8608 3.11813 25.8723 3.13591C26.035 3.38682 26.1938 3.64026 26.3597 3.88891C26.6142 4.27106 26.8867 4.6405 27.1948 4.98116C27.3348 5.13583 27.4847 5.28146 27.6309 5.4302C27.6581 5.45786 27.6898 5.48128 27.7302 5.4968C27.7224 5.48467 27.7156 5.47169 27.7064 5.46068C27.0725 4.71614 26.541 3.89936 26.0364 3.06366C25.9876 2.98294 25.9407 2.90137 25.8908 2.8215C25.8655 2.78142 25.8532 2.74135 25.8622 2.69365C25.8751 2.62648 25.8849 2.55846 25.8961 2.491C25.9048 2.48959 25.9138 2.48846 25.9225 2.48762Z" fill="#11401C"/>
<path d="M20.4906 34.6395C20.3949 34.4823 20.3475 34.3226 20.3295 34.1535C20.2992 33.8682 20.3509 33.5984 20.4813 33.3432C20.5563 33.1967 20.6447 33.0593 20.7437 32.9283C20.8548 32.7816 20.9688 32.6365 21.081 32.4906C21.2008 32.3345 21.3137 32.1736 21.4051 31.9989C21.5207 31.7782 21.5898 31.5448 21.6027 31.2942C21.6091 31.1663 21.5797 31.0498 21.5149 30.942C21.4792 30.8824 21.4388 30.8251 21.3964 30.7704C21.3698 30.7359 21.3574 30.7009 21.3585 30.6577C21.3622 30.5265 21.3639 30.3953 21.3667 30.264C21.3675 30.2265 21.3729 30.1912 21.402 30.1627C21.5036 30.0625 21.6044 29.9612 21.7057 29.8602C21.7214 29.8695 21.7335 29.8734 21.7413 29.8816C21.9313 30.0806 22.1055 30.2917 22.2335 30.5375C22.3654 30.7904 22.4252 31.0597 22.4055 31.345C22.3876 31.6018 22.3211 31.8457 22.208 32.0765C22.1084 32.28 21.9843 32.468 21.8392 32.641C21.7001 32.8073 21.5544 32.9681 21.4093 33.1293C21.2671 33.2876 21.1214 33.4428 20.9792 33.6009C20.9244 33.6616 20.8745 33.7268 20.8234 33.7908C20.7022 33.9432 20.6301 34.1174 20.6351 34.3124C20.6382 34.425 20.5958 34.5097 20.5324 34.5918C20.5232 34.6045 20.5119 34.6158 20.4906 34.6395ZM22.1227 30.861C22.1297 30.9092 22.1378 30.9572 22.1434 31.0055C22.1841 31.3484 22.1204 31.6741 21.9857 31.9888C21.8667 32.2668 21.697 32.5109 21.4983 32.7358C21.3793 32.8708 21.2575 33.0031 21.1374 33.1372C21.1144 33.1629 21.0936 33.1911 21.0701 33.221C21.1091 33.2326 21.1203 33.2049 21.136 33.1902C21.3574 32.9836 21.5662 32.7649 21.7528 32.5259C21.8738 32.3709 21.9838 32.2083 22.0741 32.0331C22.1269 31.9309 22.1695 31.8251 22.1939 31.7119C22.2386 31.5047 22.2383 31.297 22.2015 31.089C22.1872 31.0089 22.1749 30.9276 22.1227 30.861Z" fill="#11401C"/>
<path d="M14.3718 7.18457C14.3392 7.22013 14.3213 7.24243 14.3011 7.2619C13.6279 7.90963 12.8912 8.47071 12.0668 8.911C11.9183 8.99031 11.7674 9.06453 11.6144 9.13425C11.4023 9.23105 11.1786 9.27593 10.9446 9.26492C10.8537 9.26069 10.7647 9.24404 10.6803 9.21158C10.4934 9.13989 10.4993 9.06877 10.6146 8.94515C10.6881 8.86612 10.7743 8.80431 10.8686 8.7521C11.2679 8.53224 11.6596 8.2994 12.0427 8.05216C12.5402 7.73126 13.0203 7.38608 13.4772 7.00845C13.5021 6.98785 13.5285 6.96922 13.5526 6.95088C13.586 6.96217 13.574 6.98644 13.574 7.00366C13.5745 7.10752 13.629 7.17638 13.7199 7.21223C13.7799 7.23594 13.8456 7.25005 13.9099 7.25654C14.021 7.26783 14.1304 7.24779 14.2379 7.21787C14.2761 7.20771 14.3148 7.19896 14.3718 7.18457Z" fill="#11401C"/>
<path d="M27.5105 7.14985C27.5532 7.16058 27.5913 7.16961 27.6289 7.17949C27.7358 7.20799 27.8444 7.22775 27.9553 7.21703C28.0114 7.21166 28.0689 7.20122 28.122 7.18203C28.2221 7.1459 28.2847 7.07563 28.2884 6.96273C28.2889 6.94721 28.292 6.93197 28.2951 6.90629C28.3218 6.92491 28.3422 6.93733 28.3602 6.95229C29.1684 7.6226 30.0459 8.18876 30.9621 8.69622C31.0631 8.7521 31.1563 8.81701 31.234 8.90253C31.2584 8.92934 31.2809 8.95983 31.298 8.992C31.3193 9.03208 31.31 9.07611 31.2724 9.10122C31.2323 9.12804 31.188 9.1509 31.1425 9.16699C30.9812 9.22428 30.8145 9.22513 30.6472 9.20311C30.48 9.18081 30.3226 9.12719 30.1702 9.0555C29.5803 8.77863 29.0306 8.43543 28.5129 8.04002C28.1944 7.79674 27.8907 7.53539 27.6003 7.25851C27.5736 7.23311 27.5478 7.20687 27.5226 7.18005C27.5175 7.17469 27.5164 7.16538 27.5105 7.14985Z" fill="#11401C"/>
<path d="M26.77 5.7638C26.7439 5.724 26.7186 5.68336 26.6914 5.64413C26.3653 5.17223 26.0617 4.68623 25.774 4.18978C25.7176 4.0924 25.6857 4.00096 25.7233 3.89032C25.7387 3.8446 25.7426 3.79493 25.7516 3.74638C25.7962 3.74638 25.8032 3.78477 25.8195 3.80989C26.0597 4.17651 26.3081 4.53721 26.5674 4.89056C26.9989 5.47846 27.4586 6.04378 27.9421 6.58905C28.0044 6.65933 28.0636 6.73299 28.1166 6.81032C28.1436 6.84927 28.1593 6.89866 28.1702 6.94552C28.1826 6.99886 28.1593 7.04373 28.1088 7.06631C28.0757 7.08099 28.0397 7.09228 28.0041 7.09736C27.9022 7.11147 27.8007 7.10554 27.7002 7.08296C27.5557 7.05051 27.4207 6.99293 27.2947 6.9156C27.2535 6.8902 27.2153 6.8583 27.1799 6.82444C26.8651 6.52414 26.5873 6.19138 26.3308 5.84057C26.0378 5.44036 25.7769 5.01926 25.5296 4.58942C25.5176 4.56825 25.508 4.54567 25.4971 4.52338C25.5409 4.43786 25.5832 4.35432 25.6312 4.26062C25.7219 4.40004 25.8041 4.53156 25.8911 4.6597C25.9806 4.79178 26.0726 4.92246 26.1675 5.05087C26.2598 5.17619 26.3552 5.29924 26.4523 5.4206C26.5494 5.54196 26.6507 5.65994 26.75 5.77932C26.7568 5.77396 26.7632 5.76888 26.77 5.7638Z" fill="#11401C"/>
<path d="M16.118 3.74272C16.1394 3.8621 16.159 3.95016 16.1691 4.03934C16.1725 4.0687 16.157 4.10341 16.1416 4.13079C16.063 4.27078 15.9831 4.4102 15.9011 4.54821C15.6766 4.92754 15.4373 5.29755 15.1872 5.6605C15.1665 5.6907 15.1499 5.72344 15.1317 5.75533C15.1317 5.75533 15.1362 5.76182 15.1423 5.77029C15.2324 5.68647 15.3045 5.58797 15.3814 5.49398C15.4597 5.39859 15.5358 5.30122 15.6107 5.203C15.6831 5.10788 15.7535 5.01164 15.8228 4.91427C15.8944 4.81351 15.964 4.71163 16.0325 4.60861C16.1004 4.50644 16.1655 4.4023 16.2283 4.30464C16.2421 4.30295 16.2466 4.30126 16.2499 4.30267C16.2533 4.30408 16.2564 4.30803 16.2583 4.31142C16.2974 4.38847 16.3361 4.4658 16.3759 4.54539C16.3706 4.5595 16.3669 4.57587 16.3588 4.5897C16.0282 5.16546 15.6749 5.72598 15.2549 6.24134C15.096 6.43608 14.9251 6.61982 14.7514 6.80101C14.5949 6.96443 14.4029 7.05728 14.1894 7.11457C14.0808 7.14364 13.9708 7.15126 13.8602 7.13631C13.8204 7.13094 13.7799 7.11824 13.744 7.10018C13.6952 7.07591 13.6727 7.02736 13.6885 6.97571C13.7039 6.92519 13.7241 6.87383 13.7533 6.83008C13.7968 6.76545 13.8476 6.70533 13.8992 6.64691C14.5977 5.86173 15.2442 5.03563 15.8315 4.16325C15.9051 4.05402 15.9766 3.94338 16.0499 3.83359C16.0656 3.8113 16.0832 3.78928 16.118 3.74272ZM15.0708 5.83436C15.0736 5.8369 15.0761 5.83972 15.0789 5.84226C15.0862 5.83464 15.0935 5.8273 15.1 5.81912C15.1014 5.81742 15.0983 5.81234 15.0972 5.80896C15.0885 5.81742 15.0795 5.82589 15.0708 5.83436Z" fill="#11401C"/>
<path d="M14.7324 7.09284C14.7354 7.12078 14.7374 7.13602 14.7388 7.15155C14.7526 7.29859 14.8297 7.38326 14.9757 7.40753C15.0739 7.4239 15.1718 7.41967 15.2678 7.39116C15.3144 7.37734 15.3604 7.36294 15.4258 7.3429C15.4064 7.37395 15.3985 7.39032 15.387 7.40358C14.75 8.14021 14.0078 8.74109 13.1362 9.1763C12.9535 9.26746 12.7607 9.31798 12.5601 9.33971C12.4462 9.35213 12.3311 9.35862 12.2166 9.35947C12.156 9.36003 12.0946 9.34677 12.0354 9.33181C11.9893 9.32024 11.9745 9.26774 12.0079 9.23359C12.0508 9.19013 12.0985 9.15033 12.149 9.1159C12.2711 9.03264 12.3973 8.95531 12.5191 8.87177C13.2793 8.35048 14.0008 7.78065 14.6689 7.14336C14.6858 7.12727 14.7054 7.11401 14.7324 7.09284Z" fill="#11401C"/>
<path d="M26.4419 7.30847C26.4871 7.30593 26.5146 7.32456 26.5441 7.33443C26.6499 7.37028 26.7585 7.3858 26.8693 7.36943C26.9091 7.3635 26.9496 7.35278 26.986 7.33585C27.0699 7.29662 27.1193 7.23029 27.1244 7.13461C27.1255 7.11147 27.1266 7.08861 27.1283 7.05135C27.1597 7.07591 27.1827 7.09058 27.2018 7.10921C27.7123 7.60115 28.2614 8.04679 28.8316 8.46563C29.1047 8.6663 29.3895 8.85088 29.6687 9.04308C29.7159 9.07554 29.7627 9.10828 29.8073 9.14384C29.8259 9.15852 29.8405 9.17969 29.8534 9.20029C29.8688 9.22484 29.8576 9.26351 29.8295 9.27254C29.7832 9.2875 29.7355 9.30443 29.6878 9.30584C29.3542 9.31516 29.0284 9.27818 28.7239 9.12663C27.8602 8.6965 27.1233 8.10268 26.4921 7.37338C26.4767 7.35532 26.463 7.33585 26.4419 7.30847Z" fill="#11401C"/>
<path d="M21.1874 19.724C20.9598 19.8518 20.7311 19.9687 20.4999 20.0802C20.4903 20.0847 20.4766 20.0807 20.4572 20.0807C20.4362 19.2196 20.4151 18.3597 20.3944 17.5065C20.5203 17.408 21.0457 17.1545 21.2123 17.1091C21.2154 17.1113 21.2191 17.113 21.2213 17.1161C21.2236 17.1192 21.2255 17.1237 21.2255 17.1274C21.2129 17.9925 21.2 18.8572 21.1874 19.724Z" fill="#11401C"/>
<path d="M21.1186 24.2925C20.9491 24.4333 20.7729 24.564 20.6014 24.6936C20.5619 24.6775 20.5717 24.6495 20.5711 24.6272C20.5616 24.275 20.5532 23.9225 20.5439 23.5703C20.5321 23.1195 20.5195 22.6691 20.5077 22.2184C20.5066 22.1735 20.5074 22.1283 20.5074 22.0852C20.5981 22.0025 21.0294 21.76 21.1425 21.7276C21.1458 21.7295 21.1501 21.7309 21.1523 21.7338C21.1545 21.7369 21.1557 21.7414 21.1559 21.7453C21.1571 21.7575 21.1585 21.7699 21.1585 21.782C21.1571 21.8845 21.1551 21.9869 21.1534 22.0894C21.1416 22.8224 21.1301 23.5556 21.1186 24.2925Z" fill="#11401C"/>
<path d="M25.0355 5.10478C25.0905 5.04918 25.1385 5.00007 25.1943 4.94362C25.43 5.35032 25.6702 5.74037 25.9713 6.10389C25.9828 6.0624 25.9604 6.04378 25.9478 6.02374C25.7283 5.67743 25.5302 5.31871 25.3425 4.95435C25.3237 4.91794 25.3057 4.88125 25.2841 4.83863C25.3209 4.78755 25.3585 4.73505 25.4005 4.67635C25.4412 4.70655 25.4556 4.74521 25.4752 4.77852C25.8352 5.39068 26.2354 5.97491 26.6731 6.53317C26.7186 6.59131 26.7655 6.64804 26.8104 6.70674C26.8578 6.76884 26.9018 6.83375 26.9229 6.90995C26.9358 6.95681 26.9465 7.0062 26.9462 7.05446C26.9459 7.17949 26.864 7.26077 26.7394 7.26642C26.6552 7.27037 26.5786 7.24158 26.5051 7.20489C26.3678 7.13631 26.2497 7.04148 26.156 6.92011C26.021 6.74513 25.8855 6.57014 25.7606 6.38754C25.4853 5.98422 25.2566 5.55353 25.0355 5.10478Z" fill="#11401C"/>
<path d="M15.9168 6.09288C15.9522 6.09317 15.9637 6.06212 15.9797 6.04067C16.0774 5.90802 16.1781 5.77735 16.2687 5.64018C16.3888 5.45814 16.5002 5.27017 16.6156 5.08474C16.6369 5.05059 16.6588 5.017 16.6846 4.97721C16.7205 5.01164 16.75 5.03874 16.7783 5.06724C16.7983 5.08728 16.8159 5.1093 16.8314 5.12679C16.8302 5.14204 16.8319 5.15135 16.8288 5.15812C16.5698 5.68844 16.285 6.20352 15.9345 6.67937C15.8613 6.77871 15.7838 6.87524 15.7055 6.97063C15.6242 7.07026 15.5285 7.15493 15.4151 7.21618C15.3579 7.24722 15.2956 7.26952 15.2344 7.2921C15.208 7.30169 15.1783 7.30536 15.1499 7.30621C14.9992 7.31016 14.8993 7.20376 14.9195 7.05361C14.9277 6.9935 14.9482 6.93282 14.9748 6.87806C15.0034 6.81936 15.0416 6.76432 15.0826 6.71324C15.5748 6.09825 16.0221 5.45193 16.4197 4.77118C16.4318 4.75029 16.4466 4.7311 16.4657 4.70288C16.5182 4.75199 16.5508 4.80674 16.5898 4.86291C16.574 4.89706 16.5603 4.93064 16.5437 4.9631C16.3602 5.31843 16.1688 5.66897 15.9564 6.00765C15.9396 6.03446 15.9118 6.05789 15.9196 6.09571C15.8891 6.09627 15.8871 6.11687 15.8966 6.1434C15.9031 6.12647 15.9098 6.10954 15.9168 6.09288Z" fill="#11401C"/>
<path d="M25.5599 7.36435C25.6138 7.38072 25.6475 7.39512 25.6826 7.40048C25.7426 7.40951 25.8038 7.42052 25.8638 7.41713C25.9918 7.40979 26.0617 7.33246 26.0687 7.20291C26.0701 7.17864 26.069 7.15437 26.069 7.1301C26.1094 7.12473 26.1184 7.15889 26.1346 7.17921C26.5819 7.73972 27.1078 8.21755 27.6721 8.65445C27.8436 8.78738 28.0249 8.90564 28.2087 9.0205C28.2777 9.06341 28.3411 9.11562 28.4037 9.16783C28.4276 9.18759 28.4416 9.2192 28.4646 9.25166C28.4402 9.26831 28.4225 9.28891 28.4023 9.29258C28.3588 9.29992 28.3131 9.30443 28.2696 9.29964C28.0779 9.27903 27.8938 9.2271 27.7156 9.15316C27.4196 9.0301 27.151 8.85935 26.8915 8.67336C26.3959 8.31831 25.9722 7.88762 25.5886 7.41515C25.581 7.40556 25.5765 7.39399 25.5599 7.36435Z" fill="#11401C"/>
<path d="M16.3181 7.40556C16.2951 7.44027 16.2873 7.45495 16.2771 7.46737C15.8512 7.99091 15.3747 8.4597 14.8123 8.83536C14.5828 8.98861 14.3459 9.12719 14.0878 9.22738C13.9261 9.29004 13.7595 9.3304 13.5877 9.3527C13.5381 9.35919 13.4895 9.35834 13.4421 9.34084C13.4053 9.32729 13.3944 9.29568 13.4191 9.26238C13.4387 9.23613 13.46 9.20988 13.485 9.18956C13.5361 9.14836 13.588 9.10687 13.6441 9.07328C14.1939 8.74307 14.6751 8.32592 15.1356 7.88338C15.3466 7.68074 15.5403 7.46172 15.7238 7.23368C15.7412 7.21223 15.7597 7.19191 15.7911 7.15578C15.7953 7.20291 15.7967 7.22944 15.8001 7.25597C15.8155 7.37874 15.8868 7.45156 16.0094 7.45805C16.0698 7.46116 16.1315 7.45043 16.1918 7.44112C16.2278 7.43604 16.262 7.42193 16.3181 7.40556Z" fill="#11401C"/>
<path d="M16.5909 7.24892C16.5965 7.2619 16.6015 7.2715 16.6049 7.28166C16.6422 7.39963 16.7076 7.45269 16.8277 7.45438C16.8681 7.45495 16.9088 7.44564 16.9487 7.43745C16.9837 7.43039 17.0177 7.41854 17.0651 7.40528C17.0528 7.43124 17.0486 7.4462 17.0401 7.45777C16.6916 7.93503 16.3075 8.37955 15.847 8.75238C15.5997 8.95249 15.3351 9.12408 15.0424 9.25024C14.9139 9.30556 14.7829 9.35411 14.6448 9.3764C14.5766 9.38741 14.5062 9.38544 14.4366 9.38854C14.4245 9.3891 14.4119 9.38656 14.4001 9.38402C14.3622 9.37584 14.3445 9.34169 14.3639 9.3098C14.3788 9.28552 14.3959 9.26153 14.4172 9.24291C14.4478 9.21581 14.482 9.19238 14.5163 9.17009C15.2807 8.67138 15.9393 8.05639 16.505 7.33923C16.5294 7.3079 16.5479 7.26952 16.5909 7.24892Z" fill="#11401C"/>
<path d="M24.8256 7.36802C24.8604 7.3779 24.8943 7.38947 24.9294 7.39653C24.969 7.40471 25.0097 7.41374 25.0498 7.41346C25.1637 7.41233 25.2299 7.36266 25.2709 7.25428C25.2765 7.2396 25.2804 7.22408 25.2858 7.20658C25.3307 7.23114 25.3509 7.27319 25.3784 7.30791C25.8613 7.91838 26.4136 8.4566 27.045 8.91043C27.151 8.98664 27.2613 9.05748 27.3682 9.13283C27.4081 9.16078 27.4451 9.19323 27.4808 9.22654C27.5024 9.24658 27.5186 9.27677 27.5015 9.3033C27.4906 9.32024 27.4614 9.33435 27.4403 9.33435C27.3632 9.33407 27.2846 9.33548 27.2091 9.32165C26.9984 9.28355 26.8042 9.19803 26.6159 9.0984C26.2772 8.91947 25.9795 8.68465 25.7031 8.42076C25.3913 8.12328 25.1157 7.79391 24.8604 7.44705C24.8461 7.42757 24.8348 7.40556 24.8228 7.38467C24.8216 7.38242 24.8239 7.37818 24.8256 7.36802Z" fill="#11401C"/>
<path d="M18.2779 7.24497C18.2872 7.29436 18.2903 7.31891 18.2967 7.34234C18.3226 7.43886 18.3899 7.48712 18.4878 7.47527C18.5659 7.46567 18.6385 7.43745 18.7067 7.39794C18.741 7.37818 18.7746 7.35758 18.8187 7.33133C18.815 7.35504 18.8167 7.36746 18.8117 7.37592C18.5156 7.8831 18.1738 8.35415 17.7425 8.75549C17.529 8.9539 17.2865 9.10377 17.0143 9.20509C16.9142 9.24234 16.8114 9.27085 16.7037 9.2731C16.5942 9.27536 16.569 9.23641 16.6173 9.1382C16.6523 9.06707 16.7062 9.01063 16.7632 8.95644C17.0609 8.67279 17.346 8.37701 17.6177 8.06796C17.8242 7.83314 18.0206 7.59014 18.2064 7.33867C18.2249 7.3127 18.2448 7.28787 18.2779 7.24497Z" fill="#11401C"/>
<path d="M23.074 7.2921C23.1045 7.31044 23.1334 7.33161 23.1657 7.34629C23.2286 7.37479 23.2909 7.40725 23.3571 7.42447C23.4982 7.46144 23.5757 7.40386 23.5928 7.25964C23.5942 7.24751 23.5959 7.23537 23.599 7.21194C23.6181 7.22803 23.6349 7.23735 23.6453 7.25146C24.0847 7.856 24.589 8.40269 25.1258 8.91975C25.1724 8.96462 25.2123 9.01768 25.2499 9.07074C25.276 9.10743 25.2928 9.15061 25.272 9.19916C25.2375 9.22597 25.1968 9.22315 25.1561 9.22089C25.0742 9.21638 24.9951 9.19803 24.9173 9.17178C24.6513 9.08203 24.4117 8.94571 24.2001 8.76C23.9596 8.54861 23.7483 8.31012 23.5544 8.05554C23.3832 7.8306 23.2283 7.59465 23.0852 7.3508C23.077 7.33669 23.0703 7.32173 23.063 7.30734C23.0664 7.30226 23.0703 7.29718 23.074 7.2921Z" fill="#11401C"/>
<path d="M23.9301 7.3144C23.9587 7.32794 23.9862 7.34431 24.0157 7.35476C24.0772 7.37592 24.1386 7.40076 24.202 7.4112C24.3199 7.43039 24.4254 7.36859 24.4198 7.23001C24.4192 7.21533 24.4229 7.20009 24.4257 7.17554C24.4692 7.20235 24.4874 7.23989 24.511 7.2715C24.846 7.72251 25.2128 8.14529 25.6205 8.53139C25.7867 8.6886 25.9607 8.83733 26.131 8.99031C26.1644 9.02022 26.1981 9.05042 26.2284 9.08344C26.2474 9.10433 26.2629 9.12945 26.2752 9.15485C26.2937 9.19351 26.2794 9.23416 26.239 9.24347C26.1964 9.25335 26.1504 9.25956 26.1071 9.2542C26.0098 9.24262 25.9169 9.21186 25.8257 9.17461C25.6778 9.11392 25.5409 9.03349 25.4106 8.9412C25.0753 8.70384 24.7826 8.41934 24.5132 8.11001C24.3143 7.88169 24.1305 7.64094 23.9579 7.39201C23.9441 7.37197 23.9315 7.35109 23.9183 7.33077C23.922 7.3254 23.9259 7.32004 23.9301 7.3144Z" fill="#11401C"/>
<path d="M17.4644 7.19106C17.4644 7.24384 17.4628 7.26839 17.4647 7.29266C17.4729 7.39568 17.5273 7.44902 17.6297 7.45495C17.7097 7.45947 17.7827 7.43152 17.8551 7.40189C17.8851 7.38947 17.9145 7.37592 17.9446 7.36351C17.9465 7.36266 17.951 7.36774 17.9597 7.37395C17.951 7.39003 17.9435 7.4081 17.9328 7.42362C17.6339 7.85403 17.3064 8.2596 16.9226 8.61719C16.7629 8.76593 16.5951 8.90422 16.4144 9.02615C16.2606 9.13001 16.099 9.21807 15.9202 9.27028C15.8731 9.28411 15.8251 9.29484 15.7771 9.30443C15.7532 9.30923 15.7283 9.31092 15.7038 9.31036C15.6626 9.30923 15.618 9.30669 15.5975 9.26379C15.5767 9.22061 15.6011 9.18251 15.6286 9.15174C15.664 9.11195 15.7016 9.07357 15.7423 9.03942C16.3627 8.5201 16.9127 7.9339 17.3926 7.28109C17.4092 7.25823 17.4277 7.23678 17.4644 7.19106Z" fill="#11401C"/>
<path d="M20.6696 36.2274C20.6295 36.2003 20.6085 36.189 20.5908 36.1737C20.2945 35.9132 20.2428 35.5048 20.469 35.1814C20.5254 35.101 20.5939 35.0287 20.6593 34.9551C20.7221 34.8842 20.7889 34.8173 20.852 34.747C20.8821 34.7135 20.9093 34.6768 20.9351 34.6398C21.0434 34.4849 21.0712 34.3161 21.019 34.134C21.01 34.1027 21.0022 34.0711 20.9946 34.0426C21.0931 33.9085 21.3541 33.6249 21.4295 33.5696C21.4374 33.5783 21.4483 33.5862 21.4531 33.5967C21.6136 33.9562 21.6324 34.3209 21.4857 34.6892C21.4206 34.8529 21.3139 34.9881 21.1879 35.1089C21.0782 35.2141 20.9674 35.3186 20.8599 35.4258C20.8164 35.4693 20.7785 35.5187 20.7412 35.5675C20.6842 35.642 20.6581 35.7261 20.6629 35.8215C20.6682 35.9245 20.6677 36.0275 20.6694 36.1306C20.6699 36.1548 20.6696 36.1788 20.6696 36.2274Z" fill="#11401C"/>
<path d="M22.2377 7.34798C22.272 7.37677 22.3056 7.4064 22.3407 7.43435C22.4145 7.49333 22.4931 7.5447 22.5848 7.57123C22.616 7.58026 22.6485 7.58704 22.6805 7.58816C22.7734 7.59127 22.8259 7.55119 22.85 7.46172C22.8562 7.43914 22.8579 7.41544 22.8641 7.37734C22.8845 7.40161 22.8986 7.41487 22.909 7.43068C23.2524 7.94858 23.656 8.41539 24.096 8.85173C24.1479 8.9031 24.195 8.96095 24.2363 9.02135C24.2655 9.06397 24.2974 9.11816 24.2556 9.1684C24.2186 9.21299 24.1613 9.21581 24.1083 9.20142C24.0261 9.17884 23.9425 9.15739 23.8642 9.12437C23.6481 9.03405 23.4525 8.90789 23.2707 8.76029C22.9917 8.53393 22.7594 8.26468 22.5646 7.9641C22.4513 7.78912 22.3531 7.60425 22.2487 7.42334C22.2372 7.4033 22.2299 7.38044 22.2206 7.35899C22.2262 7.35532 22.2318 7.35165 22.2377 7.34798Z" fill="#11401C"/>
<path d="M19.0202 7.42221C19.0322 7.46878 19.0379 7.50039 19.0488 7.5303C19.0707 7.58986 19.1147 7.62655 19.1779 7.62824C19.2219 7.62937 19.268 7.62288 19.3106 7.61102C19.4153 7.58139 19.502 7.51817 19.5845 7.4493C19.6114 7.42672 19.6384 7.40386 19.6793 7.36971C19.6715 7.39935 19.6704 7.41064 19.6656 7.41995C19.4655 7.82496 19.2253 8.20287 18.9147 8.53196C18.6725 8.78879 18.3964 9.00047 18.0762 9.15118C17.983 9.19493 17.8882 9.23275 17.7863 9.25137C17.7451 9.25871 17.7052 9.26153 17.6651 9.24629C17.6247 9.23105 17.6039 9.20368 17.6134 9.16049C17.6213 9.12493 17.6328 9.08739 17.6533 9.05832C17.6912 9.00498 17.735 8.95531 17.7799 8.90733C17.9597 8.71484 18.1444 8.52688 18.3206 8.33101C18.5493 8.07671 18.7561 7.80464 18.9469 7.52014C18.9669 7.49108 18.9893 7.4637 19.0202 7.42221Z" fill="#11401C"/>
<path d="M25.1811 6.25686C25.1654 6.21961 25.1514 6.18151 25.1337 6.14538C25.0192 5.90971 24.9036 5.67461 24.7891 5.43923C24.7751 5.41016 24.7647 5.37939 24.7501 5.34355C24.7832 5.31589 24.8135 5.29049 24.8491 5.26057C24.8679 5.28287 24.8865 5.29867 24.8974 5.31843C25.1878 5.84565 25.5066 6.35593 25.8271 6.86508C25.8751 6.94128 25.9191 7.01974 25.9444 7.10723C25.9896 7.26416 25.9259 7.33387 25.7631 7.30536C25.6775 7.29041 25.5992 7.2571 25.5265 7.20997C25.4224 7.14223 25.334 7.05728 25.2678 6.95201C25.1483 6.7615 25.024 6.57325 24.9176 6.37512C24.7762 6.11208 24.6502 5.84085 24.5177 5.57301C24.5088 5.55494 24.502 5.53575 24.4928 5.51317C24.5354 5.46576 24.5896 5.4412 24.6513 5.41157C24.6735 5.44967 24.6942 5.48382 24.713 5.51882C24.8393 5.75336 24.9718 5.98394 25.1239 6.20239C25.139 6.22412 25.1457 6.25771 25.1834 6.2546C25.1848 6.26448 25.1864 6.27436 25.1881 6.28396C25.1912 6.28226 25.1946 6.28057 25.1977 6.27916C25.1926 6.27182 25.1867 6.26448 25.1811 6.25686Z" fill="#11401C"/>
<path d="M16.6751 6.31021C16.7012 6.31726 16.7118 6.29694 16.7225 6.28085C16.7823 6.19195 16.8446 6.10446 16.8993 6.01273C16.9922 5.85722 17.08 5.6986 17.1703 5.5414C17.1886 5.50979 17.2071 5.47874 17.2287 5.44177C17.2587 5.45701 17.284 5.46858 17.3079 5.48269C17.3325 5.49709 17.3558 5.51374 17.3845 5.53265C17.3808 5.54845 17.3797 5.56454 17.3735 5.57809C17.1566 6.05507 16.924 6.52329 16.631 6.95878C16.5614 7.06236 16.4823 7.15578 16.3799 7.22803C16.3018 7.28307 16.2185 7.32597 16.1234 7.34234C16.1113 7.34431 16.0992 7.34798 16.0872 7.34939C15.9508 7.36661 15.8905 7.30339 15.9216 7.17017C15.9337 7.11853 15.955 7.06801 15.9794 7.02087C16.0156 6.95173 16.0569 6.88484 16.0987 6.81879C16.3995 6.34125 16.6961 5.86145 16.9697 5.36726C16.9832 5.34271 17 5.32013 17.0197 5.29021C17.0573 5.31589 17.0901 5.33819 17.1277 5.36387C17.1176 5.39435 17.1117 5.42201 17.0996 5.44657C16.979 5.69493 16.8575 5.94245 16.7362 6.19054C16.7163 6.23118 16.6975 6.2721 16.6781 6.31303C16.6739 6.31867 16.6695 6.32375 16.6655 6.32968C16.6655 6.32968 16.6689 6.33391 16.6709 6.33617C16.6725 6.3277 16.6737 6.31895 16.6751 6.31021Z" fill="#11401C"/>
<path d="M21.0631 28.6765C20.9281 28.8588 20.7799 29.0188 20.6929 29.0781C20.6666 29.0617 20.6761 29.0349 20.6755 29.012C20.6637 28.5201 20.6528 28.0282 20.6413 27.5362C20.6371 27.3601 20.6334 27.1837 20.625 27.0076C20.6219 26.9421 20.6379 26.8896 20.6806 26.8397C20.7923 26.7084 20.9129 26.5868 21.0426 26.4739C21.0504 26.4671 21.0631 26.466 21.0833 26.4587C21.0906 26.6483 21.0821 26.8312 21.0796 27.0141C21.0771 27.1987 21.072 27.383 21.0692 27.5676C21.0664 27.7521 21.0639 27.9367 21.0628 28.121C21.0622 28.3053 21.0631 28.4899 21.0631 28.6765Z" fill="#11401C"/>
<path d="M24.4111 6.36581C24.4032 6.35677 24.3931 6.34887 24.3878 6.33871C24.2848 6.13409 24.1903 5.92524 24.101 5.70989C24.1431 5.65768 24.2093 5.65457 24.2632 5.61675C24.2795 5.63933 24.2963 5.65655 24.3064 5.67715C24.4192 5.90548 24.5567 6.11885 24.6968 6.33081C24.8096 6.50156 24.9199 6.67429 25.0293 6.8473C25.0776 6.9235 25.1174 7.00479 25.1393 7.09312C25.148 7.12869 25.155 7.16566 25.155 7.20179C25.155 7.28166 25.1051 7.32427 25.0262 7.30452C24.9636 7.28899 24.9016 7.26472 24.8447 7.23452C24.713 7.16453 24.6033 7.06603 24.5138 6.94693C24.4476 6.85859 24.3833 6.76827 24.323 6.6757C24.1501 6.41125 24.0079 6.12958 23.8732 5.84424C23.8664 5.83012 23.8631 5.8146 23.8572 5.79738C23.8979 5.76098 23.9472 5.75533 23.998 5.73586C24.0149 5.76013 24.0325 5.7813 24.046 5.80501C24.133 5.95798 24.2186 6.11179 24.3059 6.26477C24.3241 6.29666 24.3452 6.32742 24.3687 6.35508C24.3763 6.36383 24.3968 6.36101 24.4111 6.36411C24.4074 6.37089 24.4027 6.3771 24.4016 6.38359C24.401 6.38697 24.4074 6.39149 24.4105 6.39544C24.41 6.39177 24.4091 6.38838 24.4094 6.38472C24.4097 6.37907 24.4105 6.3723 24.4111 6.36581Z" fill="#11401C"/>
<path d="M17.4888 6.41266C17.5722 6.31416 17.6359 6.2038 17.6982 6.09288C17.7582 5.98592 17.8169 5.8781 17.8792 5.76493C17.9314 5.78384 17.9766 5.79992 18.0245 5.81742C18.022 5.83577 18.0234 5.8479 18.0189 5.8575C17.8615 6.19816 17.6892 6.53063 17.4745 6.83911C17.4299 6.90318 17.3833 6.9664 17.3337 7.02652C17.2383 7.14252 17.1232 7.23509 16.9879 7.29916C16.9402 7.32173 16.8883 7.33867 16.8367 7.34798C16.7713 7.35984 16.7236 7.31835 16.7239 7.25061C16.7242 7.20207 16.7295 7.15042 16.7472 7.10554C16.78 7.02172 16.8173 6.93818 16.8636 6.86085C16.9481 6.71973 17.039 6.582 17.1299 6.44483C17.2913 6.20126 17.4543 5.95854 17.5823 5.69437C17.589 5.68026 17.6005 5.6684 17.6137 5.64978C17.6707 5.67631 17.7254 5.70142 17.7852 5.72908C17.6934 5.96616 17.5829 6.18546 17.4888 6.41266Z" fill="#11401C"/>
<path d="M19.7478 7.5543C19.8295 7.65167 19.8295 7.65167 19.9692 7.68384C19.9717 7.70388 19.9765 7.72702 19.9771 7.75017C19.9799 7.86532 19.9779 7.98103 19.9852 8.0959C19.9903 8.17916 19.9673 8.2438 19.9131 8.30871C19.7195 8.54099 19.4989 8.74222 19.2506 8.91213C19.1563 8.97676 19.053 9.02813 18.9514 9.08119C18.9082 9.10377 18.8599 9.11675 18.8128 9.13029C18.7901 9.13679 18.7645 9.13707 18.7404 9.13594C18.716 9.13509 18.6958 9.10659 18.7022 9.08232C18.7084 9.05889 18.7157 9.03405 18.7289 9.01401C18.7581 8.96942 18.7892 8.92568 18.8232 8.88475C19.1552 8.48595 19.4532 8.06317 19.7108 7.61215C19.7212 7.59466 19.7329 7.578 19.7478 7.5543Z" fill="#11401C"/>
<path d="M21.9234 7.63643C22.0127 7.62401 22.096 7.61385 22.1322 7.50857C22.1538 7.53482 22.1712 7.55091 22.1824 7.57038C22.4423 8.02647 22.7459 8.45152 23.0796 8.8554C23.1205 8.90507 23.1525 8.96321 23.1828 9.02051C23.2005 9.05409 23.1753 9.08852 23.1374 9.08739C23.1093 9.08655 23.0799 9.08344 23.054 9.07328C22.9746 9.04195 22.8932 9.01373 22.8192 8.97224C22.4771 8.78032 22.1897 8.52293 21.9456 8.21585C21.922 8.18622 21.9058 8.15687 21.9077 8.11623C21.9145 7.96071 21.9181 7.8052 21.9234 7.63643Z" fill="#11401C"/>
<path d="M23.6599 6.45527C23.654 6.38274 23.6271 6.34605 23.6111 6.30569C23.5928 6.25997 23.5718 6.21566 23.5521 6.1705C23.5342 6.12929 23.5159 6.08809 23.4991 6.04631C23.4825 6.00539 23.4677 5.96362 23.4508 5.91874C23.5041 5.88431 23.5594 5.87697 23.6175 5.86681C23.631 5.89109 23.6442 5.91141 23.6543 5.93342C23.8159 6.27888 23.9961 6.61417 24.1939 6.94015C24.2298 6.99942 24.2582 7.06377 24.2843 7.12784C24.3042 7.17667 24.3272 7.2365 24.289 7.2794C24.2492 7.32427 24.1874 7.29972 24.1395 7.28222C24.0749 7.25851 24.0107 7.22916 23.9534 7.19134C23.8151 7.10046 23.7017 6.98531 23.6198 6.83798C23.4744 6.57635 23.3484 6.30512 23.2314 6.02994C23.2238 6.01188 23.2196 5.99241 23.2129 5.97011C23.2603 5.94273 23.3069 5.93511 23.3624 5.93681C23.4564 6.10191 23.5361 6.27634 23.6599 6.45527Z" fill="#11401C"/>
<path d="M18.2577 6.41604C18.2872 6.41266 18.2951 6.38669 18.3063 6.36637C18.3644 6.26222 18.4213 6.15752 18.4783 6.05281C18.4921 6.02769 18.5044 6.002 18.5159 5.97971C18.5959 5.96814 18.5959 5.9687 18.6745 6.00737C18.6702 6.02176 18.6672 6.03757 18.661 6.05196C18.5417 6.33673 18.4124 6.61643 18.2603 6.8854C18.1665 7.05164 18.0321 7.17469 17.8702 7.26924C17.8023 7.30875 17.7299 7.33697 17.6502 7.34008C17.5924 7.34234 17.5649 7.31383 17.5761 7.25597C17.5854 7.20799 17.5997 7.15973 17.6188 7.11486C17.6412 7.06208 17.6687 7.01099 17.6985 6.96188C17.8913 6.6455 18.065 6.31895 18.2235 5.98422C18.2359 5.95854 18.2493 5.93342 18.2617 5.90915C18.3411 5.91 18.3411 5.91 18.4323 5.9512C18.4258 5.97237 18.4211 5.99551 18.4121 6.01696C18.3677 6.12336 18.3217 6.22892 18.2782 6.33532C18.2678 6.36101 18.2642 6.38895 18.2577 6.41604C18.228 6.42423 18.2314 6.44624 18.2373 6.46882C18.2305 6.4708 18.2241 6.47277 18.2173 6.47475C18.2201 6.4787 18.2229 6.48293 18.2257 6.48688C18.2286 6.47983 18.2314 6.47277 18.2342 6.46572C18.2569 6.45612 18.2631 6.4389 18.2577 6.41604Z" fill="#11401C"/>
<path d="M22.9648 6.01301C22.9825 6.05365 22.9976 6.08696 23.0117 6.12083C23.1273 6.4008 23.2493 6.67739 23.3874 6.94693C23.4284 7.02736 23.4632 7.11034 23.4789 7.19981C23.4977 7.30536 23.4612 7.34205 23.3605 7.31101C23.3029 7.29323 23.2465 7.26585 23.1952 7.23396C23.0759 7.15973 22.9794 7.05954 22.9 6.94382C22.7235 6.68642 22.5902 6.4056 22.4681 6.11941C22.4622 6.1053 22.4636 6.08809 22.4608 6.06664C22.5329 6.05958 22.6011 6.05309 22.6744 6.04575C22.7653 6.20493 22.8309 6.37597 22.9485 6.51793C22.8876 6.36327 22.827 6.20888 22.7633 6.04744C22.8284 6.01696 22.8904 6.01047 22.9648 6.01301Z" fill="#11401C"/>
<path d="M18.9539 6.56958C19.0418 6.40758 19.1296 6.24557 19.2194 6.0799C19.2904 6.08668 19.3592 6.09317 19.4349 6.1005C19.429 6.1245 19.4271 6.14397 19.4198 6.16147C19.3117 6.41999 19.1891 6.67147 19.0395 6.90854C18.9688 7.02059 18.8866 7.12276 18.7845 7.20771C18.7146 7.26585 18.6394 7.31524 18.5527 7.34431C18.5097 7.35871 18.4665 7.37113 18.4185 7.34685C18.3938 7.2969 18.402 7.24384 18.418 7.19304C18.4379 7.13038 18.4584 7.06688 18.4881 7.00874C18.6383 6.7155 18.7704 6.41407 18.8959 6.10954C18.9037 6.09063 18.9133 6.07256 18.9234 6.05083C18.9899 6.03587 19.0513 6.05365 19.1212 6.07285C19.1133 6.10079 19.1088 6.12365 19.1007 6.1451C19.0575 6.2563 19.0132 6.36722 18.9688 6.47785C18.9565 6.50833 18.9394 6.53769 18.9565 6.57155C18.9478 6.57353 18.9394 6.57607 18.9312 6.57833C18.9332 6.58002 18.9371 6.58284 18.9371 6.58284C18.9433 6.57946 18.9486 6.57438 18.9539 6.56958Z" fill="#11401C"/>
<path d="M20.9474 40C20.939 39.7581 20.9286 39.5163 20.9222 39.2741C20.9045 38.6015 20.888 37.929 20.872 37.2564C20.8605 36.7695 20.8518 36.2824 20.8377 35.7956C20.8355 35.7191 20.8529 35.6592 20.9082 35.6081C20.9531 35.5664 20.996 35.5221 21.0375 35.4814C21.0788 35.4933 21.0673 35.5229 21.067 35.5446C21.0636 35.7467 21.0583 35.9491 21.0538 36.1512C21.0471 36.4484 21.0409 36.7453 21.0336 37.0425C21.0173 37.715 21.001 38.3876 20.9842 39.0602C20.9766 39.3613 20.9688 39.6624 20.9606 39.9639C20.9604 39.976 20.9581 39.9879 20.9567 40C20.9536 40 20.9505 40 20.9474 40Z" fill="#11401C"/>
<path d="M22.2543 6.65876C22.2408 6.62941 22.2245 6.60119 22.2139 6.57099C22.1698 6.44342 22.1269 6.31529 22.0848 6.18715C22.0761 6.16062 22.0719 6.1324 22.0646 6.10079C22.1235 6.0768 22.1791 6.08583 22.2417 6.08809C22.2565 6.12534 22.2725 6.1626 22.2866 6.20042C22.3977 6.5041 22.5189 6.80355 22.6558 7.09651C22.6923 7.17441 22.7263 7.25343 22.7378 7.3398C22.7406 7.36012 22.7451 7.38016 22.7454 7.40048C22.7462 7.45862 22.7156 7.48853 22.6615 7.47329C22.6034 7.45692 22.545 7.43519 22.4928 7.40556C22.3923 7.34855 22.3115 7.26698 22.24 7.17667C22.1252 7.03132 22.0421 6.86705 21.9627 6.70082C21.9526 6.67965 21.9467 6.65369 21.9473 6.63026C21.9498 6.47051 21.9546 6.31105 21.9591 6.15131C21.9591 6.14933 21.965 6.14764 21.9683 6.14538C21.9961 6.14566 21.9953 6.17078 22.0028 6.18772C22.0578 6.31105 22.1114 6.43495 22.1667 6.55772C22.1819 6.59103 22.2007 6.62292 22.2206 6.65369C22.2245 6.65989 22.2422 6.65679 22.2534 6.6582C22.2523 6.66808 22.2512 6.67796 22.2501 6.68784C22.2518 6.67824 22.2529 6.66864 22.2543 6.65876Z" fill="#11401C"/>
<path d="M19.6459 6.70928C19.7192 6.63308 19.7531 6.53684 19.7955 6.44568C19.8365 6.35734 19.8738 6.26702 19.9184 6.16372C19.9285 6.18828 19.9353 6.19788 19.9358 6.20747C19.9412 6.33956 19.9437 6.47136 19.9507 6.60345C19.9543 6.67146 19.9417 6.73327 19.9075 6.79254C19.8477 6.89584 19.7941 7.00309 19.7324 7.10526C19.6569 7.22973 19.5601 7.33613 19.4408 7.42052C19.3766 7.46596 19.3084 7.50349 19.2295 7.51591C19.1711 7.52494 19.1436 7.50236 19.1465 7.44168C19.1484 7.40104 19.1549 7.35927 19.1667 7.32032C19.1846 7.26133 19.2048 7.20263 19.2306 7.14675C19.3729 6.83996 19.5 6.52696 19.6156 6.20916C19.6255 6.18235 19.637 6.1561 19.6485 6.1276C19.7066 6.1101 19.7627 6.12083 19.8284 6.12478C19.8239 6.15244 19.8233 6.17558 19.8166 6.19675C19.7708 6.33786 19.7237 6.47842 19.6768 6.61925C19.6667 6.64945 19.6563 6.67937 19.6459 6.70928Z" fill="#11401C"/>
<path d="M20.9573 32.3771C20.9331 32.3481 20.9185 32.3334 20.907 32.3167C20.8579 32.2462 20.7928 32.1807 20.7662 32.1022C20.7395 32.0243 20.7493 31.9329 20.7468 31.8474C20.7378 31.5437 20.7305 31.2403 20.723 30.9366C20.7218 30.8875 20.7227 30.8384 20.7227 30.7856C20.8055 30.6863 20.8992 30.5962 20.9949 30.5107C21.0325 30.5231 21.0227 30.5519 21.0227 30.5739C21.021 30.8161 21.0193 31.0582 21.0156 31.3004C21.0109 31.6205 21.0047 31.9405 20.9988 32.2606C20.9982 32.2851 20.998 32.3102 20.9921 32.3337C20.9887 32.3466 20.9741 32.3571 20.9573 32.3771Z" fill="#11401C"/>
<path d="M21.4568 19.5707C21.4172 19.5896 21.3855 19.6049 21.3515 19.6212C21.3369 19.5177 21.397 17.1364 21.4166 17.0134C21.4425 17.0041 21.4714 16.9936 21.5019 16.9826C21.5081 17.0001 21.5157 17.0114 21.5154 17.0227C21.4963 17.868 21.4767 18.713 21.4568 19.5707Z" fill="#11401C"/>
<path d="M21.3849 35.1408C21.6818 35.4487 21.6035 36.0205 21.2491 36.2025C21.2292 36.1943 21.2331 36.176 21.2334 36.1608C21.2387 35.9011 21.2483 35.6417 21.248 35.3821C21.248 35.2991 21.2775 35.2404 21.3341 35.1885C21.349 35.1749 21.3633 35.1611 21.3849 35.1408Z" fill="#11401C"/>
<path d="M21.1211 28.5534C21.1385 27.8286 21.1559 27.1039 21.1733 26.3715C21.1921 26.3373 21.225 26.3099 21.2629 26.2913C21.2985 26.3074 21.2873 26.3353 21.2867 26.3568C21.2811 26.6193 21.2744 26.8815 21.2679 27.1439C21.2581 27.5455 21.246 27.9475 21.2398 28.3494C21.239 28.4394 21.1978 28.5012 21.1211 28.5534Z" fill="#11401C"/>
<path d="M21.0451 32.247C21.0283 32.1209 21.0516 30.8223 21.0754 30.4331C21.1026 30.4097 21.1327 30.3834 21.1604 30.3594C21.2011 30.3724 21.1885 30.4018 21.1882 30.4229C21.1818 30.7184 21.1736 31.0136 21.1666 31.3091C21.1607 31.5471 21.1568 31.785 21.1501 32.0229C21.1467 32.1355 21.143 32.1395 21.0451 32.247Z" fill="#11401C"/>
<path d="M23.3753 17.146C23.5361 17.3021 23.6582 17.4703 23.7545 17.6572C23.8863 17.9129 23.9582 18.1841 23.9531 18.4737C23.95 18.6557 23.9164 18.8324 23.8476 19.0015C23.727 19.2981 23.5485 19.5558 23.3282 19.7858C23.1233 19.9994 22.8935 20.1832 22.6528 20.3534C22.382 20.5447 22.1013 20.7203 21.814 20.8845C21.1896 21.2413 20.5633 21.5941 19.9375 21.948C19.921 21.9573 19.9033 21.9641 19.8775 21.959C19.9005 21.9404 19.9221 21.9198 19.9468 21.9037C20.2111 21.7326 20.4732 21.5588 20.7406 21.3928C21.06 21.1947 21.3852 21.0056 21.7054 20.8089C22.0332 20.6077 22.3533 20.3957 22.6547 20.1558C22.8598 19.9924 23.0535 19.8168 23.2263 19.6184C23.4216 19.394 23.5791 19.1468 23.6821 18.8657C23.7632 18.6447 23.778 18.4181 23.7469 18.1866C23.6997 17.8361 23.5855 17.5096 23.3933 17.2121C23.3868 17.2019 23.381 17.1912 23.3756 17.1802C23.3739 17.1771 23.3753 17.1726 23.3753 17.146Z" fill="#11401C"/>
<path d="M24.4111 6.36581C24.4105 6.37258 24.4097 6.37907 24.4094 6.38584C24.4094 6.38923 24.4103 6.3929 24.4105 6.39657C24.4074 6.39262 24.401 6.3881 24.4016 6.38472C24.4027 6.37794 24.4074 6.37258 24.4111 6.36581Z" fill="#11401C"/>
<path d="M36.7448 33.9272C35.7135 33.9272 34.7811 33.7494 33.9476 33.3938C33.1283 33.0383 32.4784 32.5263 31.9981 31.8578C31.5178 31.1894 31.2706 30.4001 31.2565 29.4899H34.435C34.4774 30.1014 34.6893 30.585 35.0707 30.9405C35.4663 31.2961 36.0031 31.4738 36.6812 31.4738C37.3734 31.4738 37.9173 31.3103 38.3129 30.9832C38.7084 30.6418 38.9062 30.201 38.9062 29.6605C38.9062 29.2196 38.772 28.857 38.5036 28.5725C38.2352 28.2881 37.8961 28.0676 37.4865 27.9112C37.0909 27.7405 36.5399 27.5556 35.8336 27.3565C34.873 27.0721 34.0889 26.7948 33.4815 26.5245C32.8881 26.2401 32.3725 25.8205 31.9345 25.2659C31.5107 24.697 31.2988 23.9432 31.2988 23.0046C31.2988 22.1228 31.5178 21.3548 31.9557 20.7006C32.3937 20.0464 33.0082 19.5486 33.7993 19.2073C34.5904 18.8517 35.4945 18.6739 36.5117 18.6739C38.0374 18.6739 39.2735 19.0508 40.22 19.8046C41.1807 20.5441 41.7104 21.5824 41.8093 22.9192H38.546C38.5177 22.4072 38.2988 21.9877 37.8891 21.6606C37.4935 21.3192 36.9638 21.1486 36.2998 21.1486C35.7206 21.1486 35.2544 21.2979 34.9012 21.5966C34.5622 21.8952 34.3926 22.329 34.3926 22.8979C34.3926 23.2961 34.5198 23.6303 34.7741 23.9006C35.0425 24.1566 35.3674 24.3699 35.7488 24.5406C36.1444 24.697 36.6953 24.8819 37.4017 25.0952C38.3623 25.3797 39.1464 25.6641 39.7538 25.9485C40.3613 26.233 40.884 26.6597 41.3219 27.2285C41.7599 27.7974 41.9788 28.5441 41.9788 29.4685C41.9788 30.265 41.774 31.0045 41.3643 31.6872C40.9546 32.3698 40.3542 32.9174 39.5631 33.3298C38.772 33.7281 37.8326 33.9272 36.7448 33.9272Z" fill="#11401C"/>
<path d="M48.5187 33.9698C47.3886 33.9698 46.3714 33.7209 45.4673 33.2232C44.5632 32.7112 43.8498 31.9929 43.3271 31.0685C42.8185 30.1441 42.5642 29.0774 42.5642 27.8685C42.5642 26.6597 42.8256 25.593 43.3483 24.6686C43.8851 23.7441 44.6126 23.033 45.5309 22.5352C46.4491 22.0232 47.4734 21.7672 48.6035 21.7672C49.7337 21.7672 50.7579 22.0232 51.6761 22.5352C52.5944 23.033 53.3149 23.7441 53.8376 24.6686C54.3744 25.593 54.6428 26.6597 54.6428 27.8685C54.6428 29.0774 54.3673 30.1441 53.8164 31.0685C53.2795 31.9929 52.5449 32.7112 51.6126 33.2232C50.6943 33.7209 49.663 33.9698 48.5187 33.9698ZM48.5187 31.3672C49.0556 31.3672 49.5571 31.2392 50.0233 30.9832C50.5036 30.713 50.885 30.3147 51.1676 29.7885C51.4501 29.2623 51.5914 28.6223 51.5914 27.8685C51.5914 26.745 51.2947 25.8845 50.7014 25.2872C50.1222 24.6757 49.4087 24.3699 48.5611 24.3699C47.7135 24.3699 47.0001 24.6757 46.4209 25.2872C45.8558 25.8845 45.5733 26.745 45.5733 27.8685C45.5733 28.9921 45.8487 29.8596 46.3997 30.4712C46.9648 31.0685 47.6711 31.3672 48.5187 31.3672Z" fill="#11401C"/>
<path d="M58.5407 17.9913V33.7778H55.574V17.9913H58.5407Z" fill="#11401C"/>
<path d="M65.1218 31.0258L68.0885 21.9592H71.2459L66.9018 33.7778H63.2994L58.9766 21.9592H62.1552L65.1218 31.0258Z" fill="#11401C"/>
<path d="M82.5803 27.6125C82.5803 28.0392 82.552 28.4232 82.4955 28.7645H73.9134C73.984 29.6179 74.2807 30.2863 74.8034 30.7698C75.3261 31.2534 75.9689 31.4952 76.7317 31.4952C77.8336 31.4952 78.6177 31.0187 79.0839 30.0659H82.2836C81.9446 31.2036 81.2947 32.1423 80.3341 32.8818C79.3735 33.6072 78.1939 33.9698 76.7953 33.9698C75.6651 33.9698 74.648 33.7209 73.7439 33.2232C72.8539 32.7112 72.1546 31.9929 71.646 31.0685C71.1516 30.1441 70.9043 29.0774 70.9043 27.8685C70.9043 26.6454 71.1516 25.5717 71.646 24.6472C72.1404 23.7228 72.8327 23.0117 73.7227 22.5139C74.6127 22.0161 75.6369 21.7672 76.7953 21.7672C77.9113 21.7672 78.9073 22.009 79.7831 22.4926C80.6731 22.9761 81.3583 23.6659 81.8386 24.5619C82.3331 25.4437 82.5803 26.4605 82.5803 27.6125ZM79.5077 26.7592C79.4935 25.9912 79.2181 25.3797 78.6812 24.9246C78.1444 24.4552 77.4875 24.2206 76.7105 24.2206C75.9759 24.2206 75.3543 24.4481 74.8458 24.9032C74.3513 25.3441 74.0476 25.9628 73.9346 26.7592H79.5077Z" fill="#11401C"/>
<path d="M99.6267 18.8873V33.7778H96.66V24.0926L92.6974 33.7778H90.4512L86.4674 24.0926V33.7778H83.5008V18.8873H86.87L91.5743 29.9592L96.2786 18.8873H99.6267Z" fill="#11401C"/>
<path d="M112.546 21.9592L105.277 39.3671H102.12L104.663 33.4792L99.9586 21.9592H103.286L106.316 30.2152L109.388 21.9592H112.546Z" fill="#11401C"/>
<path d="M121.97 30.9405H116.079L115.104 33.7778H111.989L117.308 18.8659H120.762L126.081 33.7778H122.944L121.97 30.9405ZM121.164 28.5512L119.024 22.3219L116.884 28.5512H121.164Z" fill="#11401C"/>
<path d="M129.79 17.9913V33.7778H126.824V17.9913H129.79Z" fill="#11401C"/>
<path d="M134.443 17.9913V33.7778H131.477V17.9913H134.443Z" fill="#11401C"/>
<path d="M147.042 27.6125C147.042 28.0392 147.014 28.4232 146.958 28.7645H138.375C138.446 29.6179 138.743 30.2863 139.265 30.7698C139.788 31.2534 140.431 31.4952 141.194 31.4952C142.296 31.4952 143.08 31.0187 143.546 30.0659H146.746C146.407 31.2036 145.757 32.1423 144.796 32.8818C143.836 33.6072 142.656 33.9698 141.257 33.9698C140.127 33.9698 139.11 33.7209 138.206 33.2232C137.316 32.7112 136.617 31.9929 136.108 31.0685C135.614 30.1441 135.366 29.0774 135.366 27.8685C135.366 26.6454 135.614 25.5717 136.108 24.6472C136.603 23.7228 137.295 23.0117 138.185 22.5139C139.075 22.0161 140.099 21.7672 141.257 21.7672C142.373 21.7672 143.369 22.009 144.245 22.4926C145.135 22.9761 145.82 23.6659 146.301 24.5619C146.795 25.4437 147.042 26.4605 147.042 27.6125ZM143.97 26.7592C143.956 25.9912 143.68 25.3797 143.143 24.9246C142.607 24.4552 141.95 24.2206 141.173 24.2206C140.438 24.2206 139.816 24.4481 139.308 24.9032C138.813 25.3441 138.51 25.9628 138.397 26.7592H143.97Z" fill="#11401C"/>
<path d="M150.93 23.7939C151.311 23.1681 151.805 22.6775 152.413 22.3219C153.034 21.9664 153.741 21.7886 154.532 21.7886V24.9246H153.748C152.815 24.9246 152.109 25.145 151.629 25.5859C151.163 26.0268 150.93 26.7948 150.93 27.8899V33.7778H147.963V21.9592H150.93V23.7939Z" fill="#11401C"/>
<path d="M159.883 21.7672C160.759 21.7672 161.529 21.945 162.193 22.3006C162.857 22.6419 163.38 23.0899 163.761 23.6446V21.9592H166.749V33.8632C166.749 34.9583 166.53 35.9325 166.092 36.7858C165.654 37.6534 164.997 38.336 164.122 38.8338C163.246 39.3458 162.186 39.6018 160.943 39.6018C159.276 39.6018 157.906 39.2107 156.832 38.4285C155.773 37.6462 155.172 36.5796 155.031 35.2285H157.976C158.132 35.7689 158.464 36.1956 158.972 36.5085C159.495 36.8356 160.124 36.9991 160.858 36.9991C161.72 36.9991 162.419 36.736 162.956 36.2098C163.493 35.6978 163.761 34.9156 163.761 33.8632V32.0285C163.38 32.5832 162.85 33.0454 162.172 33.4152C161.508 33.7849 160.745 33.9698 159.883 33.9698C158.895 33.9698 157.99 33.7138 157.171 33.2018C156.352 32.6898 155.702 31.9716 155.222 31.0472C154.755 30.1085 154.522 29.0347 154.522 27.8259C154.522 26.6312 154.755 25.5717 155.222 24.6472C155.702 23.7228 156.345 23.0117 157.15 22.5139C157.969 22.0161 158.88 21.7672 159.883 21.7672ZM163.761 27.8685C163.761 27.1432 163.62 26.5245 163.338 26.0125C163.055 25.4863 162.674 25.0881 162.193 24.8179C161.713 24.5334 161.197 24.3912 160.646 24.3912C160.095 24.3912 159.587 24.5263 159.121 24.7966C158.654 25.0668 158.273 25.465 157.976 25.9912C157.694 26.5032 157.553 27.1148 157.553 27.8259C157.553 28.537 157.694 29.1627 157.976 29.7032C158.273 30.2294 158.654 30.6347 159.121 30.9192C159.601 31.2036 160.11 31.3458 160.646 31.3458C161.197 31.3458 161.713 31.2107 162.193 30.9405C162.674 30.6561 163.055 30.2578 163.338 29.7459C163.62 29.2196 163.761 28.5939 163.761 27.8685Z" fill="#11401C"/>
<path d="M169.906 20.5513C169.384 20.5513 168.946 20.3877 168.592 20.0606C168.253 19.7193 168.084 19.2997 168.084 18.8019C168.084 18.3042 168.253 17.8917 168.592 17.5646C168.946 17.2233 169.384 17.0526 169.906 17.0526C170.429 17.0526 170.86 17.2233 171.199 17.5646C171.552 17.8917 171.729 18.3042 171.729 18.8019C171.729 19.2997 171.552 19.7193 171.199 20.0606C170.86 20.3877 170.429 20.5513 169.906 20.5513ZM171.368 21.9592V33.7778H168.402V21.9592H171.368Z" fill="#11401C"/>
<path d="M183.968 27.6125C183.968 28.0392 183.939 28.4232 183.883 28.7645H175.301C175.371 29.6179 175.668 30.2863 176.191 30.7698C176.713 31.2534 177.356 31.4952 178.119 31.4952C179.221 31.4952 180.005 31.0187 180.471 30.0659H183.671C183.332 31.2036 182.682 32.1423 181.721 32.8818C180.761 33.6072 179.581 33.9698 178.183 33.9698C177.052 33.9698 176.035 33.7209 175.131 33.2232C174.241 32.7112 173.542 31.9929 173.033 31.0685C172.539 30.1441 172.292 29.0774 172.292 27.8685C172.292 26.6454 172.539 25.5717 173.033 24.6472C173.528 23.7228 174.22 23.0117 175.11 22.5139C176 22.0161 177.024 21.7672 178.183 21.7672C179.299 21.7672 180.295 22.009 181.17 22.4926C182.06 22.9761 182.746 23.6659 183.226 24.5619C183.72 25.4437 183.968 26.4605 183.968 27.6125ZM180.895 26.7592C180.881 25.9912 180.605 25.3797 180.069 24.9246C179.532 24.4552 178.875 24.2206 178.098 24.2206C177.363 24.2206 176.742 24.4481 176.233 24.9032C175.739 25.3441 175.435 25.9628 175.322 26.7592H180.895Z" fill="#11401C"/>
<path d="M189.38 33.9698C188.42 33.9698 187.558 33.7992 186.795 33.4578C186.032 33.1023 185.425 32.6258 184.973 32.0285C184.535 31.4312 184.295 30.7698 184.252 30.0445H187.24C187.297 30.4996 187.516 30.8765 187.897 31.1752C188.293 31.4738 188.78 31.6232 189.359 31.6232C189.924 31.6232 190.362 31.5094 190.673 31.2818C190.998 31.0543 191.16 30.7627 191.16 30.4072C191.16 30.0232 190.963 29.7387 190.567 29.5539C190.186 29.3547 189.571 29.1414 188.724 28.9139C187.848 28.7005 187.127 28.4801 186.562 28.2525C186.011 28.025 185.531 27.6765 185.121 27.2072C184.726 26.7379 184.528 26.105 184.528 25.3085C184.528 24.6543 184.712 24.057 185.079 23.5166C185.46 22.9761 185.997 22.5495 186.689 22.2366C187.396 21.9237 188.222 21.7672 189.169 21.7672C190.567 21.7672 191.683 22.1228 192.517 22.8339C193.35 23.5308 193.809 24.4766 193.894 25.6712H191.055C191.012 25.2019 190.814 24.8321 190.461 24.5619C190.122 24.2774 189.663 24.1352 189.084 24.1352C188.547 24.1352 188.13 24.2348 187.834 24.4339C187.551 24.633 187.41 24.9103 187.41 25.2659C187.41 25.6641 187.608 25.9699 188.003 26.1832C188.399 26.3823 189.013 26.5885 189.847 26.8019C190.694 27.0152 191.394 27.2356 191.945 27.4632C192.495 27.6908 192.969 28.0463 193.364 28.5299C193.774 28.9992 193.986 29.625 194 30.4072C194 31.0898 193.809 31.7014 193.428 32.2418C193.061 32.7823 192.524 33.2089 191.817 33.5218C191.125 33.8205 190.313 33.9698 189.38 33.9698Z" fill="#11401C"/>
</svg>
