<svg width="165" height="42" viewBox="0 0 165 42" fill="none" xmlns="http://www.w3.org/2000/svg">
<path d="M75.2153 24.075C75.2345 24.2181 75.2257 24.3199 75.1889 24.3804C75.1518 24.4343 75.0513 24.4647 74.8874 24.4716L73.8255 24.5162C73.7271 24.5203 73.6313 24.5047 73.5378 24.4694C73.4444 24.434 73.357 24.3854 73.2755 24.3233C73.2007 24.2611 73.1351 24.1853 73.0788 24.096C73.029 24.0065 72.9985 23.9064 72.9873 23.7956L72.8637 22.5051L71.9886 22.5419L71.9745 23.8382C71.9705 24.0543 71.8896 24.2376 71.7318 24.3882C71.574 24.5388 71.4001 24.6181 71.21 24.6261L70.148 24.6707C69.9776 24.6779 69.8716 24.6562 69.8301 24.6056C69.7948 24.5481 69.7807 24.4473 69.7877 24.3031L70.464 11.8872C70.4702 11.7234 70.5081 11.6105 70.5778 11.5487C70.6474 11.4869 70.7641 11.4525 70.928 11.4457L72.9928 11.3589C73.1502 11.3523 73.2628 11.377 73.3309 11.433C73.4055 11.4888 73.4561 11.5979 73.4826 11.7604L75.2153 24.075ZM71.9943 20.8141L72.7121 20.7839L72.0533 13.5971L71.9943 20.8141Z" fill="#083A5E"/>
<path d="M7.26856 9.66921L6.08759 30.495C6.07353 30.8873 5.84859 31.0834 5.41276 31.0834H2.96647C2.55876 31.0834 2.34787 30.8873 2.33381 30.495L0.0140591 3.32269C-0.0140591 3.14057 -1.00559e-08 3.01448 0.0562364 2.94443C0.112473 2.87438 0.246034 2.83935 0.456921 2.83935H1.6168C1.89798 2.83935 2.15104 2.93042 2.37599 3.11255C2.61499 3.29468 2.74856 3.53985 2.77667 3.84807L4.2107 27.1747L5.68691 3.84807C5.71503 3.56787 5.8275 3.3367 6.02433 3.15457C6.23521 2.95844 6.46719 2.86037 6.72025 2.86037H7.81686C8.06993 2.86037 8.3019 2.95844 8.51279 3.15457C8.73773 3.3367 8.85724 3.56787 8.8713 3.84807L10.3686 27.2797L11.8026 3.84807C11.8307 3.53985 11.9573 3.29468 12.1822 3.11255C12.4212 2.93042 12.6813 2.83935 12.9625 2.83935H14.1224C14.3333 2.83935 14.4598 2.87438 14.502 2.94443C14.5582 3.01448 14.5793 3.14057 14.5652 3.32269L12.2455 30.495C12.2174 30.7472 12.133 30.9083 11.9924 30.9784C11.8518 31.0484 11.662 31.0834 11.423 31.0834L11.4019 31.0624V31.0834H9.12436C8.70259 31.0834 8.4917 30.8873 8.4917 30.495L7.26856 9.66921Z" fill="#083A5E"/>
<path d="M16.4474 31.0834C16.1943 31.0834 16.0327 31.0484 15.9624 30.9784C15.8921 30.9083 15.8569 30.7752 15.8569 30.5791V7.77786C15.8569 7.51167 15.9131 7.36457 16.0256 7.33655C16.1522 7.29452 16.4193 7.2735 16.827 7.2735H21.6774C22.0007 7.2735 22.1624 7.45563 22.1624 7.81989V8.21918C22.1624 8.68151 22.0499 9.03176 21.825 9.26992C21.6141 9.49408 21.3118 9.60616 20.9182 9.60616H18.5774V18.1803H21.2767C21.6001 18.1803 21.7617 18.3624 21.7617 18.7267V19.1469C21.7617 19.6933 21.593 20.0576 21.2556 20.2397C20.9322 20.4219 20.5456 20.5129 20.0957 20.5129H18.5774V28.7508H20.9182C21.7477 28.7508 22.1624 29.2131 22.1624 30.1378V30.5371C22.1624 30.9013 22.0007 31.0834 21.6774 31.0834H16.4474Z" fill="#083A5E"/>
<path d="M36.1732 30.5791C36.1732 30.7612 36.1381 30.8943 36.0678 30.9784C35.9975 31.0484 35.8639 31.0834 35.6671 31.0834H34.5494C34.2401 31.0834 33.98 30.9854 33.7691 30.7892C33.5582 30.5931 33.4528 30.3339 33.4528 30.0117V17.844H31.1119V30.0117C31.1119 30.3339 31.0065 30.5931 30.7956 30.7892C30.5847 30.9854 30.3246 31.0834 30.0153 31.0834H28.8976C28.7008 31.0834 28.5672 31.0484 28.4969 30.9784C28.4266 30.8943 28.3915 30.7612 28.3915 30.5791V3.32269C28.3915 3.14057 28.4196 3.01448 28.4758 2.94443C28.5321 2.87438 28.6656 2.83935 28.8765 2.83935H30.0575C30.3387 2.83935 30.5847 2.93742 30.7956 3.13356C31.0065 3.31569 31.1119 3.56787 31.1119 3.8901V15.5744H33.4528V3.8901C33.4528 3.56787 33.5582 3.31569 33.7691 3.13356C33.98 2.93742 34.226 2.83935 34.5072 2.83935H35.6882C35.899 2.83935 36.0326 2.87438 36.0888 2.94443C36.1451 3.01448 36.1732 3.14057 36.1732 3.32269V30.5791Z" fill="#083A5E"/>
<path d="M45.3257 30.6001C45.3538 30.7822 45.3397 30.9083 45.2835 30.9784C45.2273 31.0484 45.1007 31.0834 44.9039 31.0834H43.744C43.4628 31.0834 43.2028 30.9924 42.9637 30.8102C42.7247 30.6281 42.5982 30.3829 42.5841 30.0747L42.3733 26.8804H40.3909L40.2011 30.0747C40.173 30.3829 40.0395 30.6281 39.8004 30.8102C39.5755 30.9924 39.3224 31.0834 39.0413 31.0834H37.8814C37.6846 31.0834 37.558 31.0484 37.5018 30.9784C37.4455 30.9083 37.4245 30.7822 37.4385 30.6001L39.5263 7.86192C39.5544 7.65177 39.6106 7.50467 39.695 7.42061C39.7934 7.32254 39.9481 7.2735 40.159 7.2735H42.6263C43.02 7.2735 43.2379 7.46964 43.2801 7.86192L45.3257 30.6001ZM40.5175 24.8H42.2467L41.4032 11.0562L41.3821 11.1403L40.5175 24.8Z" fill="#083A5E"/>
<path d="M51.0697 30.495C51.0275 30.8873 50.8096 31.0834 50.416 31.0834H47.9486C47.5409 31.0834 47.33 30.8873 47.3159 30.495L45.2281 7.75685C45.2141 7.57472 45.2352 7.44863 45.2914 7.37858C45.3476 7.30853 45.4742 7.2735 45.671 7.2735H46.8309C47.1121 7.2735 47.3722 7.36457 47.6112 7.5467C47.8502 7.72883 47.9837 7.974 48.0118 8.28222L49.1717 26.9645L50.3527 8.28222C50.3808 7.974 50.5144 7.72883 50.7534 7.5467C50.9924 7.36457 51.2525 7.2735 51.5336 7.2735H52.6935C52.8904 7.2735 53.0169 7.30853 53.0731 7.37858C53.1294 7.44863 53.1434 7.57472 53.1153 7.75685L51.0697 30.495Z" fill="#083A5E"/>
<path d="M55.0001 31.0834C54.747 31.0834 54.5854 31.0484 54.5151 30.9784C54.4448 30.9083 54.4096 30.7752 54.4096 30.5791V7.77786C54.4096 7.51167 54.4659 7.36457 54.5783 7.33655C54.7049 7.29452 54.972 7.2735 55.3797 7.2735H60.2301C60.5534 7.2735 60.7151 7.45563 60.7151 7.81989V8.21918C60.7151 8.68151 60.6026 9.03176 60.3777 9.26992C60.1668 9.49408 59.8645 9.60616 59.4709 9.60616H57.1301V18.1803H59.8294C60.1528 18.1803 60.3144 18.3624 60.3144 18.7267V19.1469C60.3144 19.6933 60.1457 20.0576 59.8083 20.2397C59.485 20.4219 59.0983 20.5129 58.6484 20.5129H57.1301V28.7508H59.4709C60.3004 28.7508 60.7151 29.2131 60.7151 30.1378V30.5371C60.7151 30.9013 60.5534 31.0834 60.2301 31.0834H55.0001Z" fill="#083A5E"/>
<path d="M62.2045 3.30168C62.2045 3.16158 62.2397 3.0425 62.31 2.94443C62.3943 2.84636 62.5138 2.79732 62.6685 2.79732H63.9127C64.3204 2.79732 64.6508 2.9094 64.9039 3.13356C65.171 3.35772 65.2905 3.65193 65.2624 4.01619L64.7141 25.1152C64.6859 25.4795 64.5453 25.7737 64.2923 25.9978C64.0392 26.208 63.7159 26.313 63.3222 26.313H62.6685C62.5138 26.313 62.3943 26.264 62.31 26.1659C62.2397 26.0679 62.2045 25.9558 62.2045 25.8297V3.30168ZM63.4066 28.5616C63.983 28.5616 64.4048 28.6877 64.6719 28.9399C64.9531 29.1921 65.0937 29.5353 65.0937 29.9696C65.0937 30.404 64.9531 30.7472 64.6719 30.9994C64.4048 31.2516 63.983 31.3776 63.4066 31.3776C62.8442 31.3776 62.4224 31.2516 62.1412 30.9994C61.8741 30.7472 61.7406 30.404 61.7406 29.9696C61.7406 29.5353 61.8741 29.1921 62.1412 28.9399C62.4224 28.6877 62.8442 28.5616 63.4066 28.5616Z" fill="#083A5E"/>
<path d="M97.2328 29.5774C97.2328 29.9837 97.0289 30.1868 96.6212 30.1868H95.1028C94.7092 30.1868 94.5123 29.9837 94.5123 29.5774V20.9612L91.813 2.51012C91.7849 2.32799 91.7989 2.18789 91.8552 2.08982C91.9255 1.99175 92.066 1.94271 92.2769 1.94271H93.3314C93.6125 1.94271 93.8867 2.03378 94.1538 2.21591C94.421 2.39804 94.5686 2.64321 94.5967 2.95143L95.862 16.38L97.1273 2.95143C97.1554 2.64321 97.3031 2.39804 97.5702 2.21591C97.8373 2.03378 98.1115 1.94271 98.3926 1.94271H99.4471C99.8407 1.94271 100.002 2.13185 99.9321 2.51012L97.2328 20.9402V29.5774Z" fill="#F7951D"/>
<path d="M99.8478 9.33997C99.8478 8.90567 99.9321 8.48537 100.101 8.07908C100.27 7.67279 100.516 7.31553 100.839 7.00731C101.176 6.68509 101.584 6.43291 102.062 6.25078C102.554 6.05464 103.124 5.95657 103.77 5.95657C104.431 5.95657 105.007 6.05464 105.5 6.25078C105.992 6.43291 106.399 6.68509 106.723 7.00731C107.06 7.31553 107.306 7.67279 107.461 8.07908C107.629 8.48537 107.714 8.90567 107.714 9.33997V27.1817C107.714 27.588 107.637 27.9942 107.482 28.4005C107.327 28.7928 107.088 29.1501 106.765 29.4723C106.441 29.7945 106.034 30.0537 105.542 30.2498C105.05 30.46 104.466 30.5651 103.791 30.5651C103.117 30.5651 102.533 30.467 102.041 30.2709C101.549 30.0747 101.134 29.8155 100.797 29.4933C100.473 29.1711 100.234 28.8068 100.08 28.4005C99.9251 27.9942 99.8478 27.588 99.8478 27.1817V9.33997ZM102.568 27.1186C102.568 27.3988 102.667 27.651 102.863 27.8752C103.06 28.0853 103.377 28.1904 103.812 28.1904C104.234 28.1904 104.536 28.0853 104.719 27.8752C104.902 27.651 104.993 27.3988 104.993 27.1186V9.42403C104.993 9.14384 104.895 8.89866 104.698 8.68851C104.515 8.46435 104.206 8.35227 103.77 8.35227C103.348 8.35227 103.039 8.46435 102.842 8.68851C102.66 8.89866 102.568 9.14384 102.568 9.42403V27.1186Z" fill="#F7951D"/>
<path d="M112.49 27.1396C112.49 27.3778 112.575 27.616 112.743 27.8541C112.926 28.0783 113.243 28.1904 113.692 28.1904C114.128 28.1904 114.438 28.0853 114.62 27.8752C114.817 27.665 114.916 27.4198 114.916 27.1396V7.38558C114.916 7.09138 115.021 6.8462 115.232 6.65006C115.443 6.45392 115.689 6.35585 115.97 6.35585H117.13C117.327 6.35585 117.46 6.39088 117.531 6.46093C117.601 6.53098 117.636 6.66407 117.636 6.86021V27.2237C117.636 27.63 117.552 28.0363 117.383 28.4426C117.228 28.8488 116.989 29.2131 116.666 29.5353C116.343 29.8436 115.935 30.0957 115.443 30.2919C114.965 30.488 114.395 30.5861 113.735 30.5861C113.102 30.5861 112.54 30.495 112.048 30.3129C111.555 30.1308 111.141 29.8856 110.803 29.5774C110.466 29.2551 110.206 28.8979 110.023 28.5056C109.854 28.0993 109.77 27.672 109.77 27.2237V6.86021C109.77 6.66407 109.798 6.53098 109.854 6.46093C109.925 6.39088 110.058 6.35585 110.255 6.35585H111.415C111.696 6.35585 111.942 6.45392 112.153 6.65006C112.378 6.8462 112.49 7.09138 112.49 7.38558V27.1396Z" fill="#F7951D"/>
<path d="M132.261 29.6824C132.261 29.8646 132.226 29.9977 132.156 30.0817C132.085 30.1518 131.952 30.1868 131.755 30.1868H130.637C130.328 30.1868 130.068 30.0887 129.857 29.8926C129.646 29.6965 129.541 29.4373 129.541 29.115V16.9474H127.2V29.115C127.2 29.4373 127.094 29.6965 126.883 29.8926C126.673 30.0887 126.412 30.1868 126.103 30.1868H124.985C124.789 30.1868 124.655 30.1518 124.585 30.0817C124.514 29.9977 124.479 29.8646 124.479 29.6824V2.42606C124.479 2.24393 124.507 2.11784 124.564 2.04779C124.62 1.97774 124.753 1.94271 124.964 1.94271H126.145C126.426 1.94271 126.673 2.04078 126.883 2.23692C127.094 2.41905 127.2 2.67123 127.2 2.99346V14.6778H129.541V2.99346C129.541 2.67123 129.646 2.41905 129.857 2.23692C130.068 2.04078 130.314 1.94271 130.595 1.94271H131.776C131.987 1.94271 132.12 1.97774 132.177 2.04779C132.233 2.11784 132.261 2.24393 132.261 2.42606V29.6824Z" fill="#F7951D"/>
<path d="M141.414 29.7035C141.442 29.8856 141.428 30.0117 141.371 30.0817C141.315 30.1518 141.189 30.1868 140.992 30.1868H139.832C139.551 30.1868 139.291 30.0957 139.052 29.9136C138.813 29.7315 138.686 29.4863 138.672 29.1781L138.461 25.9838H136.479L136.289 29.1781C136.261 29.4863 136.127 29.7315 135.888 29.9136C135.663 30.0957 135.41 30.1868 135.129 30.1868H133.969C133.772 30.1868 133.646 30.1518 133.59 30.0817C133.533 30.0117 133.512 29.8856 133.526 29.7035L135.614 6.96529C135.642 6.75514 135.698 6.60803 135.783 6.52397C135.881 6.4259 136.036 6.37687 136.247 6.37687H138.714C139.108 6.37687 139.326 6.57301 139.368 6.96529L141.414 29.7035ZM136.605 23.9033H138.335L137.491 10.1596L137.47 10.2436L136.605 23.9033Z" fill="#F7951D"/>
<path d="M147.158 29.5984C147.115 29.9907 146.897 30.1868 146.504 30.1868H144.036C143.629 30.1868 143.418 29.9907 143.404 29.5984L141.316 6.86021C141.302 6.67808 141.323 6.55199 141.379 6.48194C141.435 6.41189 141.562 6.37687 141.759 6.37687H142.919C143.2 6.37687 143.46 6.46793 143.699 6.65006C143.938 6.83219 144.072 7.07737 144.1 7.38558L145.26 26.0679L146.441 7.38558C146.469 7.07737 146.602 6.83219 146.841 6.65006C147.08 6.46793 147.34 6.37687 147.621 6.37687H148.781C148.978 6.37687 149.105 6.41189 149.161 6.48194C149.217 6.55199 149.231 6.67808 149.203 6.86021L147.158 29.5984Z" fill="#F7951D"/>
<path d="M151.088 30.1868C150.835 30.1868 150.673 30.1518 150.603 30.0817C150.533 30.0117 150.497 29.8786 150.497 29.6824V6.88123C150.497 6.61504 150.554 6.46793 150.666 6.43991C150.793 6.39788 151.06 6.37687 151.468 6.37687H156.318C156.641 6.37687 156.803 6.559 156.803 6.92326V7.32254C156.803 7.78487 156.69 8.13512 156.466 8.37329C156.255 8.59745 155.952 8.70953 155.559 8.70953H153.218V17.2836H155.917C156.241 17.2836 156.402 17.4658 156.402 17.83V18.2503C156.402 18.7967 156.234 19.161 155.896 19.3431C155.573 19.5252 155.186 19.6163 154.736 19.6163H153.218V27.8541H155.559C156.388 27.8541 156.803 28.3165 156.803 29.2411V29.6404C156.803 30.0047 156.641 30.1868 156.318 30.1868H151.088Z" fill="#F7951D"/>
<path d="M158.292 2.40504C158.292 2.26494 158.327 2.14586 158.398 2.04779C158.482 1.94972 158.602 1.90068 158.756 1.90068H160.001C160.408 1.90068 160.739 2.01276 160.992 2.23692C161.259 2.46108 161.378 2.75529 161.35 3.11955L160.802 24.2186C160.774 24.5828 160.633 24.877 160.38 25.1012C160.127 25.3113 159.804 25.4164 159.41 25.4164H158.756C158.602 25.4164 158.482 25.3674 158.398 25.2693C158.327 25.1712 158.292 25.0592 158.292 24.9331V2.40504ZM159.494 27.665C160.071 27.665 160.493 27.7911 160.76 28.0433C161.041 28.2955 161.181 28.6387 161.181 29.073C161.181 29.5073 161.041 29.8506 160.76 30.1027C160.493 30.3549 160.071 30.481 159.494 30.481C158.932 30.481 158.51 30.3549 158.229 30.1027C157.962 29.8506 157.828 29.5073 157.828 29.073C157.828 28.6387 157.962 28.2955 158.229 28.0433C158.51 27.7911 158.932 27.665 159.494 27.665Z" fill="#F7951D"/>
<path d="M74.8379 25.4161C74.9502 25.4111 75.0211 25.422 75.0504 25.4487C75.0938 25.4748 75.118 25.5439 75.123 25.6558L75.1409 26.0547C75.1509 26.2787 75.0962 26.4704 74.9767 26.63C74.8712 26.789 74.7131 26.8731 74.5025 26.8825L69.383 27.1102C69.3128 27.1133 69.2419 27.1024 69.1705 27.0776C69.113 27.0521 69.0812 26.9693 69.0749 26.8294L69.0561 26.4095C69.0473 26.2136 69.096 26.0431 69.2021 25.8982C69.3216 25.7386 69.4867 25.6541 69.6973 25.6447L74.8379 25.4161Z" fill="#083A5E"/>
<path d="M83.7943 25.0178C83.9066 25.0128 83.9775 25.0236 84.0068 25.0504C84.0502 25.0765 84.0744 25.1455 84.0794 25.2575L84.0973 25.6564C84.1073 25.8803 84.0526 26.0721 83.9331 26.2317C83.8276 26.3906 83.6695 26.4748 83.4589 26.4842L78.3394 26.7118C78.2692 26.715 78.1983 26.7041 78.1269 26.6792C78.0694 26.6537 78.0376 26.571 78.0313 26.431L78.0125 26.0112C78.0037 25.8152 78.0524 25.6448 78.1585 25.4998C78.278 25.3402 78.4431 25.2558 78.6537 25.2464L83.7943 25.0178Z" fill="#083A5E"/>
<path d="M79.2998 25.2177C79.4122 25.2127 79.483 25.2235 79.5124 25.2503C79.5558 25.2764 79.58 25.3454 79.585 25.4574L79.6029 25.8563C79.6129 26.0802 79.5581 26.272 79.4386 26.4316C79.3332 26.5905 79.1751 26.6747 78.9644 26.684L73.845 26.9117C73.7747 26.9149 73.7039 26.904 73.6324 26.8791C73.575 26.8536 73.5431 26.7709 73.5369 26.6309L73.5181 26.2111C73.5093 26.0151 73.5579 25.8447 73.664 25.6997C73.7835 25.5401 73.9486 25.4557 74.1593 25.4463L79.2998 25.2177Z" fill="#083A5E"/>
<path d="M88.2562 24.8193C88.3686 24.8143 88.4394 24.8252 88.4688 24.8519C88.5122 24.878 88.5364 24.9471 88.5414 25.0591L88.5592 25.4579C88.5693 25.6819 88.5145 25.8736 88.395 26.0332C88.2896 26.1922 88.1315 26.2763 87.9208 26.2857L82.8014 26.5134C82.7311 26.5165 82.6603 26.5056 82.5888 26.4808C82.5314 26.4553 82.4995 26.3726 82.4933 26.2326L82.4744 25.8127C82.4657 25.6168 82.5143 25.4463 82.6204 25.3014C82.7399 25.1418 82.905 25.0573 83.1157 25.0479L88.2562 24.8193Z" fill="#083A5E"/>
<path d="M74.8379 9.27663C74.9502 9.27163 75.0211 9.2825 75.0504 9.30924C75.0938 9.33536 75.118 9.4044 75.123 9.51637L75.1409 9.91526C75.1509 10.1392 75.0962 10.331 74.9767 10.4905C74.8712 10.6495 74.7131 10.7336 74.5025 10.743L69.383 10.9707C69.3128 10.9738 69.2419 10.963 69.1705 10.9381C69.113 10.9126 69.0812 10.8299 69.0749 10.6899L69.0561 10.27C69.0473 10.0741 69.096 9.90364 69.2021 9.75868C69.3216 9.5991 69.4867 9.51463 69.6973 9.50526L74.8379 9.27663Z" fill="#083A5E"/>
<path d="M83.7943 8.87828C83.9066 8.87329 83.9775 8.88416 84.0068 8.9109C84.0502 8.93702 84.0744 9.00606 84.0794 9.11803L84.0973 9.51692C84.1073 9.74085 84.0526 9.93261 83.9331 10.0922C83.8276 10.2511 83.6695 10.3353 83.4589 10.3447L78.3394 10.5724C78.2692 10.5755 78.1983 10.5646 78.1269 10.5397C78.0694 10.5143 78.0376 10.4315 78.0313 10.2916L78.0125 9.87169C78.0037 9.67574 78.0524 9.50529 78.1585 9.36033C78.278 9.20076 78.4431 9.11628 78.6537 9.10691L83.7943 8.87828Z" fill="#083A5E"/>
<path d="M79.2998 9.07818C79.4122 9.07318 79.483 9.08405 79.5124 9.1108C79.5558 9.13691 79.58 9.20595 79.585 9.31792L79.6029 9.71681C79.6129 9.94075 79.5581 10.1325 79.4386 10.2921C79.3332 10.451 79.1751 10.5352 78.9644 10.5446L73.845 10.7723C73.7747 10.7754 73.7039 10.7645 73.6324 10.7396C73.575 10.7141 73.5431 10.6314 73.5369 10.4915L73.5181 10.0716C73.5093 9.87564 73.5579 9.70519 73.664 9.56023C73.7835 9.40065 73.9486 9.31618 74.1593 9.30681L79.2998 9.07818Z" fill="#083A5E"/>
<path d="M88.2562 8.67983C88.3686 8.67484 88.4394 8.68571 88.4688 8.71245C88.5122 8.73857 88.5364 8.80761 88.5414 8.91958L88.5592 9.31847C88.5693 9.5424 88.5145 9.73416 88.395 9.89374C88.2896 10.0527 88.1315 10.1369 87.9208 10.1462L82.8014 10.3739C82.7311 10.377 82.6603 10.3662 82.5888 10.3413C82.5314 10.3158 82.4995 10.2331 82.4933 10.0931L82.4744 9.67324C82.4657 9.47729 82.5143 9.30684 82.6204 9.16188C82.7399 9.00231 82.905 8.91783 83.1157 8.90846L88.2562 8.67983Z" fill="#083A5E"/>
<path d="M5.79957 31.8007C5.87455 31.8007 5.93454 31.8232 5.97953 31.868C6.02451 31.9078 6.04701 31.9676 6.04701 32.0473V32.2416C6.04701 32.4508 5.99702 32.6127 5.89705 32.7273C5.79707 32.8369 5.6546 32.8917 5.46965 32.8917H5.05725V41.5816C5.05725 41.6812 5.03725 41.7509 4.99726 41.7908C4.95727 41.8257 4.88979 41.8431 4.79481 41.8431H4.0075C3.91252 41.8431 3.84504 41.8257 3.80505 41.7908C3.77006 41.7509 3.75256 41.6812 3.75256 41.5816V32.8917H3.29517C3.11022 32.8917 2.96775 32.8369 2.86778 32.7273C2.7678 32.6127 2.71781 32.4508 2.71781 32.2416V32.0473C2.71781 31.9676 2.74031 31.9078 2.7853 31.868C2.83029 31.8232 2.89027 31.8007 2.96525 31.8007H5.79957Z" fill="#F7951D"/>
<path d="M8.47755 41.8431C8.37257 41.8431 8.30259 41.8281 8.2676 41.7983C8.2376 41.7634 8.22261 41.6986 8.22261 41.604V33.6164C8.22261 33.5517 8.22761 33.5044 8.23761 33.4745C8.2526 33.4396 8.27759 33.4147 8.31259 33.3997C8.34758 33.3848 8.39257 33.3773 8.44755 33.3773C8.50754 33.3773 8.58252 33.3773 8.6725 33.3773H10.682C10.757 33.3773 10.817 33.3997 10.862 33.4446C10.907 33.4844 10.9295 33.5442 10.9295 33.6239V33.8182C10.9295 34.0274 10.8795 34.1893 10.7795 34.3039C10.6795 34.4134 10.537 34.4682 10.3521 34.4682H9.5198V37.1283H10.4871C10.562 37.1283 10.622 37.1507 10.667 37.1955C10.712 37.2354 10.7345 37.2951 10.7345 37.3748V37.5691C10.7345 37.8032 10.672 37.9701 10.547 38.0697C10.4221 38.1694 10.2621 38.2192 10.0672 38.2192H9.5198V40.7522H10.3521C10.737 40.7522 10.9295 40.9689 10.9295 41.4022V41.5965C10.9295 41.6762 10.907 41.7385 10.862 41.7833C10.817 41.8232 10.757 41.8431 10.682 41.8431H8.47755Z" fill="#F7951D"/>
<path d="M14.9027 33.2204C15.1627 33.2204 15.3951 33.2603 15.6001 33.34C15.81 33.4147 15.9875 33.5168 16.1324 33.6463C16.2824 33.7758 16.3974 33.9278 16.4774 34.1021C16.5573 34.2765 16.5973 34.4608 16.5973 34.655V36.9788C16.5973 37.1183 16.5224 37.188 16.3724 37.188H15.7425C15.6426 37.188 15.5426 37.1606 15.4426 37.1059C15.3476 37.0461 15.3001 36.9589 15.3001 36.8443V34.7073C15.3001 34.6177 15.2627 34.5355 15.1877 34.4608C15.1127 34.3861 15.0102 34.3487 14.8803 34.3487C14.7503 34.3487 14.6478 34.3861 14.5728 34.4608C14.5028 34.5355 14.4679 34.6177 14.4679 34.7073V40.5131C14.4679 40.6027 14.5028 40.6849 14.5728 40.7597C14.6478 40.8344 14.7503 40.8717 14.8803 40.8717C15.0252 40.8717 15.1302 40.8344 15.1952 40.7597C15.2602 40.68 15.2927 40.5978 15.2927 40.5131V38.4508C15.2927 38.3362 15.3401 38.2516 15.4351 38.1968C15.5351 38.137 15.6351 38.1071 15.735 38.1071H16.3649C16.5199 38.1071 16.5973 38.1743 16.5973 38.3088V40.5654C16.5973 40.7646 16.5548 40.9514 16.4699 41.1258C16.3899 41.3001 16.2724 41.4521 16.1175 41.5816C15.9675 41.7111 15.785 41.8132 15.5701 41.8879C15.3551 41.9626 15.1177 42 14.8578 42C14.6028 42 14.3704 41.9626 14.1604 41.8879C13.9505 41.8132 13.773 41.7111 13.6281 41.5816C13.4831 41.4521 13.3706 41.3001 13.2906 41.1258C13.2107 40.9514 13.1707 40.7646 13.1707 40.5654V34.655C13.1707 34.4558 13.2107 34.269 13.2906 34.0946C13.3756 33.9203 13.4931 33.7684 13.643 33.6389C13.793 33.5093 13.973 33.4072 14.1829 33.3325C14.3979 33.2578 14.6378 33.2204 14.9027 33.2204Z" fill="#F7951D"/>
<path d="M22.433 41.604C22.433 41.6936 22.418 41.7584 22.388 41.7983C22.358 41.8331 22.2955 41.8506 22.2005 41.8506H21.6082C21.4832 41.8506 21.3732 41.8057 21.2783 41.7161C21.1833 41.6264 21.1358 41.5168 21.1358 41.3873V38.137H20.356V41.3798C20.356 41.5093 20.3085 41.6189 20.2135 41.7086C20.1185 41.7983 20.0086 41.8431 19.8836 41.8431H19.2912C19.1963 41.8431 19.1338 41.8257 19.1038 41.7908C19.0738 41.7559 19.0588 41.6936 19.0588 41.604V33.6164C19.0588 33.5268 19.0738 33.4645 19.1038 33.4296C19.1338 33.3948 19.1963 33.3773 19.2912 33.3773H19.8836C20.0136 33.3773 20.1235 33.4222 20.2135 33.5118C20.3085 33.6015 20.356 33.7161 20.356 33.8555V37.076H21.1358V33.8406C21.1358 33.7111 21.1833 33.6015 21.2783 33.5118C21.3732 33.4222 21.4832 33.3773 21.6082 33.3773H22.2005C22.2955 33.3773 22.358 33.3948 22.388 33.4296C22.418 33.4645 22.433 33.5268 22.433 33.6164V41.604Z" fill="#F7951D"/>
<path d="M28.2518 41.5965C28.2518 41.6862 28.2318 41.7509 28.1918 41.7908C28.1568 41.8257 28.0968 41.8431 28.0118 41.8431H27.4345C27.2895 41.8431 27.177 41.7883 27.0971 41.6787C27.0221 41.5691 26.9671 41.4421 26.9321 41.2976L25.9198 36.8144L26.1748 41.3649C26.1848 41.5044 26.1398 41.6189 26.0398 41.7086C25.9448 41.7983 25.8299 41.8431 25.6949 41.8431H25.125C25.035 41.8431 24.9701 41.8257 24.9301 41.7908C24.8951 41.7509 24.8776 41.6862 24.8776 41.5965V33.609C24.8776 33.5243 24.8901 33.4645 24.9151 33.4296C24.9401 33.3948 25.0026 33.3773 25.1025 33.3773H25.7099C25.8149 33.3773 25.9123 33.4296 26.0023 33.5342C26.0973 33.6389 26.1648 33.7783 26.2048 33.9527L27.217 38.3761L26.9546 33.8481C26.9446 33.7136 26.9871 33.6015 27.0821 33.5118C27.182 33.4222 27.2945 33.3773 27.4195 33.3773H28.0268C28.1268 33.3773 28.1893 33.3948 28.2143 33.4296C28.2393 33.4645 28.2518 33.5243 28.2518 33.609V41.5965Z" fill="#F7951D"/>
<path d="M30.7254 34.655C30.7254 34.4658 30.7629 34.2839 30.8379 34.1096C30.9179 33.9352 31.0304 33.7833 31.1753 33.6538C31.3253 33.5193 31.5052 33.4122 31.7152 33.3325C31.9251 33.2528 32.1651 33.2129 32.435 33.2129C32.7099 33.2129 32.9524 33.2528 33.1623 33.3325C33.3773 33.4072 33.5572 33.5118 33.7022 33.6463C33.8472 33.7758 33.9571 33.9278 34.0321 34.1021C34.1121 34.2765 34.1521 34.4608 34.1521 34.655V40.543C34.1521 40.7273 34.1146 40.9066 34.0396 41.0809C33.9646 41.2553 33.8547 41.4097 33.7097 41.5442C33.5647 41.6787 33.3848 41.7858 33.1698 41.8655C32.9599 41.9502 32.7174 41.9925 32.4425 41.9925C32.1626 41.9925 31.9151 41.9502 31.7002 41.8655C31.4902 41.7858 31.3128 41.6787 31.1678 41.5442C31.0229 41.4097 30.9129 41.2553 30.8379 41.0809C30.7629 40.9066 30.7254 40.7273 30.7254 40.543V34.655ZM32.0226 40.5056C32.0226 40.6052 32.0601 40.6924 32.1351 40.7671C32.2101 40.8369 32.315 40.8717 32.45 40.8717C32.58 40.8717 32.6775 40.8319 32.7424 40.7522C32.8124 40.6725 32.8474 40.5903 32.8474 40.5056V34.6999C32.8474 34.6102 32.8124 34.528 32.7424 34.4533C32.6725 34.3786 32.57 34.3412 32.435 34.3412C32.305 34.3412 32.2026 34.3786 32.1276 34.4533C32.0576 34.528 32.0226 34.6102 32.0226 34.6999V40.5056Z" fill="#F7951D"/>
<path d="M36.8385 41.8431C36.7485 41.8431 36.6885 41.8257 36.6586 41.7908C36.6286 41.7509 36.6136 41.6862 36.6136 41.5965V33.6164C36.6136 33.5268 36.6286 33.4645 36.6586 33.4296C36.6885 33.3948 36.751 33.3773 36.846 33.3773H37.4384C37.5683 33.3773 37.6783 33.4222 37.7683 33.5118C37.8633 33.6015 37.9108 33.7161 37.9108 33.8555V40.7522H38.7131C38.893 40.7522 39.0305 40.8095 39.1255 40.924C39.2254 41.0336 39.2754 41.193 39.2754 41.4022V41.5965C39.2754 41.7609 39.1954 41.8431 39.0355 41.8431H36.8385Z" fill="#F7951D"/>
<path d="M41.4492 34.655C41.4492 34.4658 41.4866 34.2839 41.5616 34.1096C41.6416 33.9352 41.7541 33.7833 41.899 33.6538C42.049 33.5193 42.229 33.4122 42.4389 33.3325C42.6489 33.2528 42.8888 33.2129 43.1587 33.2129C43.4337 33.2129 43.6761 33.2528 43.8861 33.3325C44.101 33.4072 44.281 33.5118 44.4259 33.6463C44.5709 33.7758 44.6809 33.9278 44.7558 34.1021C44.8358 34.2765 44.8758 34.4608 44.8758 34.655V40.543C44.8758 40.7273 44.8383 40.9066 44.7633 41.0809C44.6884 41.2553 44.5784 41.4097 44.4334 41.5442C44.2885 41.6787 44.1085 41.7858 43.8936 41.8655C43.6836 41.9502 43.4412 41.9925 43.1662 41.9925C42.8863 41.9925 42.6389 41.9502 42.4239 41.8655C42.214 41.7858 42.0365 41.6787 41.8915 41.5442C41.7466 41.4097 41.6366 41.2553 41.5616 41.0809C41.4866 40.9066 41.4492 40.7273 41.4492 40.543V34.655ZM42.7463 40.5056C42.7463 40.6052 42.7838 40.6924 42.8588 40.7671C42.9338 40.8369 43.0388 40.8717 43.1737 40.8717C43.3037 40.8717 43.4012 40.8319 43.4662 40.7522C43.5361 40.6725 43.5711 40.5903 43.5711 40.5056V34.6999C43.5711 34.6102 43.5361 34.528 43.4662 34.4533C43.3962 34.3786 43.2937 34.3412 43.1587 34.3412C43.0288 34.3412 42.9263 34.3786 42.8513 34.4533C42.7813 34.528 42.7463 34.6102 42.7463 34.6999V40.5056Z" fill="#F7951D"/>
<path d="M49.0694 33.2129C49.3243 33.2179 49.5567 33.2578 49.7667 33.3325C49.9766 33.4072 50.1541 33.5118 50.2991 33.6463C50.444 33.7758 50.5565 33.9278 50.6365 34.1021C50.7165 34.2715 50.7565 34.4558 50.7565 34.655V36.5604C50.7565 36.6301 50.739 36.6824 50.704 36.7173C50.674 36.7522 50.6165 36.7696 50.5315 36.7696H49.9017C49.8017 36.7696 49.7042 36.7422 49.6092 36.6874C49.5143 36.6326 49.4668 36.5479 49.4668 36.4334V34.7073C49.4668 34.6127 49.4293 34.528 49.3543 34.4533C49.2793 34.3786 49.1768 34.3412 49.0469 34.3412C48.9169 34.3412 48.8144 34.3786 48.7394 34.4533C48.6695 34.528 48.6345 34.6127 48.6345 34.7073V40.5131C48.6345 40.6027 48.6695 40.6849 48.7394 40.7597C48.8094 40.8344 48.9119 40.8717 49.0469 40.8717C49.1918 40.8717 49.2968 40.8344 49.3618 40.7597C49.4268 40.68 49.4593 40.5978 49.4593 40.5131V38.7049H49.4293C49.2493 38.7049 49.1269 38.6501 49.0619 38.5405C49.0019 38.4259 48.9719 38.264 48.9719 38.0548V37.7559C48.9719 37.6712 48.9944 37.609 49.0394 37.5691C49.0844 37.5293 49.1418 37.5093 49.2118 37.5093H50.539C50.684 37.5093 50.7565 37.5816 50.7565 37.726V40.5654C50.7565 40.7646 50.714 40.9514 50.629 41.1258C50.549 41.3001 50.434 41.4521 50.2841 41.5816C50.1341 41.7111 49.9517 41.8132 49.7367 41.8879C49.5218 41.9626 49.2843 42 49.0244 42C48.7644 42 48.5295 41.9626 48.3195 41.8879C48.1146 41.8132 47.9371 41.7111 47.7872 41.5816C47.6422 41.4521 47.5297 41.3001 47.4498 41.1258C47.3748 40.9514 47.3373 40.7646 47.3373 40.5654V34.655C47.3373 34.4558 47.3773 34.269 47.4573 34.0946C47.5422 33.9203 47.6597 33.7684 47.8097 33.6389C47.9596 33.5044 48.1396 33.3997 48.3495 33.325C48.5645 33.2503 48.8044 33.2129 49.0694 33.2129Z" fill="#F7951D"/>
<path d="M54.5376 41.5741C54.5376 41.6737 54.5176 41.7435 54.4776 41.7833C54.4376 41.8232 54.3702 41.8431 54.2752 41.8431H53.5029C53.4079 41.8431 53.3404 41.8232 53.3004 41.7833C53.2604 41.7435 53.2404 41.6737 53.2404 41.5741V33.8481C53.2404 33.7136 53.2879 33.6015 53.3829 33.5118C53.4779 33.4222 53.5878 33.3773 53.7128 33.3773H54.3127C54.4126 33.3773 54.4751 33.3948 54.5001 33.4296C54.5251 33.4595 54.5376 33.5168 54.5376 33.6015V41.5741Z" fill="#F7951D"/>
<path d="M57.2334 41.8431C57.1284 41.8431 57.0584 41.8281 57.0235 41.7983C56.9935 41.7634 56.9785 41.6986 56.9785 41.604V33.6164C56.9785 33.5517 56.9835 33.5044 56.9935 33.4745C57.0085 33.4396 57.0334 33.4147 57.0684 33.3997C57.1034 33.3848 57.1484 33.3773 57.2034 33.3773C57.2634 33.3773 57.3384 33.3773 57.4284 33.3773H59.4379C59.5128 33.3773 59.5728 33.3997 59.6178 33.4446C59.6628 33.4844 59.6853 33.5442 59.6853 33.6239V33.8182C59.6853 34.0274 59.6353 34.1893 59.5353 34.3039C59.4354 34.4134 59.2929 34.4682 59.108 34.4682H58.2757V37.1283H59.2429C59.3179 37.1283 59.3779 37.1507 59.4229 37.1955C59.4679 37.2354 59.4904 37.2951 59.4904 37.3748V37.5691C59.4904 37.8032 59.4279 37.9701 59.3029 38.0697C59.1779 38.1694 59.018 38.2192 58.823 38.2192H58.2757V40.7522H59.108C59.4929 40.7522 59.6853 40.9689 59.6853 41.4022V41.5965C59.6853 41.6762 59.6628 41.7385 59.6178 41.7833C59.5728 41.8232 59.5128 41.8431 59.4379 41.8431H57.2334Z" fill="#F7951D"/>
<path d="M63.6211 42C63.3562 42 63.1187 41.9626 62.9088 41.8879C62.6988 41.8132 62.5189 41.7111 62.3689 41.5816C62.2239 41.4521 62.1115 41.3001 62.0315 41.1258C61.9515 40.9514 61.9115 40.7646 61.9115 40.5654V39.0635C61.9115 38.924 61.9865 38.8543 62.1365 38.8543H62.7663C62.8163 38.8543 62.8663 38.8618 62.9163 38.8767C62.9713 38.8917 63.0188 38.9141 63.0587 38.944C63.1037 38.9689 63.1387 39.0037 63.1637 39.0486C63.1937 39.0884 63.2087 39.1357 63.2087 39.1905V40.5131C63.2087 40.6027 63.2437 40.6849 63.3137 40.7597C63.3887 40.8344 63.4911 40.8717 63.6211 40.8717C63.7511 40.8717 63.851 40.8344 63.921 40.7597C63.996 40.6849 64.0335 40.6027 64.0335 40.5131C64.0335 40.0847 63.981 39.7186 63.876 39.4147C63.7711 39.1059 63.6386 38.8269 63.4786 38.5778C63.3237 38.3238 63.1537 38.0797 62.9688 37.8456C62.7888 37.6065 62.6188 37.3425 62.4589 37.0536C62.3039 36.7646 62.174 36.4309 62.069 36.0523C61.964 35.6687 61.9115 35.2055 61.9115 34.6625C61.9115 34.4633 61.9515 34.2765 62.0315 34.1021C62.1115 33.9228 62.2239 33.7684 62.3689 33.6389C62.5139 33.5093 62.6913 33.4072 62.9013 33.3325C63.1112 33.2578 63.3437 33.2204 63.5986 33.2204C63.8586 33.2204 64.096 33.2578 64.3109 33.3325C64.5259 33.4072 64.7083 33.5093 64.8583 33.6389C65.0083 33.7684 65.1232 33.9228 65.2032 34.1021C65.2882 34.2765 65.3307 34.4633 65.3307 34.6625V36.2615C65.3307 36.401 65.2557 36.4707 65.1057 36.4707H64.4759C64.3759 36.4707 64.2759 36.4433 64.176 36.3885C64.081 36.3288 64.0335 36.2416 64.0335 36.127V34.7148C64.0335 34.6202 63.996 34.5355 63.921 34.4608C63.851 34.3811 63.7511 34.3412 63.6211 34.3412C63.4861 34.3412 63.3837 34.3811 63.3137 34.4608C63.2437 34.5405 63.2087 34.6227 63.2087 34.7073C63.2087 35.0311 63.2387 35.3151 63.2987 35.5592C63.3587 35.8032 63.4387 36.0249 63.5386 36.2242C63.6386 36.4234 63.7511 36.6102 63.876 36.7846C64.006 36.9539 64.136 37.1258 64.266 37.3001C64.4009 37.4745 64.5309 37.6613 64.6559 37.8605C64.7858 38.0598 64.9008 38.2889 65.0008 38.5479C65.1008 38.802 65.1807 39.0934 65.2407 39.4222C65.3007 39.7509 65.3307 40.132 65.3307 40.5654C65.3307 40.7646 65.2907 40.9514 65.2107 41.1258C65.1307 41.3001 65.0158 41.4521 64.8658 41.5816C64.7208 41.7111 64.5434 41.8132 64.3334 41.8879C64.1235 41.9626 63.886 42 63.6211 42Z" fill="#F7951D"/>
<path d="M81.7522 23.7708C81.7586 23.921 81.7304 24.0302 81.6676 24.0983C81.6111 24.1595 81.5075 24.1933 81.3567 24.1997L80.3538 24.2418C80.1571 24.2501 79.9841 24.1952 79.8346 24.0771C79.6914 23.9523 79.5994 23.7958 79.5586 23.6078L78.0223 18.0283L78.62 23.5393C78.6359 23.7611 78.5717 23.9503 78.4273 24.1068C78.2826 24.2569 78.0988 24.3366 77.8759 24.346L76.8829 24.3877C76.7321 24.394 76.6227 24.3692 76.5546 24.3131C76.4929 24.2503 76.4588 24.1438 76.4525 23.9935L75.9287 11.6183C75.9227 11.4746 75.9382 11.3758 75.9753 11.3219C76.0187 11.2612 76.1256 11.2272 76.2961 11.2201L77.3481 11.1758C77.5186 11.1687 77.6752 11.2243 77.8182 11.3426C77.9673 11.4541 78.0656 11.6038 78.113 11.7915L79.6608 17.4098L79.0619 11.8695C79.0506 11.7587 79.0627 11.6567 79.0982 11.5636C79.1402 11.4703 79.1926 11.3895 79.2554 11.3215C79.3244 11.2466 79.4007 11.1877 79.4843 11.145C79.5744 11.1019 79.6686 11.0783 79.767 11.0742L80.8289 11.0296C80.9928 11.0227 81.0989 11.0477 81.1473 11.1045C81.1954 11.1549 81.2225 11.2519 81.2285 11.3956L81.7522 23.7708Z" fill="#083A5E"/>
<path d="M83.1957 24.1224C83.0253 24.1296 82.9126 24.1049 82.8577 24.0483C82.8027 23.9917 82.7721 23.8883 82.7657 23.7381L82.2424 11.3726C82.2361 11.2224 82.2579 11.1168 82.3078 11.0558C82.3578 10.9948 82.4614 10.961 82.6188 10.9544L84.9589 10.856C85.3588 10.8392 85.7251 10.8827 86.0578 10.9865C86.3905 11.0904 86.676 11.2419 86.9143 11.4413C87.1523 11.6342 87.3394 11.8652 87.4755 12.1343C87.6114 12.3969 87.6859 12.6817 87.6989 12.9887L88.0662 21.67C88.0795 21.9835 88.0264 22.2802 87.9069 22.5601C87.7871 22.8334 87.6135 23.0763 87.3861 23.2887C87.1587 23.5011 86.8771 23.6733 86.5412 23.8052C86.2119 23.9368 85.8407 24.0113 85.4277 24.0286L83.1957 24.1224ZM85.4297 22.2126C85.5608 22.2071 85.6701 22.1535 85.7578 22.0516C85.8519 21.9495 85.8968 21.8462 85.8924 21.7417L85.5267 13.0996C85.522 12.9886 85.4685 12.8894 85.3663 12.8021C85.2639 12.7082 85.1372 12.6645 84.9865 12.6708L84.485 12.6919L84.8889 22.2354L85.4297 22.2126Z" fill="#083A5E"/>
<path d="M163.5 0C164.329 0 165 0.669041 165 1.4944C165 2.31975 164.329 2.98879 163.5 2.98879C162.672 2.98879 162.001 2.31975 162.001 1.4944C162.001 0.669041 162.672 0 163.5 0ZM163.5 0.298879C163.182 0.298879 162.877 0.424835 162.652 0.649038C162.427 0.873241 162.301 1.17733 162.301 1.4944C162.301 1.81147 162.427 2.11555 162.652 2.33975C162.877 2.56396 163.182 2.68991 163.5 2.68991C163.819 2.68991 164.124 2.56396 164.349 2.33975C164.574 2.11555 164.7 1.81147 164.7 1.4944C164.7 1.17733 164.574 0.873241 164.349 0.649038C164.124 0.424835 163.819 0.298879 163.5 0.298879ZM163.575 0.747198C163.69 0.747176 163.801 0.784476 163.893 0.85341C163.984 0.922344 164.05 1.01913 164.081 1.12901C164.112 1.23889 164.106 1.35583 164.064 1.462C164.022 1.56817 163.946 1.65774 163.848 1.71706L164.23 2.24159H163.86L163.533 1.79328H163.2V2.24159H162.9V0.747198H163.575ZM163.575 1.04608H163.2V1.4944H163.575C163.631 1.4944 163.685 1.47366 163.727 1.43623C163.768 1.39879 163.794 1.34734 163.799 1.29191L163.8 1.27024C163.8 1.21079 163.777 1.15377 163.734 1.11173C163.692 1.06969 163.635 1.04608 163.575 1.04608Z" fill="#F7951D"/>
</svg>
