<svg width="198" height="36" viewBox="0 0 198 36" fill="none" xmlns="http://www.w3.org/2000/svg">
<path d="M163.022 6.2516C162.642 7.02303 153.691 27.456 153.691 27.5945C153.691 27.6538 154.63 27.6934 155.769 27.6934H157.827L158.586 25.8538C159.006 24.8648 159.445 23.9153 159.545 23.7769C159.685 23.5989 160.564 23.5395 163.142 23.5791L166.519 23.6384L167.338 25.656L168.137 27.6934H170.635C172.533 27.6934 173.093 27.634 173.013 27.456C172.133 25.3 163.582 5.99446 163.482 5.856C163.382 5.77687 163.182 5.9549 163.022 6.2516ZM164.161 17.7043L165.02 19.8802L164.061 19.9395C163.522 19.9791 162.642 19.9791 162.103 19.9395L161.124 19.8802L161.923 18.0011C162.363 16.9725 162.802 15.9043 162.922 15.6274C163.042 15.3505 163.162 15.212 163.222 15.3307C163.262 15.4296 163.681 16.4978 164.161 17.7043Z" fill="black"/>
<path d="M128.255 6.72518C125.218 7.49661 123.46 9.67244 123.46 12.6395C123.46 15.5274 124.778 17.09 128.535 18.712C131.292 19.9186 132.391 20.7889 132.391 21.8175C132.391 24.3296 128.715 24.8834 125.198 22.9252L124.159 22.3318L123.22 23.9538C122.121 25.8329 122.081 25.734 124.279 26.723C126.737 27.8505 130.213 28.1867 132.551 27.4944C135.468 26.6439 137.287 23.6768 136.767 20.6307C136.327 18.0988 135.188 16.9713 131.512 15.4087C128.435 14.0834 127.556 13.1933 127.955 11.7098C128.095 11.1757 128.315 10.9581 129.054 10.6417C130.253 10.1274 131.752 10.2263 133.53 10.9779C135.668 11.868 135.528 11.9076 136.347 10.1076L137.067 8.52518L136.427 8.14936C134.749 7.16035 133.13 6.7054 131.052 6.62628C129.933 6.56694 128.675 6.62628 128.255 6.72518Z" fill="black"/>
<path d="M44.8342 17.1505L44.8941 27.5945L52.347 27.6538L59.78 27.6934V25.6164V23.5395H54.485H49.19V21.3637V19.1879H53.6858H58.1815V17.1109V15.034H53.6858H49.19V12.8582V10.6824H54.2852H59.3804V8.70435V6.72633H52.0873H44.7942L44.8342 17.1505Z" fill="black"/>
<path d="M62.3774 6.84481C62.3774 7.12173 71.8485 28.4844 71.9684 28.4844C72.0882 28.4844 81.5593 7.10196 81.5593 6.84481C81.5593 6.78547 80.4403 6.72613 79.0816 6.72613C76.9037 6.72613 76.584 6.76569 76.4641 7.0624C76.4041 7.2602 75.4251 9.77229 74.3261 12.6602C73.2272 15.5481 72.2681 17.9613 72.1881 18.0404C72.1282 18.1195 71.0292 15.6272 69.7505 12.502L67.4326 6.82503L64.915 6.76569C63.5164 6.74591 62.3774 6.76569 62.3774 6.84481Z" fill="black"/>
<path d="M85.196 17.1505L85.2559 27.5945L92.7088 27.6538L100.142 27.6934V25.6164V23.5395H94.8468H89.5518V21.3637V19.1879H94.0476H98.5433V17.1109V15.034H94.0476H89.5518V12.8582V10.6824H94.647H99.7422V8.70435V6.72633H92.4491H85.156L85.196 17.1505Z" fill="black"/>
<path d="M104.338 17.2096V27.7129L106.496 27.6535L108.634 27.5942L108.694 24.2711L108.733 20.9678H110.012H111.271L113.529 24.3305L115.787 27.6931H118.244C119.603 27.6931 120.722 27.6535 120.722 27.614C120.722 27.5546 119.643 25.8535 118.324 23.836L115.927 20.1371L116.906 19.2272C118.344 17.9019 118.964 16.4382 119.084 14.1634C119.144 12.6601 119.104 12.1854 118.744 11.236C118.145 9.69311 117.165 8.5063 115.927 7.83377C114.148 6.86454 113.209 6.72608 108.594 6.72608H104.338V17.2096ZM113.049 10.9986C115.547 12.1854 115.147 16.1217 112.45 16.7942C111.95 16.9129 110.911 17.0118 110.152 17.0118H108.733V13.847V10.6821H110.552C111.811 10.6821 112.57 10.781 113.049 10.9986Z" fill="black"/>
<path d="M139.504 8.70435V10.6626L141.962 10.7219L144.4 10.7813L144.46 19.2274L144.5 27.6934H146.598H148.696V19.1879V10.6824H151.293H153.891V8.70435V6.72633H146.698H139.504V8.70435Z" fill="black"/>
<path d="M176.07 17.2098V27.6934H178.168H180.266V24.3307V20.9681H181.645H183.023L185.261 24.3307L187.499 27.6934H189.997H192.494L192.215 27.2384C189.637 23.3022 187.659 20.1769 187.659 20.0384C187.659 19.9593 187.939 19.7022 188.278 19.4846C190.136 18.278 191.215 15.0142 190.656 12.2252C190.256 10.1681 189.317 8.82303 187.599 7.83402C185.94 6.88457 184.921 6.72633 180.326 6.72633H176.07V17.2098ZM184.782 11.0582C186.38 11.7703 186.94 14.1439 185.841 15.6472C185.141 16.6164 184.382 16.8736 182.264 16.8934L180.366 16.9131L180.306 13.7879L180.246 10.6824H182.104C183.483 10.6824 184.182 10.7813 184.782 11.0582Z" fill="black"/>
<g clip-path="url(#clip0_2422_15553)">
<path d="M17.625 0C12.9171 0 8.49157 1.83341 5.16248 5.16197C1.83338 8.49113 0 12.9173 0 17.6247C0 22.3321 1.83338 26.7589 5.16248 30.088C8.49157 33.4172 12.9176 35.25 17.625 35.25C22.3324 35.25 26.7584 33.4166 30.0875 30.088C33.4166 26.7589 35.25 22.3327 35.25 17.6247C35.25 12.9167 33.4166 8.49113 30.0875 5.16197C26.7584 1.83341 22.3324 0 17.625 0ZM34.1389 16.3075C34.0714 16.2529 33.9998 16.203 33.9234 16.1589C33.1453 15.7097 32.147 15.9775 31.6978 16.7556C31.4799 17.1326 31.4223 17.5713 31.5351 17.9917C31.6478 18.4122 31.9174 18.7634 32.2944 18.9813C32.3044 18.9871 32.3144 18.9918 32.3243 18.9971C32.0771 20.0043 31.6872 20.9721 31.1634 21.8805C30.8128 22.4878 30.4052 23.0592 29.9501 23.5859C29.1896 23.2177 28.2594 23.4943 27.8302 24.2378C27.5882 24.6565 27.5547 25.1386 27.6957 25.565C26.3068 26.4805 24.7131 27.0772 23.057 27.2962C22.1298 27.419 21.1919 27.4213 20.2694 27.308C22.7381 26.6332 24.8299 25.0376 26.1518 22.9141C27.7039 21.6562 28.9289 20.0148 29.6952 18.162C30.4041 16.4484 30.71 14.5821 30.5896 12.7393C30.6202 12.7241 30.6501 12.7082 30.6801 12.6912C31.0571 12.4739 31.3266 12.1221 31.4394 11.7016C31.5521 11.2812 31.494 10.8425 31.2767 10.4655C31.0588 10.0885 30.7077 9.81891 30.2872 9.70616C30.1838 9.67855 30.0787 9.66094 29.9742 9.65389C29.7205 8.90925 29.3934 8.18634 28.997 7.49984C28.4104 6.4833 27.6869 5.56601 26.843 4.76616C26.9452 4.49661 26.9757 4.20064 26.9258 3.91171C27.7826 4.49544 28.5912 5.16256 29.34 5.9119C32.1564 8.72838 33.833 12.3799 34.1401 16.3081L34.1389 16.3075ZM33.2557 18.1203C33.1089 18.1597 32.955 18.1397 32.8229 18.0634C32.6908 17.987 32.5968 17.8643 32.5575 17.7169C32.5181 17.5701 32.5381 17.4162 32.6144 17.2841C32.7718 17.0116 33.1212 16.9182 33.3931 17.0756C33.5253 17.152 33.6192 17.2747 33.6586 17.4215C33.6979 17.5689 33.6779 17.7222 33.6016 17.8543C33.5253 17.9865 33.4025 18.0804 33.2551 18.1198L33.2557 18.1203ZM28.7463 24.7663C28.9036 24.4938 29.253 24.4005 29.5249 24.5578C29.6571 24.6342 29.751 24.7569 29.7904 24.9037C29.8297 25.0511 29.8098 25.2044 29.7334 25.3365C29.576 25.609 29.2266 25.7024 28.9547 25.545C28.6822 25.3876 28.5889 25.0382 28.7463 24.7663ZM8.64837 17.6247C8.64837 12.6747 12.6751 8.64792 17.625 8.64792C22.5749 8.64792 26.6016 12.6747 26.6016 17.6247C26.6016 22.5747 22.5749 26.6015 17.625 26.6015C12.6751 26.6015 8.64837 22.5747 8.64837 17.6247ZM29.3135 11.1314C29.3529 10.9846 29.4474 10.8613 29.579 10.7855C29.6671 10.735 29.7645 10.7086 29.8632 10.7086C29.9125 10.7086 29.9624 10.7151 30.0118 10.7286C30.1586 10.7679 30.2819 10.8625 30.3582 10.994C30.4346 11.1261 30.4546 11.2794 30.4152 11.4268C30.3759 11.5736 30.2813 11.697 30.1498 11.7727C30.0176 11.8491 29.8644 11.869 29.717 11.8297C29.5702 11.7903 29.4468 11.6958 29.3705 11.5642C29.2942 11.4327 29.2742 11.2788 29.3135 11.1314ZM25.0337 3.69442C25.1218 3.64392 25.2193 3.61749 25.3179 3.61749C25.3672 3.61749 25.4172 3.62395 25.4665 3.63746C25.6133 3.67681 25.7366 3.77135 25.8124 3.9029C25.9698 4.17539 25.8758 4.52422 25.6039 4.6816C25.332 4.83898 24.982 4.74502 24.8252 4.47312C24.7489 4.34099 24.7289 4.18772 24.7683 4.04032C24.8076 3.8935 24.9021 3.77018 25.0337 3.69442ZM24.7506 2.66085C24.6661 2.69257 24.5839 2.73074 24.504 2.77713C24.127 2.99442 23.8574 3.34618 23.7447 3.76666C23.6319 4.18713 23.6901 4.62581 23.9074 5.00283C24.2086 5.5249 24.7577 5.81735 25.3209 5.81735C25.5969 5.81735 25.877 5.74688 26.133 5.59948C26.143 5.59361 26.1524 5.58773 26.1618 5.58186C26.9099 6.30008 27.5536 7.12106 28.0774 8.02954C28.4286 8.63735 28.7192 9.2757 28.9477 9.93284C28.6241 10.1525 28.3921 10.4766 28.2894 10.8584C28.1766 11.2788 28.2348 11.7175 28.452 12.0945C28.6699 12.4715 29.0211 12.7411 29.4416 12.8538C29.4727 12.8621 29.5032 12.8691 29.5343 12.8756C29.6324 14.5357 29.3523 16.2141 28.7145 17.7574C28.3575 18.6213 27.8906 19.434 27.3316 20.1763C27.5459 19.3618 27.6604 18.5068 27.6604 17.6259C27.6604 15.9111 27.2276 14.2956 26.4666 12.882C26.153 10.91 25.3438 9.03022 24.1235 7.4417C22.9936 5.97062 21.5308 4.77262 19.8741 3.95575C19.8765 3.92228 19.8777 3.88822 19.8777 3.85416C19.8777 2.95566 19.1466 2.22511 18.2487 2.22511C17.6861 2.22511 17.1893 2.51169 16.8962 2.94685C16.1234 2.79416 15.333 2.71606 14.5402 2.71606C13.3663 2.71606 12.21 2.88401 11.096 3.21522C10.9122 2.99089 10.6703 2.81589 10.3925 2.71429C12.6181 1.63257 15.0769 1.06058 17.6238 1.06058C20.1707 1.06058 22.552 1.61436 24.7495 2.66262L24.7506 2.66085ZM18.8189 3.85239C18.8189 4.16658 18.5628 4.42262 18.2487 4.42262C17.9345 4.42262 17.6784 4.16658 17.6784 3.85239C17.6784 3.53821 17.9345 3.28217 18.2487 3.28217C18.5628 3.28217 18.8189 3.53763 18.8189 3.85239ZM9.83519 3.67328C10.1494 3.67328 10.4054 3.92874 10.4054 4.24351C10.4054 4.55828 10.1494 4.81373 9.83519 4.81373C9.52101 4.81373 9.26497 4.55769 9.26497 4.24351C9.26497 3.92933 9.52101 3.67328 9.83519 3.67328ZM5.91121 5.91131C6.63176 5.19075 7.40752 4.54594 8.2279 3.97807C8.2138 4.06439 8.20617 4.15307 8.20617 4.24351C8.20617 5.14201 8.93729 5.87255 9.83519 5.87255C10.7331 5.87255 11.4642 5.14142 11.4642 4.24351C11.4642 4.23235 11.4636 4.2206 11.4636 4.20945C12.4596 3.92052 13.4926 3.7737 14.5408 3.7737C15.242 3.7737 15.9408 3.84065 16.6243 3.97161C16.6854 4.81432 17.3907 5.48203 18.2487 5.48203C18.732 5.48203 19.1671 5.27003 19.4654 4.93471C20.9523 5.67935 22.266 6.76166 23.2837 8.08592C23.8563 8.83115 24.329 9.64626 24.6925 10.5072C22.946 8.77301 20.5665 7.67484 17.9362 7.59439C16.0723 6.88087 14.0405 6.64186 12.055 6.90495C10.2163 7.14807 8.44694 7.81578 6.91129 8.8423C6.8831 8.82351 6.85433 8.80531 6.82438 8.78828C6.44737 8.5704 6.0087 8.51285 5.58823 8.62561C5.16776 8.73836 4.81659 9.00791 4.59872 9.38493C4.38085 9.76194 4.3233 10.2006 4.43605 10.6211C4.46365 10.7245 4.50124 10.8237 4.54704 10.9183C4.0285 11.5108 3.56634 12.1556 3.16995 12.8421C2.58271 13.8592 2.15049 14.9439 1.88095 16.072C1.5932 16.1178 1.32424 16.2394 1.10167 16.4249C1.38414 12.4522 3.06718 8.75598 5.91121 5.9119V5.91131ZM5.45903 10.3457C5.41969 10.1983 5.43966 10.045 5.516 9.91287C5.59234 9.78074 5.71507 9.68678 5.86188 9.64743C5.91121 9.63451 5.96113 9.62746 6.01046 9.62746C6.10912 9.62746 6.2066 9.6533 6.29468 9.70439C6.56717 9.86178 6.66054 10.2112 6.50316 10.4831C6.34578 10.7556 5.99636 10.849 5.72447 10.6916C5.59234 10.6152 5.49838 10.4925 5.45903 10.3457ZM2.63556 17.9653C2.47818 18.2378 2.12877 18.3312 1.85628 18.1738C1.72415 18.0974 1.63019 17.9747 1.59085 17.8279C1.5515 17.6811 1.57147 17.5272 1.64781 17.3951C1.75117 17.216 1.93791 17.1097 2.13934 17.1097C2.16811 17.1097 2.19747 17.112 2.22742 17.1161C2.2973 17.1267 2.36484 17.1508 2.42709 17.1866C2.55863 17.2624 2.65318 17.3857 2.69252 17.5325C2.73187 17.6793 2.7119 17.8332 2.63556 17.9653ZM1.11048 18.9419C1.17801 18.9965 1.25025 19.0465 1.32717 19.0911C2.10469 19.5403 3.10301 19.2731 3.55284 18.495C3.77012 18.118 3.82825 17.6787 3.7155 17.2588C3.60275 16.8384 3.33321 16.4872 2.95619 16.2693C2.94621 16.2634 2.93623 16.2588 2.92683 16.2535C3.17406 15.2475 3.56341 14.2797 4.0884 13.3706C4.43899 12.7634 4.84654 12.192 5.30165 11.6652C5.52774 11.7751 5.7691 11.8279 6.00811 11.8279C6.57128 11.8279 7.12035 11.5355 7.42161 11.0134C7.66297 10.5947 7.69703 10.1125 7.55609 9.68619C8.94492 8.77066 10.5387 8.17342 12.1947 7.95437C13.1214 7.83164 14.0592 7.82929 14.9818 7.94263C12.513 8.61738 10.4213 10.213 9.09996 12.3365C7.54787 13.5944 6.32287 15.2358 5.55652 17.0885C4.84771 18.8022 4.54176 20.6685 4.66214 22.5118C4.63161 22.5271 4.60166 22.5424 4.57229 22.56C4.19528 22.7773 3.92574 23.1291 3.81299 23.5495C3.70023 23.97 3.75837 24.4087 3.97565 24.7857C4.19352 25.1627 4.54469 25.4323 4.96516 25.545C5.06852 25.5726 5.17305 25.5902 5.27816 25.5973C5.53185 26.3419 5.85895 27.0648 6.25593 27.7513C6.84376 28.7691 7.56783 29.6863 8.41053 30.4844C8.30835 30.7546 8.27781 31.0499 8.32714 31.3395C7.47035 30.7557 6.66171 30.0886 5.91239 29.3393C3.09596 26.5228 1.4182 22.8712 1.11166 18.9425L1.11048 18.9419ZM5.67103 24.4645C5.5389 24.5408 5.38563 24.5608 5.23823 24.5214C5.09142 24.4821 4.9681 24.3875 4.89234 24.256C4.816 24.1239 4.79603 23.9706 4.83538 23.8232C4.87472 23.6764 4.96927 23.553 5.10081 23.4773C5.19066 23.4256 5.28815 23.401 5.38504 23.401C5.58236 23.401 5.77439 23.5031 5.8795 23.6858C6.03688 23.9583 5.94292 24.3071 5.67103 24.4645ZM10.2163 31.5556C9.94383 31.713 9.59442 31.619 9.43762 31.3471C9.28024 31.0746 9.3742 30.7258 9.64609 30.5684C9.77822 30.4921 9.9315 30.4721 10.0789 30.5114C10.2257 30.5508 10.349 30.6453 10.4248 30.7769C10.5011 30.909 10.5211 31.0623 10.4817 31.2097C10.4424 31.3565 10.3479 31.4798 10.2163 31.5556ZM10.4982 32.5886C10.5822 32.5574 10.6656 32.5193 10.746 32.4729C11.123 32.2556 11.3926 31.9038 11.5053 31.4833C11.6181 31.0629 11.5599 30.6242 11.3426 30.2472C11.1254 29.8702 10.7736 29.6006 10.3531 29.4879C9.93267 29.3751 9.494 29.4332 9.11699 29.6505C9.107 29.6564 9.09761 29.6623 9.08821 29.6681C8.34065 28.9517 7.69703 28.1301 7.17203 27.221C6.82086 26.6132 6.53017 25.9749 6.30173 25.3178C7.00114 24.8432 7.22606 23.8989 6.79737 23.1561C6.55542 22.7374 6.15492 22.4672 5.71507 22.3762C5.617 20.716 5.89653 19.0371 6.53487 17.4937C6.89191 16.6299 7.35877 15.8165 7.91842 15.0743C7.70407 15.8888 7.58956 16.7438 7.58956 17.6253C7.58956 19.3401 8.02236 20.9556 8.78343 22.3686C9.09702 24.3406 9.90625 26.2209 11.1265 27.8095C12.2564 29.2806 13.7192 30.4785 15.3758 31.2954C15.3735 31.3289 15.3723 31.363 15.3723 31.397C15.3723 32.2955 16.1034 33.0261 17.0013 33.0261C17.5639 33.0261 18.0607 32.7395 18.3538 32.3043C19.1266 32.457 19.917 32.5351 20.7092 32.5351C21.8831 32.5351 23.0394 32.3672 24.1534 32.036C24.3372 32.2603 24.5792 32.4353 24.8569 32.5369C22.6313 33.6186 20.1725 34.1906 17.6256 34.1906C15.0787 34.1906 12.6968 33.6368 10.4988 32.588L10.4982 32.5886ZM16.4311 31.3976C16.4311 31.0834 16.6872 30.8274 17.0013 30.8274C17.3155 30.8274 17.5716 31.0828 17.5716 31.3976C17.5716 31.7124 17.3155 31.9678 17.0013 31.9678C16.6872 31.9678 16.4311 31.7118 16.4311 31.3976ZM25.4148 31.5767C25.1006 31.5767 24.8446 31.3207 24.8446 31.0065C24.8446 30.6923 25.1006 30.4363 25.4148 30.4363C25.729 30.4363 25.985 30.6917 25.985 31.0065C25.985 31.3213 25.729 31.5767 25.4148 31.5767ZM29.3388 29.3387C28.6182 30.0592 27.8425 30.7041 27.0221 31.2719C27.0362 31.1856 27.0438 31.0969 27.0438 31.0065C27.0438 30.108 26.3127 29.3774 25.4148 29.3774C24.5169 29.3774 23.7858 30.1086 23.7858 31.0065C23.7858 31.0177 23.7864 31.0294 23.7864 31.0406C22.7904 31.3301 21.7574 31.4763 20.7092 31.4763C20.008 31.4763 19.3092 31.4094 18.6257 31.2784C18.5646 30.4357 17.8599 29.768 17.0013 29.768C16.518 29.768 16.0829 29.98 15.7846 30.3153C14.2977 29.5707 12.984 28.4883 11.9663 27.1641C11.3937 26.4189 10.921 25.6032 10.5575 24.7428C12.304 26.4776 14.6835 27.5752 17.3149 27.6556C18.6867 28.1806 20.1496 28.449 21.6177 28.449C22.1439 28.449 22.6712 28.4143 23.195 28.3451C25.0337 28.1019 26.8031 27.4342 28.3387 26.4077C28.3669 26.4265 28.3957 26.4447 28.4256 26.4617C28.6817 26.6097 28.9612 26.6796 29.2378 26.6796C29.8009 26.6796 30.35 26.3871 30.6513 25.8651C30.8691 25.4881 30.9267 25.0494 30.8139 24.6289C30.7863 24.5255 30.7488 24.4263 30.703 24.3317C31.2215 23.7392 31.6837 23.0944 32.0801 22.4079C32.6667 21.3914 33.0995 20.3061 33.3696 19.1756C33.4237 19.1668 33.4771 19.1563 33.5305 19.1416C33.7607 19.0799 33.9704 18.9707 34.1483 18.8233C33.8659 22.7961 32.1834 26.4928 29.3394 29.3375L29.3388 29.3387Z" fill="black"/>
</g>
<defs>
<clipPath id="clip0_2422_15553">
<rect width="35.25" height="35.25" fill="white"/>
</clipPath>
</defs>
</svg>
