<svg width="132" height="38" viewBox="0 0 132 38" fill="none" xmlns="http://www.w3.org/2000/svg">
<path d="M19.2914 37.9911C13.0006 37.9911 6.70979 37.9885 0.418982 37.9989C0.094815 37.9995 -0.000289292 37.9395 6.60518e-07 37.5934C0.0104389 25.2027 0.0101489 12.8122 0.00145029 0.42146C0.00116034 0.0994233 0.0574112 0.00144973 0.405644 0.00173959C13.0142 0.0124645 25.6225 0.0130443 38.2311 4.86259e-07C38.6173 -0.000289376 38.6498 0.128989 38.6495 0.450736C38.6423 12.8279 38.642 25.205 38.651 37.5824C38.6512 37.9085 38.588 38.0007 38.2444 38.0001C31.927 37.9879 25.6092 37.9911 19.2914 37.9911ZM19.2876 37.178C25.336 37.178 31.3845 37.1751 37.4329 37.1862C37.7643 37.1867 37.8484 37.1146 37.8481 36.7757C37.8379 24.9371 37.8376 13.0983 37.8495 1.25974C37.8498 0.891327 37.7475 0.831036 37.4071 0.831326C25.3505 0.840601 13.2943 0.840891 1.23781 0.830166C0.881746 0.829876 0.802879 0.914227 0.803459 1.26583C0.813897 13.1044 0.813897 24.9432 0.803169 36.7818C0.802879 37.1302 0.902043 37.1862 1.2236 37.1856C7.24446 37.1754 13.2659 37.178 19.2876 37.178Z" fill="black"/>
<path d="M25.3541 27.2689C27.4424 27.2689 29.5306 27.283 31.6189 27.2579C32.077 27.2524 32.2072 27.3786 32.1972 27.8357C32.1671 29.181 32.1576 30.5282 32.2022 31.8725C32.2177 32.3451 32.0124 32.4788 31.6334 32.5284C31.4962 32.5464 31.3555 32.5404 31.2164 32.5404C27.5966 32.5399 23.9768 32.5649 20.3575 32.5294C17.8432 32.5043 15.359 32.2205 13.1846 30.8041C9.56983 28.4495 7.39697 25.1567 6.85275 20.836C6.38563 17.1256 7.15565 13.6991 9.38459 10.6931C11.8288 7.39725 15.0796 5.52728 19.2816 5.52178C23.365 5.51627 27.4484 5.49474 31.5318 5.45719C32.0269 5.45269 32.2192 5.5398 32.2007 6.09253C32.1551 7.4368 32.1641 8.78458 32.1977 10.1294C32.2092 10.5945 32.0695 10.6996 31.6219 10.6976C27.7473 10.6806 23.8722 10.6651 19.9976 10.6996C18.2438 10.7151 16.5485 11.0441 15.1201 12.1771C12.5042 14.2518 11.21 17.8 12.0571 21.0147C12.5788 22.9943 13.5991 24.6139 15.2984 25.8466C16.521 26.7337 17.8292 27.2144 19.2987 27.2464C21.3163 27.2905 23.3355 27.2574 25.3541 27.2574C25.3541 27.2619 25.3541 27.2654 25.3541 27.2689Z" fill="black"/>
<path d="M64.2085 17.1578C66.2902 15.3648 68.5246 14.8393 70.9982 15.6095C73.679 16.4444 75.6327 18.858 75.7735 21.6531C75.8926 24.0203 75.8422 26.3955 75.863 28.7676C75.8694 29.5209 75.6271 30.1207 74.7602 30.1143C73.9045 30.1087 73.6366 29.4913 73.6294 28.7596C73.6094 26.7578 73.6446 24.7553 73.615 22.7543C73.5798 20.3423 72.4266 18.5549 70.516 17.8583C67.457 16.7443 64.3044 18.986 64.2221 22.3769C64.1717 24.4514 64.2045 26.5283 64.2117 28.6044C64.2141 29.4274 64.0397 30.1311 63.036 30.1103C62.0788 30.0903 61.9748 29.397 61.9764 28.6228C61.9852 22.2097 61.986 15.7958 61.9756 9.38272C61.974 8.55259 62.1499 7.82244 63.1248 7.86082C63.9845 7.89521 64.2213 8.56219 64.2157 9.36113C64.1973 11.9067 64.2085 14.4499 64.2085 17.1578Z" fill="black"/>
<path d="M90.6791 28.2618C89.4731 29.2111 88.2991 29.9436 86.8556 30.09C82.9936 30.481 80.516 28.5641 79.2836 24.9101C77.9409 20.929 80.165 16.6672 84.0349 15.5284C87.9592 14.3735 92.145 17.1318 92.7104 21.1913C93.0655 23.7401 92.8208 26.2936 92.8832 28.844C92.9016 29.5957 92.5249 30.162 91.682 30.1132C90.5783 30.05 90.6367 29.1887 90.6791 28.2618ZM85.9047 17.6141C83.192 17.6133 81.1838 19.7406 81.1422 22.6588C81.1038 25.3491 83.2823 27.6292 85.8943 27.6316C88.503 27.634 90.7007 25.3443 90.6607 22.6676C90.6167 19.7518 88.6054 17.6149 85.9047 17.6141Z" fill="black"/>
<path d="M129.114 28.3724C127.268 30.0262 125.173 30.4237 122.877 29.9631C119.531 29.2913 116.824 24.9007 117.747 21.0252C118.527 17.7511 120.704 15.6733 124.032 15.2919C126.755 14.98 129.634 16.7218 130.865 19.4401C131.363 20.539 131.458 21.7154 131.46 22.9022C131.463 24.6792 131.47 26.4562 131.457 28.2332C131.451 28.9858 131.652 29.9183 130.568 30.0902C129.375 30.2814 129.302 29.2857 129.114 28.3724ZM129.219 22.7142C129.218 19.752 127.279 17.6231 124.574 17.6135C121.784 17.6039 119.821 19.7192 119.824 22.731C119.827 25.4557 121.877 27.611 124.484 27.6302C127.151 27.6494 129.221 25.5013 129.219 22.7142Z" fill="black"/>
<path d="M53.6201 30.1249C49.0976 30.364 46.1929 25.408 46.7104 21.7692C47.1518 18.6647 48.7433 16.4862 51.7591 15.5617C54.1055 14.8419 56.2792 15.3562 58.149 16.9988C58.7848 17.557 59.2678 18.1848 58.5681 18.9734C57.8803 19.7491 57.2909 19.2501 56.6751 18.743C54.8909 17.2723 52.7548 17.1875 50.9618 18.4615C49.1744 19.7307 48.4306 22.2123 49.1824 24.3924C49.8653 26.3733 51.7823 27.7097 53.8504 27.6257C54.9173 27.5825 55.8602 27.2011 56.6487 26.4725C57.2317 25.9327 57.8403 25.5128 58.5689 26.2038C59.1039 26.7116 58.9423 27.6753 58.253 28.3599C57.1149 29.4875 55.4331 30.1289 53.6201 30.1249Z" fill="black"/>
<path d="M107.055 18.1419C107.055 15.9186 107.046 13.6945 107.06 11.4713C107.066 10.5764 106.809 9.47913 108.149 9.29439C108.962 9.18243 109.305 9.90939 109.305 11.5369C109.305 12.463 109.364 13.3946 109.287 14.3151C109.219 15.1325 109.532 15.3364 110.282 15.262C110.906 15.2004 111.543 15.222 112.171 15.2572C112.933 15.2996 113.446 15.6603 113.408 16.5008C113.373 17.271 112.893 17.5949 112.164 17.6141C112.127 17.6149 112.09 17.6133 112.053 17.6149C111.17 17.6405 109.931 17.323 109.493 17.7772C108.92 18.3714 109.327 19.5886 109.312 20.5371C109.287 22.167 109.314 23.7984 109.302 25.4291C109.295 26.3136 109.581 27.0118 110.41 27.4276C111.213 27.8307 111.899 27.634 112.544 27.0726C113.095 26.5927 113.719 26.5191 114.214 27.0902C114.71 27.6636 114.63 28.3425 114.163 28.9176C112.53 30.9297 108.617 30.3387 107.605 27.9387C107.229 27.047 107.043 26.1217 107.05 25.1476C107.066 22.8116 107.055 20.4763 107.055 18.1419Z" fill="black"/>
<path d="M98.2566 17.0671C99.5562 15.9675 100.919 15.3893 102.478 15.2733C103.306 15.2117 103.934 15.5149 103.987 16.349C104.039 17.1639 103.498 17.5694 102.65 17.6246C100.195 17.7837 98.4301 19.4352 98.2606 21.9095C98.1166 24.0121 98.1894 26.129 98.1606 28.2387C98.1558 28.5698 98.1614 28.9097 98.0935 29.2303C97.9727 29.799 97.6144 30.1365 97.0018 30.1221C96.3852 30.1077 95.9694 29.735 95.9654 29.1744C95.9318 24.8798 95.9334 20.5844 95.9558 16.2898C95.959 15.7052 96.3948 15.3213 96.9642 15.2821C97.5336 15.2429 97.9439 15.566 98.0855 16.1498C98.1454 16.3978 98.1798 16.6513 98.2566 17.0671Z" fill="black"/>
</svg>
