<svg width="170" height="44" viewBox="0 0 170 44" fill="none" xmlns="http://www.w3.org/2000/svg">
<path d="M3.12549 27.2199L9.33897 0.251953H14.7383L9.58894 22.6348H15.1525L14.0812 27.2199H3.12549Z" fill="#222222"/>
<path d="M18.1343 27.2199L24.3478 0.251953H29.5614L23.3407 27.2199H18.1343Z" fill="#222222"/>
<path d="M36.2188 27.2465C35.3993 27.3929 34.9369 27.4679 34.8333 27.4679C32.6568 27.4679 31.1445 26.8465 30.2982 25.6038C29.4518 24.3576 29.3108 22.531 29.8768 20.126L32.855 7.09194C33.4013 4.76903 34.3851 3.00675 35.8046 1.80691C37.2276 0.603494 39.0185 0 41.1753 0C43.3322 0 44.8391 0.603494 45.6962 1.80691C46.5532 3.00675 46.7103 4.76903 46.1675 7.09194L43.1894 20.126C42.6644 22.34 41.7538 24.0969 40.454 25.3967L42.4323 26.8751L39.8612 30.0747L36.2188 27.2465ZM35.9617 22.5114C36.4849 22.5114 36.8777 22.2614 37.1401 21.7615C37.4008 21.258 37.6276 20.608 37.8186 19.8117L40.7397 7.18478C40.8825 6.49559 40.9111 5.9528 40.8254 5.55642C40.7432 5.15648 40.4629 4.9565 39.9826 4.9565C39.1256 4.9565 38.5292 5.69034 38.1971 7.15622L35.2404 19.9046C35.0725 20.658 35.0154 21.2812 35.069 21.7758C35.1208 22.2668 35.4189 22.5114 35.9617 22.5114Z" fill="#222222"/>
<path d="M52.8237 27.4699C50.6043 27.4699 49.1045 26.8449 48.3243 25.5915C47.5386 24.3345 47.4279 22.4705 47.9886 19.9994L52.5451 0.251953H57.7873L53.2665 19.778C53.0754 20.635 53.0058 21.3064 53.0594 21.792C53.1111 22.2741 53.4111 22.5134 53.9592 22.5134C54.502 22.5134 54.9127 22.2777 55.1948 21.8063C55.4751 21.3349 55.7108 20.66 55.9018 19.778L60.4227 0.251953H65.6649L61.1155 19.9994C60.5477 22.4705 59.5799 24.3345 58.2087 25.5915C56.8374 26.8449 55.0412 27.4699 52.8237 27.4699Z" fill="#222222"/>
<path d="M64.0364 27.2199L70.2499 0.251953H75.4635L69.2428 27.2199H64.0364Z" fill="#222222"/>
<path d="M80.4217 0.251953H87.8636C89.7919 0.251953 91.115 0.785813 91.8345 1.85175C92.5577 2.91947 92.688 4.49962 92.2273 6.59399L89.3706 19.2138C88.7653 21.8706 87.8386 23.8703 86.5924 25.213C85.3497 26.5521 83.6374 27.2199 81.4573 27.2199H74.2083L80.4217 0.251953ZM81.6787 22.4491C82.6643 22.4491 83.2714 21.9688 83.4999 21.0064L86.6995 7.09392C86.8459 6.49043 86.903 6.03513 86.8709 5.72982C86.8423 5.42628 86.7173 5.22095 86.4995 5.11561C86.2799 5.01205 85.9085 4.95849 85.3854 4.95849H84.7855L80.736 22.4491H81.6787Z" fill="#222222"/>
<path d="M1.0918 34.2461H88.7483" stroke="#222222"/>
<mask id="mask0_2422_15397" style="mask-type:luminance" maskUnits="userSpaceOnUse" x="92" y="0" width="78" height="44">
<path d="M92.8694 0.0507812H169.27V43.7076H92.8694V0.0507812Z" fill="white"/>
</mask>
<g mask="url(#mask0_2422_15397)">
<mask id="mask1_2422_15397" style="mask-type:luminance" maskUnits="userSpaceOnUse" x="92" y="0" width="78" height="44">
<path d="M100.22 0.0507812H169.154L161.803 43.7076H92.8694L100.22 0.0507812Z" fill="white"/>
</mask>
<g mask="url(#mask1_2422_15397)">
<path d="M92.8694 0.0507812H169.099V43.7076H92.8694V0.0507812Z" fill="#0081A7"/>
</g>
</g>
<path d="M0.621348 39.002H1.92118C2.239 39.002 2.51396 39.0555 2.7425 39.1591C2.97104 39.2644 3.14602 39.4144 3.271 39.609C3.3942 39.8054 3.4567 40.034 3.4567 40.2946C3.4567 40.6571 3.37456 40.9767 3.21387 41.2517C3.05139 41.5231 2.82285 41.7355 2.52824 41.8873C2.23721 42.0355 1.90154 42.1087 1.52123 42.1087H0L0.621348 39.002ZM1.54266 41.5159C1.78548 41.5159 1.99438 41.4659 2.17115 41.3659C2.35148 41.2624 2.48896 41.1213 2.58538 40.9446C2.68001 40.7642 2.72822 40.5625 2.72822 40.3375C2.72822 40.1054 2.65144 39.9215 2.49968 39.7876C2.34612 39.6554 2.1283 39.5876 1.84262 39.5876H1.22841L0.842748 41.5159H1.54266Z" fill="#222222"/>
<path d="M4.88948 39.5733L4.75379 40.2518H6.2036L6.08933 40.8089H4.63952L4.49668 41.5302H6.19646L6.07504 42.1087H3.66821L4.28956 39.002H6.63926L6.51784 39.5733H4.88948Z" fill="#222222"/>
<path d="M8.86157 41.4445H7.41176L7.00467 42.1087H6.24048L8.2545 39.002H8.96155L9.72574 42.1087H9.00441L8.86157 41.4445ZM8.74015 40.8946L8.4759 39.6947L7.74743 40.8946H8.74015Z" fill="#222222"/>
<path d="M10.6704 39.002H11.3989L10.8918 41.5231H12.4488L12.3273 42.1087H10.0491L10.6704 39.002Z" fill="#222222"/>
<path d="M13.9525 39.5733L13.8168 40.2518H15.2666L15.1523 40.8089H13.7025L13.5597 41.5302H15.2594L15.138 42.1087H12.7312L13.3525 39.002H15.7022L15.5808 39.5733H13.9525Z" fill="#222222"/>
<path d="M18.8174 39.9661C18.8174 40.2571 18.7389 40.5071 18.5817 40.716C18.4246 40.9213 18.205 41.066 17.9247 41.1517L18.4675 42.1087H17.7104L17.2248 41.2374H16.6106L16.432 42.1087H15.7107L16.332 39.002H17.5962C17.9818 39.002 18.2818 39.0877 18.496 39.2591C18.7103 39.4269 18.8174 39.6626 18.8174 39.9661ZM17.3319 40.666C17.5694 40.666 17.7551 40.6125 17.889 40.5018C18.0211 40.3928 18.089 40.2357 18.089 40.0304C18.089 39.884 18.039 39.7733 17.939 39.7019C17.839 39.6269 17.6926 39.5876 17.5033 39.5876H16.9391L16.7177 40.666H17.3319Z" fill="#222222"/>
<path d="M20.0604 42.1572C19.8122 42.1572 19.5765 42.1251 19.3533 42.0644C19.1284 41.9983 18.948 41.9144 18.8105 41.8144L19.1034 41.2573C19.2462 41.3627 19.4051 41.443 19.5819 41.5002C19.7622 41.5573 19.9461 41.5859 20.1318 41.5859C20.3264 41.5859 20.4818 41.5537 20.596 41.4859C20.7139 41.4198 20.7746 41.3323 20.7746 41.2216C20.7746 41.127 20.7264 41.0556 20.6317 41.0074C20.5407 40.961 20.3961 40.9074 20.1961 40.8503C19.9961 40.7931 19.8318 40.7396 19.7033 40.686C19.5747 40.6289 19.4622 40.5467 19.3676 40.436C19.2766 40.3218 19.2319 40.1771 19.2319 40.0004C19.2319 39.7861 19.2891 39.6004 19.4033 39.4433C19.5212 39.2826 19.689 39.1576 19.9033 39.0719C20.1175 38.9862 20.3675 38.9434 20.6532 38.9434C20.8621 38.9434 21.0603 38.9684 21.2459 39.0148C21.4352 39.0576 21.5977 39.1219 21.7316 39.2076L21.4602 39.7647C21.3406 39.6843 21.2102 39.6254 21.0674 39.5861C20.9246 39.5433 20.7746 39.5219 20.6175 39.5219C20.4121 39.5219 20.2496 39.5576 20.1318 39.629C20.0122 39.7004 19.9533 39.7915 19.9533 39.9004C19.9533 39.9718 19.9765 40.0325 20.0247 40.0789C20.0765 40.1218 20.1407 40.1575 20.2175 40.1861C20.2925 40.2146 20.4032 40.2485 20.546 40.286C20.7407 40.3396 20.9031 40.3932 21.0317 40.4503C21.1602 40.5039 21.2692 40.5824 21.3602 40.686C21.4495 40.7913 21.4959 40.9288 21.4959 41.1002C21.4959 41.3145 21.4352 41.5037 21.3174 41.6644C21.1977 41.8216 21.0281 41.943 20.8103 42.0287C20.596 42.1144 20.3461 42.1572 20.0604 42.1572Z" fill="#222222"/>
<path d="M25.2788 39.002L24.6575 42.1087H23.9433L24.1933 40.8446H22.7863L22.5292 42.1087H21.8079L22.4292 39.002H23.1577L22.9077 40.2232H24.3147L24.5646 39.002H25.2788Z" fill="#222222"/>
<path d="M26.0171 39.002H26.7456L26.1171 42.1087H25.3958L26.0171 39.002Z" fill="#222222"/>
<path d="M28.7304 39.002C29.1196 39.002 29.4196 39.0877 29.6303 39.2591C29.8445 39.4269 29.9516 39.6626 29.9516 39.9661C29.9516 40.2286 29.8892 40.4571 29.766 40.6517C29.641 40.8428 29.466 40.991 29.2375 41.0945C29.0125 41.1999 28.7464 41.2517 28.4376 41.2517H27.7448L27.5734 42.1087H26.8521L27.4734 39.002H28.7304ZM28.4661 40.666C28.709 40.666 28.8946 40.6125 29.0232 40.5018C29.1553 40.3928 29.2232 40.2357 29.2232 40.0304C29.2232 39.884 29.1732 39.7733 29.0732 39.7019C28.9732 39.6269 28.8304 39.5876 28.6447 39.5876H28.0805L27.8591 40.666H28.4661Z" fill="#222222"/>
<path d="M35.4803 39.002L34.8661 42.1087H34.1876L34.5518 40.2589L33.3663 41.7802H33.0449L32.4092 40.2446L32.0379 42.1087H31.3594L31.9807 39.002H32.5664L33.3448 40.9374L34.8661 39.002H35.4803Z" fill="#222222"/>
<path d="M37.814 41.4445H36.3641L35.9571 42.1087H35.1929L37.2069 39.002H37.9139L38.6781 42.1087H37.9568L37.814 41.4445ZM37.6925 40.8946L37.4283 39.6947L36.6998 40.8946H37.6925Z" fill="#222222"/>
<path d="M42.4727 39.002L41.8513 42.1087H41.2657L40.1016 40.1661L39.7159 42.1087H39.0017L39.6231 39.002H40.2158L41.38 40.9517L41.7656 39.002H42.4727Z" fill="#222222"/>
<path d="M44.8032 41.4445H43.3534L42.9463 42.1087H42.1821L44.1962 39.002H44.9032L45.6674 42.1087H44.9461L44.8032 41.4445ZM44.6818 40.8946L44.4176 39.6947L43.6891 40.8946H44.6818Z" fill="#222222"/>
<path d="M48.4191 40.5003H49.0761L48.819 41.7858C48.6619 41.9055 48.478 41.9983 48.2691 42.0644C48.0638 42.1251 47.8495 42.1572 47.6263 42.1572C47.3157 42.1572 47.0443 42.1037 46.8122 41.993C46.5836 41.8787 46.4051 41.7198 46.2765 41.5145C46.1515 41.3109 46.0908 41.0752 46.0908 40.8074C46.0908 40.4557 46.1712 40.1396 46.3336 39.8575C46.4943 39.5718 46.7229 39.3487 47.0193 39.1862C47.3192 39.0255 47.6585 38.9434 48.0406 38.9434C48.3405 38.9434 48.5976 38.9916 48.8119 39.0862C49.0297 39.1773 49.2065 39.3112 49.3404 39.4861L48.8262 39.9004C48.7208 39.7825 48.6012 39.6968 48.4691 39.6433C48.3405 39.5861 48.187 39.5576 48.012 39.5576C47.7727 39.5576 47.5638 39.6111 47.3835 39.7147C47.2014 39.82 47.0621 39.9647 46.9621 40.1503C46.8657 40.3325 46.8193 40.536 46.8193 40.7646C46.8193 41.0074 46.8943 41.2002 47.0478 41.343C47.205 41.4823 47.4281 41.5502 47.7192 41.5502C47.9049 41.5502 48.0763 41.5127 48.2334 41.4359L48.4191 40.5003Z" fill="#222222"/>
<path d="M50.6356 39.5733L50.4999 40.2518H51.9497L51.8354 40.8089H50.3856L50.2428 41.5302H51.9426L51.8211 42.1087H49.4143L50.0357 39.002H52.3854L52.2639 39.5733H50.6356Z" fill="#222222"/>
<path d="M56.5152 39.002L55.901 42.1087H55.2225L55.5867 40.2589L54.4012 41.7802H54.0798L53.4442 40.2446L53.0728 42.1087H52.3943L53.0156 39.002H53.6013L54.3797 40.9374L55.901 39.002H56.5152Z" fill="#222222"/>
<path d="M57.8565 39.5733L57.7208 40.2518H59.1706L59.0564 40.8089H57.6066L57.4637 41.5302H59.1635L59.0421 42.1087H56.6353L57.2566 39.002H59.6063L59.4849 39.5733H57.8565Z" fill="#222222"/>
<path d="M63.0857 39.002L62.4644 42.1087H61.8787L60.7146 40.1661L60.3289 42.1087H59.6147L60.2361 39.002H60.8289L61.993 40.9517L62.3787 39.002H63.0857Z" fill="#222222"/>
<path d="M64.3524 39.5876H63.3525L63.474 39.002H66.1807L66.0665 39.5876H65.0737L64.5667 42.1087H63.8453L64.3524 39.5876Z" fill="#222222"/>
<path d="M68.2891 42.1572C68.041 42.1572 67.8053 42.1251 67.5821 42.0644C67.3571 41.9983 67.1768 41.9144 67.0393 41.8144L67.3321 41.2573C67.475 41.3627 67.6339 41.443 67.8106 41.5002C67.991 41.5573 68.1749 41.5859 68.3606 41.5859C68.5552 41.5859 68.7105 41.5537 68.8248 41.4859C68.9426 41.4198 69.0033 41.3323 69.0033 41.2216C69.0033 41.127 68.9551 41.0556 68.8605 41.0074C68.7694 40.961 68.6248 40.9074 68.4248 40.8503C68.2249 40.7931 68.0606 40.7396 67.932 40.686C67.8035 40.6289 67.691 40.5467 67.5964 40.436C67.5053 40.3218 67.4607 40.1771 67.4607 40.0004C67.4607 39.7861 67.5178 39.6004 67.6321 39.4433C67.7499 39.2826 67.9178 39.1576 68.132 39.0719C68.3463 38.9862 68.5962 38.9434 68.8819 38.9434C69.0908 38.9434 69.289 38.9684 69.4747 39.0148C69.664 39.0576 69.8264 39.1219 69.9604 39.2076L69.689 39.7647C69.5693 39.6843 69.439 39.6254 69.2962 39.5861C69.1533 39.5433 69.0033 39.5219 68.8462 39.5219C68.6409 39.5219 68.4784 39.5576 68.3606 39.629C68.2409 39.7004 68.182 39.7915 68.182 39.9004C68.182 39.9718 68.2052 40.0325 68.2534 40.0789C68.3052 40.1218 68.3695 40.1575 68.4463 40.1861C68.5213 40.2146 68.632 40.2485 68.7748 40.286C68.9694 40.3396 69.1319 40.3932 69.2604 40.4503C69.389 40.5039 69.4979 40.5824 69.589 40.686C69.6783 40.7913 69.7247 40.9288 69.7247 41.1002C69.7247 41.3145 69.664 41.5037 69.5461 41.6644C69.4265 41.8216 69.2569 41.943 69.039 42.0287C68.8248 42.1144 68.5748 42.1572 68.2891 42.1572Z" fill="#222222"/>
<path d="M71.7433 41.0303L71.5291 42.1087H70.8077L71.0291 41.0017L70.2292 39.002H70.9506L71.5005 40.3875L72.6147 39.002H73.3574L71.7433 41.0303Z" fill="#222222"/>
<path d="M74.1241 42.1572C73.8759 42.1572 73.6402 42.1251 73.4171 42.0644C73.1921 41.9983 73.0117 41.9144 72.8743 41.8144L73.1671 41.2573C73.3099 41.3627 73.4688 41.443 73.6456 41.5002C73.8259 41.5573 74.0098 41.5859 74.1955 41.5859C74.3901 41.5859 74.5455 41.5537 74.6598 41.4859C74.7776 41.4198 74.8383 41.3323 74.8383 41.2216C74.8383 41.127 74.7901 41.0556 74.6955 41.0074C74.6044 40.961 74.4598 40.9074 74.2598 40.8503C74.0598 40.7931 73.8956 40.7396 73.767 40.686C73.6385 40.6289 73.526 40.5467 73.4313 40.436C73.3403 40.3218 73.2956 40.1771 73.2956 40.0004C73.2956 39.7861 73.3528 39.6004 73.467 39.4433C73.5849 39.2826 73.7527 39.1576 73.967 39.0719C74.1812 38.9862 74.4312 38.9434 74.7169 38.9434C74.9258 38.9434 75.124 38.9684 75.3097 39.0148C75.4989 39.0576 75.6614 39.1219 75.7953 39.2076L75.5239 39.7647C75.4043 39.6843 75.274 39.6254 75.1311 39.5861C74.9883 39.5433 74.8383 39.5219 74.6812 39.5219C74.4758 39.5219 74.3134 39.5576 74.1955 39.629C74.0759 39.7004 74.017 39.7915 74.017 39.9004C74.017 39.9718 74.0402 40.0325 74.0884 40.0789C74.1402 40.1218 74.2045 40.1575 74.2812 40.1861C74.3562 40.2146 74.4669 40.2485 74.6098 40.286C74.8044 40.3396 74.9669 40.3932 75.0954 40.4503C75.224 40.5039 75.3329 40.5824 75.4239 40.686C75.5132 40.7913 75.5596 40.9288 75.5596 41.1002C75.5596 41.3145 75.4989 41.5037 75.3811 41.6644C75.2615 41.8216 75.0918 41.943 74.874 42.0287C74.6598 42.1144 74.4098 42.1572 74.1241 42.1572Z" fill="#222222"/>
<path d="M77.0211 39.5876H76.0212L76.1427 39.002H78.8494L78.7352 39.5876H77.7424L77.2354 42.1087H76.514L77.0211 39.5876Z" fill="#222222"/>
<path d="M79.837 39.5733L79.7013 40.2518H81.1511L81.0368 40.8089H79.587L79.4442 41.5302H81.144L81.0226 42.1087H78.6157L79.2371 39.002H81.5868L81.4654 39.5733H79.837Z" fill="#222222"/>
<path d="M85.7161 39.002L85.1019 42.1087H84.4234L84.7877 40.2589L83.6021 41.7802H83.2807L82.6451 40.2446L82.2737 42.1087H81.5952L82.2166 39.002H82.8022L83.5807 40.9374L85.1019 39.002H85.7161Z" fill="#222222"/>
<path d="M86.9217 42.1572C86.6735 42.1572 86.4378 42.1251 86.2147 42.0644C85.9897 41.9983 85.8094 41.9144 85.6719 41.8144L85.9647 41.2573C86.1075 41.3627 86.2664 41.443 86.4432 41.5002C86.6235 41.5573 86.8074 41.5859 86.9931 41.5859C87.1878 41.5859 87.3431 41.5537 87.4574 41.4859C87.5752 41.4198 87.6359 41.3323 87.6359 41.2216C87.6359 41.127 87.5877 41.0556 87.4931 41.0074C87.402 40.961 87.2574 40.9074 87.0574 40.8503C86.8574 40.7931 86.6932 40.7396 86.5646 40.686C86.4361 40.6289 86.3236 40.5467 86.2289 40.436C86.1379 40.3218 86.0932 40.1771 86.0932 40.0004C86.0932 39.7861 86.1504 39.6004 86.2647 39.4433C86.3825 39.2826 86.5503 39.1576 86.7646 39.0719C86.9788 38.9862 87.2288 38.9434 87.5145 38.9434C87.7234 38.9434 87.9216 38.9684 88.1073 39.0148C88.2965 39.0576 88.459 39.1219 88.5929 39.2076L88.3215 39.7647C88.2019 39.6843 88.0716 39.6254 87.9287 39.5861C87.7859 39.5433 87.6359 39.5219 87.4788 39.5219C87.2735 39.5219 87.111 39.5576 86.9931 39.629C86.8735 39.7004 86.8146 39.7915 86.8146 39.9004C86.8146 39.9718 86.8378 40.0325 86.886 40.0789C86.9378 40.1218 87.0021 40.1575 87.0788 40.1861C87.1538 40.2146 87.2645 40.2485 87.4074 40.286C87.602 40.3396 87.7645 40.3932 87.893 40.4503C88.0216 40.5039 88.1305 40.5824 88.2215 40.686C88.3108 40.7913 88.3572 40.9288 88.3572 41.1002C88.3572 41.3145 88.2965 41.5037 88.1787 41.6644C88.0591 41.8216 87.8894 41.943 87.6716 42.0287C87.4574 42.1144 87.2074 42.1572 86.9217 42.1572Z" fill="#222222"/>
<path d="M111.794 11.2617H117.607C119.107 11.2617 120.138 11.6795 120.7 12.5116C121.266 13.3454 121.371 14.5791 121.014 16.2111L118.779 26.0669C118.307 28.1435 117.582 29.7058 116.608 30.7521C115.636 31.7948 114.301 32.3161 112.601 32.3161H106.945L111.794 11.2617ZM112.772 28.588C113.544 28.588 114.019 28.2131 114.201 27.4596L116.7 16.6039C116.815 16.1325 116.858 15.779 116.829 15.5397C116.804 15.3023 116.708 15.1434 116.536 15.0612C116.365 14.9809 116.074 14.9398 115.665 14.9398H115.201L112.044 28.588H112.772Z" fill="white"/>
<path d="M119.517 32.3161L124.366 11.2617H130.787L129.587 24.1029L134.322 11.2617H140.792L135.936 32.3161H132.086L135.593 17.1467L129.658 32.3161H125.887L126.816 17.1467L123.316 32.3161H119.517Z" fill="white"/>
<path d="M143.238 32.5078C141.324 32.5078 140.053 32.0346 139.425 31.0865C138.796 30.1402 138.728 28.6136 139.217 26.5085L139.682 24.4445H143.824L143.21 27.0728C142.967 28.1155 143.181 28.6368 143.853 28.6368C144.227 28.6368 144.517 28.5279 144.717 28.3083C144.92 28.0905 145.081 27.7191 145.195 27.1942C145.361 26.5085 145.411 25.9425 145.345 25.4944C145.277 25.0427 145.154 24.6659 144.974 24.366C144.797 24.0624 144.454 23.5911 143.945 22.9519L142.553 21.1378C141.471 19.7666 141.119 18.2489 141.496 16.5813C141.905 14.7815 142.631 13.4138 143.674 12.4746C144.72 11.5319 146.038 11.0605 147.623 11.0605C149.518 11.0605 150.768 11.5658 151.373 12.5746C151.976 13.5799 152.026 15.1511 151.523 17.2883H147.231L147.552 15.8456C147.618 15.5653 147.595 15.3439 147.481 15.1814C147.366 15.0207 147.168 14.9386 146.888 14.9386C146.563 14.9386 146.295 15.0297 146.081 15.21C145.867 15.3868 145.727 15.6296 145.667 15.9385C145.499 16.6295 145.727 17.3419 146.352 18.0739L148.259 20.4236C148.702 20.9807 149.054 21.5092 149.316 22.0091C149.577 22.5091 149.745 23.0983 149.816 23.7732C149.891 24.4499 149.823 25.2551 149.609 26.1872C149.118 28.2637 148.37 29.8367 147.366 30.908C146.361 31.9757 144.985 32.5078 143.238 32.5078Z" fill="white"/>
</svg>
