<svg width="148" height="34" viewBox="0 0 148 34" fill="none" xmlns="http://www.w3.org/2000/svg">
<path d="M139.087 16.9378C137.433 16.9401 135.809 16.7809 134.262 16.1064C133.462 15.7566 132.75 15.2772 132.198 14.5803C131.798 14.0717 131.454 13.4775 131.769 12.8367C132.1 12.1644 132.785 12.0636 133.459 12.0769C134.269 12.0925 134.747 12.6059 135.18 13.2422C136.513 15.1942 140.418 15.6963 142.219 14.1677C143.024 13.484 142.926 12.5988 141.958 12.0497C140.977 11.4915 139.867 11.4154 138.793 11.2251C137.479 10.992 136.159 10.7949 134.88 10.3823C134.29 10.1917 133.723 9.95212 133.209 9.59332C131.634 8.48832 131.571 6.64164 133.092 5.45395C134.132 4.64262 135.367 4.36481 136.633 4.18328C138.656 3.89415 140.663 3.92105 142.645 4.45231C143.409 4.65621 144.135 4.97225 144.766 5.48085C145.642 6.18911 145.904 6.94437 145.477 7.52689C144.992 8.19239 143.672 8.36966 142.939 7.85199C142.743 7.71521 142.578 7.52916 142.415 7.34763C140.894 5.66464 138.573 5.17586 136.516 6.11491C136.039 6.3324 135.537 6.57 135.559 7.21538C135.58 7.85851 136.096 8.07826 136.583 8.25525C138.208 8.84457 139.933 8.93661 141.603 9.30418C142.641 9.53272 143.683 9.757 144.642 10.2342C147 11.404 147.165 13.9881 144.992 15.5165C143.683 16.4448 141.664 16.9288 139.087 16.9378Z" fill="#1E274F"/>
<path d="M51.6969 8.93388C51.6969 10.0635 51.723 11.1929 51.6903 12.3202C51.6381 14.1825 50.694 15.4084 49.0498 16.1056C46.7594 17.0761 44.3643 17.0087 41.9673 16.8295C40.9448 16.7533 39.9355 16.5604 38.9634 16.1886C37.0798 15.4693 36.1007 14.0505 36.04 12.0201C35.977 9.87095 36.0009 7.71475 36.0271 5.56337C36.04 4.53681 36.671 4.0282 37.826 4.0013C39.0747 3.97213 39.7555 4.43373 39.7857 5.48945C39.8401 7.42816 39.8008 9.37112 39.8162 11.3095C39.8379 13.9228 40.7233 14.8638 43.2574 14.9961C43.4292 15.0052 43.5988 15.0052 43.7709 15.0074C47.3426 15.0298 48.1059 13.6716 47.9624 10.8032C47.8797 9.14938 47.9385 7.48622 47.9514 5.82786C47.9624 4.54587 48.5212 4.01036 49.8089 4.0013C51.1315 3.99224 51.6884 4.49886 51.7384 5.75848C51.7406 5.82786 51.7406 5.89979 51.7406 5.96917C51.7406 6.9575 51.7406 7.94583 51.7406 8.93416C51.7252 8.93388 51.7123 8.93388 51.6969 8.93388Z" fill="#1E274F"/>
<path d="M85.0473 4.00728C86.9309 4.00728 88.8125 4.00728 90.6961 4.00728C90.9355 4.00728 91.1791 3.98491 91.4141 4.01861C92.0883 4.11942 92.9173 4.14859 92.8889 5.11002C92.8628 5.99073 92.071 6.07144 91.4317 6.10061C90.2006 6.15668 88.9651 6.16348 87.7359 6.11392C87.079 6.08928 86.8638 6.26401 86.8767 6.97679C86.9202 9.55183 86.8962 12.1269 86.8919 14.7019C86.8897 16.1677 86.3677 16.7145 85.0017 16.7145C83.629 16.7145 83.1159 16.181 83.1115 14.711C83.1027 12.1359 83.0854 9.56089 83.1244 6.98586C83.1354 6.28213 82.9221 6.08277 82.2542 6.11618C81.1276 6.16999 79.9941 6.12298 78.8652 6.12751C78.4477 6.12978 78.045 6.07597 77.6646 5.89898C77.334 5.74662 77.0839 5.50223 77.0666 5.11002C77.047 4.66399 77.3145 4.39723 77.6844 4.2293C78.1 4.03871 78.5392 4.00303 78.9895 4.0053C81.0058 4.01181 83.0265 4.00728 85.0473 4.00728Z" fill="#1E274F"/>
<path d="M71.286 10.3494C71.286 8.80064 71.2687 7.25217 71.2926 5.70341C71.3099 4.50665 71.8821 4.00456 73.1481 4.00003C74.4531 3.9955 75.0515 4.52676 75.0556 5.76146C75.0688 8.89466 75.0688 12.0253 75.0556 15.1585C75.0512 16.3844 74.4377 16.9267 73.1415 16.9177C71.8909 16.9109 71.308 16.3955 71.2926 15.2033C71.2687 13.5854 71.286 11.9673 71.286 10.3494Z" fill="#1E274F"/>
<path d="M67.9323 10.6896C67.3144 10.2996 66.6358 10.062 65.7505 9.86493C66.3356 9.56022 66.777 9.37417 67.1753 9.11647C68.7524 8.10123 68.8154 6.35764 67.3166 5.21243C66.5901 4.65653 65.7593 4.32945 64.8585 4.2241C61.6829 3.84972 58.494 4.04937 55.3117 4.08505C54.1045 4.09836 53.7477 4.63416 53.7455 5.94305C53.739 8.83639 53.739 11.732 53.7455 14.625C53.7499 15.9609 54.1369 16.4873 55.4161 16.4964C58.7007 16.5233 61.994 16.7272 65.2719 16.3126C66.4096 16.1693 67.4755 15.7926 68.3369 14.968C69.7378 13.6231 69.5572 11.7136 67.9323 10.6896ZM57.5001 6.54795C57.5306 6.09739 57.6436 5.92493 58.0897 5.94051C59.758 6.00337 61.4352 5.81958 63.0948 6.13336C63.8669 6.27892 64.6609 6.47403 64.6392 7.47567C64.6197 8.39915 63.8996 8.73303 63.1253 8.92786C62.116 9.18103 61.0872 9.08928 60.2019 9.11618C59.9647 9.11618 59.8625 9.11618 59.7605 9.11618C57.3195 9.11845 57.3327 9.11845 57.5001 6.54795ZM63.7929 14.3807C62.6248 14.6922 61.422 14.6273 60.2278 14.6228C59.5447 14.6251 58.8595 14.5891 58.1809 14.6341C57.6218 14.6723 57.4589 14.4435 57.5089 13.9058C57.6023 12.9018 57.0914 11.5952 57.7241 10.9787C58.2199 10.497 59.473 10.8309 60.3888 10.8173C61.5155 10.8017 62.6468 10.7635 63.7517 11.039C64.5848 11.2452 65.3701 11.5904 65.4028 12.628C65.4396 13.7171 64.6653 14.1476 63.7929 14.3807Z" fill="#1E274F"/>
<path d="M129.271 14.7273C128.19 13.0576 126.77 11.7691 124.805 10.7247C126.095 10.478 127.131 10.2563 128.044 9.68255C129.756 8.61125 129.874 6.57399 128.301 5.29228C127.531 4.66473 126.626 4.36229 125.667 4.2054C123.522 3.85368 121.362 4.07089 119.209 4.02388C118.08 3.99924 116.947 3.98366 115.822 4.05078C114.647 4.12243 114.189 4.58204 114.182 5.63749C114.165 8.8109 114.16 11.9843 114.184 15.16C114.193 16.2491 114.817 16.7311 116.061 16.7266C117.286 16.722 117.899 16.2222 117.928 15.1376C117.958 13.9746 117.949 12.809 117.932 11.6459C117.926 11.2245 118.013 11.0319 118.489 11.0005C120.368 10.8728 122.006 11.3075 123.283 12.8494C124.127 13.8692 125.034 14.8306 125.904 15.8258C126.585 16.6034 127.442 16.8478 128.414 16.6977C129.682 16.5 129.978 15.8209 129.271 14.7273ZM118.349 9.31044C118.04 9.3195 117.923 9.15582 117.943 8.85536C117.947 8.78598 117.945 8.71405 117.94 8.64466C117.801 5.93059 117.801 5.93059 120.785 5.93059C121.912 5.9439 123.054 5.83204 124.155 6.16138C124.864 6.37434 125.521 6.72606 125.514 7.64727C125.508 8.53932 124.851 8.84856 124.177 9.01876C122.258 9.50103 120.294 9.26117 118.349 9.31044Z" fill="#1E274F"/>
<path d="M111.511 14.3218C109.786 11.4038 108 8.52405 106.271 5.61061C105.592 4.46766 104.643 3.94999 103.356 4.00379C102.12 3.95225 101.218 4.50815 100.576 5.61061C98.8184 8.63166 97.0302 11.6326 95.2684 14.6514C94.4765 16.0073 94.9443 16.8342 96.5039 16.924C97.2913 16.971 97.9133 16.7133 98.3267 16.0005C98.6422 15.4582 98.9902 14.9292 99.2664 14.3645C99.497 13.8939 99.7972 13.7279 100.313 13.737C102.401 13.7684 104.489 13.7662 106.58 13.7392C107.051 13.7325 107.319 13.8871 107.545 14.313C107.889 14.9606 108.266 15.5972 108.705 16.1775C109.364 17.0514 110.799 17.1927 111.67 16.5114C112.681 15.7136 111.902 14.983 111.511 14.3218ZM100.648 11.8161C101.546 10.0858 102.405 8.43428 103.376 6.5675C104.33 8.3581 105.211 10.0077 106.175 11.8161C104.25 11.8161 102.519 11.8161 100.648 11.8161Z" fill="#1E274F"/>
<path d="M73.2512 21.9744H70.9999L71.3674 20.0918H78.1365L77.769 21.9744H75.535L74.1624 29.1864H71.8783L73.2512 21.9744Z" fill="url(#paint0_linear_4851_140931)"/>
<path d="M79.1289 26.2325C79.105 26.3512 79.0899 26.4565 79.0855 26.58C79.0637 27.1852 79.2377 27.6915 79.8034 27.6915C80.2885 27.6915 80.5342 27.3823 80.6931 26.9765H82.9183C82.5508 28.1846 81.5762 29.3363 79.6448 29.3363C77.6631 29.3363 76.8844 28.0297 76.8844 26.4228C76.8844 24.6546 77.7914 22.1133 80.4735 22.1133C82.4486 22.1133 83.2468 23.3078 83.2468 24.9058C83.2468 25.4167 83.1706 25.8604 83.075 26.2348H79.1292V26.2325H79.1289ZM81.1235 24.8834C81.1518 24.7467 81.1562 24.639 81.1562 24.5496C81.1562 24.0902 80.991 23.7003 80.4581 23.7003C79.8924 23.7003 79.5555 24.1327 79.3815 24.8837C79.3812 24.8834 81.1235 24.8834 81.1235 24.8834Z" fill="url(#paint1_linear_4851_140931)"/>
<path d="M89.9004 26.699C89.5546 28.1872 88.6844 29.3324 86.5485 29.3324C84.7757 29.3324 83.9121 28.2319 83.9121 26.5804C83.9121 24.5431 84.9824 22.1094 87.5122 22.1094C89.7525 22.1094 90.3248 23.7074 90.2203 24.7875H88.069C88.1147 24.2047 88.0429 23.732 87.4732 23.732C86.5812 23.732 86.1723 25.6371 86.1723 26.697C86.1723 27.4053 86.4029 27.7278 86.8052 27.7278C87.2425 27.7278 87.521 27.3917 87.7318 26.6993C87.7315 26.699 89.9004 26.699 89.9004 26.699Z" fill="url(#paint2_linear_4851_140931)"/>
<path d="M94.4746 19.6194L93.8328 22.9744C94.2113 22.5261 94.7487 22.1115 95.6142 22.1115C96.8802 22.1115 97.5154 22.9676 97.1759 24.7805L96.3384 29.1821H94.1437L94.9356 24.9844C95.0661 24.292 94.9683 23.9579 94.4504 23.9579C93.8545 23.9579 93.55 24.4869 93.4085 25.2152L92.6493 29.1844H90.4373L92.2645 19.6191H94.4746V19.6194Z" fill="url(#paint3_linear_4851_140931)"/>
<path d="M98.6163 24.1684C98.7815 23.2763 98.8796 22.7609 98.9558 22.2634H101.135C101.12 22.4517 101.068 22.8235 101.035 22.9963C101.335 22.6176 101.884 22.1133 102.847 22.1133C104.128 22.1133 104.748 22.983 104.368 24.9729L103.565 29.1839H101.366L102.16 24.9908C102.295 24.3253 102.173 23.9577 101.684 23.9577C101.149 23.9577 100.779 24.3879 100.587 25.4011L99.8694 29.1842H97.6573L98.6163 24.1684Z" fill="url(#paint4_linear_4851_140931)"/>
<path d="M111.752 25.1301C111.752 26.9431 110.813 29.3343 108.007 29.3343C105.988 29.3343 105.227 27.9985 105.227 26.4095C105.227 24.4731 106.338 22.1133 108.901 22.1133C110.682 22.1136 111.752 23.2092 111.752 25.1301ZM107.485 26.6182C107.485 27.3265 107.722 27.6918 108.185 27.6918C109.123 27.6918 109.501 25.648 109.501 24.7583C109.501 24.097 109.27 23.7722 108.794 23.7722C107.885 23.7719 107.485 25.7217 107.485 26.6182Z" fill="url(#paint5_linear_4851_140931)"/>
<path d="M112.135 29.1844L113.962 19.6191H116.174L114.347 29.1844H112.135Z" fill="url(#paint6_linear_4851_140931)"/>
<path d="M122.554 25.1301C122.554 26.9431 121.614 29.3343 118.808 29.3343C116.79 29.3343 116.028 27.9985 116.028 26.4095C116.028 24.4731 117.14 22.1133 119.702 22.1133C121.484 22.1136 122.554 23.2092 122.554 25.1301ZM118.286 26.6182C118.286 27.3265 118.524 27.6918 118.987 27.6918C119.924 27.6918 120.303 25.648 120.303 24.7583C120.303 24.097 120.072 23.7722 119.596 23.7722C118.687 23.7719 118.286 25.7217 118.286 26.6182Z" fill="url(#paint7_linear_4851_140931)"/>
<path d="M129.158 28.1832C128.73 30.4198 128.11 31.8496 125.554 31.8496C123.015 31.8496 122.809 30.413 122.796 29.5705H124.964C124.975 29.8999 125.141 30.2406 125.702 30.2406C126.337 30.2406 126.661 29.8484 126.898 28.6448L126.959 28.322C126.542 28.8037 126.05 28.992 125.324 28.992C123.999 28.992 123.296 27.9476 123.296 26.417C123.296 24.3888 124.453 22.1094 126.468 22.1094C127.346 22.1094 127.847 22.4433 128.01 22.8377C128.062 22.6472 128.155 22.3872 128.203 22.2595H130.331C130.216 22.757 130.076 23.4361 129.935 24.1713L129.158 28.1832ZM125.584 26.3255C125.584 26.9462 125.815 27.3206 126.308 27.3206C126.98 27.3206 127.377 26.4869 127.581 25.4402C127.748 24.5774 127.757 23.8088 126.926 23.8088C126.041 23.8085 125.584 25.3482 125.584 26.3255Z" fill="url(#paint8_linear_4851_140931)"/>
<path d="M131.629 22.2642H133.841L132.519 29.1847H130.307L131.629 22.2642ZM132.132 19.6152H134.344L134.002 21.4104H131.79L132.132 19.6152Z" fill="url(#paint9_linear_4851_140931)"/>
<path d="M136.454 26.2325C136.43 26.3512 136.415 26.4565 136.41 26.58C136.389 27.1852 136.563 27.6915 137.128 27.6915C137.613 27.6915 137.859 27.3823 138.018 26.9765H140.243C139.876 28.1846 138.901 29.3363 136.97 29.3363C134.988 29.3363 134.209 28.0297 134.209 26.4228C134.209 24.6546 135.116 22.1133 137.798 22.1133C139.773 22.1133 140.572 23.3078 140.572 24.9058C140.572 25.4167 140.495 25.8604 140.4 26.2348H136.454V26.2325H136.454ZM138.448 24.8834C138.477 24.7467 138.481 24.639 138.481 24.5496C138.481 24.0902 138.316 23.7003 137.783 23.7003C137.217 23.7003 136.88 24.1327 136.706 24.8837C136.706 24.8834 138.448 24.8834 138.448 24.8834Z" fill="url(#paint10_linear_4851_140931)"/>
<path d="M143.036 27.0079C143.073 27.4876 143.362 27.734 143.871 27.734C144.35 27.734 144.576 27.5233 144.576 27.1535C144.576 26.8264 144.308 26.6559 143.621 26.4384C142.005 25.9409 141.548 25.3493 141.548 24.4462C141.548 23.171 142.457 22.1133 144.319 22.1133C146.226 22.1133 147.073 23.086 147.034 24.2828H145.004C145 23.9019 144.804 23.6283 144.278 23.6283C143.973 23.6283 143.664 23.7292 143.664 24.0945C143.664 24.3859 143.964 24.5113 144.771 24.7713C146.27 25.2598 146.757 25.9389 146.757 26.8935C146.757 28.6147 145.319 29.3363 143.732 29.3363C141.928 29.3363 140.932 28.4847 140.965 27.0099H143.035V27.0079H143.036Z" fill="url(#paint11_linear_4851_140931)"/>
<path d="M32.0694 25.6123C31.8958 25.0294 32.2277 24.4336 32.5161 23.9001C35.0177 19.2817 35.0916 13.3963 32.7077 8.71578C30.3234 4.03522 25.5475 0.693685 20.3865 0.0976499C15.2251 -0.498058 9.83152 1.66482 6.46964 5.68258C6.0255 6.21348 5.60167 6.81181 5.54039 7.50342C5.48169 8.16655 5.77004 8.80383 5.97163 9.43587C6.59963 11.3942 6.449 13.508 6.62253 15.5592C7.21472 22.5428 11.9906 28.9875 18.436 31.5105C18.4489 31.5157 18.4641 31.5236 18.4796 31.5258C17.2339 31.9972 15.835 31.6345 14.5971 31.1321C10.4747 29.4589 7.00313 26.1949 5.0427 22.1539C4.6292 21.3016 4.27698 20.3121 4.60114 19.4186C4.75177 19.0094 5.03013 18.6621 5.22397 18.2736C5.95389 16.805 5.16011 14.7766 3.63867 14.2146C2.84747 13.922 1.95144 14.0644 1.22894 14.4866C0.629005 14.8388 0.0139121 15.3622 0.00101033 16.1134C-0.0118915 16.8825 0.0955159 17.7012 0.511598 18.3591C1.10637 19.302 1.9537 20.0506 2.55105 21.0037C3.12808 21.9258 3.60287 22.9077 4.12345 23.8635C6.10452 27.4956 9.45092 30.3397 13.3208 31.6764C17.193 33.0181 21.5528 32.842 25.3079 31.192C25.711 31.0133 26.1374 30.8188 26.5738 30.8735C27.0819 30.9409 27.4799 31.3321 27.8373 31.7075C28.5698 32.4718 29.3026 33.2383 30.0351 34C31.5717 32.262 33.2308 30.6378 35 29.1456C34.1907 28.2236 33.3792 27.3038 32.5674 26.3818C32.368 26.1563 32.1564 25.9128 32.0694 25.6123ZM2.7478 18.2844C1.9666 18.2844 1.33376 17.6419 1.33376 16.8495C1.33376 16.0571 1.96692 15.4146 2.7478 15.4146C3.52868 15.4146 4.16184 16.0571 4.16184 16.8495C4.16184 17.6419 3.53158 18.2844 2.7478 18.2844ZM7.15376 7.99569C7.15376 6.99576 7.9527 6.18762 8.93549 6.18762C9.91829 6.18762 10.7172 6.99837 10.7172 7.99569C10.7172 8.99563 9.91829 9.80377 8.93549 9.80377C7.9527 9.80377 7.15376 8.9904 7.15376 7.99569ZM27.6279 16.6161C27.5666 18.4733 26.898 19.81 26.4206 20.7242C26.0097 21.517 25.4124 22.6462 24.1796 23.6978C23.539 24.2445 22.4133 25.0395 20.8177 25.4463C19.743 25.721 18.6199 25.7494 17.5223 25.6198C16.6621 25.5161 15.3551 25.4231 14.7858 24.6615C14.6097 24.4232 14.4462 24.0605 14.4336 24.0268C13.456 21.8043 14.0378 20.0689 15.646 18.455C16.3785 17.7218 16.4501 17.6079 16.5063 17.494C16.5801 17.3437 16.8688 16.7765 16.6798 16.095C16.4756 15.3697 15.8757 15.0381 15.7328 14.958C15.0384 14.5721 14.3568 14.7351 14.1833 14.7819C14.0378 14.8234 13.3666 15.0228 12.976 15.6548C12.7999 15.9448 12.7183 16.261 12.8025 17.8409C12.8586 18.8615 12.9147 19.0971 12.976 20.027C13.0705 21.4492 12.9709 21.3638 13.0628 22.2132C13.1366 22.9179 13.3002 23.8684 13.6653 24.9226C13.7624 25.2077 13.9843 25.8162 14.3546 26.5415C14.5333 26.8937 14.699 27.1788 14.9135 27.5467C15.6002 28.7227 15.8834 29.0543 15.8196 29.1191C15.697 29.233 14.63 28.311 13.9407 27.6452C13.9049 27.6115 13.8311 27.5392 13.7517 27.4587C12.7383 26.4355 11.9903 25.2336 11.6842 24.7492C9.98409 22.0397 10.1373 22.4102 9.96119 22.0397C9.27191 20.5864 9.05516 19.3433 8.84067 18.1051C8.21783 14.5226 9.3461 10.8679 12.2867 8.66341C13.1112 8.04446 13.8082 7.74137 14.699 7.35023C18.9415 5.49568 23.5871 7.29852 25.9839 11.1088C27.0232 12.7463 27.6892 14.6555 27.6279 16.6161ZM13.6372 16.7146C13.6372 16.15 14.0865 15.6915 14.6455 15.6915C15.2019 15.6915 15.6538 16.1474 15.6538 16.7146C15.6538 17.2819 15.2045 17.7378 14.6455 17.7378C14.0865 17.7378 13.6372 17.2793 13.6372 16.7146Z" fill="url(#paint12_linear_4851_140931)"/>
<defs>
<linearGradient id="paint0_linear_4851_140931" x1="73.2334" y1="27.5682" x2="74.7897" y2="20.3916" gradientUnits="userSpaceOnUse">
<stop stop-color="#E74F04"/>
<stop offset="0.4888" stop-color="#FF8315"/>
<stop offset="1" stop-color="#E95100"/>
</linearGradient>
<linearGradient id="paint1_linear_4851_140931" x1="79.9204" y1="28.4913" x2="80.2762" y2="21.9453" gradientUnits="userSpaceOnUse">
<stop stop-color="#E74F04"/>
<stop offset="0.4888" stop-color="#FF8315"/>
<stop offset="1" stop-color="#E95100"/>
</linearGradient>
<linearGradient id="paint2_linear_4851_140931" x1="86.4959" y1="28.8583" x2="87.6289" y2="22.4533" gradientUnits="userSpaceOnUse">
<stop stop-color="#E74F04"/>
<stop offset="0.4888" stop-color="#FF8315"/>
<stop offset="1" stop-color="#E95100"/>
</linearGradient>
<linearGradient id="paint3_linear_4851_140931" x1="93.611" y1="28.1065" x2="94.8925" y2="21.1937" gradientUnits="userSpaceOnUse">
<stop stop-color="#E74F04"/>
<stop offset="0.4888" stop-color="#FF8315"/>
<stop offset="1" stop-color="#E95100"/>
</linearGradient>
<linearGradient id="paint4_linear_4851_140931" x1="100.696" y1="29.0053" x2="101.886" y2="22.1938" gradientUnits="userSpaceOnUse">
<stop stop-color="#E74F04"/>
<stop offset="0.4888" stop-color="#FF8315"/>
<stop offset="1" stop-color="#E95100"/>
</linearGradient>
<linearGradient id="paint5_linear_4851_140931" x1="108.169" y1="28.8282" x2="108.902" y2="22.2505" gradientUnits="userSpaceOnUse">
<stop stop-color="#E74F04"/>
<stop offset="0.4888" stop-color="#FF8315"/>
<stop offset="1" stop-color="#E95100"/>
</linearGradient>
<linearGradient id="paint6_linear_4851_140931" x1="113.751" y1="26.6915" x2="114.516" y2="22.6056" gradientUnits="userSpaceOnUse">
<stop stop-color="#E74F04"/>
<stop offset="0.4888" stop-color="#FF8315"/>
<stop offset="1" stop-color="#E95100"/>
</linearGradient>
<linearGradient id="paint7_linear_4851_140931" x1="118.975" y1="28.8045" x2="119.709" y2="22.1875" gradientUnits="userSpaceOnUse">
<stop stop-color="#E74F04"/>
<stop offset="0.4888" stop-color="#FF8315"/>
<stop offset="1" stop-color="#E95100"/>
</linearGradient>
<linearGradient id="paint8_linear_4851_140931" x1="125.882" y1="30.4477" x2="127.061" y2="22.9166" gradientUnits="userSpaceOnUse">
<stop stop-color="#E74F04"/>
<stop offset="0.4888" stop-color="#FF8315"/>
<stop offset="1" stop-color="#E95100"/>
</linearGradient>
<linearGradient id="paint9_linear_4851_140931" x1="131.649" y1="27.2056" x2="132.678" y2="23.1816" gradientUnits="userSpaceOnUse">
<stop stop-color="#E74F04"/>
<stop offset="0.4888" stop-color="#FF8315"/>
<stop offset="1" stop-color="#E95100"/>
</linearGradient>
<linearGradient id="paint10_linear_4851_140931" x1="136.661" y1="28.9611" x2="138.12" y2="22.7231" gradientUnits="userSpaceOnUse">
<stop stop-color="#E74F04"/>
<stop offset="0.4888" stop-color="#FF8315"/>
<stop offset="1" stop-color="#E95100"/>
</linearGradient>
<linearGradient id="paint11_linear_4851_140931" x1="143.666" y1="28.8474" x2="144.361" y2="22.7662" gradientUnits="userSpaceOnUse">
<stop stop-color="#E74F04"/>
<stop offset="0.4888" stop-color="#FF8315"/>
<stop offset="1" stop-color="#E95100"/>
</linearGradient>
<linearGradient id="paint12_linear_4851_140931" x1="0.000365238" y1="17" x2="34.9999" y2="17" gradientUnits="userSpaceOnUse">
<stop stop-color="#E74F04"/>
<stop offset="0.4888" stop-color="#FF8315"/>
<stop offset="1" stop-color="#E95100"/>
</linearGradient>
</defs>
</svg>
