<svg width="72" height="20" viewBox="0 0 72 20" fill="none" xmlns="http://www.w3.org/2000/svg">
<g clip-path="url(#clip0_3524_14663)">
<path d="M24.0492 12.7274V4.94922H22.7373V12.7274H24.0492Z" fill="#43505C"/>
<path d="M24.8525 10.1342C24.8525 11.7233 25.9494 12.8524 27.6161 12.8524C29.2829 12.8524 30.3797 11.7233 30.3797 10.1342C30.3797 8.54511 29.2829 7.41602 27.6161 7.41602C25.9494 7.41602 24.8525 8.54511 24.8525 10.1342ZM26.1752 10.1342C26.1752 9.20374 26.7451 8.55556 27.6161 8.55556C28.4871 8.55556 29.0571 9.20374 29.0571 10.1342C29.0571 11.0542 28.4871 11.7128 27.6161 11.7128C26.7451 11.7128 26.1752 11.0542 26.1752 10.1342Z" fill="#43505C"/>
<path d="M30.8208 10.0291C30.8208 11.5345 31.8209 12.6218 33.3156 12.6218C34.0898 12.6218 34.7565 12.3186 35.0898 11.8168V12.695C35.0898 13.5418 34.5414 14.1063 33.6274 14.1063C32.8102 14.1063 32.251 13.7195 32.1757 13.04H30.8531C31.0251 14.3886 32.0897 15.2668 33.5521 15.2668C35.2726 15.2668 36.3695 14.1691 36.3695 12.465V7.5618H35.2081L35.1329 8.26226C34.8103 7.71862 34.1436 7.39453 33.3586 7.39453C31.8424 7.39453 30.8208 8.51317 30.8208 10.0291ZM32.1542 9.99771C32.1542 9.14044 32.7134 8.51317 33.5414 8.51317C34.4446 8.51317 35.0468 9.15089 35.0468 9.99771C35.0468 10.855 34.4446 11.5136 33.5414 11.5136C32.7241 11.5136 32.1542 10.8654 32.1542 9.99771Z" fill="#43505C"/>
<path d="M37.0186 10.1342C37.0186 11.7233 38.1154 12.8524 39.7821 12.8524C41.4489 12.8524 42.5457 11.7233 42.5457 10.1342C42.5457 8.54511 41.4489 7.41602 39.7821 7.41602C38.1154 7.41602 37.0186 8.54511 37.0186 10.1342ZM38.3412 10.1342C38.3412 9.20374 38.9111 8.55556 39.7821 8.55556C40.6532 8.55556 41.2231 9.20374 41.2231 10.1342C41.2231 11.0542 40.6532 11.7128 39.7821 11.7128C38.9111 11.7128 38.3412 11.0542 38.3412 10.1342Z" fill="#43505C"/>
<path d="M43.9656 6.50614C44.3958 6.50614 44.7506 6.1716 44.7506 5.74296C44.7506 5.32478 44.3958 4.99023 43.9656 4.99023C43.5248 4.99023 43.1914 5.32478 43.1914 5.74296C43.1914 6.1716 43.5248 6.50614 43.9656 6.50614ZM43.3097 12.7266H44.6216V7.56205H43.3097V12.7266Z" fill="#43505C"/>
<path d="M45.771 15.1217H47.0507V12.0167C47.3841 12.5499 48.1045 12.8635 48.9003 12.8635C50.4703 12.8635 51.4058 11.6926 51.3843 10.0826C51.352 8.46216 50.395 7.40625 48.8895 7.40625C48.083 7.40625 47.3518 7.75125 47.0292 8.34716L46.9539 7.56307H45.771V15.1217ZM47.1045 10.1453C47.1045 9.21489 47.6852 8.56671 48.5992 8.56671C49.5132 8.56671 50.0616 9.22534 50.0616 10.1453C50.0616 11.0653 49.5132 11.7135 48.5992 11.7135C47.6852 11.7135 47.1045 11.0758 47.1045 10.1453Z" fill="#43505C"/>
<path d="M51.7168 11.1803C51.7598 12.2049 52.5771 12.8635 53.8459 12.8635C55.0933 12.8635 55.9428 12.2153 55.9428 11.2117C55.9428 10.4694 55.4697 9.96761 54.5987 9.75852L53.6631 9.53898C53.2653 9.43443 52.9964 9.29852 52.9964 8.96398C52.9964 8.60852 53.2868 8.35761 53.7599 8.35761C54.2546 8.35761 54.5772 8.62943 54.5772 9.07898H55.7708C55.7278 8.05443 54.9428 7.40625 53.7922 7.40625C52.6523 7.40625 51.8028 8.05443 51.8028 9.03716C51.8028 9.70625 52.2007 10.2603 53.2223 10.5217L54.147 10.7517C54.4911 10.8458 54.7062 11.0026 54.7062 11.2953C54.7062 11.7031 54.3083 11.8913 53.8244 11.8913C53.2438 11.8913 52.9104 11.6299 52.9104 11.1803H51.7168Z" fill="#43505C"/>
<path d="M58.6646 12.863C59.3851 12.863 60.0733 12.5389 60.3851 12.058L60.4711 12.727H61.697V7.5625H60.3851V10.2702C60.3851 11.2007 60.0195 11.7234 59.1592 11.7234C58.4925 11.7234 58.0302 11.4098 58.0302 10.3434V7.5625H56.7183V10.793C56.7183 12.0266 57.4065 12.863 58.6646 12.863Z" fill="#43505C"/>
<path d="M64.1664 12.7276V9.75852C64.1664 8.92216 64.6718 8.52489 65.2955 8.52489C65.9192 8.52489 66.3278 8.9117 66.3278 9.64352V12.7276H67.6074V9.76898C67.6074 8.92216 68.1021 8.52489 68.7258 8.52489C69.3602 8.52489 69.7688 8.9117 69.7688 9.64352V12.7276H71.0377V9.3508C71.0377 8.15898 70.3603 7.40625 69.0699 7.40625C68.2634 7.40625 67.6289 7.78261 67.3709 8.38898C67.0805 7.78261 66.4998 7.40625 65.6181 7.40625C64.9944 7.40625 64.4352 7.68852 64.1234 8.14852L64.0589 7.56307H62.8545V12.7276H64.1664Z" fill="#43505C"/>
<path d="M61.0212 17.3437C61.2166 17.3437 61.3863 17.1837 61.3863 16.9937C61.3863 16.7987 61.2166 16.6387 61.0212 16.6387C60.8206 16.6387 60.6509 16.7987 60.6509 16.9937C60.6509 17.1837 60.8206 17.3437 61.0212 17.3437Z" fill="#8E98A1"/>
<path d="M61.7637 16.0528C61.7637 16.8178 62.2471 17.3328 62.9517 17.3328C63.5585 17.3328 64.0214 16.9778 64.1191 16.4478H63.6562C63.5688 16.7428 63.3014 16.9178 62.9825 16.9178C62.53 16.9178 62.242 16.5778 62.242 16.0478C62.242 15.5078 62.5454 15.1778 62.9928 15.1778C63.3014 15.1778 63.5688 15.3378 63.6511 15.6528H64.114C64.0317 15.1178 63.5997 14.7578 62.998 14.7578C62.2677 14.7578 61.7637 15.2828 61.7637 16.0528Z" fill="#8E98A1"/>
<path d="M64.3018 16.0487C64.3018 16.7837 64.816 17.3337 65.5875 17.3337C66.3589 17.3337 66.8732 16.7837 66.8732 16.0487C66.8732 15.3137 66.3589 14.7637 65.5875 14.7637C64.816 14.7637 64.3018 15.3137 64.3018 16.0487ZM64.7903 16.0487C64.7903 15.5487 65.104 15.1837 65.5875 15.1837C66.0709 15.1837 66.3846 15.5487 66.3846 16.0487C66.3846 16.5487 66.0709 16.9137 65.5875 16.9137C65.104 16.9137 64.7903 16.5487 64.7903 16.0487Z" fill="#8E98A1"/>
<path d="M67.7691 17.2787V15.8087C67.7691 15.4237 68.0159 15.1737 68.3759 15.1737C68.7205 15.1737 68.9365 15.3887 68.9365 15.7737V17.2787H69.4096V15.8137C69.4096 15.4237 69.6514 15.1737 70.0165 15.1737C70.3559 15.1737 70.5719 15.3887 70.5719 15.7737V17.2787H71.0399V15.6737C71.0399 15.1087 70.7005 14.7637 70.1245 14.7637C69.7336 14.7637 69.4302 14.9487 69.3068 15.2487C69.1782 14.9487 68.8954 14.7637 68.4839 14.7637C68.1702 14.7637 67.8925 14.9037 67.7536 15.1437L67.7176 14.8337H67.2856V17.2787H67.7691Z" fill="#8E98A1"/>
<path fill-rule="evenodd" clip-rule="evenodd" d="M0.935059 10.197L0.935961 10.1059L0.937822 10.0147L0.940646 9.92361L0.944428 9.83248L0.949178 9.74134L0.954887 9.6502L0.961563 9.55911L0.969198 9.46802L0.9778 9.37698L0.987366 9.28593L0.997895 9.19502L1.00938 9.10411L1.02184 9.01329L1.03526 8.92257L1.04963 8.83193L1.06497 8.74143L1.08127 8.65098L1.09853 8.5607L1.11675 8.47052L1.13593 8.38048L1.15607 8.29057L1.17715 8.20084L1.1992 8.11129L1.22219 8.02188L1.24615 7.9327L1.27104 7.84366L1.29689 7.75484L1.32369 7.66625L1.35142 7.57788L1.3801 7.48975L1.40973 7.40184L1.44029 7.31416L1.47179 7.22675L1.50421 7.13961L1.53758 7.05275L1.57187 6.96616L1.60709 6.87988L1.64323 6.79388L1.68029 6.70825L1.71826 6.62288L1.75716 6.53784L1.79696 6.45316L1.83768 6.36884L1.8793 6.28484L1.92182 6.2012L1.96524 6.11798L2.00955 6.03511L2.05476 5.95261L2.10085 5.87057L2.14782 5.78888L2.19568 5.70761L2.2444 5.62679L2.294 5.54638L2.34447 5.46643L2.3958 5.38693L2.44798 5.30788L2.50103 5.22934L2.55492 5.1512L2.60965 5.07361L2.66523 4.99648L2.72164 4.91984L2.77887 4.84375L2.83693 4.76811L2.89581 4.69307L2.95551 4.61852L3.01602 4.54449L3.07732 4.47104L3.13943 4.39814L3.20233 4.3258L3.26602 4.25403L3.33048 4.18285L3.39572 4.11225L3.46174 4.04225L3.52851 3.97285L3.59604 3.90406L3.66433 3.83588L3.73335 3.76833L3.80312 3.70142L3.87362 3.63514L3.94484 3.56951L4.01678 3.50453L4.08944 3.44022L4.1628 3.37657L4.23686 3.3136L4.31162 3.2513L4.38705 3.1897L4.46317 3.1288L4.53995 3.06859L4.6174 3.0091L4.69552 2.95032L4.77425 2.89226L4.85368 2.83493L4.93372 2.77834L5.01437 2.72249L5.09563 2.66738L5.17754 2.61303L5.26001 2.55944L5.34309 2.50662L5.42678 2.45456L5.51108 2.40329L5.59589 2.3528L5.68131 2.30309L5.76724 2.25419L5.85373 2.20608L5.94079 2.15878L6.02836 2.1123L6.11644 2.06663L6.20504 2.02178L6.29415 1.97776L6.38378 1.93457L6.47387 1.89222L6.56448 1.85071L6.65551 1.81005L6.74705 1.77025L6.83901 1.7313L6.93144 1.69321L7.02429 1.65599L7.11757 1.61964L7.21126 1.58417L7.30538 1.54958L7.39986 1.51586L7.49477 1.48304L7.59006 1.45111L7.68571 1.42008L7.7817 1.38994L7.87806 1.36071L7.97479 1.33239L8.07185 1.30498L8.16919 1.27848L8.2669 1.2529L8.3649 1.22824L8.46317 1.20451L8.56173 1.18171L8.66061 1.15983L8.75973 1.1389L8.85908 1.11889L8.95871 1.09983L9.05857 1.08171L9.15867 1.06453L9.25901 1.04831L9.35953 1.03303L9.46023 1.0187L9.56113 1.00533L9.66221 0.992921L9.76347 0.981467L9.86488 0.970967L9.96643 0.961439L10.0681 0.952871L10.1699 0.945267L10.2719 0.938635L10.82 0.908203L10.8513 3.47578L10.8692 3.47558L10.9449 3.47548L11.0206 3.47609L11.0963 3.47743L11.1721 3.4795L11.2478 3.48229L11.3236 3.4858L11.3994 3.49004L11.4752 3.49501L11.5509 3.5007L11.6267 3.50712L11.7024 3.51426L11.7781 3.52213L11.8537 3.53073L11.9293 3.54005L12.0048 3.5501L12.0802 3.56088L12.1556 3.57238L12.2309 3.58461L12.3061 3.59756L12.3812 3.61123L12.4562 3.62563L12.5311 3.64076L12.6059 3.65661L12.6805 3.67318L12.755 3.69046L12.8294 3.70847L12.9036 3.7272L12.9776 3.74665L13.0514 3.76681L13.1252 3.78769L13.1987 3.80928L13.272 3.83158L13.3451 3.8546L13.418 3.87833L13.4907 3.90276L13.5632 3.9279L13.6355 3.95374L13.7075 3.98029L13.7793 4.00754L13.8508 4.03549L13.922 4.06414L13.993 4.09347L14.0637 4.1235L14.1342 4.15423L14.2043 4.18563L14.2742 4.21773L14.3438 4.2505L14.413 4.28396L14.4819 4.3181L14.5505 4.35291L14.6188 4.38839L14.6867 4.42454L14.7542 4.46136L14.8215 4.49884L14.8883 4.53698L14.9548 4.57579L15.0209 4.61525L15.0867 4.65534L15.152 4.69611L15.2169 4.73748L15.2814 4.77952L15.3456 4.8222L15.4093 4.86548L15.4726 4.90943L15.5354 4.95398L15.5978 4.99916L15.6598 5.04498L15.7212 5.09138L15.7823 5.13843L15.8428 5.18602L15.903 5.23425L15.9626 5.28311L16.0217 5.33252L16.0804 5.38252L16.1386 5.43311L16.1962 5.48429L16.2533 5.53607L16.3099 5.58838L16.366 5.64125L16.4216 5.6947L16.4766 5.7487L16.5311 5.80329L16.585 5.85838L16.6384 5.91402L16.6912 5.9702L16.7434 6.02693L16.7951 6.08416L16.8462 6.14193L16.8967 6.2002L16.9466 6.25898L16.9959 6.31829L17.0446 6.37807L17.0927 6.43834L17.1402 6.49911L17.1871 6.56038L17.2334 6.62211L17.279 6.68434L17.324 6.74702L17.3684 6.81011L17.4121 6.8737L17.4551 6.93775L17.4975 7.00225L17.5392 7.06716L17.5803 7.13248L17.6207 7.19825L17.6605 7.26443L17.6995 7.33102L17.7379 7.39802L17.7756 7.46543L17.8126 7.5332L17.8488 7.60138L17.8844 7.66993L17.9193 7.73884L17.9535 7.80816L17.9869 7.87779L18.0197 7.94779L18.0517 8.01816L18.083 8.08884L18.1135 8.15988L18.1433 8.2312L18.1724 8.30288L18.2008 8.37484L18.2283 8.44716L18.2552 8.5197L18.2813 8.59261L18.3066 8.66575L18.3312 8.7392L18.355 8.81288L18.378 8.88684L18.4003 8.96107L18.4218 9.03552L18.4425 9.11025L18.4625 9.1852L18.4816 9.26034L18.5 9.33575L18.5176 9.41134L18.5344 9.48716L18.5504 9.56311L18.5656 9.63934L18.58 9.7157L18.5937 9.79225L18.6065 9.86893L18.6185 9.94579L18.6297 10.0228L18.6401 10.1L18.6497 10.1773L18.6585 10.2547L18.6664 10.3322L18.6736 10.4099L18.6799 10.4877L18.6854 10.5655L18.6901 10.6435L18.694 10.7215L18.6971 10.7996L18.6993 10.8777L18.7007 10.956L18.7013 11.0342L18.7011 11.1126L18.7 11.1909L18.6981 11.2693L18.6954 11.3477L18.6918 11.4261L18.6875 11.5045L18.6822 11.5829L18.6762 11.6613L18.6693 11.7397L18.6616 11.8181L18.6531 11.8964L18.6437 11.9746L18.6335 12.0528L18.6225 12.131L18.6106 12.2091L18.598 12.2871L18.5845 12.365L18.5701 12.4428L18.555 12.5205L18.539 12.5982L18.5221 12.6757L18.5045 12.753L18.486 12.8303L18.4667 12.9074L18.4466 12.9843L18.4256 13.0611L18.4039 13.1377L18.3813 13.2142L18.3579 13.2905L18.3337 13.3666L18.3087 13.4425L18.2829 13.5182L18.2562 13.5937L18.2287 13.6689L18.2005 13.744L18.1714 13.8187L18.1415 13.8933L18.1108 13.9676L18.0794 14.0417L18.0471 14.1154L18.0141 14.189L17.9802 14.2622L17.9456 14.3351L17.9101 14.4077L17.8739 14.4801L17.8369 14.5521L17.7992 14.6238L17.7606 14.6952L17.7213 14.7662L17.6812 14.8369L17.6404 14.9072L17.5988 14.9772L17.5564 15.0469L17.5133 15.1161L17.4695 15.185L17.4248 15.2535L17.3795 15.3216L17.3334 15.3892L17.2866 15.4565L17.239 15.5234L17.1907 15.5898L17.1417 15.6558L17.092 15.7214L17.0416 15.7866L16.9904 15.8512L16.9386 15.9154L16.886 15.9792L16.8328 16.0425L16.7788 16.1052L16.7241 16.1676L16.6688 16.2294L16.6128 16.2907L16.5562 16.3515L16.4988 16.4118L16.4409 16.4716L16.3822 16.5309L16.3229 16.5896L16.2629 16.6477L16.2023 16.7054L16.1411 16.7625L16.0793 16.819L16.0168 16.875L15.9537 16.9304L15.89 16.9852L15.8257 17.0394L15.7607 17.0931L15.6952 17.1461L15.6291 17.1985L15.5625 17.2504L15.4952 17.3016L15.4273 17.3522L15.3589 17.4022L15.29 17.4515L15.2205 17.5002L15.1504 17.5483L15.0798 17.5957L15.0087 17.6425L14.9371 17.6886L14.8649 17.7341L14.7923 17.7789L14.7191 17.823L14.6454 17.8664L14.5712 17.9092L14.4965 17.9512L14.4215 17.9926L14.3458 18.0332L14.2698 18.0732L14.1933 18.1125L14.1163 18.151L14.0389 18.1889L13.961 18.226L13.8828 18.2623L13.8041 18.298L13.725 18.3329L13.6455 18.3671L13.5656 18.4005L13.4853 18.4332L13.4047 18.4652L13.3236 18.4963L13.2422 18.5267L13.1605 18.5564L13.0784 18.5853L12.9959 18.6134L12.9131 18.6407L12.8301 18.6673L12.7466 18.6931L12.6629 18.7181L12.5789 18.7423L12.4946 18.7657L12.4099 18.7884L12.3251 18.8102L12.2399 18.8312L12.1545 18.8515L12.0689 18.8709L11.9829 18.8895L11.8968 18.9073L11.8105 18.9243L11.7239 18.9405L11.6371 18.9559L11.5501 18.9704L11.463 18.9841L11.3756 18.997L11.2881 19.0091L11.2004 19.0203L11.1125 19.0307L11.0245 19.0402L10.9364 19.049L10.8481 19.0569L10.7597 19.0639L10.6712 19.0702L10.5826 19.0755L10.4939 19.0801L10.4051 19.0837L10.3163 19.0866L10.2273 19.0886L10.1383 19.0897L10.0493 19.09L9.96021 19.0895L9.8711 19.0881L9.78194 19.0858L9.69278 19.0827L9.60362 19.0787L9.51447 19.074L9.42535 19.0683L9.3362 19.0618L9.24713 19.0544L9.15807 19.0462L9.06905 19.0372L8.98012 19.0272L8.89125 19.0165L8.80241 19.0048L8.71372 18.9923L8.62508 18.979L8.53658 18.9648L8.44816 18.9498L8.35985 18.9339L8.27172 18.9172L8.18368 18.8997L8.09583 18.8812L8.00808 18.8619L7.92055 18.8418L7.83317 18.8209L7.74598 18.7991L7.65897 18.7764L7.5722 18.753L7.48561 18.7287L7.39921 18.7035L7.31309 18.6775L7.2272 18.6507L7.14155 18.6231L7.05613 18.5946L6.971 18.5652L6.88614 18.5352L6.80156 18.5042L6.71727 18.4724L6.6333 18.4398L6.54961 18.4064L6.46625 18.3722L6.38321 18.3372L6.30051 18.3014L6.21813 18.2647L6.13612 18.2273L6.05449 18.1891L5.97324 18.15L5.8923 18.1102L5.8118 18.0696L5.73171 18.0282L5.65195 17.9861L5.57265 17.9431L5.49378 17.8994L5.41533 17.8549L5.3373 17.8096L5.25973 17.7636L5.18259 17.7168L5.10592 17.6693L5.02975 17.621L4.95401 17.572L4.87879 17.5222L4.80408 17.4717L4.72983 17.4204L4.65611 17.3684L4.5829 17.3157L4.51022 17.2623L4.43807 17.2082L4.36647 17.1533L4.29541 17.0977L4.22491 17.0415L4.15497 16.9846L4.0856 16.9269L4.01681 16.8686L3.94861 16.8096L3.88101 16.7499L3.81401 16.6896L3.74761 16.6285L3.68183 16.5669L3.61668 16.5045L3.55215 16.4416L3.48826 16.378L3.42501 16.3137L3.36242 16.2488L3.30049 16.1833L3.23922 16.1172L3.17863 16.0505L3.11871 15.9832L3.05947 15.9152L3.00094 15.8467L2.9431 15.7776L2.88596 15.7079L2.82954 15.6376L2.77383 15.5668L2.71885 15.4954L2.6646 15.4234L2.61108 15.3509L2.55831 15.2779L2.50629 15.2043L2.45502 15.1302L2.40451 15.0556L2.35477 14.9805L2.30579 14.9049L2.2576 14.8287L2.21019 14.7522L2.16357 14.675L2.11775 14.5975L2.07272 14.5194L2.0285 14.4409L1.98509 14.3619L1.94248 14.2825L1.90071 14.2027L1.85975 14.1224L1.81963 14.0417L1.78035 13.9606L1.7419 13.8791L1.70429 13.7972L1.66754 13.7149L1.63164 13.6322L1.59659 13.5491L1.56241 13.4657L1.52909 13.3818L1.49665 13.2977L1.46508 13.2132L1.43438 13.1284L1.40457 13.0432L1.37564 12.9577L1.34761 12.872L1.32046 12.7859L1.29422 12.6995L1.26888 12.6128L1.24443 12.5259L1.2209 12.4387L1.19827 12.3512L1.17656 12.2635L1.15577 12.1756L1.1359 12.0873L1.11694 11.9989L1.09891 11.9103L1.08181 11.8215L1.06564 11.7324L1.0504 11.6432L1.0361 11.5538L1.02273 11.4642L1.0103 11.3744L0.998821 11.2845L0.988278 11.1945L0.978679 11.1043L0.97003 11.014L0.96233 10.9236L0.955579 10.833L0.949781 10.7424L0.944938 10.6517L0.941048 10.5608L0.938112 10.47L0.936134 10.379L0.935119 10.288L0.935059 10.197ZM9.99495 3.52956L9.97363 1.77947L9.95339 1.78137L9.86044 1.79099L9.76773 1.80148L9.67506 1.81286L9.58277 1.82509L9.49057 1.83821L9.39847 1.8522L9.30665 1.86706L9.21492 1.8828L9.12366 1.89936L9.03225 1.91684L8.94151 1.93512L8.85062 1.95431L8.7602 1.97432L8.66987 1.99522L8.57996 2.01692L8.49029 2.03949L8.40085 2.06291L8.31169 2.08717L8.22295 2.11224L8.13436 2.13818L8.04623 2.16492L7.95833 2.19251L7.8709 2.22086L7.78361 2.25011L7.69679 2.28014L7.61039 2.31097L7.52423 2.34264L7.43853 2.37508L7.3533 2.4083L7.2683 2.44238L7.18372 2.47723L7.09957 2.51288L7.01588 2.54927L6.93261 2.58646L6.84981 2.62439L6.76729 2.66317L6.68538 2.70265L6.60389 2.7429L6.52287 2.78391L6.44231 2.82568L6.36232 2.86816L6.28265 2.91143L6.2035 2.95544L6.12504 3.00009L6.04682 3.04561L5.96935 3.09173L5.8924 3.13857L5.81582 3.18618L5.73984 3.23448L5.66443 3.28349L5.58972 3.33308L5.51529 3.38354L5.4416 3.43455L5.36848 3.48626L5.29587 3.53868L5.22392 3.59172L5.15262 3.64539L5.08174 3.69983L5.01166 3.75478L4.94209 3.81045L4.87318 3.86673L4.80487 3.92366L4.73727 3.98113L4.67017 4.03934L4.60383 4.09806L4.53806 4.15746L4.47306 4.21736L4.40865 4.27791L4.34495 4.33901L4.2819 4.40071L4.21947 4.46304L4.15785 4.52581L4.09693 4.58911L4.03655 4.65316L3.977 4.71761L3.91819 4.78252L3.85997 4.84811L3.80261 4.91411L3.74588 4.9807L3.68991 5.04775L3.63468 5.11534L3.58016 5.18338L3.52645 5.25188L3.47344 5.32088L3.42116 5.39043L3.36972 5.46029L3.31897 5.53075L3.26903 5.60157L3.21986 5.67284L3.17143 5.74457L3.12382 5.8167L3.07698 5.8892L3.03094 5.96216L2.98571 6.03548L2.94123 6.10925L2.89755 6.18343L2.85473 6.25788L2.81267 6.33275L2.77142 6.40802L2.73101 6.48361L2.69139 6.55957L2.65262 6.63579L2.61466 6.71238L2.57754 6.78929L2.54123 6.86657L2.50578 6.94407L2.47113 7.02193L2.43732 7.10007L2.40439 7.17843L2.37227 7.25711L2.341 7.33607L2.31059 7.41525L2.28101 7.4947L2.25232 7.57434L2.22445 7.65429L2.19744 7.73443L2.1713 7.81479L2.14603 7.89529L2.1216 7.97611L2.09805 8.05702L2.07536 8.13816L2.05353 8.21943L2.03257 8.30093L2.01248 8.38252L1.99327 8.46429L1.97492 8.5462L1.95745 8.62825L1.94085 8.71038L1.92512 8.79266L1.91028 8.87502L1.8963 8.95752L1.8832 9.04007L1.87098 9.1227L1.85964 9.20543L1.84917 9.2882L1.83958 9.37102L1.83087 9.45393L1.82304 9.53684L1.81609 9.61975L1.81001 9.70275L1.80481 9.78575L1.80048 9.8687L1.79704 9.9517L1.79447 10.0347L1.79277 10.1176L1.79195 10.2005L1.79201 10.2834L1.79293 10.3662L1.79473 10.4491L1.7974 10.5318L1.80094 10.6144L1.80536 10.697L1.81063 10.7795L1.81677 10.8619L1.82378 10.9442L1.83165 11.0263L1.84038 11.1084L1.84998 11.1903L1.86043 11.2722L1.87173 11.3538L1.88389 11.4353L1.89691 11.5167L1.91077 11.5978L1.92548 11.6788L1.94103 11.7596L1.95743 11.8402L1.97467 11.9207L1.99274 12.0008L2.01165 12.0808L2.0314 12.1606L2.05197 12.2402L2.07337 12.3195L2.09559 12.3985L2.11864 12.4773L2.1425 12.5558L2.16718 12.6341L2.19267 12.7121L2.21896 12.7898L2.24606 12.8672L2.27396 12.9443L2.30266 13.0211L2.33214 13.0976L2.36243 13.1737L2.39349 13.2496L2.42533 13.3251L2.45796 13.4002L2.49136 13.475L2.52553 13.5494L2.56046 13.6235L2.59616 13.6972L2.63261 13.7705L2.66981 13.8434L2.70776 13.916L2.74646 13.9881L2.78589 14.0598L2.82606 14.1312L2.86696 14.202L2.90858 14.2725L2.95092 14.3425L2.99398 14.4121L3.03772 14.4812L3.08221 14.5499L3.12736 14.6181L3.17323 14.6858L3.21978 14.7531L3.26701 14.8199L3.31491 14.8862L3.3635 14.952L3.41274 15.0173L3.46266 15.0822L3.51321 15.1464L3.56444 15.2102L3.61628 15.2734L3.66877 15.3362L3.72191 15.3984L3.77565 15.46L3.83002 15.5211L3.885 15.5817L3.9406 15.6417L3.99679 15.7011L4.05356 15.7599L4.11094 15.8182L4.16889 15.8759L4.22743 15.9331L4.28653 15.9896L4.3462 16.0455L4.40641 16.1008L4.46718 16.1556L4.5285 16.2097L4.59035 16.2632L4.6527 16.3161L4.71562 16.3684L4.77906 16.42L4.84293 16.471L4.9074 16.5214L4.97229 16.5711L5.0377 16.6202L5.10358 16.6687L5.16997 16.7164L5.23678 16.7635L5.30406 16.81L5.37175 16.8557L5.43997 16.9009L5.50855 16.9453L5.57766 16.9891L5.64708 17.0322L5.71698 17.0745L5.7873 17.1162L5.85794 17.1572L5.92905 17.1976L6.00049 17.2372L6.07235 17.2761L6.14454 17.3142L6.21715 17.3517L6.29004 17.3885L6.3633 17.4246L6.43693 17.4599L6.5109 17.4946L6.58514 17.5285L6.65971 17.5617L6.73456 17.5941L6.80979 17.6258L6.88525 17.6567L6.96104 17.687L7.03706 17.7165L7.11336 17.7452L7.18994 17.7733L7.26671 17.8006L7.34376 17.8271L7.42109 17.8528L7.49861 17.8779L7.57636 17.9022L7.65425 17.9257L7.73247 17.9484L7.81078 17.9704L7.88932 17.9917L7.96806 18.0122L8.04693 18.0319L8.12599 18.0508L8.20514 18.069L8.28453 18.0865L8.36401 18.1031L8.44358 18.119L8.52334 18.1342L8.6032 18.1485L8.68315 18.1621L8.76319 18.1749L8.84332 18.187L8.92355 18.1982L9.00387 18.2087L9.0842 18.2185L9.16461 18.2275L9.24507 18.2357L9.32558 18.2431L9.40614 18.2497L9.4867 18.2557L9.56725 18.2607L9.64785 18.2651L9.72841 18.2687L9.80897 18.2715L9.88952 18.2735L9.97008 18.2747L10.0505 18.2752L10.131 18.275L10.2114 18.2739L10.2917 18.2722L10.372 18.2696L10.4522 18.2662L10.5324 18.2622L10.6124 18.2573L10.6923 18.2517L10.7722 18.2453L10.8519 18.2382L10.9315 18.2303L11.0109 18.2217L11.0902 18.2123L11.1694 18.2022L11.2485 18.1912L11.3273 18.1796L11.406 18.1672L11.4846 18.1541L11.5629 18.1402L11.641 18.1257L11.719 18.1103L11.7967 18.0942L11.8742 18.0775L11.9515 18.0599L12.0286 18.0417L12.1054 18.0227L12.182 18.003L12.2583 17.9826L12.3344 17.9614L12.4102 17.9396L12.4858 17.917L12.561 17.8938L12.636 17.8698L12.7107 17.8452L12.7849 17.8198L12.8591 17.7937L12.9328 17.767L13.0062 17.7395L13.0793 17.7114L13.152 17.6827L13.2243 17.6532L13.2964 17.623L13.3681 17.5922L13.4393 17.5607L13.5103 17.5286L13.5808 17.4958L13.651 17.4624L13.7208 17.4282L13.7901 17.3935L13.8591 17.3582L13.9276 17.3221L13.9957 17.2855L14.0634 17.2482L14.1306 17.2103L14.1976 17.1718L14.2638 17.1327L14.3299 17.0929L14.3953 17.0526L14.4603 17.0117L14.5248 16.9701L14.5889 16.9279L14.6524 16.8853L14.7155 16.842L14.7781 16.7981L14.8402 16.7537L14.9018 16.7087L14.9628 16.6632L15.0234 16.617L15.0834 16.5703L15.1429 16.5232L15.202 16.4754L15.2604 16.4271L15.3182 16.3783L15.3756 16.3289L15.4324 16.2791L15.4886 16.2287L15.5443 16.1779L15.5993 16.1266L15.6539 16.0747L15.7078 16.0223L15.7612 15.9695L15.814 15.9162L15.8661 15.8624L15.9176 15.8082L15.9687 15.7534L16.019 15.6983L16.0688 15.6427L16.1178 15.5867L16.1664 15.5302L16.2143 15.4733L16.2615 15.416L16.3081 15.3582L16.3541 15.3002L16.3995 15.2416L16.4441 15.1827L16.4882 15.1233L16.5317 15.0635L16.5743 15.0035L16.6165 14.943L16.6578 14.8822L16.6986 14.821L16.7388 14.7594L16.7781 14.6976L16.8169 14.6354L16.855 14.5727L16.8923 14.51L16.929 14.4467L16.965 14.3832L17.0003 14.3195L17.0349 14.2553L17.0689 14.1908L17.102 14.1263L17.1345 14.0613L17.1664 13.996L17.1975 13.9306L17.2279 13.8648L17.2576 13.7988L17.2865 13.7327L17.3148 13.6661L17.3423 13.5994L17.3691 13.5326L17.3952 13.4653L17.4205 13.3981L17.4452 13.3305L17.4692 13.2627L17.4923 13.1948L17.5147 13.1268L17.5365 13.0584L17.5575 12.99L17.5777 12.9214L17.5973 12.8527L17.6161 12.7838L17.6341 12.7148L17.6514 12.6457L17.668 12.5763L17.6838 12.507L17.6989 12.4374L17.7132 12.3679L17.7268 12.2981L17.7397 12.2285L17.7518 12.1586L17.7631 12.0886L17.7738 12.0187L17.7837 11.9486L17.7928 11.8786L17.8012 11.8082L17.8088 11.7382L17.8157 11.6679L17.8219 11.5978L17.8273 11.5274L17.832 11.4573L17.8359 11.387L17.8391 11.3167L17.8415 11.2465L17.8432 11.1764L17.8442 11.1061L17.8444 11.0359L17.8439 10.9658L17.8426 10.8958L17.8406 10.8257L17.8379 10.756L17.8344 10.6859L17.8302 10.6162L17.8252 10.5465L17.8196 10.477L17.8132 10.4073L17.8061 10.338L17.7982 10.2687L17.7896 10.1995L17.7803 10.1304L17.7703 10.0616L17.7595 9.99266L17.748 9.92407L17.7359 9.8557L17.723 9.78729L17.7093 9.71911L17.695 9.6512L17.68 9.58325L17.6643 9.51579L17.6478 9.44825L17.6307 9.38116L17.6128 9.31398L17.5943 9.24729L17.5751 9.1807L17.5552 9.11425L17.5346 9.0482L17.5133 8.98238L17.4913 8.91661L17.4687 8.85134L17.4454 8.78611L17.4214 8.72129L17.3967 8.65661L17.3714 8.59238L17.3454 8.52825L17.3188 8.46448L17.2915 8.40111L17.2636 8.33802L17.2349 8.27502L17.2057 8.21261L17.1758 8.15025L17.1453 8.08848L17.1142 8.02693L17.0823 7.96561L17.05 7.90479L17.0169 7.84425L16.9832 7.78398L16.9491 7.72429L16.9142 7.66475L16.8787 7.6057L16.8426 7.54693L16.806 7.48875L16.7687 7.4307L16.7309 7.3732L16.6924 7.31598L16.6534 7.25925L16.6139 7.20302L16.5737 7.14702L16.533 7.09152L16.4917 7.03643L16.4499 6.98184L16.4075 6.92757L16.3646 6.87384L16.3212 6.82048L16.2772 6.76761L16.2327 6.7152L16.1876 6.6632L16.142 6.6117L16.096 6.56066L16.0494 6.51011L16.0024 6.46002L15.9547 6.41034L15.9068 6.36134L15.858 6.31261L15.8091 6.26457L15.7596 6.21688L15.7096 6.16979L15.6591 6.12307L15.6083 6.07707L15.5569 6.03143L15.505 5.98634L15.4529 5.94184L15.4002 5.89784L15.347 5.85425L15.2934 5.81129L15.2395 5.76888L15.1852 5.72702L15.1304 5.68566L15.0753 5.64498L15.0196 5.60461L14.9637 5.56502L14.9074 5.52593L14.8506 5.48734L14.7937 5.44938L14.7361 5.41188L14.6785 5.37516L14.6202 5.33884L14.5618 5.30316L14.5029 5.26802L14.4437 5.23348L14.3842 5.19957L14.3245 5.16629L14.2643 5.13343L14.204 5.10134L14.1432 5.06975L14.0822 5.03879L14.021 5.00848L13.9593 4.9787L13.8975 4.94952L13.8354 4.92102L13.773 4.89307L13.7104 4.86579L13.6475 4.83907L13.5824 4.81216L13.5212 4.78757L13.4574 4.76266L13.3938 4.73852L13.3297 4.71484L13.2655 4.69193L13.2011 4.66957L13.1365 4.64788L13.0717 4.62675L13.0068 4.60634L12.9416 4.58652L12.8763 4.56734L12.8109 4.54884L12.7453 4.53091L12.6794 4.5136L12.6136 4.497L12.5477 4.48103L12.4814 4.46564L12.4153 4.45096L12.3488 4.43687L12.2824 4.42346L12.2157 4.41066L12.1492 4.39853L12.0824 4.38703L12.0157 4.3762L11.9486 4.36598L11.8818 4.35643L11.8148 4.34751L11.7477 4.33923L11.6806 4.3316L11.6135 4.32463L11.5464 4.31829L11.4792 4.3126L11.4119 4.30755L11.3447 4.30314L11.2776 4.29939L11.2104 4.29628L11.1431 4.2938L11.0761 4.29197L11.0089 4.29078L10.9418 4.29023L10.8747 4.29033L10.8612 4.29048L10.8824 6.02784L10.9205 6.02766L10.9695 6.02793L11.0186 6.02866L11.0677 6.02988L11.1168 6.03157L11.1659 6.03375L11.2151 6.03638L11.2643 6.03948L11.3134 6.04307L11.3626 6.04711L11.4118 6.05166L11.4609 6.05666L11.5101 6.06216L11.5593 6.06811L11.6084 6.07452L11.6574 6.08148L11.7065 6.08884L11.7555 6.0967L11.8045 6.10507L11.8534 6.11388L11.9022 6.1232L11.9511 6.13298L11.9998 6.1432L12.0485 6.15393L12.0971 6.16516L12.1456 6.17684L12.194 6.18898L12.2423 6.20161L12.2906 6.2147L12.3387 6.22829L12.3868 6.24234L12.4347 6.25684L12.4825 6.27184L12.5302 6.28729L12.5778 6.30325L12.6252 6.31966L12.6725 6.33652L12.7196 6.35384L12.7667 6.37166L12.8135 6.38993L12.8602 6.40866L12.9067 6.42788L12.9531 6.44752L12.9993 6.46766L13.0453 6.4882L13.0911 6.50925L13.1368 6.53075L13.1823 6.5527L13.2275 6.57511L13.2726 6.59798L13.3174 6.62125L13.3621 6.64502L13.4065 6.6692L13.4507 6.69384L13.4947 6.71893L13.5384 6.74448L13.5819 6.77043L13.6252 6.79684L13.6682 6.8237L13.7109 6.85098L13.7534 6.87866L13.7957 6.90679L13.8377 6.93538L13.8794 6.96434L13.9208 6.99375L13.962 7.02361L14.0029 7.05384L14.0434 7.08452L14.0837 7.11561L14.1237 7.14707L14.1634 7.17898L14.2027 7.21129L14.2418 7.24398L14.2806 7.27707L14.319 7.31057L14.3571 7.34448L14.3949 7.37875L14.4323 7.41343L14.4694 7.44848L14.5061 7.48393L14.5425 7.51975L14.5786 7.55598L14.6143 7.59252L14.6496 7.62948L14.6846 7.66679L14.7192 7.70448L14.7534 7.74248L14.7873 7.78088L14.8207 7.81961L14.8538 7.8587L14.8865 7.89816L14.9188 7.93793L14.9507 7.97807L14.9822 8.01852L15.0133 8.05934L15.044 8.10043L15.0743 8.14188L15.1041 8.18366L15.1336 8.22575L15.1625 8.26816L15.1911 8.31084L15.2193 8.35389L15.247 8.3972L15.2743 8.44079L15.3011 8.4847L15.3275 8.52893L15.3534 8.57338L15.3789 8.61816L15.4039 8.6632L15.4285 8.70852L15.4526 8.75411L15.4763 8.79998L15.4994 8.84611L15.5222 8.89248L15.5444 8.93907L15.5661 8.98598L15.5874 9.03307L15.6082 9.08043L15.6285 9.12802L15.6483 9.17584L15.6676 9.22388L15.6864 9.27211L15.7047 9.32061L15.7225 9.36929L15.7399 9.4182L15.7567 9.46729L15.773 9.51661L15.7888 9.56607L15.8041 9.61575L15.8189 9.66561L15.8331 9.71566L15.8468 9.76588L15.8601 9.81625L15.8727 9.86679L15.8849 9.91748L15.8965 9.96834L15.9076 10.0193L15.9182 10.0705L15.9282 10.1217L15.9377 10.1732L15.9466 10.2247L15.9551 10.2764L15.9629 10.3282L15.9702 10.3801L15.977 10.4321L15.9833 10.4842L15.9889 10.5364L15.9941 10.5887L15.9987 10.6411L16.0027 10.6936L16.0062 10.7461L16.0091 10.7987L16.0115 10.8514L16.0134 10.9042L16.0146 10.9569L16.0153 11.0098L16.0155 11.0627L16.015 11.1156L16.0141 11.1686L16.0125 11.2216L16.0104 11.2746L16.0077 11.3276L16.0045 11.3807L16.0007 11.4337L15.9964 11.4868L15.9914 11.5398L15.986 11.5929L15.9799 11.6459L15.9733 11.6989L15.9661 11.7519L15.9583 11.8048L15.95 11.8577L15.9411 11.9106L15.9317 11.9634L15.9216 12.0162L15.9111 12.0689L15.8999 12.1216L15.8882 12.1742L15.8759 12.2267L15.863 12.2791L15.8496 12.3314L15.8356 12.3837L15.8211 12.4358L15.806 12.4878L15.7903 12.5397L15.7741 12.5916L15.7573 12.6433L15.7399 12.6949L15.722 12.7463L15.7036 12.7976L15.6846 12.8488L15.665 12.8998L15.6448 12.9507L15.6242 13.0014L15.603 13.0519L15.5812 13.1023L15.5588 13.1525L15.536 13.2026L15.5125 13.2524L15.4885 13.3021L15.4641 13.3515L15.439 13.4008L15.4134 13.4498L15.3872 13.4987L15.3606 13.5473L15.3334 13.5957L15.3056 13.6439L15.2774 13.6918L15.2486 13.7395L15.2193 13.787L15.1895 13.8342L15.1591 13.8812L15.1282 13.9279L15.0969 13.9743L15.0649 14.0205L15.0325 14.0664L14.9996 14.112L14.9662 14.1573L14.9322 14.2024L14.8978 14.2472L14.8629 14.2916L14.8275 14.3357L14.7916 14.3796L14.7551 14.4231L14.7182 14.4663L14.6809 14.5092L14.643 14.5517L14.6047 14.594L14.5659 14.6358L14.5266 14.6774L14.4869 14.7186L14.4467 14.7594L14.406 14.7999L14.3649 14.84L14.3233 14.8797L14.2813 14.9192L14.2388 14.9582L14.196 14.9967L14.1526 15.035L14.1088 15.0728L14.0646 15.1103L14.02 15.1474L13.975 15.184L13.9295 15.2203L13.8836 15.2561L13.8373 15.2915L13.7906 15.3265L13.7435 15.3611L13.696 15.3952L13.6481 15.429L13.5998 15.4623L13.5511 15.4951L13.5021 15.5275L13.4526 15.5595L13.4028 15.591L13.3527 15.622L13.3022 15.6526L13.2513 15.6827L13.2001 15.7124L13.1485 15.7416L13.0966 15.7702L13.0443 15.7985L12.9917 15.8262L12.9388 15.8535L12.8855 15.8803L12.8319 15.9066L12.7781 15.9323L12.7239 15.9577L12.6694 15.9824L12.6146 16.0067L12.5595 16.0305L12.5041 16.0537L12.4485 16.0765L12.3925 16.0987L12.3364 16.1204L12.2799 16.1416L12.2232 16.1623L12.1662 16.1824L12.1089 16.202L12.0514 16.2211L11.9937 16.2396L11.9358 16.2576L11.8776 16.275L11.8192 16.2919L11.7606 16.3082L11.7018 16.3241L11.6427 16.3393L11.5835 16.354L11.5241 16.3681L11.4645 16.3817L11.4046 16.3947L11.3447 16.4072L11.2845 16.419L11.2242 16.4303L11.1637 16.4411L11.1031 16.4513L11.0423 16.4609L10.9814 16.4699L10.9204 16.4783L10.8592 16.4862L10.7979 16.4935L10.7365 16.5002L10.675 16.5063L10.6134 16.5119L10.5516 16.5168L10.4898 16.5212L10.4279 16.525L10.3659 16.5282L10.3039 16.5307L10.2418 16.5327L10.1796 16.5342L10.1173 16.535L10.055 16.5352L9.99271 16.5348L9.93038 16.5338L9.86797 16.5323L9.80555 16.5301L9.74314 16.5273L9.68067 16.524L9.61826 16.52L9.5558 16.5155L9.49338 16.5103L9.43097 16.5045L9.36855 16.4982L9.30618 16.4912L9.24386 16.4837L9.18154 16.4755L9.11931 16.4667L9.05713 16.4573L8.99499 16.4474L8.9329 16.4368L8.87091 16.4257L8.80901 16.4139L8.7472 16.4015L8.68544 16.3885L8.62382 16.375L8.56229 16.3608L8.50086 16.346L8.43956 16.3307L8.37836 16.3147L8.3173 16.2982L8.25643 16.281L8.19565 16.2633L8.13501 16.245L8.07456 16.226L8.0143 16.2065L7.95412 16.1864L7.89419 16.1657L7.83443 16.1445L7.77482 16.1226L7.71545 16.1002L7.65626 16.0772L7.59726 16.0535L7.53849 16.0293L7.47995 16.0046L7.42165 15.9792L7.36354 15.9533L7.3057 15.9269L7.2481 15.8998L7.19074 15.8722L7.1336 15.844L7.0768 15.8153L7.02023 15.786L6.96394 15.7561L6.90793 15.7257L6.8522 15.6947L6.79675 15.6632L6.74162 15.6311L6.68678 15.5985L6.63227 15.5653L6.57808 15.5316L6.52422 15.4974L6.47069 15.4626L6.41748 15.4272L6.36461 15.3914L6.3121 15.3551L6.25993 15.3182L6.20812 15.2807L6.15665 15.2428L6.10559 15.2043L6.05491 15.1654L6.00461 15.1259L5.95467 15.0859L5.90512 15.0454L5.85598 15.0045L5.80726 14.963L5.75892 14.921L5.711 14.8786L5.66354 14.8357L5.61646 14.7922L5.5698 14.7483L5.52361 14.704L5.47788 14.6592L5.43258 14.6138L5.3877 14.5681L5.34328 14.5219L5.29938 14.4752L5.2559 14.4281L5.21289 14.3806L5.17039 14.3326L5.12831 14.2842L5.08679 14.2353L5.0457 14.186L5.00516 14.1363L4.96509 14.0862L4.92554 14.0356L4.8865 13.9847L4.84793 13.9333L4.80992 13.8816L4.77247 13.8294L4.73549 13.7769L4.69907 13.724L4.66319 13.6707L4.62785 13.617L4.59305 13.563L4.55881 13.5086L4.52512 13.4538L4.49199 13.3987L4.45942 13.3432L4.42742 13.2874L4.39599 13.2312L4.36514 13.1748L4.33486 13.118L4.30517 13.0608L4.27606 13.0034L4.24755 12.9456L4.21963 12.8876L4.19231 12.8292L4.16558 12.7705L4.13947 12.7116L4.11396 12.6523L4.08906 12.5928L4.06478 12.533L4.04111 12.4729L4.01807 12.4126L3.99564 12.3521L3.97385 12.2912L3.95269 12.2302L3.93216 12.1688L3.91227 12.1073L3.89301 12.0456L3.8744 11.9836L3.85644 11.9214L3.83911 11.859L3.82245 11.7963L3.80643 11.7336L3.79106 11.6706L3.77636 11.6074L3.76231 11.544L3.74892 11.4805L3.7362 11.4168L3.72414 11.353L3.71275 11.289L3.70204 11.2248L3.69199 11.1606L3.68262 11.0962L3.67392 11.0316L3.6659 10.9669L3.65856 10.9022L3.6519 10.8373L3.64592 10.7723L3.64063 10.7072L3.63602 10.6421L3.63209 10.5768L3.62885 10.5115L3.62631 10.4461L3.62445 10.3807L3.62328 10.3152L3.6228 10.2496L3.62302 10.184L3.62393 10.1183L3.62554 10.0527L3.62784 9.98702L3.63083 9.92129L3.63453 9.85561L3.63891 9.78988L3.644 9.7242L3.64978 9.65848L3.65626 9.59284L3.66344 9.52716L3.67131 9.46157L3.67989 9.39598L3.68916 9.33043L3.69912 9.26493L3.70979 9.19952L3.72115 9.13416L3.73322 9.06888L3.74598 9.00366L3.75943 8.93852L3.77358 8.87352L3.78843 8.80857L3.80397 8.74375L3.8202 8.67902L3.83713 8.61443L3.85475 8.54998L3.87306 8.48561L3.89206 8.42143L3.91175 8.35739L3.93212 8.29348L3.95319 8.2297L3.97494 8.16616L3.99737 8.10275L4.02049 8.03952L4.04429 7.97648L4.06876 7.91361L4.09392 7.85098L4.11975 7.78852L4.14625 7.72629L4.17343 7.66429L4.20128 7.60248L4.2298 7.54093L4.25898 7.47961L4.28882 7.41852L4.31933 7.3577L4.3505 7.29716L4.38232 7.23684L4.4148 7.17684L4.44793 7.11707L4.48172 7.05761L4.51615 6.99843L4.55122 6.93952L4.58693 6.88098L4.62329 6.8227L4.66027 6.76475L4.6979 6.70711L4.73614 6.64979L4.77504 6.59284L4.8145 6.5362L4.85466 6.47993L4.89539 6.42398L4.93672 6.36838L4.9787 6.3132L5.02125 6.25834L5.06445 6.20389L5.10821 6.14979L5.15258 6.09611L5.19751 6.04284L5.24304 5.98993L5.28919 5.93743L5.3359 5.88534L5.38316 5.8337L5.43104 5.78248L5.47943 5.73166L5.52842 5.68129L5.57798 5.63134L5.62806 5.58188L5.67869 5.53284L5.72988 5.48425L5.78164 5.43616L5.83391 5.38848L5.88669 5.34134L5.94004 5.29461L5.9939 5.24843L6.04823 5.2027L6.10312 5.15748L6.15852 5.11275L6.21439 5.06852L6.27077 5.02479L6.32767 4.98161L6.38504 4.93893L6.44287 4.89679L6.50122 4.85516L6.55999 4.81407L6.61922 4.77352L6.67898 4.73352L6.73915 4.69407L6.79974 4.6552L6.86085 4.61684L6.92233 4.57907L6.98427 4.54186L7.04664 4.50522L7.10943 4.46915L7.1726 4.43367L7.23623 4.39877L7.30023 4.36446L7.36461 4.33074L7.42941 4.29763L7.49459 4.26511L7.56013 4.23319L7.62606 4.20189L7.69235 4.1712L7.75902 4.14113L7.82602 4.11167L7.89339 4.08284L7.96109 4.05464L8.02912 4.02707L8.09747 4.00013L8.1661 3.97384L8.23511 3.94818L8.3044 3.92318L8.37401 3.89882L8.44391 3.87511L8.51409 3.85205L8.58454 3.82966L8.65523 3.80793L8.72625 3.78685L8.79751 3.76645L8.86904 3.74672L8.94076 3.72765L9.01276 3.70927L9.08499 3.69156L9.15746 3.67453L9.23011 3.65819L9.303 3.64253L9.37608 3.62755L9.44934 3.61327L9.52283 3.59968L9.59647 3.58679L9.67029 3.57459L9.7443 3.56309L9.81846 3.55229L9.89275 3.54219L9.96718 3.5328L9.99495 3.52956ZM10.0264 6.10643L10.005 4.34997L9.94394 4.35826L9.87835 4.36782L9.81271 4.37802L9.74748 4.38879L9.68217 4.40023L9.61718 4.41225L9.55234 4.42489L9.48772 4.43813L9.42325 4.45198L9.35892 4.46646L9.29477 4.48153L9.23091 4.49719L9.16709 4.51348L9.1058 4.52975L9.04048 4.54779L8.97741 4.56584L8.91462 4.58448L8.85216 4.60366L8.78984 4.62348L8.72775 4.64388L8.66594 4.66484L8.60446 4.68634L8.54321 4.70848L8.48225 4.73111L8.42151 4.75438L8.36125 4.77816L8.30099 4.80257L8.24119 4.82748L8.18167 4.85293L8.12258 4.87893L8.06362 4.90552L8.00499 4.93266L7.94688 4.96025L7.88886 4.98848L7.83144 5.01716L7.77412 5.04648L7.71736 5.07616L7.6607 5.10657L7.6046 5.13729L7.54887 5.16861L7.49342 5.20048L7.43839 5.23279L7.38364 5.2657L7.32945 5.29898L7.2755 5.33284L7.22206 5.36716L7.169 5.40193L7.1163 5.43725L7.06394 5.47307L7.01219 5.5092L6.96071 5.54598L6.90966 5.58316L6.85907 5.62079L6.80895 5.65884L6.75916 5.69743L6.70993 5.73638L6.66112 5.77579L6.61268 5.81575L6.56485 5.85598L6.51735 5.89675L6.47032 5.93793L6.4238 5.97948L6.37779 6.02143L6.33211 6.06388L6.28709 6.10661L6.24249 6.14979L6.19831 6.19343L6.15468 6.23738L6.11153 6.28179L6.06889 6.32652L6.02677 6.37161L5.98511 6.41711L5.94392 6.46302L5.90343 6.50916L5.86332 6.55575L5.82372 6.6027L5.78468 6.64993L5.7462 6.69748L5.70814 6.74548L5.67069 6.7937L5.63376 6.84229L5.59739 6.8912L5.56153 6.94043L5.52627 6.98988L5.49154 7.0397L5.45731 7.08984L5.42365 7.14025L5.3906 7.19089L5.3581 7.24184L5.32612 7.29316L5.2947 7.34461L5.26389 7.39638L5.2336 7.44843L5.20396 7.50061L5.17483 7.55316L5.14622 7.60598L5.11831 7.65888L5.09091 7.71216L5.06412 7.76561L5.03789 7.8192L5.01227 7.87311L4.98721 7.92716L4.96276 7.98143L4.93887 8.03588L4.91563 8.09052L4.89295 8.14534L4.87084 8.20039L4.84933 8.25557L4.82848 8.31088L4.80814 8.36643L4.78851 8.42202L4.76939 8.47784L4.75092 8.53379L4.73301 8.58988L4.71576 8.64607L4.69907 8.70238L4.68303 8.75879L4.66756 8.81538L4.65271 8.87202L4.63848 8.92879L4.62485 8.98566L4.61183 9.04257L4.59942 9.09961L4.58763 9.1567L4.57644 9.21384L4.56587 9.27111L4.55592 9.32839L4.54656 9.38575L4.53783 9.44307L4.5297 9.50052L4.52219 9.55797L4.51529 9.61548L4.509 9.67298L4.50333 9.73052L4.49826 9.78807L4.49381 9.84557L4.48997 9.90316L4.48673 9.9607L4.48411 10.0182L4.4821 10.0757L4.48069 10.1332L4.4799 10.1906L4.47971 10.2481L4.48012 10.3054L4.48115 10.3627L4.48277 10.42L4.485 10.4772L4.48783 10.5344L4.49126 10.5915L4.4953 10.6484L4.49993 10.7054L4.50516 10.7622L4.51098 10.8189L4.5174 10.8756L4.52441 10.9321L4.53201 10.9886L4.54021 11.0448L4.54899 11.1011L4.55836 11.1571L4.56831 11.213L4.57885 11.2688L4.58996 11.3244L4.60166 11.38L4.61393 11.4353L4.62678 11.4905L4.64019 11.5455L4.65419 11.6003L4.66874 11.655L4.68387 11.7095L4.69954 11.7638L4.71581 11.8179L4.73259 11.8718L4.74998 11.9256L4.76789 11.9791L4.78636 12.0324L4.80539 12.0854L4.82493 12.1383L4.84503 12.1909L4.8657 12.2433L4.88688 12.2955L4.90857 12.3474L4.93082 12.3991L4.95359 12.4505L4.97692 12.5016L5.00072 12.5525L5.02508 12.6031L5.04995 12.6535L5.07529 12.7036L5.10119 12.7533L5.12756 12.8029L5.15445 12.8521L5.18184 12.901L5.20971 12.9497L5.23809 12.998L5.26693 13.046L5.2963 13.0937L5.32612 13.1411L5.35642 13.1881L5.38718 13.2348L5.41846 13.2813L5.45011 13.3273L5.48233 13.3731L5.51491 13.4184L5.54801 13.4635L5.58154 13.5082L5.61553 13.5525L5.64994 13.5964L5.68481 13.6401L5.72007 13.6833L5.75579 13.7262L5.79193 13.7687L5.82849 13.8108L5.86547 13.8525L5.90287 13.8939L5.94065 13.9348L5.97885 13.9754L6.01742 14.0155L6.05641 14.0553L6.09578 14.0947L6.13556 14.1336L6.17568 14.1722L6.21621 14.2103L6.25712 14.248L6.29831 14.2853L6.33997 14.3222L6.38191 14.3586L6.42422 14.3946L6.4669 14.4302L6.50992 14.4653L6.55326 14.5001L6.59692 14.5343L6.64092 14.5681L6.68524 14.6015L6.72989 14.6344L6.77487 14.6669L6.82008 14.6989L6.86561 14.7304L6.91148 14.7615L6.95762 14.7922L7.0041 14.8223L7.0508 14.852L7.09779 14.8812L7.14506 14.91L7.19256 14.9383L7.24034 14.9661L7.2884 14.9934L7.33665 15.0202L7.38523 15.0466L7.43395 15.0725L7.48299 15.0979L7.53222 15.1228L7.58164 15.1472L7.63134 15.1711L7.68127 15.1945L7.73134 15.2175L7.7816 15.2399L7.83214 15.2618L7.88278 15.2832L7.93365 15.3042L7.9847 15.3246L8.03594 15.3445L8.08728 15.3639L8.13885 15.3828L8.19055 15.4012L8.2424 15.4192L8.29439 15.4365L8.34657 15.4534L8.39884 15.4697L8.45125 15.4856L8.5038 15.5009L8.55645 15.5157L8.60918 15.5301L8.66206 15.5438L8.71503 15.5572L8.7681 15.5699L8.82126 15.5821L8.87451 15.5938L8.92785 15.6051L8.98125 15.6157L9.03468 15.6259L9.08826 15.6355L9.1418 15.6447L9.19547 15.6533L9.24914 15.6613L9.30286 15.6689L9.35663 15.676L9.41039 15.6825L9.46421 15.6885L9.51802 15.694L9.57188 15.699L9.62574 15.7034L9.6796 15.7073L9.73346 15.7108L9.78727 15.7137L9.84108 15.7161L9.89494 15.7179L9.94871 15.7193L10.0024 15.7201L10.0561 15.7204L10.1098 15.7202L10.1634 15.7195L10.217 15.7183L10.2705 15.7166L10.324 15.7144L10.3773 15.7116L10.4306 15.7084L10.4838 15.7046L10.537 15.7003L10.59 15.6956L10.643 15.6903L10.6959 15.6845L10.7486 15.6782L10.8013 15.6715L10.8538 15.6642L10.9062 15.6565L10.9584 15.6482L11.0105 15.6395L11.0626 15.6302L11.1144 15.6205L11.1661 15.6103L11.2177 15.5996L11.2691 15.5884L11.3203 15.5767L11.3714 15.5646L11.4223 15.552L11.473 15.5389L11.5235 15.5253L11.5739 15.5112L11.6241 15.4967L11.674 15.4818L11.7237 15.4663L11.7733 15.4504L11.8227 15.4341L11.8718 15.4172L11.9207 15.4L11.9694 15.3822L12.0178 15.3641L12.066 15.3454L12.114 15.3263L12.1618 15.3068L12.2092 15.2869L12.2565 15.2665L12.3034 15.2457L12.3502 15.2244L12.3967 15.2027L12.4428 15.1807L12.4888 15.1581L12.5344 15.1352L12.5797 15.1118L12.6247 15.0881L12.6695 15.0639L12.714 15.0393L12.7582 15.0143L12.8021 14.9889L12.8456 14.9631L12.8888 14.9369L12.9318 14.9103L12.9744 14.8834L13.0167 14.8561L13.0587 14.8283L13.1003 14.8002L13.1416 14.7718L13.1826 14.7429L13.2232 14.7137L13.2635 14.6842L13.3035 14.6542L13.3429 14.624L13.3823 14.5933L13.4212 14.5623L13.4596 14.531L13.4978 14.4992L13.5355 14.4673L13.5729 14.435L13.61 14.4022L13.6466 14.3693L13.6828 14.336L13.7188 14.3024L13.7542 14.2685L13.7893 14.2342L13.824 14.1997L13.8584 14.1648L13.8922 14.1297L13.9257 14.0942L13.9589 14.0585L13.9915 14.0225L14.0239 13.9862L14.0557 13.9496L14.0871 13.9128L14.1182 13.8756L14.1488 13.8383L14.179 13.8007L14.2088 13.7628L14.2381 13.7246L14.267 13.6862L14.2955 13.6477L14.3236 13.6087L14.3511 13.5697L14.3783 13.5304L14.4051 13.4908L14.4313 13.4511L14.4572 13.4111L14.4826 13.3709L14.5075 13.3305L14.532 13.2899L14.5561 13.2491L14.5796 13.2082L14.6028 13.1669L14.6255 13.1256L14.6476 13.0841L14.6695 13.0423L14.6907 13.0006L14.7116 12.9584L14.7319 12.9163L14.7519 12.8738L14.7713 12.8314L14.7903 12.7887L14.8088 12.7459L14.8268 12.703L14.8444 12.6599L14.8615 12.6167L14.878 12.5735L14.8943 12.53L14.9099 12.4864L14.9251 12.4428L14.9398 12.399L14.9541 12.3551L14.9679 12.3112L14.9811 12.2672L14.9939 12.223L15.0062 12.1788L15.0181 12.1345L15.0295 12.0901L15.0404 12.0457L15.0508 12.0012L15.0607 11.9566L15.0702 11.912L15.0791 11.8674L15.0876 11.8227L15.0956 11.7779L15.1032 11.7332L15.1102 11.6884L15.1168 11.6435L15.1228 11.5987L15.1285 11.5539L15.1336 11.5089L15.1382 11.4642L15.1424 11.4192L15.1461 11.3743L15.1493 11.3295L15.1521 11.2846L15.1543 11.2398L15.1561 11.195L15.1574 11.1501L15.1582 11.1055L15.1586 11.0607L15.1584 11.016L15.1579 10.9713L15.1568 10.9268L15.1552 10.8822L15.1532 10.8377L15.1508 10.7934L15.1478 10.7489L15.1444 10.7046L15.1406 10.6605L15.1362 10.6163L15.1314 10.5723L15.1261 10.5283L15.1204 10.4845L15.1142 10.4407L15.1076 10.397L15.1005 10.3534L15.093 10.31L15.085 10.2667L15.0765 10.2235L15.0676 10.1803L15.0582 10.1374L15.0485 10.0946L15.0382 10.0519L15.0275 10.0092L15.0164 9.96698L15.0048 9.92457L14.9929 9.88252L14.9804 9.84052L14.9676 9.79879L14.9543 9.75711L14.9406 9.71561L14.9264 9.67439L14.9119 9.63329L14.8968 9.59225L14.8815 9.55157L14.8657 9.51098L14.8494 9.47066L14.8328 9.43043L14.8157 9.39038L14.7983 9.3507L14.7804 9.31107L14.7621 9.27175L14.7435 9.23266L14.7244 9.19366L14.7049 9.15488L14.6851 9.11648L14.6649 9.07816L14.6443 9.0402L14.6233 9.00248L14.6019 8.96479L14.5802 8.92757L14.558 8.89048L14.5355 8.8537L14.5126 8.81707L14.4895 8.78084L14.4658 8.7447L14.4419 8.70898L14.4176 8.67348L14.393 8.63825L14.3679 8.6032L14.3426 8.56852L14.317 8.53416L14.2909 8.49993L14.2645 8.46611L14.2378 8.43252L14.2109 8.39929L14.1835 8.36625L14.1558 8.33357L14.1278 8.30116L14.0995 8.26902L14.0709 8.23729L14.042 8.20575L14.0128 8.17461L13.9832 8.1437L13.9535 8.11325L13.9233 8.08293L13.893 8.05307L13.8622 8.02339L13.8312 7.99416L13.8001 7.96525L13.7685 7.93661L13.7367 7.90829L13.7046 7.88038L13.6723 7.85279L13.6396 7.82543L13.607 7.79861L13.5738 7.77193L13.5405 7.7457L13.5069 7.71984L13.4731 7.6942L13.439 7.66902L13.4049 7.64425L13.3703 7.6197L13.3354 7.59548L13.3006 7.57179L13.2653 7.54829L13.23 7.52534L13.1945 7.50261L13.1586 7.48025L13.1226 7.45825L13.0865 7.4367L13.05 7.41543L13.0135 7.39461L12.9767 7.37407L12.9399 7.35402L12.9028 7.33429L12.8655 7.31488L12.828 7.29589L12.7905 7.27734L12.7527 7.25907L12.7147 7.2412L12.6767 7.22375L12.6386 7.2067L12.6001 7.18993L12.5617 7.17366L12.5231 7.15775L12.4843 7.14216L12.4455 7.12702L12.4066 7.11229L12.3675 7.09793L12.3282 7.08388L12.2889 7.07034L12.2495 7.05711L12.2099 7.04429L12.1704 7.03188L12.1307 7.01988L12.091 7.00825L12.051 6.99698L12.0111 6.98616L11.9712 6.9757L11.9311 6.96566L11.891 6.95598L11.8507 6.9467L11.8105 6.93784L11.7703 6.92938L11.7299 6.92129L11.6894 6.91357L11.6491 6.90634L11.6086 6.89943L11.5681 6.89293L11.5275 6.88679L11.4871 6.88111L11.4464 6.87575L11.406 6.87088L11.3654 6.86634L11.3248 6.8622L11.2843 6.85848L11.2436 6.85511L11.2032 6.85216L11.1625 6.84961L11.122 6.84743L11.0816 6.84566L11.041 6.84425L11.0006 6.84325L10.9602 6.84266L10.9199 6.84243L10.8923 6.84252L10.9132 8.55861L10.9257 8.55866L10.9489 8.55898L10.9721 8.55952L10.9954 8.56025L11.0187 8.56129L11.042 8.56252L11.0653 8.56398L11.0887 8.5657L11.1121 8.56766L11.1355 8.56984L11.1589 8.57225L11.1823 8.57488L11.2058 8.57779L11.2292 8.58093L11.2527 8.58429L11.2762 8.58793L11.2996 8.59179L11.3231 8.59589L11.3465 8.60025L11.37 8.60479L11.3934 8.60966L11.4168 8.6147L11.4402 8.62002L11.4636 8.62557L11.4869 8.63134L11.5103 8.63738L11.5336 8.64366L11.5568 8.65016L11.5801 8.65693L11.6033 8.66393L11.6264 8.6712L11.6495 8.6787L11.6726 8.68643L11.6956 8.69439L11.7186 8.70261L11.7415 8.71107L11.7644 8.71975L11.7872 8.7287L11.8099 8.73788L11.8326 8.74729L11.8552 8.75698L11.8777 8.76688L11.9002 8.77702L11.9226 8.78743L11.9449 8.79802L11.9672 8.80888L11.9893 8.82002L12.0114 8.83134L12.0333 8.84293L12.0552 8.85475L12.077 8.86679L12.0987 8.87907L12.1203 8.89157L12.1418 8.90434L12.1631 8.91734L12.1844 8.93057L12.2055 8.94398L12.2266 8.95766L12.2475 8.97161L12.2683 8.98575L12.289 9.00011L12.3096 9.0147L12.33 9.02952L12.3503 9.04457L12.3704 9.05984L12.3905 9.07534L12.4104 9.09107L12.4301 9.10698L12.4497 9.12316L12.4692 9.13952L12.4885 9.15611L12.5077 9.17293L12.5266 9.18998L12.5455 9.2072L12.5641 9.22466L12.5827 9.24234L12.601 9.2602L12.6192 9.27829L12.6373 9.29657L12.6551 9.31507L12.6727 9.33379L12.6902 9.3527L12.7076 9.37179L12.7247 9.39111L12.7416 9.41061L12.7584 9.43029L12.7749 9.4502L12.7913 9.47029L12.8075 9.49057L12.8235 9.51107L12.8393 9.5317L12.8548 9.55257L12.8702 9.57357L12.8854 9.59479L12.9003 9.6162L12.9151 9.63779L12.9296 9.65952L12.944 9.68148L12.958 9.70357L12.9719 9.72584L12.9856 9.74829L12.999 9.77088L13.0122 9.79366L13.0252 9.81661L13.0379 9.8397L13.0505 9.86298L13.0627 9.88638L13.0748 9.90993L13.0866 9.93366L13.0981 9.95757L13.1094 9.98157L13.1205 10.0057L13.1313 10.0301L13.1419 10.0545L13.1522 10.0791L13.1623 10.1038L13.1721 10.1287L13.1817 10.1537L13.191 10.1788L13.2 10.2041L13.2088 10.2295L13.2173 10.255L13.2256 10.2806L13.2335 10.3063L13.2413 10.3322L13.2487 10.3582L13.2559 10.3842L13.2628 10.4104L13.2694 10.4367L13.2758 10.4632L13.2818 10.4896L13.2876 10.5162L13.2932 10.5429L13.2983 10.5697L13.3033 10.5966L13.308 10.6235L13.3124 10.6505L13.3164 10.6777L13.3202 10.7048L13.3237 10.7321L13.327 10.7595L13.3299 10.7869L13.3325 10.8143L13.3349 10.8419L13.3369 10.8695L13.3386 10.8972L13.3401 10.9249L13.3412 10.9527L13.3421 10.9805L13.3426 11.0083L13.3429 11.0362L13.3428 11.0642L13.3425 11.0922L13.3418 11.1202L13.3408 11.1482L13.3396 11.1763L13.338 11.2044L13.3361 11.2326L13.3339 11.2607L13.3314 11.2889L13.3286 11.3171L13.3255 11.3452L13.3221 11.3734L13.3183 11.4017L13.3143 11.4299L13.3099 11.4581L13.3053 11.4862L13.3003 11.5144L13.295 11.5426L13.2894 11.5708L13.2835 11.5989L13.2772 11.6271L13.2707 11.6552L13.2638 11.6832L13.2566 11.7113L13.2492 11.7393L13.2414 11.7673L13.2333 11.7952L13.2249 11.8231L13.2161 11.851L13.2071 11.8788L13.1977 11.9065L13.1881 11.9342L13.1781 11.9619L13.1678 11.9894L13.1572 12.017L13.1463 12.0444L13.135 12.0718L13.1235 12.0991L13.1117 12.1263L13.0995 12.1534L13.087 12.1805L13.0743 12.2075L13.0612 12.2343L13.0477 12.2612L13.0341 12.2878L13.0201 12.3144L13.0058 12.3409L12.9911 12.3673L12.9762 12.3936L12.961 12.4197L12.9455 12.4458L12.9297 12.4717L12.9136 12.4975L12.8971 12.5232L12.8804 12.5488L12.8634 12.5742L12.8461 12.5995L12.8285 12.6247L12.8106 12.6497L12.7924 12.6746L12.7739 12.6993L12.7551 12.7239L12.736 12.7483L12.7167 12.7726L12.6971 12.7967L12.6771 12.8207L12.6569 12.8444L12.6365 12.8681L12.6157 12.8915L12.5946 12.9148L12.5733 12.9379L12.5517 12.9608L12.5298 12.9836L12.5077 13.0061L12.4853 13.0285L12.4626 13.0507L12.4396 13.0727L12.4164 13.0945L12.3929 13.1161L12.3692 13.1374L12.3452 13.1586L12.3209 13.1796L12.2964 13.2004L12.2716 13.2209L12.2466 13.2412L12.2213 13.2614L12.1958 13.2813L12.1701 13.3009L12.1441 13.3204L12.1178 13.3396L12.0913 13.3586L12.0646 13.3773L12.0376 13.3958L12.0105 13.4142L11.983 13.4322L11.9554 13.45L11.9275 13.4675L11.8994 13.4848L11.8711 13.5018L11.8426 13.5186L11.8138 13.5351L11.7849 13.5514L11.7557 13.5674L11.7263 13.5831L11.6968 13.5986L11.667 13.6138L11.637 13.6287L11.6068 13.6434L11.5765 13.6578L11.5459 13.6719L11.5151 13.6857L11.4842 13.6992L11.4531 13.7125L11.4218 13.7255L11.3903 13.7382L11.3587 13.7505L11.3269 13.7626L11.2949 13.7744L11.2627 13.7859L11.2304 13.7972L11.198 13.8081L11.1653 13.8187L11.1325 13.829L11.0996 13.8389L11.0666 13.8486L11.0333 13.858L11 13.8671L10.9665 13.8758L10.9329 13.8842L10.8992 13.8924L10.8653 13.9002L10.8313 13.9077L10.7971 13.9148L10.7629 13.9217L10.7286 13.9282L10.6941 13.9343L10.6595 13.9402L10.6249 13.9457L10.5901 13.9509L10.5552 13.9558L10.5203 13.9603L10.4853 13.9646L10.4501 13.9684L10.4149 13.9719L10.3796 13.9752L10.3443 13.978L10.3089 13.9805L10.2733 13.9827L10.2378 13.9845L10.2022 13.986L10.1665 13.9872L10.1307 13.9879L10.095 13.9884L10.0591 13.9885L10.0233 13.9883L9.98738 13.9877L9.95142 13.9867L9.91547 13.9855L9.87947 13.9838L9.84342 13.9818L9.80737 13.9795L9.77133 13.9768L9.73528 13.9738L9.69919 13.9704L9.66314 13.9667L9.62705 13.9625L9.591 13.9581L9.55491 13.9532L9.51886 13.9481L9.48281 13.9426L9.44681 13.9367L9.41081 13.9305L9.37486 13.9239L9.33891 13.917L9.303 13.9097L9.26714 13.902L9.23133 13.894L9.19556 13.8856L9.1598 13.8769L9.12412 13.8678L9.08854 13.8584L9.05297 13.8486L9.01753 13.8385L8.98209 13.828L8.94674 13.8171L8.91149 13.8059L8.87628 13.7944L8.84122 13.7825L8.8062 13.7702L8.77128 13.7576L8.73649 13.7446L8.70175 13.7313L8.66716 13.7176L8.63265 13.7036L8.59829 13.6892L8.56402 13.6745L8.52984 13.6595L8.49585 13.6441L8.46191 13.6283L8.42815 13.6122L8.39454 13.5957L8.36106 13.579L8.32773 13.5618L8.29453 13.5444L8.26148 13.5266L8.22861 13.5084L8.19584 13.4899L8.1633 13.4711L8.1309 13.452L8.09868 13.4325L8.06661 13.4127L8.03473 13.3925L8.00303 13.372L7.97152 13.3512L7.94024 13.3301L7.9091 13.3086L7.87815 13.2868L7.84743 13.2647L7.8169 13.2423L7.78661 13.2196L7.7565 13.1965L7.72662 13.1731L7.69693 13.1494L7.66748 13.1254L7.63826 13.1011L7.60927 13.0765L7.58052 13.0516L7.552 13.0263L7.52371 13.0008L7.49566 12.975L7.46789 12.9488L7.4403 12.9224L7.41305 12.8957L7.38602 12.8687L7.35923 12.8414L7.33273 12.8138L7.3065 12.7859L7.28055 12.7578L7.25484 12.7294L7.22945 12.7007L7.20429 12.6717L7.17942 12.6424L7.15488 12.6129L7.13061 12.5831L7.10663 12.5531L7.08292 12.5227L7.05955 12.4922L7.0365 12.4613L7.01373 12.4302L6.99124 12.3989L6.96908 12.3673L6.94725 12.3355L6.92574 12.3034L6.90456 12.2711L6.88366 12.2385L6.86314 12.2057L6.84289 12.1727L6.82302 12.1395L6.80348 12.106L6.78426 12.0723L6.76538 12.0384L6.74686 12.0042L6.72867 11.9699L6.71081 11.9353L6.69333 11.9006L6.67622 11.8656L6.65943 11.8305L6.64302 11.7951L6.62699 11.7596L6.61128 11.7238L6.59594 11.6879L6.58098 11.6517L6.56639 11.6155L6.55218 11.579L6.53839 11.5423L6.52492 11.5055L6.51183 11.4686L6.49912 11.4314L6.48682 11.3941L6.4749 11.3567L6.46335 11.3191L6.45218 11.2813L6.44142 11.2434L6.43109 11.2053L6.42108 11.1672L6.41155 11.1288L6.40238 11.0904L6.39359 11.0518L6.38522 11.0132L6.37728 10.9743L6.3697 10.9354L6.36255 10.8964L6.35582 10.8572L6.34951 10.818L6.34357 10.7787L6.33805 10.7392L6.333 10.6997L6.32833 10.6601L6.32407 10.6204L6.32024 10.5806L6.31682 10.5407L6.31383 10.5008L6.31126 10.4608L6.30911 10.4208L6.30738 10.3807L6.30607 10.3405L6.30523 10.3003L6.30481 10.2601L6.30476 10.2197L6.30518 10.1794L6.30607 10.139L6.30733 10.0986L6.30906 10.0582L6.31121 10.0177L6.31379 9.97725L6.31678 9.93675L6.32024 9.89625L6.32412 9.85575L6.32842 9.81525L6.33319 9.77475L6.33838 9.73425L6.34399 9.69379L6.35007 9.65334L6.35656 9.61288L6.36353 9.57248L6.37087 9.53207L6.37868 9.4917L6.38695 9.45138L6.39565 9.41111L6.40477 9.37088L6.41431 9.3307L6.42431 9.29061L6.43474 9.25052L6.44563 9.21052L6.45694 9.17061L6.46868 9.13075L6.48083 9.09093L6.49346 9.05125L6.5065 9.01161L6.51997 8.97207L6.5339 8.93266L6.54825 8.89329L6.56303 8.85407L6.57822 8.81493L6.59388 8.77593L6.60997 8.73702L6.62647 8.6982L6.6434 8.65957L6.66074 8.62102L6.67855 8.58261L6.69674 8.54434L6.7154 8.5062L6.73442 8.46825L6.75392 8.43038L6.77379 8.3927L6.79413 8.3552L6.81484 8.31784L6.83602 8.28066L6.85757 8.24361L6.87955 8.20675L6.90194 8.17011L6.92476 8.13361L6.94795 8.09729L6.9716 8.0612L6.99564 8.02525L7.02004 7.98952L7.04487 7.95402L7.07011 7.9187L7.09573 7.88361L7.12178 7.84875L7.14819 7.81407L7.17498 7.77961L7.20219 7.74543L7.22978 7.71143L7.25778 7.6777L7.28616 7.64416L7.31487 7.61093L7.34399 7.57788L7.37349 7.54511L7.40337 7.51261L7.43362 7.48034L7.46424 7.44838L7.49524 7.41666L7.52661 7.3852L7.55831 7.35402L7.59038 7.32311L7.62283 7.29248L7.6556 7.26216L7.68875 7.23211L7.72223 7.20234L7.75603 7.17288L7.79021 7.1437L7.82476 7.11488L7.85959 7.08629L7.89479 7.05807L7.93028 7.03016L7.96614 7.00252L8.00228 6.97525L8.03879 6.94829L8.07559 6.92166L8.11271 6.89534L8.15016 6.86938L8.18789 6.84375L8.22595 6.81843L8.26433 6.79348L8.30295 6.76888L8.34189 6.74466L8.38117 6.72075L8.42067 6.6972L8.46051 6.67402L8.50058 6.6512L8.54097 6.62875L8.5816 6.60666L8.62251 6.58493L8.6637 6.56361L8.70512 6.54266L8.74682 6.52207L8.78876 6.50188L8.83098 6.48207L8.87343 6.46266L8.91612 6.44361L8.95904 6.42498L9.00219 6.40675L9.04562 6.38888L9.08925 6.37143L9.13305 6.35443L9.17714 6.33779L9.22142 6.32157L9.26588 6.30575L9.31058 6.29038L9.35551 6.27538L9.40058 6.26084L9.44588 6.2467L9.49132 6.23298L9.537 6.2197L9.58282 6.20684L9.62882 6.19443L9.67502 6.18243L9.72135 6.17084L9.76787 6.1597L9.81453 6.14902L9.86137 6.13879L9.90832 6.12898L9.95544 6.11961L10.0027 6.1107L10.0264 6.10643ZM10.607 9.40657L10.0681 9.53175L10.0365 6.93652L10.0111 6.94207L9.97283 6.95084L9.93464 6.95998L9.89672 6.96943L9.85885 6.97925L9.82121 6.98943L9.78358 7.00002L9.74632 7.01084L9.70896 7.02211L9.67207 7.03361L9.63509 7.04557L9.59834 7.05784L9.56178 7.07043L9.52536 7.08334L9.48927 7.09657L9.45322 7.1102L9.41736 7.12411L9.38173 7.13834L9.34615 7.15298L9.31104 7.16779L9.27593 7.18307L9.24115 7.19857L9.20641 7.21448L9.172 7.23061L9.13768 7.24711L9.10374 7.26388L9.06994 7.28098L9.03637 7.29838L9.00303 7.31607L8.96988 7.33407L8.93697 7.35239L8.90443 7.37093L8.87184 7.38988L8.83968 7.40902L8.80779 7.42848L8.77609 7.4482L8.74458 7.46825L8.7134 7.48857L8.68245 7.50916L8.65173 7.52998L8.62134 7.55107L8.59109 7.57248L8.56117 7.59416L8.53153 7.61607L8.50212 7.63825L8.47304 7.66061L8.44424 7.68329L8.41562 7.70625L8.38729 7.72948L8.35933 7.75284L8.33161 7.77652L8.30416 7.80038L8.277 7.82452L8.25012 7.84893L8.22356 7.87352L8.19729 7.89829L8.17125 7.92338L8.14558 7.94861L8.12019 7.97411L8.09513 7.99975L8.07026 8.02575L8.04581 8.05179L8.02164 8.07811L7.99774 8.10466L7.97423 8.13129L7.95094 8.15825L7.92808 8.18525L7.90541 8.21261L7.88315 8.24002L7.86113 8.2677L7.83948 8.29557L7.81817 8.32352L7.79713 8.35166L7.77646 8.37998L7.75608 8.40852L7.73602 8.43716L7.71634 8.46602L7.69698 8.49493L7.67795 8.52402L7.6592 8.55334L7.64088 8.5827L7.62278 8.61234L7.60511 8.64193L7.58772 8.67179L7.57065 8.70175L7.55401 8.73179L7.53765 8.76198L7.52166 8.79229L7.50595 8.82279L7.49066 8.85325L7.47565 8.88398L7.46102 8.9147L7.44676 8.94557L7.43278 8.97652L7.41917 9.00761L7.40594 9.0387L7.39304 9.06998L7.38051 9.10129L7.36826 9.1327L7.35643 9.16411L7.34493 9.1957L7.33375 9.22734L7.32295 9.25902L7.31248 9.29075L7.30238 9.32261L7.29261 9.35448L7.28326 9.38634L7.27419 9.41834L7.26545 9.45039L7.25713 9.48243L7.24913 9.51452L7.24146 9.54666L7.23417 9.57884L7.22725 9.61107L7.22066 9.64325L7.21439 9.67548L7.2085 9.70779L7.20299 9.74002L7.1978 9.77229L7.19293 9.80466L7.18845 9.83688L7.18433 9.86925L7.18054 9.90148L7.17708 9.93379L7.174 9.96616L7.17124 9.99838L7.16886 10.0307L7.1668 10.0629L7.16507 10.0951L7.16371 10.1273L7.16268 10.1594L7.16203 10.1916L7.16166 10.2237L7.1617 10.2557L7.16203 10.2877L7.16273 10.3197L7.16376 10.3517L7.16512 10.3835L7.1668 10.4153L7.16886 10.4471L7.17124 10.4787L7.17395 10.5104L7.17699 10.5419L7.18036 10.5735L7.18405 10.6048L7.18807 10.6362L7.19242 10.6674L7.19714 10.6986L7.20214 10.7297L7.20747 10.7607L7.21313 10.7916L7.21912 10.8224L7.22543 10.8531L7.23202 10.8837L7.23899 10.9142L7.24623 10.9446L7.25381 10.9749L7.26166 11.005L7.26989 11.0351L7.27835 11.065L7.28714 11.0948L7.29626 11.1245L7.30566 11.1541L7.31538 11.1835L7.32539 11.2127L7.33572 11.2419L7.34633 11.2709L7.35722 11.2997L7.3684 11.3285L7.3799 11.3571L7.39168 11.3855L7.40374 11.4138L7.41604 11.4419L7.42871 11.4699L7.44161 11.4977L7.4548 11.5253L7.46826 11.5528L7.48196 11.5801L7.49603 11.6073L7.51025 11.6342L7.52479 11.661L7.53961 11.6876L7.55471 11.714L7.57005 11.7403L7.58561 11.7664L7.60146 11.7922L7.61759 11.8179L7.63391 11.8434L7.65051 11.8687L7.66739 11.8938L7.68445 11.9187L7.7018 11.9435L7.71933 11.9679L7.73714 11.9923L7.75519 12.0164L7.77342 12.0402L7.79198 12.064L7.81068 12.0874L7.82962 12.1107L7.84879 12.1337L7.86819 12.1566L7.88773 12.1791L7.9076 12.2015L7.92761 12.2237L7.94781 12.2456L7.96834 12.2673L7.98891 12.2887L8.00976 12.3101L8.0308 12.3311L8.05198 12.3518L8.07344 12.3724L8.09504 12.3927L8.11682 12.4128L8.1388 12.4326L8.16096 12.4522L8.18331 12.4716L8.2058 12.4907L8.22847 12.5095L8.25129 12.5282L8.27429 12.5465L8.29748 12.5647L8.32086 12.5825L8.34428 12.6001L8.36794 12.6175L8.39173 12.6346L8.41567 12.6515L8.43975 12.6681L8.46397 12.6844L8.48833 12.7005L8.51282 12.7163L8.53742 12.7319L8.56215 12.7472L8.58712 12.7623L8.61208 12.777L8.63719 12.7916L8.66248 12.8058L8.68777 12.8198L8.71321 12.8335L8.73888 12.847L8.76454 12.8602L8.79031 12.8731L8.81616 12.8857L8.8422 12.8982L8.8682 12.9102L8.89442 12.9221L8.92065 12.9337L8.94693 12.945L8.97339 12.956L8.9999 12.9668L9.02641 12.9773L9.05306 12.9875L9.07975 12.9974L9.10659 13.0071L9.13333 13.0165L9.16031 13.0257L9.18719 13.0345L9.21417 13.0431L9.24124 13.0514L9.26836 13.0594L9.29547 13.0672L9.32264 13.0747L9.34989 13.0818L9.37715 13.0888L9.40441 13.0954L9.43171 13.1018L9.45902 13.1079L9.48637 13.1137L9.51376 13.1193L9.54116 13.1246L9.56856 13.1297L9.59596 13.1344L9.6234 13.1389L9.65085 13.1431L9.67829 13.147L9.70564 13.1507L9.73308 13.154L9.76048 13.1572L9.78793 13.16L9.81532 13.1626L9.84272 13.1649L9.87007 13.1669L9.89738 13.1687L9.92473 13.1702L9.95198 13.1714L9.97919 13.1724L10.0065 13.1731L10.0336 13.1736L10.0607 13.1737L10.0878 13.1737L10.1149 13.1733L10.1419 13.1727L10.1689 13.1718L10.1958 13.1707L10.2226 13.1693L10.2495 13.1677L10.2761 13.1658L10.3028 13.1637L10.3294 13.1612L10.3559 13.1586L10.3824 13.1557L10.4087 13.1525L10.4351 13.1491L10.4613 13.1454L10.4874 13.1415L10.5135 13.1374L10.5394 13.133L10.5653 13.1283L10.5911 13.1234L10.6168 13.1183L10.6423 13.1129L10.6678 13.1073L10.6932 13.1015L10.7185 13.0954L10.7437 13.0891L10.7687 13.0826L10.7936 13.0758L10.8186 13.0687L10.8432 13.0615L10.8677 13.0541L10.8923 13.0463L10.9166 13.0384L10.9409 13.0303L10.9649 13.022L10.9889 13.0134L11.0128 13.0046L11.0365 12.9956L11.06 12.9863L11.0834 12.9769L11.1067 12.9672L11.1299 12.9574L11.1528 12.9473L11.1757 12.9371L11.1984 12.9266L11.2209 12.9159L11.2433 12.9051L11.2655 12.894L11.2876 12.8827L11.3095 12.8712L11.3313 12.8596L11.3528 12.8478L11.3743 12.8357L11.3955 12.8235L11.4166 12.8111L11.4375 12.7985L11.4582 12.7857L11.4788 12.7728L11.4992 12.7597L11.5194 12.7464L11.5395 12.7329L11.5594 12.7193L11.579 12.7055L11.5985 12.6915L11.6178 12.6774L11.6369 12.6631L11.6559 12.6486L11.6747 12.634L11.6932 12.6192L11.7115 12.6043L11.7297 12.5892L11.7476 12.574L11.7654 12.5587L11.783 12.5431L11.8004 12.5275L11.8175 12.5117L11.8345 12.4957L11.8513 12.4797L11.8679 12.4635L11.8843 12.4472L11.9004 12.4307L11.9164 12.4141L11.9322 12.3973L11.9476 12.3806L11.963 12.3636L11.9781 12.3465L11.993 12.3293L12.0078 12.312L12.0222 12.2946L12.0365 12.2771L12.0505 12.2595L12.0643 12.2417L12.078 12.2239L12.0914 12.206L12.1045 12.1879L12.1175 12.1698L12.1303 12.1517L12.1428 12.1333L12.1551 12.1149L12.1672 12.0965L12.179 12.0779L12.1907 12.0593L12.2021 12.0406L12.2133 12.0218L12.2242 12.0029L12.235 11.984L12.2455 11.965L12.2558 11.946L12.2658 11.9268L12.2757 11.9077L12.2853 11.8884L12.2947 11.8691L12.3039 11.8497L12.3128 11.8303L12.3215 11.8109L12.33 11.7914L12.3383 11.7719L12.3464 11.7522L12.3541 11.7327L12.3617 11.7129L12.369 11.6934L12.3762 11.6736L12.3831 11.6537L12.3897 11.634L12.3962 11.6142L12.4024 11.5944L12.4084 11.5744L12.4141 11.5547L12.4198 11.5347L12.425 11.5149L12.4301 11.4949L12.435 11.4749L12.4396 11.4551L12.444 11.4352L12.4482 11.4152L12.4522 11.3953L12.4559 11.3752L12.4595 11.3554L12.4628 11.3355L12.4659 11.3156L12.4687 11.2956L12.4713 11.2757L12.4738 11.2559L12.476 11.2361L12.4779 11.2162L12.4797 11.1964L12.4812 11.1766L12.4825 11.1568L12.4837 11.1371L12.4846 11.1174L12.4852 11.0978L12.4857 11.0781L12.486 11.0584L12.486 11.0389L12.4858 11.0194L12.4854 10.9999L12.4848 10.9805L12.484 10.961L12.483 10.9419L12.4818 10.9223L12.4804 10.9033L12.4788 10.8842L12.4769 10.8649L12.4749 10.8458L12.4727 10.827L12.4702 10.8078L12.4676 10.7891L12.4647 10.7702L12.4617 10.7517L12.4585 10.7329L12.4551 10.7142L12.4515 10.6958L12.4477 10.6774L12.4437 10.6589L12.4394 10.6407L12.4351 10.6225L12.4305 10.6044L12.4258 10.5864L12.4208 10.5683L12.4157 10.5506L12.4104 10.5327L12.4049 10.5151L12.3993 10.4975L12.3934 10.4801L12.3874 10.4627L12.3812 10.4453L12.3749 10.4282L12.3683 10.4112L12.3616 10.3941L12.3547 10.3772L12.3477 10.3603L12.3405 10.3438L12.3331 10.3272L12.3256 10.3107L12.3179 10.2945L12.31 10.2782L12.302 10.2621L12.2939 10.2461L12.2855 10.2302L12.2771 10.2145L12.2684 10.1988L12.2597 10.1833L12.2507 10.1679L12.2416 10.1527L12.2325 10.1375L12.2231 10.1225L12.2136 10.1076L12.2039 10.0929L12.1942 10.0782L12.1843 10.0637L12.1742 10.0493L12.1641 10.0352L12.1537 10.021L12.1433 10.0071L12.1327 9.99325L12.122 9.97957L12.1113 9.96602L12.1003 9.95257L12.0893 9.93934L12.0781 9.9262L12.0668 9.9132L12.0554 9.90034L12.044 9.88766L12.0323 9.87511L12.0206 9.8627L12.0088 9.85038L11.9968 9.83829L11.9848 9.82634L11.9726 9.81448L11.9604 9.80284L11.9481 9.79134L11.9357 9.77998L11.9231 9.7687L11.9105 9.75766L11.8978 9.7467L11.885 9.73598L11.8721 9.72534L11.8592 9.71493L11.8461 9.70461L11.8331 9.69448L11.8199 9.68448L11.8066 9.67461L11.7933 9.66498L11.7798 9.65543L11.7663 9.64607L11.7528 9.63688L11.7392 9.62779L11.7256 9.61893L11.7118 9.6102L11.698 9.60161L11.6842 9.5932L11.6702 9.58493L11.6563 9.57684L11.6423 9.56893L11.6282 9.56116L11.6141 9.55352L11.5999 9.54607L11.5858 9.53875L11.5715 9.53161L11.5573 9.52466L11.5429 9.51779L11.5286 9.51116L11.5142 9.5047L11.4998 9.49834L11.4853 9.49216L11.4708 9.48611L11.4564 9.48029L11.4418 9.47461L11.4272 9.46907L11.4127 9.4637L11.3981 9.45848L11.3835 9.45343L11.3689 9.44852L11.3543 9.44375L11.3397 9.4392L11.325 9.43475L11.3103 9.43048L11.2957 9.42638L11.2809 9.42243L11.2664 9.41866L11.2517 9.41502L11.237 9.41152L11.2223 9.4082L11.2077 9.40502L11.193 9.40202L11.1784 9.39916L11.1638 9.39643L11.1492 9.39388L11.1345 9.39148L11.12 9.38925L11.1053 9.38716L11.0909 9.3852L11.0763 9.38338L11.0618 9.38175L11.0474 9.38025L11.0329 9.37893L11.0185 9.3777L11.0041 9.37666L10.9898 9.37575L10.9754 9.37498L10.9611 9.37438L10.9469 9.37393L10.9327 9.37357L10.9185 9.37338L10.9043 9.37334L10.8903 9.37348L10.8762 9.3737L10.8622 9.37407L10.8482 9.37461L10.8344 9.37525L10.8205 9.37607L10.8067 9.37698L10.793 9.37802L10.7793 9.37925L10.7657 9.38057L10.752 9.38202L10.7386 9.38361L10.7251 9.38534L10.7117 9.3872L10.6984 9.3892L10.6851 9.39129L10.6719 9.39352L10.6588 9.39588L10.6457 9.39839L10.6328 9.40098L10.6198 9.4037L10.607 9.40657Z" fill="#43505C"/>
</g>
<defs>
<clipPath id="clip0_3524_14663">
<rect width="72" height="20" fill="white"/>
</clipPath>
</defs>
</svg>
