<svg width="43" height="27" viewBox="0 0 43 27" fill="none" xmlns="http://www.w3.org/2000/svg">
<rect x="2.30726" width="40" height="22" rx="2" transform="rotate(6.02 2.30726 0)" fill="#F99C25"/>
<path d="M11.3193 15.9627L12.1196 8.37377L9.48223 8.09564L9.63629 6.63474L16.721 7.38187L16.5669 8.84277L13.9296 8.56464L13.1293 16.1536L11.3193 15.9627ZM20.858 17.1255C19.9788 17.0328 19.2284 16.7532 18.6065 16.2867C17.9847 15.8203 17.5209 15.218 17.2153 14.4799C16.9106 13.7331 16.8069 12.8986 16.9042 11.9764C17.0014 11.0542 17.2765 10.264 17.7293 9.60588C18.1831 8.93913 18.7627 8.44251 19.4682 8.11603C20.1736 7.78955 20.9659 7.67266 21.8451 7.76537C22.7242 7.85808 23.4747 8.13767 24.0965 8.60412C24.727 9.07148 25.1902 9.67808 25.4863 10.4239C25.7919 11.162 25.8961 11.9922 25.7988 12.9144C25.7016 13.8366 25.4261 14.6311 24.9723 15.2979C24.5281 15.9569 23.9489 16.4492 23.2348 16.7748C22.5294 17.1013 21.7371 17.2182 20.858 17.1255ZM21.0298 15.4965C21.5641 15.5529 22.0384 15.4765 22.4526 15.2675C22.8668 15.0584 23.201 14.7407 23.4551 14.3143C23.7188 13.8803 23.8838 13.3486 23.9501 12.7195C24.0165 12.0903 23.9655 11.5402 23.7973 11.0693C23.6386 10.5907 23.3786 10.206 23.0171 9.91514C22.6556 9.62429 22.2076 9.45069 21.6733 9.39434C21.1475 9.3389 20.6732 9.41524 20.2504 9.62338C19.8362 9.83242 19.4973 10.154 19.2336 10.5881C18.9795 11.0144 18.8193 11.5422 18.7529 12.1714C18.6866 12.8006 18.7327 13.3545 18.8914 13.8331C19.0596 14.304 19.3245 14.6849 19.686 14.9757C20.0561 15.2675 20.504 15.4411 21.0298 15.4965ZM26.812 17.5965L27.7663 8.54668L31.1923 8.90797C31.9335 8.98614 32.5323 9.17565 32.9886 9.4765C33.4449 9.77734 33.7667 10.1555 33.954 10.611C34.1498 11.0674 34.2191 11.5671 34.1619 12.1101C34.1092 12.61 33.9437 13.0631 33.6656 13.4695C33.396 13.8768 33.0058 14.1886 32.495 14.4049C31.9842 14.6212 31.3495 14.6893 30.5911 14.6094L28.975 14.4389L28.6219 17.7874L26.812 17.5965ZM29.1291 12.978L30.6288 13.1362C31.1804 13.1944 31.59 13.1112 31.8577 12.8867C32.1254 12.6622 32.2815 12.3388 32.3261 11.9165C32.3715 11.4855 32.2863 11.1367 32.0704 10.8699C31.8554 10.5945 31.4722 10.4277 30.9205 10.3695L29.4209 10.2114L29.1291 12.978Z" fill="#1A1A1A"/>
</svg>
