<svg width="80" height="80" viewBox="0 0 80 80" fill="none" xmlns="http://www.w3.org/2000/svg">
<path d="M79.9893 8.28758C79.9977 6.67354 79.4027 5.11468 78.321 3.91664C77.3207 3.33884 76.2137 2.96997 75.0667 2.83233C73.9197 2.69469 72.7567 2.79115 71.648 3.11587C67.5767 4.01391 63.556 5.12768 59.603 6.45244C57.5677 7.05304 55.5657 7.75371 53.597 8.52114C50.661 9.62221 47.7913 10.8901 44.8887 12.158C39.547 14.4906 34.3347 17.108 29.2734 19.999C24.1953 22.8574 19.4119 26.2102 14.9928 30.0087L3.54837 40.2519L0.912453 42.8879C0.587273 43.2289 0.306961 43.6102 0.0783089 44.0222C-0.026103 44.3135 -0.026103 44.6319 0.0783089 44.9232C0.146675 45.2895 0.304203 45.6332 0.536973 45.9242C0.769743 46.2152 1.07059 46.4445 1.41294 46.5915C2.70206 47.0315 4.05467 47.2569 5.41683 47.2589C6.88493 47.2589 9.48747 47.2589 11.723 47.5925C12.8536 47.5585 13.9817 47.7165 15.0596 48.0595L15.6935 55.5002C15.8937 57.6356 15.9938 59.3039 15.9938 60.8722C15.9938 63.3745 15.6601 67.7122 15.6601 71.1152C15.6601 71.4162 15.7797 71.7049 15.9924 71.9175C16.2052 72.1302 16.4937 72.2499 16.7946 72.2499C17.0954 72.2499 17.384 72.1302 17.5967 71.9175C17.8095 71.7049 17.929 71.4162 17.929 71.1152C17.929 67.7789 18.3628 63.3745 18.3961 60.8722C18.3961 59.2372 18.3961 57.5355 18.1626 55.2999C17.929 53.0645 17.929 50.2619 17.6621 48.6269C17.3952 46.9919 17.3618 46.0909 13.1911 45.2902C10.722 44.9899 7.3187 44.8232 5.48357 44.7229L3.64843 44.4562L5.58367 42.5542L17.0949 32.5445C21.3558 28.8449 25.9844 25.5915 30.9083 22.835C35.8857 20.1503 40.9973 17.7226 46.2233 15.5613C49.0593 14.3601 51.9287 13.1923 54.7983 12.2247C60.9033 9.96401 67.2023 8.26641 73.6167 7.15314C76.6193 8.45441 76.1857 9.58884 76.119 10.4897C75.9947 12.174 75.6927 13.8404 75.218 15.4612L70.914 30.0087C70.0463 32.9115 69.1123 35.6142 68.1447 38.2502C65.7757 44.6229 63.173 50.5955 60.7707 57.5022C60.208 59.0695 59.539 60.5969 58.7687 62.0732C57.5343 64.4089 56.133 66.6442 54.8317 68.7466C54.4647 69.4262 54.0403 70.0735 53.5637 70.6815L53.23 71.0819L53.03 70.7819L49.6933 65.5432C48.048 63.2862 46.2883 61.1145 44.4213 59.0369C42.549 56.9415 40.555 54.9585 38.449 53.0979C37.0143 51.8965 32.977 48.5602 31.7758 50.9625C31.4422 51.3962 31.0751 52.2302 30.8749 52.4639L26.9711 58.1362L23.034 65.1095C21.6326 67.5452 19.9643 69.8475 18.4629 72.2832C17.8289 73.3509 17.195 74.4519 16.6611 75.6199C16.5464 75.8589 16.5311 76.1335 16.6187 76.3835C16.7063 76.6339 16.8895 76.8392 17.1282 76.9545C17.1282 76.9545 18.0625 77.7219 19.4305 76.6875C20.7985 75.6532 21.1989 75.3862 21.9663 74.7855C22.7337 74.1849 24.5021 72.9506 25.7366 72.0829C26.9711 71.2156 27.9721 70.5816 29.0732 69.8142L34.1447 66.2772C36.814 64.3755 39.3833 62.4069 41.8857 60.3049L42.453 60.9389C44.2547 63.0409 45.9563 65.2429 47.4243 67.3115L50.4273 72.4499C50.733 73.0189 51.0787 73.5652 51.4617 74.0849C51.6527 74.2872 51.887 74.4432 52.147 74.5415C52.4073 74.6395 52.6863 74.6776 52.963 74.6522C53.7537 74.5222 54.493 74.1755 55.0987 73.6512C56.047 72.7315 56.8663 71.6879 57.5343 70.5482C58.9023 68.4462 60.4037 66.1439 61.705 63.8749C62.6013 62.2805 63.371 60.6182 64.0073 58.9035C66.4763 52.0302 69.2123 46.1245 71.6147 39.8182C72.6823 37.0822 73.65 34.3129 74.5507 31.3433L78.8883 16.6624C79.6977 13.9469 80.0693 11.1199 79.9893 8.28758ZM30.3411 64.2755C29.1891 65.0195 28.0755 65.8212 27.0045 66.6779C25.8701 67.5786 24.8024 68.5129 23.6679 69.5139L21.1655 72.0829C22.4668 70.1145 23.8348 68.2125 25.0359 66.2105L29.1733 59.5375L33.0104 54.0322C33.1772 53.8319 33.6777 52.9979 33.878 52.6642C34.078 52.3305 34.5453 53.0979 34.9123 53.3649C35.2793 53.6315 36.4137 54.7329 36.8473 55.0999C37.982 56.1342 39.1163 57.3019 40.184 58.4362C37.0143 60.5385 33.5777 62.2402 30.3411 64.2755Z" fill="#1E274F"/>
<path d="M45.6226 32.2445C43.8543 34.1799 42.2859 36.2152 40.5509 38.3172C38.8159 40.4192 36.8139 43.1219 35.1123 45.6575C34.7453 46.1915 34.4116 46.7585 34.0779 47.2925C33.2104 49.9285 34.4449 49.5279 36.7473 47.5595L37.0476 47.0922C38.9159 44.7232 41.0179 42.4879 42.9866 40.4192C46.1563 36.7822 49.6599 33.4455 52.9963 30.1425L60.4036 23.169C64.0406 19.8324 67.6773 16.2957 71.2476 12.7922C76.6526 3.31637 61.9383 16.6627 53.9973 23.9031C51.0946 26.6724 48.2919 29.3083 45.6226 32.2445Z" fill="#1E274F"/>
<path d="M44.2881 22.0345C39.6501 25.1709 35.1791 28.5075 30.7082 32.0443L20.1646 40.6194C19.4973 41.2197 18.7299 41.8537 17.9625 42.4877C16.3609 44.4897 16.5945 45.2237 20.2313 43.6221C20.7652 43.2551 21.299 42.8881 21.7328 42.5211L32.7435 34.6467L60.1701 15.7284C62.8727 13.8933 65.4754 12.0581 68.1781 10.2897C68.8121 8.05425 64.0741 9.62245 60.1701 11.9247L58.4017 12.9924C53.6637 15.9619 48.8924 18.8648 44.2881 22.0345Z" fill="#1E274F"/>
</svg>
